<svg width="25" height="24" viewBox="0 0 25 24" fill="none" xmlns="http://www.w3.org/2000/svg">
<path d="M8.99268 22.4896V17.0774C8.99268 16.6678 9.32594 16.3372 9.73568 16.3372H14.3928C14.804 16.3372 15.1358 16.6692 15.1358 17.0774V22.4896H12.0628V16.3372" stroke="black" stroke-width="0.75" stroke-miterlimit="10"/>
<path d="M3.76116 1.68146H20.5416C20.8806 1.68146 21.1562 1.95595 21.1562 2.29367V3.12289H22.7086C23.1169 3.12289 23.4487 3.45343 23.4487 3.86014V6.7114C23.4487 7.1181 23.1169 7.44864 22.7086 7.44864H1.6764C1.26811 7.44864 0.936279 7.1181 0.936279 6.7114V3.86014C0.936279 3.45343 1.26811 3.12289 1.6764 3.12289H3.14799V2.29367C3.14799 1.95595 3.42356 1.68146 3.7626 1.68146H3.76116Z" stroke="black" stroke-width="0.75" stroke-miterlimit="10"/>
<path d="M22.7103 10.159H1.6723C1.26514 10.159 0.935059 10.4878 0.935059 10.8934V13.7432C0.935059 14.1488 1.26514 14.4776 1.6723 14.4776H22.7103C23.1174 14.4776 23.4475 14.1488 23.4475 13.7432V10.8934C23.4475 10.4878 23.1174 10.159 22.7103 10.159Z" stroke="black" stroke-width="0.75" stroke-miterlimit="10"/>
<path d="M3.14526 3.12286H21.1564H18.4325V7.44717H13.9586L13.9672 3.12286H10.18V7.44717H5.73065L5.69891 3.12286" stroke="black" stroke-width="0.75" stroke-miterlimit="10"/>
<path d="M3.31836 7.4472V10.1591" stroke="black" stroke-width="0.75" stroke-miterlimit="10"/>
<path d="M20.8491 7.4472V10.1591" stroke="black" stroke-width="0.75" stroke-miterlimit="10"/>
<path d="M5.78687 10.159V14.4776" stroke="black" stroke-width="0.75" stroke-miterlimit="10"/>
<path d="M10.2061 10.159V14.4776" stroke="black" stroke-width="0.75" stroke-miterlimit="10"/>
<path d="M14.0293 10.159V14.4776" stroke="black" stroke-width="0.75" stroke-miterlimit="10"/>
<path d="M18.366 10.159V14.4776" stroke="black" stroke-width="0.75" stroke-miterlimit="10"/>
<path d="M3.31836 14.4776V22.4896H21.1563V14.4776" stroke="black" stroke-width="0.75" stroke-miterlimit="10"/>
<path d="M0.935059 22.4896H23.6451" stroke="black" stroke-width="0.75" stroke-linecap="round" stroke-linejoin="round"/>
</svg>
