<svg width="302" height="480" viewBox="0 0 302 480" fill="none" xmlns="http://www.w3.org/2000/svg">
<g clip-path="url(#clip0_1440_491)">
<path d="M32.3105 25.6397C67.1205 54.7697 89.5806 69.9297 134.271 49.1097C156.641 39.0597 178.211 20.7197 198.021 9.68966C208.051 4.14966 219.161 -0.480342 230.681 0.349658C256.281 2.51966 271.551 26.6197 285.561 46.1097" stroke="black" stroke-width="0.5" stroke-miterlimit="10"/>
<path d="M301.281 81.21C282.561 110.99 232.651 119.09 197.371 112.14C180.111 109.42 165.361 104.63 149.341 99.32C124.881 91.67 75.5107 79.2 56.0007 99.24C49.7907 105.49 46.7507 113.93 43.7207 122.17" stroke="black" stroke-width="0.5" stroke-miterlimit="10"/>
<path d="M181.429 358.231C163.809 374.531 133.159 375.661 108.829 368.061C98.1791 364.891 89.0691 360.531 80.1791 355.171C67.6791 347.741 58.3091 340.181 45.6691 334.941C30.9191 328.981 5.40908 325.011 0.839077 345.941C-1.64092 359.361 4.06908 373.191 9.03908 386.801" stroke="black" stroke-width="0.5" stroke-miterlimit="10"/>
<path d="M32.2793 435.85C48.6993 455.62 75.7893 484.45 106.329 477.97C115.029 475.51 121.109 471.34 130.009 467.88C150.129 459.59 181.629 449.58 202.679 461.51C209.489 465.32 214.899 471.05 220.209 476.74" stroke="black" stroke-width="0.5" stroke-miterlimit="10"/>
</g>
<defs>
<clipPath id="clip0_1440_491">
<rect width="301.49" height="479.15" fill="white"/>
</clipPath>
</defs>
</svg>
