<svg width="64" height="64" viewBox="0 0 64 64" fill="none" xmlns="http://www.w3.org/2000/svg">
<circle cx="31.5978" cy="32.1957" r="31.0978" stroke="black"/>
<path d="M27.5605 30.5892C27.4183 30.575 27.2477 30.575 27.0913 30.5892C23.7072 30.4754 21.0198 27.7027 21.0198 24.2902C21.0198 20.8065 23.8351 17.9769 27.333 17.9769C30.8167 17.9769 33.6463 20.8065 33.6463 24.2902C33.632 27.7027 30.9447 30.4754 27.5605 30.5892Z" stroke="#292D32" stroke-width="1.5" stroke-linecap="round" stroke-linejoin="round"/>
<path d="M37.8687 20.8207C40.6272 20.8207 42.8453 23.0531 42.8453 25.7973C42.8453 28.4847 40.7125 30.6745 38.0535 30.774C37.9398 30.7598 37.8118 30.7598 37.6838 30.774" stroke="#292D32" stroke-width="1.5" stroke-linecap="round" stroke-linejoin="round"/>
<path d="M20.4501 35.8357C17.0091 38.1392 17.0091 41.893 20.4501 44.1823C24.3604 46.7986 30.7731 46.7986 34.6834 44.1823C38.1244 41.8788 38.1244 38.125 34.6834 35.8357C30.7874 33.2336 24.3746 33.2336 20.4501 35.8357Z" stroke="#292D32" stroke-width="1.5" stroke-linecap="round" stroke-linejoin="round"/>
<path d="M40.6135 43.5708C41.6373 43.3576 42.6042 42.9452 43.4005 42.3338C45.6186 40.6702 45.6186 37.9259 43.4005 36.2623C42.6184 35.6651 41.6657 35.2669 40.6562 35.0394" stroke="#292D32" stroke-width="1.5" stroke-linecap="round" stroke-linejoin="round"/>
</svg>
