<svg width="64" height="64" viewBox="0 0 64 64" fill="none" xmlns="http://www.w3.org/2000/svg">
<circle cx="31.5978" cy="31.7935" r="31.0978" stroke="black"/>
<path d="M23.0667 17.5748H40.1295C41.6936 17.5748 42.9733 18.8545 42.9733 20.4186V26.5613H20.2229V20.4186C20.2229 18.8545 21.5026 17.5748 23.0667 17.5748Z" stroke="#292D32" stroke-width="1.5" stroke-linecap="round" stroke-linejoin="round"/>
<path d="M20.2229 26.5613V31.6232C20.2229 33.1589 21.0476 34.5808 22.3985 35.3344L26.6072 37.7089C27.503 38.2066 28.0576 39.1594 28.0576 40.1831V43.1691C28.0576 44.7332 29.3373 46.0129 30.9014 46.0129H32.3233C33.8874 46.0129 35.1671 44.7332 35.1671 43.1691V40.1831C35.1671 39.1594 35.7217 38.2066 36.6175 37.7089L40.8262 35.3344C42.1628 34.5808 43.0018 33.1589 43.0018 31.6232V26.5613H20.2229Z" stroke="#292D32" stroke-width="1.5" stroke-linecap="round" stroke-linejoin="round"/>
</svg>
