<svg width="53" height="53" viewBox="0 0 53 53" fill="none" xmlns="http://www.w3.org/2000/svg">
<rect width="53" height="53" rx="26.5" fill="black"/>
<path d="M12.0617 23.3659L5.54173 21.6189L6.11941 19.463L12.6394 21.21L12.0617 23.3659ZM21.7593 25.8339L23.0633 26.1833L22.467 28.4088L21.163 28.0594L20.6086 30.1284L18.1918 29.4809L18.7462 27.4119L12.9912 25.8698L13.5876 23.6443L19.7491 16.8537L22.3223 17.5432L16.1782 24.3385L19.3425 25.1864L20.1159 22.3002L22.5326 22.9478L21.7593 25.8339ZM27.5689 32.2544C26.0505 31.8475 25.0103 30.9538 24.4485 29.5734C23.9044 28.1728 23.8871 26.5221 24.3964 24.6212C24.9058 22.7202 25.7446 21.3051 26.913 20.3758C28.0929 19.4497 29.4421 19.19 30.9605 19.5969C32.5021 20.0099 33.5407 20.9094 34.0763 22.2952C34.6234 23.6842 34.6423 25.3291 34.133 27.2301C33.6236 29.131 32.7832 30.5519 31.6118 31.4928C30.4582 32.4136 29.1105 32.6674 27.5689 32.2544ZM31.751 26.5918C32.0989 25.2936 32.15 24.2451 31.9043 23.4463C31.6703 22.6506 31.1476 22.1441 30.3362 21.9267C29.5248 21.7093 28.8189 21.8866 28.2184 22.4587C27.6178 23.0307 27.1437 23.9659 26.7958 25.2641C26.4479 26.5623 26.391 27.6092 26.6251 28.4049C26.8622 29.189 27.3865 29.6898 28.1979 29.9072C29.0092 30.1246 29.7152 29.9472 30.3157 29.3752C30.9278 28.8062 31.4063 27.8784 31.751 26.5918ZM40.5844 27.4493C39.8705 27.8419 39.102 27.9279 38.279 27.7074C37.4445 27.4838 36.8177 27.0177 36.3989 26.3091C35.9916 25.6037 35.8951 24.8511 36.1094 24.0513C36.3237 23.2515 36.7836 22.6479 37.489 22.2407C38.2176 21.8396 38.9934 21.7493 39.8164 21.9698C40.651 22.1934 41.2719 22.658 41.6792 23.3634C42.0927 24.0457 42.1892 24.7983 41.9687 25.6213C41.7513 26.4327 41.2898 27.042 40.5844 27.4493ZM36.1601 32.9724L35.28 32.0843L45.5703 25.3937L46.4725 26.269L36.1601 32.9724ZM38.0336 25.4241C38.1864 25.6886 38.4192 25.8628 38.7322 25.9467C39.0451 26.0305 39.3339 25.9961 39.5984 25.8434C39.8661 25.679 40.0418 25.4404 40.1257 25.1274C40.2096 24.8145 40.1751 24.5257 40.0224 24.2612C39.8696 23.9966 39.6368 23.8224 39.3238 23.7386C39.0109 23.6547 38.7221 23.6892 38.4576 23.8419C38.2046 23.9977 38.0362 24.2321 37.9524 24.5451C37.8685 24.8581 37.8956 25.1511 38.0336 25.4241ZM46.0005 34.081C45.7862 34.8808 45.3263 35.4844 44.6209 35.8917C43.9154 36.299 43.1454 36.3908 42.3109 36.1672C41.4763 35.9436 40.8554 35.479 40.4481 34.7736C40.0408 34.0681 39.9443 33.3155 40.1586 32.5157C40.3729 31.7159 40.8328 31.1124 41.5382 30.7051C42.2437 30.2978 43.0137 30.206 43.8482 30.4296C44.6828 30.6532 45.3037 31.1177 45.711 31.8232C46.1183 32.5286 46.2148 33.2813 46.0005 34.081ZM43.6303 34.3031C43.8979 34.1388 44.0737 33.9002 44.1575 33.5872C44.2414 33.2743 44.2069 32.9855 44.0542 32.721C43.9162 32.4479 43.6907 32.2695 43.3777 32.1856C43.0648 32.1018 42.7744 32.142 42.5068 32.3063C42.2538 32.4622 42.0854 32.6966 42.0016 33.0095C41.9177 33.3225 41.9448 33.6155 42.0829 33.8885C42.2356 34.1531 42.4684 34.3273 42.7814 34.4111C43.0944 34.495 43.3773 34.459 43.6303 34.3031Z" fill="white"/>
</svg>
