<svg width="134" height="24" viewBox="0 0 134 24" fill="none" xmlns="http://www.w3.org/2000/svg">
<g clip-path="url(#clip0_1418_785)">
<path d="M122.696 23.28H129.928L116.103 11.28L115.83 12.78L133.817 0.51H126.829L113.307 12.99L122.696 23.28ZM93.3442 23.28H100.059L115.708 8.85L107.2 0.54H100.211L112.882 10.38V8.97L93.3442 23.28ZM84.3805 23.79C88.0875 23.79 91.6426 21.39 92.4934 17.01H92.5846V23.28H96.2004V6.72H92.5846V12.72H92.4934C91.673 8.28 88.1179 6.21 84.4717 6.21C79.7315 6.21 75.9941 9.72 75.9941 14.91C75.9941 20.07 79.7315 23.79 84.3805 23.79ZM85.444 19.95C81.737 19.95 79.458 17.73 79.458 14.91C79.458 12.09 81.737 10.11 85.444 10.11C89.546 10.11 92.463 12.48 92.463 14.85C92.463 17.25 89.5765 19.95 85.444 19.95ZM61.8952 23.28H65.5111V15.27C65.5111 12.42 69.5524 9.27 74.8395 10.44V6.21C69.2486 5.88 66.5442 9.75 65.6327 13.32H65.5415V6.72H61.9257V23.28H61.8952ZM48.2825 19.89C44.1805 19.89 41.9016 17.7 41.9016 14.88C41.9016 12.06 44.1805 10.11 48.2825 10.11C52.3542 10.11 54.7243 12.06 54.7243 14.88C54.7243 17.73 52.3542 19.89 48.2825 19.89ZM48.2825 23.79C54.0558 23.79 58.1882 20.01 58.1882 14.88C58.1882 9.69 54.0253 6.21 48.2825 6.21C42.5093 6.21 38.4376 9.69 38.4376 14.88C38.4376 20.04 42.5093 23.79 48.2825 23.79ZM31.1147 23.31H34.7306V0.51H31.1147V23.31ZM14.2508 23.79C19.8113 23.79 23.7918 21.75 26.1923 20.04V11.16H14.19V15.39H25.8277V15.66C24.6122 17.16 20.7533 19.44 14.7978 19.44C8.75102 19.41 3.95012 17.07 3.95012 12.03C3.95012 6.84 9.08526 4.38 14.2508 4.38C19.4163 4.38 22.0599 6.81 22.9715 9.6L26.8608 8.34C25.3111 2.76 20.1152 0 14.19 0C7.44444 0 0 3.66 0 12C0 19.59 6.32018 23.79 14.2508 23.79Z" fill="#222222"/>
</g>
<defs>
<clipPath id="clip0_1418_785">
<rect width="134" height="24" fill="white"/>
</clipPath>
</defs>
</svg>
