<svg width="123" height="34" viewBox="0 0 123 34" fill="none" xmlns="http://www.w3.org/2000/svg">
<path d="M97.4117 9.94462L101.958 6.60791H86.7383V26.5954H101.958V23.2587H91.0867V18.1555H100.377V14.8188H91.0867V9.94462H97.4117Z" fill="#222222"/>
<path d="M75.2403 14.3936H69.9695V9.94462H78.4028L82.9489 6.60791H65.6211V26.5954H74.6803C79.7535 26.5954 82.6854 24.3055 82.6854 20.3146C82.6854 16.4872 80.0499 14.3936 75.2403 14.3936ZM74.5156 23.2587H69.9695V17.7303H74.5156C77.2828 17.7303 78.5675 18.6462 78.5675 20.5109C78.5675 22.3755 77.1839 23.2587 74.5156 23.2587Z" fill="#222222"/>
<path d="M114.278 6.60791H106.01V26.5954H110.358V20.9361H114.311C119.582 20.9361 122.876 18.1882 122.876 13.772C122.876 9.35579 119.582 6.60791 114.278 6.60791ZM114.18 17.5994H110.325V9.94462H114.18C116.98 9.94462 118.495 11.3186 118.495 13.772C118.495 16.2255 116.98 17.5994 114.18 17.5994Z" fill="#222222"/>
<path d="M58.1781 22.2776C57.0251 22.8991 55.7403 23.2262 54.4226 23.2262C50.5025 23.2262 47.6694 20.4457 47.6694 16.6183C47.6694 12.7909 50.5025 10.0103 54.4226 10.0103C55.8392 9.97756 57.2228 10.4355 58.3757 11.2534L61.5053 8.96346L61.3076 8.76718C59.4958 7.16426 57.058 6.34644 54.2909 6.34644C51.2931 6.34644 48.5589 7.36053 46.5823 9.19245C44.6057 11.0898 43.4857 13.7395 43.5516 16.4874C43.5186 19.268 44.6057 21.9504 46.5823 23.9132C48.6577 25.8433 51.4249 26.9228 54.2579 26.8574C57.3875 26.8574 60.1217 25.7778 61.9665 23.8151L59.1664 21.7542L58.1781 22.2776Z" fill="#222222"/>
<path d="M29.9446 6.47729C30.7352 7.49139 31.3941 8.60363 31.9541 9.78129L16.7346 20.9364L10.3438 16.9454V12.1693L16.7017 16.1276L29.9446 6.47729Z" fill="#222222"/>
<path d="M3.85428 16.6181C3.85428 16.3891 3.85428 16.1928 3.88722 15.9639L0.0329426 15.7676C0.0329426 16.0293 0 16.3237 0 16.5854C0 21.1652 1.87773 25.3197 4.90844 28.3293L7.64268 25.6141C5.30376 23.3242 3.85428 20.1511 3.85428 16.6181Z" fill="#222222"/>
<path d="M16.7016 3.86011C16.9322 3.86011 17.1299 3.86011 17.3605 3.89283L17.5582 0.0654277C17.2946 0.0654277 16.9981 0.0327148 16.7346 0.0327148C12.1226 0.0327148 7.93892 1.89734 4.9082 4.90692L7.64244 7.62209C9.94842 5.29948 13.1768 3.86011 16.7016 3.86011Z" fill="#222222"/>
<path d="M16.7022 29.376C16.4716 29.376 16.274 29.376 16.0434 29.3433L15.8457 33.1707C16.1092 33.1707 16.4057 33.2034 16.6693 33.2034C21.2812 33.2034 25.4649 31.3388 28.4957 28.3292L25.7614 25.614C23.4554 27.9693 20.26 29.376 16.7022 29.376Z" fill="#222222"/>
<path d="M23.9485 6.08464L27.2099 3.69661C24.3439 1.40671 20.6872 6.10352e-05 16.7012 6.10352e-05V3.82746C19.4025 3.86017 21.9061 4.67799 23.9485 6.08464Z" fill="#222222"/>
<path d="M33.4359 16.6182C33.4359 15.6041 33.3371 14.6227 33.1724 13.6414L29.5816 16.2911C29.5816 16.3892 29.5816 16.5201 29.5816 16.6182C29.5816 20.3802 27.9345 23.7496 25.332 26.0722L27.9345 28.9182C31.2946 25.9087 33.4359 21.4924 33.4359 16.6182Z" fill="#222222"/>
<path d="M16.7009 29.3762C12.9125 29.3762 9.51938 27.7406 7.18046 25.1562L4.31445 27.7406C7.37811 31.11 11.7924 33.2036 16.7009 33.2036V29.3762Z" fill="#222222"/>
<path d="M8.10388 7.16413L5.50141 4.31812C2.10833 7.36041 0 11.7439 0 16.6181H3.85428C3.85428 12.8889 5.50141 9.48674 8.10388 7.16413Z" fill="#222222"/>
</svg>
