<svg width="225" height="34" viewBox="0 0 225 34" fill="none" xmlns="http://www.w3.org/2000/svg">
<path d="M224.687 22.852C224.463 22.852 224.233 22.8458 224.008 22.8458H221.176C221.093 22.8458 221.005 22.8458 220.922 22.8395C220.875 22.8395 220.834 22.802 220.828 22.7458C220.822 22.6645 220.822 22.5833 220.822 22.5083V19.0589C220.822 18.9776 220.822 18.8964 220.816 18.8214C220.816 18.7589 220.769 18.7089 220.71 18.7089H220.704C220.639 18.7027 220.574 18.7027 220.503 18.7027H217.7C217.387 18.7027 217.387 18.7027 217.387 19.0276V22.5333C217.387 22.8458 217.393 22.8395 217.086 22.8395H213.776C213.445 22.8395 213.463 22.8583 213.463 22.5208V11.3414C213.463 11.0352 213.463 11.0352 213.735 11.0352H217.134C217.381 11.0352 217.387 11.0352 217.387 11.3039V14.7533C217.387 15.1408 217.364 15.1095 217.724 15.1095H220.497C220.574 15.1095 220.651 15.1095 220.721 15.1033C220.769 15.1033 220.81 15.0595 220.81 15.0033C220.816 14.9221 220.816 14.8408 220.816 14.7658V11.3789C220.816 11.0227 220.804 11.0352 221.14 11.0352L224.681 11.0415L224.687 22.852Z" fill="#222222"/>
<path d="M45.2104 30.9383C45.1455 30.932 45.0806 30.9258 45.0156 30.9258H27.1825C26.9937 30.9258 26.8048 30.932 26.616 30.9383C25.9138 30.8695 25.241 30.6946 24.6273 30.3259C23.2642 29.5198 22.4321 28.3075 22.143 26.6765C22.1193 26.5577 22.1075 26.439 22.0898 26.3203V6.21735C22.2846 4.16769 23.6182 2.43673 25.4771 1.82433C25.8429 1.7056 26.2265 1.63061 26.6101 1.59937C26.6691 1.60561 26.7222 1.61186 26.7812 1.61186H44.7737C44.9448 1.61186 45.1101 1.60561 45.2812 1.60561C46.8509 1.76184 48.096 2.51796 48.9812 3.89899C49.4002 4.55513 49.6657 5.31125 49.7483 6.09862C49.7719 6.32358 49.7896 6.5548 49.7896 6.78601V25.7641C49.7896 26.9889 49.4356 28.0887 48.7097 29.0323C47.9131 30.0634 46.8922 30.6883 45.6353 30.8883C45.4936 30.9008 45.352 30.9195 45.2104 30.9383ZM42.8322 22.7771C42.8617 22.7521 42.8853 22.7271 42.9149 22.6959C44.1187 20.9837 44.7973 18.9278 44.8681 16.7906C44.8976 15.9407 44.8445 15.0909 44.7088 14.2598C44.5672 13.3224 44.3193 12.4038 43.9711 11.5352C43.4401 10.2292 42.6729 9.09813 41.6284 8.20452C39.9466 6.76101 37.9992 6.02988 35.8512 5.88616C34.6474 5.80492 33.4554 5.9299 32.2752 6.16736C30.4694 6.5298 28.7758 7.36091 27.3477 8.59196C27.2828 8.6482 27.2061 8.69819 27.1707 8.78568C27.2002 8.87316 27.2415 8.94815 27.2946 9.01689L29.602 12.5351C29.6374 12.585 29.661 12.635 29.7023 12.6788C29.7318 12.7225 29.7908 12.7288 29.8321 12.7038C29.9147 12.6538 29.9914 12.5975 30.0681 12.5413C30.3337 12.3538 30.5933 12.1539 30.8707 11.9789C32.4522 10.9666 34.1517 10.5416 35.9929 10.8541C36.5003 10.9353 36.9842 11.104 37.4386 11.3603C38.1173 11.7477 38.672 12.3413 39.026 13.06C39.3329 13.6599 39.805 14.1535 40.3774 14.466C41.3157 14.9972 42.2303 15.5846 43.1509 16.1532C43.1981 16.1782 43.263 16.197 43.2748 16.2782C43.2217 16.3532 43.1273 16.3907 43.0506 16.4344C42.0002 17.0906 40.9557 17.7467 39.8994 18.3903C39.5807 18.5841 39.3211 18.8778 39.1558 19.2215C38.6602 20.2588 37.7986 21.0524 36.7541 21.4148C35.7391 21.7773 34.6533 21.871 33.597 21.6835C32.8299 21.5461 32.0981 21.2711 31.4195 20.8712C30.9828 20.615 30.5579 20.3275 30.139 20.0463C30.0032 19.9588 29.8675 19.8713 29.7377 19.7839C29.6315 19.8339 29.5902 19.9276 29.537 20.0088C28.7463 21.1649 27.9555 22.3272 27.1648 23.4832C27.1235 23.5395 27.0881 23.5957 27.0468 23.652C27.0173 23.6895 27.0173 23.7457 27.0527 23.777L27.0645 23.7832C27.1884 23.8894 27.3182 23.9894 27.448 24.0894C28.0087 24.5456 28.6047 24.9518 29.2302 25.3017C30.8058 26.1703 32.4876 26.6015 34.2579 26.664C34.8834 26.6765 35.5031 26.6515 36.1227 26.5765C36.7718 26.5077 37.4091 26.389 38.0405 26.2078C39.6987 25.7266 41.1327 24.8455 42.2952 23.4957C42.372 23.4083 42.4605 23.327 42.5077 23.2145C42.6375 23.0896 42.7437 22.9458 42.8322 22.7771ZM41.4455 16.2594C41.3511 16.197 41.3039 16.1595 41.2566 16.1345L36.1522 13.035C36.105 13.0037 36.0519 12.9787 36.0047 12.9537C35.9752 12.935 35.9338 12.9475 35.9161 12.985C35.9102 12.9975 35.9102 13.0037 35.9102 13.0162C35.9043 13.1162 35.9102 13.2162 35.9043 13.3162C35.8925 13.5661 35.9397 13.8161 35.8807 14.0598C35.6447 14.141 35.3968 14.0973 35.1549 14.0973C33.4672 14.1035 31.7795 14.0973 30.0917 14.1035H29.838C29.779 14.0973 29.7318 14.1473 29.7259 14.2098V14.216C29.7141 14.3223 29.7082 14.4347 29.7082 14.541V17.9279C29.7082 18.3528 29.661 18.3091 30.074 18.3091H35.5621C35.6447 18.3091 35.7332 18.3091 35.8158 18.3154C35.863 18.3154 35.9043 18.3591 35.9043 18.4091C35.9102 18.4778 35.9102 18.5466 35.9102 18.6153V19.4214C35.9102 19.4777 35.8925 19.5401 35.9397 19.5839C35.9811 19.6026 36.0106 19.5776 36.046 19.5589L41.4455 16.2594Z" fill="#222222"/>
<path d="M88.8851 18.6652V11.3852C88.8851 10.9728 88.8615 11.0102 89.2332 11.0102H92.4906C92.8329 11.0102 92.8152 10.9978 92.8152 11.3539V12.285C92.8152 12.335 92.8152 12.385 92.827 12.435C92.8329 12.46 92.8506 12.4725 92.8742 12.4663C92.8801 12.4663 92.886 12.46 92.8919 12.46C92.9332 12.4225 92.9745 12.3788 93.0099 12.335C93.2224 12.0788 93.4584 11.8476 93.7063 11.6351C94.2787 11.154 94.975 10.8603 95.7008 10.7915C97.1171 10.6478 98.3445 11.0977 99.389 12.1101C99.9909 12.6912 100.41 13.4161 100.705 14.216C100.988 15.0096 101.136 15.8532 101.142 16.7031C101.153 17.2217 101.124 17.7404 101.053 18.2528C100.87 19.4214 100.475 20.4837 99.7313 21.3835C99.0409 22.2209 98.1852 22.7833 97.1525 23.002C96.3736 23.177 95.5651 23.1332 94.8039 22.8833C94.2197 22.6833 93.6827 22.3396 93.246 21.8772C93.1457 21.771 93.0453 21.6647 92.945 21.5648C92.9214 21.546 92.8978 21.5398 92.8742 21.5398C92.8388 21.5398 92.8329 21.5773 92.8329 21.6022C92.8329 21.6897 92.827 21.7835 92.827 21.871V26.1577C92.8211 26.3077 92.8093 26.3265 92.6618 26.3265C92.4375 26.3265 92.2074 26.3265 91.9831 26.3265H89.1801C88.8969 26.3265 88.8969 26.339 88.8969 26.0328C88.891 23.5769 88.891 21.1211 88.8851 18.6652ZM97.3 16.9405C97.3059 16.7593 97.2882 16.5781 97.2587 16.4031C97.1643 15.7907 96.9224 15.2595 96.4857 14.8409C95.8602 14.2535 95.1343 14.066 94.3318 14.3472C93.7063 14.5659 93.2696 15.0158 92.9981 15.647C92.768 16.1844 92.6913 16.7843 92.7739 17.3717C92.827 17.8279 92.9863 18.2653 93.2401 18.6402C93.9364 19.6838 95.2996 19.9275 96.2851 19.1901C96.468 19.0527 96.6273 18.8839 96.763 18.6965C97.1348 18.1841 97.2882 17.5842 97.3 16.9405Z" fill="#222222"/>
<path d="M173.718 16.9405V22.4834C173.718 22.8771 173.748 22.8458 173.394 22.8458H170.113C169.865 22.8458 169.859 22.8458 169.859 22.5833V17.3717C169.859 17.2717 169.912 17.153 169.818 17.0655C169.717 17.103 169.688 17.2092 169.641 17.2842C168.466 19.0589 167.298 20.8399 166.124 22.6146C166.118 22.6208 166.112 22.6333 166.106 22.6396C166.023 22.7896 165.917 22.8521 165.74 22.8521C164.737 22.8396 163.739 22.8458 162.736 22.8458H162.624C162.483 22.8396 162.471 22.8271 162.465 22.6646V11.3977C162.465 11.004 162.459 11.0353 162.801 11.0353H166.141C166.312 11.0415 166.324 11.0603 166.33 11.2477V16.4031C166.33 16.4781 166.295 16.6031 166.36 16.6281C166.46 16.6656 166.484 16.5343 166.525 16.4656C167.569 14.8971 168.614 13.3349 169.658 11.7664C169.794 11.5602 169.93 11.3602 170.065 11.154C170.113 11.0728 170.189 11.029 170.278 11.0353H173.559C173.701 11.0415 173.718 11.054 173.724 11.2102V11.4227L173.718 16.9405Z" fill="#222222"/>
<path d="M203.973 16.6718C204.044 16.6531 204.097 16.6031 204.133 16.5343L206.853 12.4413C207.124 12.0351 207.402 11.6289 207.667 11.2165C207.732 11.0977 207.862 11.0228 207.992 11.0352C209.042 11.0415 210.087 11.0352 211.137 11.0352H211.249C211.338 11.0415 211.367 11.0727 211.373 11.1602C211.379 11.229 211.379 11.2977 211.379 11.3727V22.6458C211.373 22.827 211.367 22.8395 211.208 22.8458H207.726C207.514 22.8395 207.508 22.8333 207.508 22.6083C207.508 20.8899 207.508 19.1714 207.502 17.4529C207.502 17.3342 207.561 17.1967 207.449 17.0905C207.337 17.1467 207.296 17.2592 207.231 17.3592L203.808 22.5396C203.572 22.902 203.678 22.8395 203.265 22.8458C202.333 22.8458 201.394 22.8458 200.462 22.8458H200.238C200.143 22.8395 200.12 22.8146 200.114 22.7208C200.108 22.6521 200.114 22.5833 200.114 22.5146V11.1477C200.114 11.0852 200.161 11.0352 200.22 11.0352H200.226C200.285 11.029 200.338 11.0352 200.397 11.0352H203.708C203.767 11.0352 203.82 11.0352 203.879 11.0415C203.926 11.0415 203.967 11.079 203.973 11.1352C203.979 11.2227 203.979 11.3165 203.979 11.4039L203.973 16.6718Z" fill="#222222"/>
<path d="M81.1727 11.0165H86.466C86.8201 11.0165 86.8083 10.9978 86.8083 11.3727V22.7021C86.8024 22.8083 86.7729 22.8333 86.6667 22.8396H83.1555C82.9076 22.8396 82.8958 22.8646 82.8958 22.5584V15.0096C82.8958 14.5097 82.9431 14.5784 82.4887 14.5784H79.603C79.4968 14.5847 79.4791 14.6034 79.4732 14.7284C79.4673 14.8159 79.4732 14.9096 79.4732 14.9971V22.4896C79.4732 22.8771 79.5086 22.8458 79.1427 22.8458H75.8499C75.5254 22.8458 75.5372 22.8646 75.5372 22.5209V11.1915C75.5431 11.0415 75.5608 11.0228 75.7083 11.0165C75.785 11.0165 75.8617 11.0165 75.9325 11.0165H81.1727Z" fill="#222222"/>
<path d="M51.6663 16.9156V11.3728C51.6663 10.9916 51.6368 11.0166 52.0026 11.0166H55.2836C55.6259 11.0166 55.6023 11.0041 55.6023 11.3665V15.0222C55.6082 15.1721 55.6259 15.1909 55.7734 15.1909C56.2514 15.1846 56.1393 15.2659 56.4107 14.8472C57.1838 13.6536 57.9568 12.4601 58.7299 11.2665C58.8892 11.0228 58.842 11.0166 59.1607 11.0166H63.1498C63.2206 11.0166 63.3209 10.9728 63.3623 11.0541C63.4095 11.1478 63.3091 11.2103 63.2619 11.279C61.9873 13.0412 60.7127 14.7972 59.4321 16.5532C59.2374 16.8219 59.2374 16.7781 59.4321 17.0531L63.3268 22.5772C63.38 22.6522 63.498 22.7209 63.439 22.8209C63.3977 22.8896 63.2796 22.8521 63.2029 22.8521H59.2728C59.2256 22.8521 59.1784 22.8459 59.1312 22.8521C59.0367 22.8646 58.9423 22.8146 58.8951 22.7209C58.6591 22.3585 58.4171 22.0023 58.1811 21.6398L56.3576 18.8965C56.3222 18.8403 56.2809 18.784 56.2396 18.7278C56.2101 18.6841 56.1688 18.6653 56.1157 18.6653C55.9564 18.6716 55.797 18.6403 55.6377 18.6841C55.5492 18.8278 55.5964 18.9965 55.5964 19.1465C55.5905 20.2651 55.5964 21.3836 55.5964 22.5022V22.7084C55.5905 22.8021 55.561 22.8334 55.4784 22.8396C55.4135 22.8459 55.3486 22.8396 55.2777 22.8396H51.9377C51.6427 22.8396 51.6604 22.8396 51.6604 22.5459C51.6663 20.6712 51.6663 18.7903 51.6663 16.9156Z" fill="#222222"/>
<path d="M198.126 18.9652V22.5021C198.126 22.5833 198.126 22.6646 198.12 22.7396C198.12 22.7895 198.078 22.8333 198.031 22.8333C197.972 22.8395 197.919 22.8395 197.86 22.8395H194.491C194.255 22.8333 194.249 22.8333 194.249 22.5958C194.249 22.3584 194.249 22.1147 194.249 21.8772C194.255 21.8397 194.249 21.796 194.243 21.7585C194.237 21.7335 194.207 21.721 194.184 21.7272L194.172 21.7335C194.101 21.796 194.03 21.8585 193.959 21.9272C193.582 22.2959 193.145 22.5833 192.673 22.7895C192.089 23.027 191.469 23.1395 190.844 23.1145C190.354 23.1082 189.864 23.0208 189.404 22.8458C188.643 22.5521 188.035 22.0584 187.639 21.2898C187.504 21.0273 187.397 20.7461 187.338 20.4524C187.191 19.7775 187.191 19.0777 187.344 18.4028C187.539 17.5342 188.017 16.878 188.737 16.4094C189.162 16.1469 189.622 15.9532 190.106 15.8532C190.519 15.7657 190.944 15.7157 191.369 15.7032C192.207 15.672 193.051 15.772 193.859 16.0032C193.93 16.0219 194.007 16.0469 194.077 16.0719C194.266 16.1469 194.29 16.1594 194.284 15.8969C194.278 15.7157 194.255 15.5407 194.213 15.3658C194.072 14.8034 193.723 14.4284 193.216 14.2285C192.773 14.0597 192.313 14.0222 191.853 14.0347C190.944 14.066 190.053 14.2597 189.203 14.6096C189.168 14.6221 189.132 14.6346 189.097 14.6471C188.991 14.6846 188.967 14.6721 188.932 14.5534C188.814 14.1347 188.696 13.7098 188.584 13.2911C188.46 12.8537 188.336 12.41 188.218 11.9663C188.165 11.7726 188.17 11.7664 188.33 11.6976C188.855 11.4727 189.398 11.2914 189.947 11.1602C190.95 10.9228 191.983 10.8228 193.009 10.8603C193.682 10.8665 194.349 10.9665 194.992 11.1477C195.606 11.3289 196.178 11.6101 196.674 12.0413C197.27 12.56 197.701 13.2599 197.901 14.0472C198.061 14.6659 198.137 15.3033 198.132 15.9407C198.132 16.9468 198.126 17.9591 198.126 18.9652ZM194.314 18.4653V18.1778C194.319 18.0591 194.266 18.0028 194.16 17.9653C193.659 17.7841 193.133 17.6966 192.602 17.7216C192.319 17.7279 192.036 17.7966 191.776 17.9154C191.351 18.1153 191.074 18.4528 191.009 18.9464C190.891 19.8025 191.363 20.3212 191.983 20.4524C192.478 20.5587 192.992 20.4837 193.434 20.2275C193.818 20.0213 194.101 19.6526 194.225 19.2151C194.296 18.9714 194.325 18.7215 194.314 18.4653Z" fill="#222222"/>
<path d="M109.863 18.0902H106.434C106.163 18.0902 106.145 18.109 106.233 18.3714C106.558 19.3275 107.201 19.8649 108.157 19.9837C108.73 20.0524 109.284 19.9899 109.815 19.74C110.199 19.5587 110.529 19.29 110.836 18.9901C110.872 18.9588 110.901 18.9214 110.937 18.8839C111.007 18.8151 111.037 18.8089 111.108 18.8714C111.202 18.9526 111.297 19.0401 111.391 19.1213L112.961 20.4961C113.014 20.5398 113.061 20.5836 113.114 20.6336C113.179 20.6961 113.185 20.7398 113.126 20.8148C112.967 21.0148 112.813 21.2147 112.636 21.3959C111.969 22.0958 111.143 22.602 110.24 22.8707C109.768 23.0082 109.278 23.0894 108.789 23.1144C108.281 23.1457 107.768 23.1207 107.266 23.0394C105.986 22.8332 104.864 22.2958 103.95 21.3085C103.259 20.5711 102.781 19.6462 102.569 18.6339C102.25 17.1841 102.315 15.7531 102.864 14.3721C103.56 12.6286 104.77 11.4726 106.499 10.9602C107.148 10.7727 107.821 10.7102 108.488 10.7727C108.913 10.7977 109.332 10.8727 109.745 10.9852C111.161 11.3976 112.199 12.2974 112.884 13.6722C113.232 14.3721 113.427 15.1157 113.545 15.8906C113.639 16.528 113.633 17.1654 113.628 17.8028C113.628 17.8528 113.622 17.9028 113.616 17.9528C113.604 18.0465 113.574 18.0777 113.492 18.084C113.415 18.0902 113.338 18.084 113.268 18.084L109.863 18.0902ZM108.033 15.9468H109.815C109.922 15.9406 109.951 15.9094 109.939 15.8031C109.898 15.4657 109.798 15.1407 109.632 14.847C109.308 14.2534 108.83 13.9097 108.175 13.8472C107.555 13.791 107.048 14.0097 106.652 14.5221C106.357 14.9033 106.21 15.3532 106.104 15.8219C106.086 15.8656 106.11 15.9219 106.151 15.9406C106.163 15.9468 106.174 15.9468 106.186 15.9468C106.263 15.9531 106.34 15.9531 106.41 15.9531L108.033 15.9468Z" fill="#222222"/>
<path d="M152.303 18.3404H160.594C161.013 18.3404 160.971 18.3029 160.971 18.7466V25.0393C160.971 25.4392 161.007 25.4142 160.623 25.4142H157.395C157.259 25.408 157.242 25.383 157.236 25.233V22.446C157.236 22.3647 157.236 22.2835 157.23 22.2085C157.23 22.1585 157.189 22.1148 157.141 22.1148H157.136C157.071 22.1085 157.006 22.1148 156.935 22.1148H147.564C147.287 22.1148 147.275 22.1023 147.275 22.4335V25.2517C147.269 25.3955 147.251 25.4142 147.104 25.4205H143.935C143.858 25.4205 143.781 25.4205 143.711 25.4205C143.622 25.4142 143.593 25.383 143.587 25.2955C143.581 25.2267 143.587 25.158 143.587 25.0893V18.6903C143.587 18.3154 143.569 18.3404 143.929 18.3404H152.303Z" fill="#222222"/>
<path d="M179.679 18.2028H178.434C178.358 18.2028 178.281 18.2028 178.21 18.1965C178.163 18.1965 178.122 18.1528 178.116 18.1028C178.11 18.0653 178.11 18.0216 178.11 17.9841V15.7657C178.11 15.7094 178.157 15.6594 178.21 15.6594H180.712C180.919 15.6657 181.125 15.6407 181.332 15.597C181.444 15.572 181.55 15.5345 181.656 15.4907C181.863 15.397 182.004 15.2033 182.04 14.9721C182.099 14.6284 181.987 14.3597 181.703 14.1847C181.503 14.066 181.285 13.991 181.06 13.966C180.742 13.9285 180.417 13.916 180.098 13.941C179.018 14.0035 177.968 14.3159 177.018 14.8658C176.711 15.0408 176.758 15.0658 176.581 14.7346C176.198 14.0097 175.82 13.2848 175.437 12.56C175.419 12.5225 175.401 12.4912 175.383 12.4537C175.342 12.36 175.342 12.3287 175.419 12.2788C175.637 12.1413 175.855 11.9975 176.08 11.8726C176.865 11.4351 177.708 11.1227 178.582 10.954C179.066 10.854 179.555 10.7977 180.045 10.7852C180.175 10.779 180.311 10.7603 180.441 10.7603C181.332 10.7665 182.211 10.8165 183.078 11.0665C183.586 11.2039 184.064 11.4164 184.512 11.7038C184.931 11.9851 185.303 12.3225 185.551 12.7849C186.023 13.6598 186.064 14.5659 185.651 15.4782C185.504 15.7844 185.297 16.0469 185.038 16.2531C184.796 16.4468 184.536 16.6093 184.259 16.7405L184.105 16.8155C184.082 16.828 184.076 16.8405 184.088 16.8655C184.093 16.8842 184.105 16.8967 184.123 16.9092C184.2 16.9467 184.282 16.9717 184.359 17.0092C184.684 17.1405 184.99 17.3217 185.268 17.5529C185.846 18.0403 186.123 18.6839 186.153 19.4526C186.194 20.4712 185.793 21.271 185.049 21.8897C184.607 22.2584 184.105 22.5083 183.574 22.6958C182.842 22.952 182.087 23.0707 181.326 23.1207C180.582 23.1645 179.833 23.1395 179.095 23.0457C177.809 22.8958 176.558 22.4771 175.425 21.8084C175.206 21.6772 175.212 21.6772 175.324 21.446C175.696 20.6836 176.074 19.9212 176.446 19.1589C176.469 19.1089 176.493 19.0526 176.528 19.0026C176.552 18.9589 176.605 18.9402 176.652 18.9589C176.705 18.9839 176.752 19.0151 176.806 19.0401C177.685 19.5088 178.635 19.8088 179.609 19.9275C180.004 19.9712 180.399 19.99 180.795 19.9775C181.078 19.9712 181.361 19.9275 181.633 19.84C181.798 19.7963 181.951 19.7088 182.075 19.5838C182.347 19.3213 182.37 18.8777 182.122 18.5902C182.075 18.5402 182.028 18.4902 181.969 18.459C181.81 18.3527 181.627 18.284 181.438 18.259C181.261 18.2278 181.084 18.2153 180.901 18.2153C180.488 18.209 180.081 18.2028 179.679 18.2028Z" fill="#222222"/>
<path d="M152.221 10.3668C152.173 10.4105 152.144 10.473 152.126 10.5355C151.312 12.7164 150.498 14.8973 149.677 17.0844C149.459 17.6593 149.601 17.5531 149.022 17.5593C147.889 17.5656 146.756 17.5593 145.623 17.5593C145.34 17.5593 145.34 17.5531 145.446 17.2844L148.409 9.99185C148.922 8.73581 149.429 7.47976 149.943 6.22372C150.085 5.87378 150.037 5.91752 150.374 5.91752H154.139C154.198 5.91752 154.251 5.92377 154.31 5.91752C154.434 5.90502 154.493 5.96751 154.54 6.08624C154.835 6.82987 155.142 7.5735 155.443 8.31712C156.629 11.2541 157.821 14.1912 159.007 17.1282C159.048 17.2282 159.09 17.3281 159.125 17.4344C159.154 17.5094 159.131 17.5531 159.06 17.5593C158.989 17.5656 158.93 17.5593 158.859 17.5593H155.236C154.912 17.5593 154.947 17.5968 154.817 17.2469C154.139 15.4284 153.46 13.6038 152.775 11.7853C152.622 11.3791 152.474 10.9667 152.321 10.5605C152.303 10.4855 152.268 10.423 152.221 10.3668Z" fill="#222222"/>
<path d="M120.809 23.1334C119.169 23.1271 117.735 22.5897 116.572 21.3587C115.451 20.1714 114.908 18.7216 114.878 17.0469C114.861 16.2345 114.997 15.4284 115.274 14.6723C115.793 13.2788 116.672 12.2227 117.923 11.5228C118.927 10.9604 119.995 10.7479 121.122 10.7917C121.877 10.8167 122.603 10.9604 123.293 11.2791C124.025 11.6103 124.668 12.129 125.17 12.7788C125.3 12.9476 125.424 13.1288 125.542 13.3038C125.595 13.3787 125.583 13.4287 125.518 13.485C125.477 13.5225 125.43 13.56 125.382 13.5975L123.164 15.3597C123.128 15.3909 123.087 15.4222 123.052 15.4472C122.975 15.4971 122.945 15.4971 122.88 15.4222C122.745 15.2659 122.621 15.1097 122.479 14.9597C122.19 14.6535 121.83 14.4348 121.429 14.3348C120.485 14.1036 119.67 14.4786 119.163 15.2284C118.885 15.6409 118.726 16.122 118.697 16.622C118.655 17.1094 118.714 17.6031 118.874 18.0655C119.021 18.5092 119.293 18.8966 119.647 19.184C120.125 19.559 120.667 19.6715 121.252 19.5965C121.865 19.5152 122.343 19.184 122.762 18.7216C122.851 18.6216 122.916 18.4529 123.04 18.4404C123.181 18.4217 123.282 18.5779 123.394 18.6654C124.067 19.1778 124.739 19.6902 125.412 20.2089C125.453 20.2401 125.489 20.2651 125.524 20.2964C125.654 20.4026 125.666 20.4276 125.571 20.5588C125.329 20.9275 125.052 21.2712 124.745 21.5836C123.913 22.4085 122.928 22.8834 121.8 23.0521C121.47 23.0959 121.128 23.1021 120.809 23.1334Z" fill="#222222"/>
<path d="M69.2879 23.1334C67.7654 23.1209 66.4082 22.6522 65.2693 21.5586C64.2071 20.54 63.5933 19.259 63.4222 17.753C63.2511 16.247 63.5225 14.8472 64.3015 13.5724C65.1689 12.1539 66.4141 11.2853 67.9661 10.9291C68.8925 10.7167 69.8485 10.7167 70.775 10.9291C72.15 11.2353 73.224 12.0352 74.0147 13.2537C74.0324 13.2787 74.0442 13.3037 74.0619 13.3287C74.0914 13.3725 74.0737 13.4287 74.0324 13.46C73.997 13.4912 73.9557 13.5224 73.9203 13.5537C73.159 14.1598 72.3978 14.766 71.6307 15.3721L71.5421 15.4471C71.5067 15.4909 71.4418 15.4909 71.4005 15.4471C71.3946 15.4409 71.3946 15.4409 71.3887 15.4346C71.3061 15.3346 71.2294 15.2347 71.1468 15.1409C70.9225 14.8722 70.6452 14.6535 70.3383 14.491C69.4886 14.0661 68.3555 14.2161 67.6828 15.1909C67.2815 15.7721 67.134 16.4345 67.1753 17.1406C67.1989 17.5843 67.311 18.0092 67.5058 18.4029C67.9602 19.2965 68.8453 19.7464 69.7836 19.5839C70.2911 19.4965 70.7573 19.2403 71.1173 18.8528C71.2294 18.7341 71.3356 18.6029 71.4477 18.4841C71.5244 18.4029 71.5421 18.3966 71.6366 18.4716L74.0206 20.3026C74.0442 20.3213 74.0678 20.3401 74.0914 20.3588C74.1327 20.3901 74.1386 20.4463 74.1091 20.49C74.056 20.5713 74.0029 20.6525 73.9439 20.7338C73.5544 21.3024 73.0764 21.7898 72.5276 22.1835C71.8785 22.6334 71.1409 22.9209 70.3737 23.0396C70.0256 23.1021 69.6538 23.1084 69.2879 23.1334Z" fill="#222222"/>
<path d="M132.217 23.1334C130.535 23.1209 129.101 22.5585 127.939 21.315C126.977 20.2776 126.446 19.0278 126.316 17.5781C126.215 16.4283 126.375 15.3285 126.847 14.2786C127.508 12.8101 128.558 11.7915 129.986 11.2041C130.807 10.8667 131.662 10.748 132.541 10.7855C133.173 10.8042 133.798 10.9229 134.4 11.1416C135.48 11.5478 136.312 12.2852 136.95 13.2788C137.02 13.3913 137.02 13.4163 136.914 13.4975C136.377 13.9224 135.846 14.3474 135.303 14.7723C135.061 14.966 134.819 15.1597 134.577 15.3472C134.383 15.4972 134.383 15.5347 134.223 15.316C134.099 15.1535 133.964 14.9973 133.81 14.866C133.303 14.4036 132.719 14.1974 132.058 14.2786C131.361 14.3661 130.848 14.7535 130.488 15.3784C130.157 15.9533 130.051 16.5845 130.11 17.2531C130.152 17.7281 130.275 18.178 130.529 18.5717C131.054 19.3903 131.786 19.7152 132.701 19.584C133.344 19.4903 133.834 19.1153 134.253 18.6279C134.276 18.5967 134.3 18.5654 134.324 18.5342C134.442 18.3904 134.448 18.3904 134.601 18.5029C135.38 19.1028 136.165 19.6965 136.938 20.2964C136.956 20.3089 136.967 20.3214 136.985 20.3339C137.062 20.4026 137.068 20.4339 137.015 20.5088C136.247 21.6837 135.25 22.5273 133.928 22.896C133.456 23.0334 132.966 23.1022 132.477 23.1147C132.382 23.1147 132.282 23.1272 132.217 23.1334Z" fill="#222222"/>
<path d="M202.822 6.41724H203.814C203.902 6.40474 203.985 6.46098 204.008 6.54847C204.044 6.6422 204.079 6.72969 204.126 6.81718C204.303 7.17962 204.604 7.44832 204.97 7.56705C205.431 7.71703 205.926 7.72952 206.392 7.59205C206.794 7.48582 207.13 7.20461 207.319 6.81718C207.366 6.72344 207.413 6.62346 207.449 6.51722C207.466 6.44849 207.531 6.40474 207.602 6.41099H209.638C209.768 6.41724 209.792 6.44224 209.78 6.56722C209.762 6.72344 209.738 6.88591 209.709 7.04214C209.396 8.52939 208.535 9.46674 207.154 9.86667C206.227 10.1354 205.254 10.1416 204.327 9.87917C202.887 9.47299 202.026 8.4669 201.719 6.92341C201.701 6.82342 201.683 6.72344 201.672 6.62971C201.642 6.42974 201.648 6.42349 201.831 6.41724H202.822Z" fill="#222222"/>
<path d="M42.9032 22.7084C44.107 20.9962 44.7856 18.9403 44.8565 16.8031C44.886 15.9533 44.8329 15.1034 44.6912 14.2661C44.5496 13.3287 44.3018 12.4101 43.9536 11.5415C43.4225 10.2355 42.6553 9.10442 41.6108 8.21081C39.929 6.7673 37.9817 6.03617 35.8337 5.89245C34.6298 5.81121 33.4437 5.93619 32.2576 6.17365C30.4519 6.53609 28.7582 7.37345 27.3302 8.59825C27.2653 8.65449 27.1885 8.70448 27.1531 8.79197C27.1826 8.8732 27.2239 8.95444 27.283 9.02318L29.5903 12.5413C29.6198 12.5913 29.6552 12.6413 29.6906 12.6851C29.7201 12.7288 29.7791 12.7351 29.8204 12.7101C29.9031 12.6601 29.9798 12.6038 30.0565 12.5476C30.322 12.3601 30.5817 12.1602 30.859 11.9852C32.4405 10.9729 34.14 10.5479 35.9812 10.8604C36.4887 10.9416 36.9726 11.1103 37.427 11.3665C38.1056 11.754 38.6544 12.3476 39.0144 13.0663C39.3212 13.6662 39.7933 14.1598 40.3657 14.4723C41.304 15.0034 42.2187 15.5908 43.1392 16.1595C43.1864 16.1845 43.2514 16.2032 43.2632 16.2845C43.21 16.3595 43.1156 16.3907 43.0389 16.4407C41.9885 17.0906 40.944 17.753 39.8877 18.3966C39.5691 18.5903 39.3094 18.884 39.1442 19.2277C38.6485 20.2651 37.7869 21.0587 36.7424 21.4211C35.7274 21.7836 34.6416 21.8773 33.5853 21.6898C32.8182 21.5524 32.0865 21.2774 31.4078 20.8775C30.9712 20.6213 30.5522 20.3338 30.1273 20.0526C29.9916 19.9651 29.8558 19.8776 29.726 19.7901C29.6198 19.8401 29.5785 19.9339 29.5254 20.0151C28.7346 21.1712 27.9439 22.3272 27.1531 23.4895C27.1118 23.5458 27.0764 23.602 27.0351 23.6583C27.0056 23.6958 27.0056 23.7457 27.041 23.7832C27.041 23.7832 27.041 23.7832 27.0469 23.7832C27.0528 23.7895 27.0528 23.7895 27.0587 23.7895C27.1885 23.8957 27.3125 23.9957 27.4423 24.0957C28.0029 24.5519 28.5989 24.958 29.2303 25.308C30.8059 26.1766 32.4877 26.6078 34.2581 26.6703C34.8836 26.6828 35.5032 26.6578 36.1228 26.5828C36.7719 26.514 37.4152 26.3891 38.0466 26.2078C39.7048 25.7267 41.1388 24.8456 42.3013 23.4958" fill="#FEFFFF"/>
<path d="M41.4327 16.2719L36.0272 19.5651C35.9977 19.5839 35.9623 19.6089 35.921 19.5901C35.8738 19.5464 35.8915 19.4839 35.8915 19.4276V18.6215C35.8915 18.5528 35.8915 18.484 35.8856 18.4153C35.8856 18.3653 35.8443 18.3216 35.7971 18.3216C35.7145 18.3153 35.626 18.3153 35.5434 18.3153H30.0553C29.6422 18.3153 29.6954 18.3591 29.6895 17.9341V14.5472C29.6895 14.4347 29.6954 14.3285 29.7072 14.2223C29.7072 14.1598 29.7603 14.1098 29.8193 14.116H30.0789C31.7666 14.116 33.4544 14.116 35.1421 14.1098C35.384 14.1098 35.626 14.1598 35.8679 14.0723C35.9269 13.8286 35.8797 13.5786 35.8915 13.3286C35.8974 13.2287 35.8915 13.1287 35.8974 13.0287C35.8974 12.9912 35.9269 12.96 35.9623 12.96C35.9741 12.96 35.9859 12.96 35.9918 12.9662C36.0449 12.9912 36.0922 13.0162 36.1394 13.0474L41.2379 16.1532C41.3087 16.1844 41.3736 16.2282 41.4327 16.2719Z" fill="#FEFFFF"/>
</svg>
