<svg width="123" height="44" viewBox="0 0 123 44" fill="none" xmlns="http://www.w3.org/2000/svg">
<path d="M98.3587 23.2658C98.41 22.7773 98.4631 22.2888 98.5127 21.7997C98.7765 19.212 98.9937 16.6188 99.398 14.0491C99.516 13.3204 99.6872 12.6128 100.066 11.9822C100.42 11.3937 100.888 10.9891 101.601 11.0002C102.09 11.0083 102.446 11.2336 102.672 11.6861C102.936 12.2131 102.998 12.7872 103 13.3688C103.005 15.1378 102.851 16.8975 102.681 18.6547C102.488 20.6483 102.238 22.6346 101.941 24.6133C101.711 26.1458 101.426 27.6622 100.75 29.0619C100.434 29.7136 100.032 30.2939 99.4865 30.7564C98.4065 31.6719 96.9434 31.5987 95.9578 30.5702C95.0295 29.6037 94.5154 28.3977 94.1566 27.1023C93.8278 25.923 93.6655 24.7027 93.4572 23.4948C93.4501 23.4306 93.4265 23.3696 93.3888 23.3186C93.2489 24.2869 93.1149 25.2564 92.968 26.2234C92.6451 28.3419 92.3565 30.4677 91.7321 32.5216C91.496 33.3 91.0475 33.8872 90.2567 33.979C89.3879 34.079 88.7971 33.8313 88.469 33.0325C88.1149 32.174 88.0594 31.274 88.0163 30.3672C87.9272 28.5163 88.2193 26.6989 88.495 24.884C88.9801 21.6911 89.5756 18.5069 90.3139 15.36C90.5464 14.3669 90.8014 13.3825 91.1484 12.4266C91.6513 11.0412 92.4279 10.7383 93.7983 11.3329C94.49 11.6333 94.9409 12.2298 95.2738 12.9169C95.848 14.0963 96.178 15.3749 96.5675 16.6281C97.235 18.7769 97.7585 20.968 98.279 23.1597C98.2879 23.1957 98.2997 23.2304 98.3103 23.2658H98.3587Z" fill="#222222"/>
<path d="M70.8695 23.7769C71.1636 22.6707 71.4349 21.6517 71.7062 20.6327C72.219 18.707 72.733 16.7831 73.2481 14.8611C73.404 14.2791 73.6199 13.7235 73.9557 13.2318C74.1925 12.8953 74.5197 12.6453 74.8931 12.5159C75.2664 12.3865 75.6678 12.3839 76.0425 12.5085C76.6827 12.7291 76.8615 13.2988 76.962 13.93C77.0916 14.7455 76.8626 15.5095 76.6804 16.2814C75.9631 19.3205 75.38 22.3953 74.6245 25.4246C74.2504 26.9248 73.8786 28.4269 73.1967 29.8079C72.6559 30.9018 71.8923 31.7266 70.7062 31.9423C69.4046 32.1789 68.315 31.6695 67.3704 30.7439C66.3161 29.7114 65.6296 28.4035 65.042 27.0318C64.0066 24.6158 63.4246 22.0653 63.1379 19.4306C62.9708 17.9364 62.9555 16.4271 63.0922 14.9293C63.1859 13.9294 63.5228 12.9977 64.03 12.1588C64.9552 10.6284 67.0168 10.6131 67.986 12.1176C68.5959 13.0634 68.8998 14.1537 69.1979 15.2421C69.8906 17.7761 70.3344 20.3678 70.7438 22.9675C70.7787 23.2072 70.8169 23.4463 70.8695 23.7769Z" fill="#222222"/>
<path d="M30 28.0996C30.0063 26.0868 30.2275 24.3745 30.4766 22.6648C30.8662 19.9672 31.3531 17.289 32.0123 14.655C32.274 13.6062 32.5783 12.5734 33.0361 11.6075C33.1426 11.3811 33.2671 11.1661 33.4081 10.9652C33.7494 10.4745 34.1953 10.1418 34.751 10.2253C35.4762 10.3306 36.1587 10.0519 36.8606 10.0146C39.3922 9.87976 41.6036 10.6569 43.021 13.181C44.0983 15.1001 44.2991 17.21 43.5608 19.3821C42.7645 21.7206 41.4666 23.5048 39.3075 24.3398C38.4179 24.684 37.4874 24.7149 36.5563 24.686C36.2918 24.6776 36.0217 24.677 35.7651 24.6147C35.495 24.5505 35.4045 24.6911 35.3494 24.9358C35.2322 25.4554 35.1952 25.9885 35.1338 26.5177C34.9734 27.8947 34.7772 29.2653 34.503 30.6193C34.3845 31.2388 34.12 31.8106 33.7374 32.2744C32.9247 33.2474 31.774 33.2416 30.9658 32.2583C30.3595 31.521 30.1627 30.6058 30.0813 29.6443C30.0301 29.1314 30.003 28.6158 30 28.0996ZM40.3728 15.1663C40.3728 14.6377 40.184 14.1386 39.8245 13.8554C39.0085 13.1996 38.0269 12.8586 37.0255 12.883C36.8014 12.8875 36.7019 12.9986 36.6939 13.2497C36.6843 13.5709 36.6706 13.892 36.6371 14.208C36.4778 15.7784 36.3174 17.3487 36.1434 18.9171C36.1155 19.174 36.1695 19.174 36.3572 19.1137C37.8998 18.6088 39.0834 17.5324 40.0719 16.1483C40.2705 15.8705 40.3769 15.5232 40.3728 15.1663Z" fill="#222222"/>
<path d="M25.3406 19.4161C25.3406 18.7366 25.299 18.0602 25.2605 17.3825C25.2214 16.6933 25.2903 16.0302 25.9861 15.6306C26.8458 15.1372 28.0536 15.4536 28.5657 16.2942C28.9301 16.8928 28.9872 17.5571 28.9965 18.2275C29.0325 20.9229 28.7991 23.5897 28.0145 26.186C27.626 27.472 27.0792 28.6874 26.2493 29.775C23.998 32.7217 20.0324 32.4991 17.7079 30.5208C15.9787 29.0493 15.1482 27.1587 15.0147 24.945C14.9216 23.406 15.2829 21.9339 15.7217 20.4703C16.5721 17.6356 18.0704 15.195 20.2813 13.1852C21.0573 12.4826 21.9326 11.8934 22.8802 11.4357C23.8993 10.9393 24.9384 10.8055 26.0258 11.3608C26.9637 11.839 27.5354 13.4899 26.3573 14.4401C24.6504 15.8131 23.1731 17.3959 22.1558 19.3376C21.3433 20.8876 20.7636 22.5161 20.6904 24.2808C20.663 24.9499 20.7382 25.6191 20.8387 26.2785C20.9479 26.9957 21.5835 27.3959 22.3774 27.3181C23.0403 27.2536 23.5412 26.9318 23.9223 26.4135C24.4809 25.6562 24.723 24.7784 24.9154 23.8835C25.227 22.4139 25.3344 20.9174 25.3406 19.4161Z" fill="#222222"/>
<path d="M13.5562 11.0149C14.3679 11.0701 15.2114 11.034 16.0443 11.1831C16.4514 11.2446 16.8445 11.3868 17.2039 11.6024C17.4161 11.7349 17.5971 11.9184 17.733 12.1388C17.8688 12.3591 17.9557 12.6104 17.987 12.8729C18.0182 13.1355 17.993 13.4023 17.9132 13.6526C17.8334 13.9029 17.7012 14.13 17.5269 14.3161C16.9536 14.9296 16.247 15.2266 15.4534 15.3078C14.9953 15.3547 14.5353 15.401 14.0772 15.3655C13.7606 15.3408 13.7247 15.5165 13.7247 15.7836C13.7138 17.2933 13.6758 18.8022 13.6108 20.3106C13.5145 22.5985 13.3999 24.8858 13.2143 27.168C13.1432 28.0398 13.1139 28.9217 12.9259 29.7757C12.6909 30.8486 12.1623 31.7007 11.0968 31.9329C10.191 32.1289 9.38569 31.9145 8.79125 31.037C8.11634 30.0428 7.77918 28.9356 7.64232 27.7301C7.40736 25.6738 7.61941 23.6429 7.91076 21.6157C8.18037 19.7383 8.56159 17.8844 8.90932 16.0241C8.95161 15.7995 8.89287 15.7582 8.70256 15.75C7.96069 15.7189 7.21646 15.7018 6.47811 15.6231C5.43021 15.5121 4.80288 14.5807 5.05604 13.568C5.16941 13.1131 5.45547 12.7965 5.80966 12.5529C6.64787 11.9819 7.58769 11.683 8.54279 11.4673C10.1912 11.101 11.8743 10.9491 13.5562 11.0149Z" fill="#222222"/>
<path d="M107.536 25.9061C107.573 23.8749 107.824 22.0062 108.148 20.147C108.389 18.7677 108.651 17.3929 108.912 16.0212C108.955 15.7997 108.901 15.7552 108.708 15.747C107.965 15.7165 107.22 15.6981 106.481 15.62C105.431 15.5096 104.805 14.5822 105.055 13.566C105.173 13.0982 105.467 12.7783 105.832 12.5326C106.621 12.0001 107.5 11.7125 108.4 11.4986C110.392 11.0245 112.409 10.9273 114.441 11.046C115.164 11.0873 115.892 11.0816 116.591 11.3133C117.257 11.5335 117.821 11.8953 117.963 12.7097C118.069 13.3248 117.957 13.884 117.517 14.3353C116.947 14.9193 116.263 15.2189 115.491 15.302C115.033 15.3515 114.573 15.3991 114.113 15.3655C113.807 15.3414 113.728 15.4766 113.727 15.78C113.723 17.3224 113.679 18.8642 113.609 20.4047C113.503 22.884 113.38 25.3627 113.159 27.8313C113.093 28.5657 113.079 29.3127 112.87 30.023C112.584 30.9986 112.047 31.7533 111.07 31.9438C110.172 32.1183 109.383 31.9051 108.789 31.0418C107.992 29.8821 107.686 28.5663 107.587 27.1654C107.56 26.6982 107.55 26.2336 107.536 25.9061Z" fill="#222222"/>
<path d="M54.0058 31C53.6243 30.9847 53.1061 31.0211 52.5867 30.9521C51.1472 30.7606 50.3158 29.8866 50.1041 28.355C49.9242 27.0692 50.0099 25.7892 50.1185 24.5078C50.3746 21.4175 50.9768 18.3707 51.9125 15.4326C52.2114 14.4646 52.6038 13.5322 53.0833 12.6503C53.6921 11.5529 54.6122 11.1053 55.7626 11.023C56.9442 10.9381 58.115 11.1143 59.2918 11.1372C59.7717 11.1468 60.2449 11.1411 60.7187 11.2649C62.0431 11.6186 62.3316 13.3353 61.6268 14.2611C61.1632 14.8695 60.6072 15.181 59.8712 15.1676C59.2018 15.1555 58.5319 15.1613 57.8625 15.1785C57.1931 15.1957 56.9628 15.3841 56.7619 16.0723C56.4674 17.0708 56.3882 18.1153 56.2322 19.1367C56.1801 19.4828 56.1273 19.8288 56.0637 20.1723C56.0325 20.3415 56.0409 20.4442 56.2436 20.3957C56.7763 20.268 57.3179 20.3319 57.8559 20.3063C58.7166 20.2617 58.9175 20.8171 58.9097 21.5302C58.9061 21.8724 58.7934 22.198 58.6374 22.4987C58.4203 22.915 58.0586 23.0733 57.6364 23.0733C57.0474 23.0733 56.4572 23.0631 55.87 23.0158C55.5185 22.9877 55.3625 23.155 55.2654 23.4761C55.0626 24.1484 55.0075 24.8475 54.9055 25.5395C54.7819 26.3816 55.1898 26.5572 55.8142 26.5974C56.4536 26.6376 57.0912 26.5757 57.7293 26.5393C58.3939 26.5016 58.7016 26.743 58.875 27.4331C59.0587 28.1478 59.0361 28.9048 58.8102 29.6057C58.6027 30.2645 58.1696 30.6399 57.5116 30.6999C56.3894 30.797 55.2714 30.984 54.0058 31Z" fill="#222222"/>
<path d="M81.0263 31C80.6452 30.986 80.1165 31.023 79.586 30.9527C78.1457 30.7612 77.3158 29.887 77.1039 28.3525C76.9239 27.0664 77.0103 25.7861 77.1189 24.5045C77.375 21.4144 77.9772 18.3679 78.9127 15.4298C79.2122 14.4617 79.605 13.5291 80.0847 12.6469C80.695 11.5492 81.6156 11.1003 82.7666 11.0211C83.7484 10.9573 84.7223 11.053 85.6987 11.1124C86.2862 11.1482 86.8779 11.0965 87.4618 11.2082C88.4184 11.3902 89.0077 12.0824 88.9999 13.0166C88.9915 14.0569 88.2882 14.9802 87.3796 15.1201C86.7141 15.2229 86.042 15.1431 85.3729 15.1667C85.1136 15.1756 84.8532 15.1788 84.5927 15.2069C84.1948 15.2497 83.9452 15.4866 83.8126 15.8934C83.5665 16.6597 83.4663 17.4624 83.3481 18.2561C83.2545 18.8857 83.168 19.5166 83.0654 20.1443C83.0324 20.3455 83.0402 20.4445 83.2707 20.3921C83.8708 20.2555 84.4865 20.3027 85.0944 20.3199C85.6345 20.3346 85.9346 20.7714 85.9118 21.4694C85.9029 21.8645 85.7918 22.2494 85.5907 22.5818C85.3699 22.9432 85.023 23.0773 84.6353 23.0741C84.046 23.069 83.4555 23.0632 82.868 23.016C82.5157 22.9885 82.3621 23.1584 82.2643 23.4783C82.0656 24.1303 82.0074 24.8078 81.9114 25.4789C81.7914 26.2989 82.0458 26.5498 82.8464 26.599C83.4867 26.6386 84.124 26.5715 84.7625 26.5351C85.3765 26.5032 85.6951 26.7414 85.8625 27.371C86.0632 28.1012 86.0471 28.8796 85.8163 29.5996C85.6081 30.2586 85.1742 30.6328 84.5159 30.6928C83.4021 30.7963 82.2949 30.9828 81.0263 31Z" fill="#222222"/>
</svg>
