<svg width="22" height="26" viewBox="0 0 22 26" fill="none" xmlns="http://www.w3.org/2000/svg">
<path d="M10.4403 22.8046C10.4403 15.681 10.4403 -5.68989 10.4403 1.43374C10.4403 6.63473 14.2048 12.1637 17.3001 16.1031C18.1271 17.1557 18.5945 17.9021 16.5877 17.3168C13.8878 16.5293 11.6171 14.7945 8.8045 14.3618C8.18675 14.2668 0.87495 13.4264 1.25873 13.0426C3.02828 11.2731 7.20057 10.6056 9.51686 10.2196C12.5175 9.71944 15.3255 8.86229 18.2499 8.08246C18.6306 7.98094 20.9176 6.46122 20.6244 7.63394C20.2635 9.07773 19.1423 10.3193 18.3027 11.5124C16.5815 13.9582 14.8516 16.5799 13.0523 18.979C11.7992 20.6498 11.544 22.5738 10.4403 24.2294" stroke="#3769EA" stroke-width="2" stroke-linecap="round"/>
</svg>
