{
	"asset":{
		"generator":"Khronos glTF Blender I/O v4.0.44",
		"version":"2.0"
	},
	"scene":0,
	"scenes":[
		{
			"name":"Scene",
			"nodes":[
				0
			]
		}
	],
	"nodes":[
		{
			"mesh":0,
			"name":"navinavi.001",
			"rotation":[
				0,
				0.5869768261909485,
				0,
				0.809603750705719
			],
			"scale":[
				22.83099937438965,
				22.830997467041016,
				22.83099937438965
			],
			"translation":[
				-5.7970733642578125,
				-0.3517027497291565,
				3.673574924468994
			]
		}
	],
	"materials":[
		{
			"doubleSided":true,
			"name":"Material.031",
			"pbrMetallicRoughness":{
				"baseColorFactor":[
					0.00045407674042508006,
					0,
					0.8000315427780151,
					1
				],
				"metallicFactor":0,
				"roughnessFactor":0.5
			}
		},
		{
			"doubleSided":true,
			"name":"Material.028",
			"pbrMetallicRoughness":{
				"baseColorFactor":[
					0.00045407674042508006,
					0,
					0.8000315427780151,
					1
				],
				"metallicFactor":0,
				"roughnessFactor":0.5
			}
		}
	],
	"meshes":[
		{
			"name":"Curve.098",
			"primitives":[
				{
					"attributes":{
						"POSITION":0,
						"NORMAL":1,
						"TEXCOORD_0":2
					},
					"indices":3,
					"material":0
				},
				{
					"attributes":{
						"POSITION":4,
						"NORMAL":5,
						"TEXCOORD_0":6
					},
					"indices":7,
					"material":1
				}
			]
		}
	],
	"accessors":[
		{
			"bufferView":0,
			"componentType":5126,
			"count":300,
			"max":[
				0.4859722852706909,
				0,
				0.002305835485458374
			],
			"min":[
				-0.04077747091650963,
				-0.00200000056065619,
				-0.011135634034872055
			],
			"type":"VEC3"
		},
		{
			"bufferView":1,
			"componentType":5126,
			"count":300,
			"type":"VEC3"
		},
		{
			"bufferView":2,
			"componentType":5126,
			"count":300,
			"type":"VEC2"
		},
		{
			"bufferView":3,
			"componentType":5123,
			"count":588,
			"type":"SCALAR"
		},
		{
			"bufferView":4,
			"componentType":5126,
			"count":300,
			"max":[
				-0.027238480746746063,
				5.005858838558197e-09,
				0.05182236060500145
			],
			"min":[
				-0.040645383298397064,
				-0.0020000403746962547,
				-0.010944243520498276
			],
			"type":"VEC3"
		},
		{
			"bufferView":5,
			"componentType":5126,
			"count":300,
			"type":"VEC3"
		},
		{
			"bufferView":6,
			"componentType":5126,
			"count":300,
			"type":"VEC2"
		},
		{
			"bufferView":7,
			"componentType":5123,
			"count":588,
			"type":"SCALAR"
		}
	],
	"bufferViews":[
		{
			"buffer":0,
			"byteLength":3600,
			"byteOffset":0,
			"target":34962
		},
		{
			"buffer":0,
			"byteLength":3600,
			"byteOffset":3600,
			"target":34962
		},
		{
			"buffer":0,
			"byteLength":2400,
			"byteOffset":7200,
			"target":34962
		},
		{
			"buffer":0,
			"byteLength":1176,
			"byteOffset":9600,
			"target":34963
		},
		{
			"buffer":0,
			"byteLength":3600,
			"byteOffset":10776,
			"target":34962
		},
		{
			"buffer":0,
			"byteLength":3600,
			"byteOffset":14376,
			"target":34962
		},
		{
			"buffer":0,
			"byteLength":2400,
			"byteOffset":17976,
			"target":34962
		},
		{
			"buffer":0,
			"byteLength":1176,
			"byteOffset":20376,
			"target":34963
		}
	],
	"buffers":[
		{
			"byteLength":21552,
			"uri":"1.bin"
		}
	]
}
