{
	"asset":{
		"generator":"Khronos glTF Blender I/O v4.0.44",
		"version":"2.0"
	},
	"scene":0,
	"scenes":[
		{
			"name":"Scene",
			"nodes":[
				0
			]
		}
	],
	"nodes":[
		{
			"mesh":0,
			"name":"navinavi.013",
			"rotation":[
				0,
				0.6994649171829224,
				0,
				0.7146669030189514
			],
			"scale":[
				22.83100128173828,
				22.830997467041016,
				22.83100128173828
			],
			"translation":[
				6.635371685028076,
				1.5983411073684692,
				-9.067937850952148
			]
		}
	],
	"materials":[
		{
			"doubleSided":true,
			"name":"Material.057",
			"pbrMetallicRoughness":{
				"baseColorFactor":[
					0.00045407674042508006,
					0,
					0.8000315427780151,
					1
				],
				"metallicFactor":0,
				"roughnessFactor":0.5
			}
		},
		{
			"doubleSided":true,
			"name":"Material.010",
			"pbrMetallicRoughness":{
				"baseColorFactor":[
					0.00045407674042508006,
					0,
					0.8000315427780151,
					1
				],
				"metallicFactor":0,
				"roughnessFactor":0.5
			}
		},
		{
			"doubleSided":true,
			"name":"Material.011",
			"pbrMetallicRoughness":{
				"baseColorFactor":[
					0.00045407674042508006,
					0,
					0.8000315427780151,
					1
				],
				"metallicFactor":0,
				"roughnessFactor":0.5
			}
		},
		{
			"doubleSided":true,
			"name":"Material.013",
			"pbrMetallicRoughness":{
				"baseColorFactor":[
					0.00045407674042508006,
					0,
					0.8000315427780151,
					1
				],
				"metallicFactor":0,
				"roughnessFactor":0.5
			}
		},
		{
			"doubleSided":true,
			"name":"Material.027",
			"pbrMetallicRoughness":{
				"baseColorFactor":[
					0.00045407674042508006,
					0,
					0.8000315427780151,
					1
				],
				"metallicFactor":0,
				"roughnessFactor":0.5
			}
		},
		{
			"doubleSided":true,
			"name":"Material.033",
			"pbrMetallicRoughness":{
				"baseColorFactor":[
					0.00045407674042508006,
					0,
					0.8000315427780151,
					1
				],
				"metallicFactor":0,
				"roughnessFactor":0.5
			}
		},
		{
			"doubleSided":true,
			"name":"Material.038",
			"pbrMetallicRoughness":{
				"baseColorFactor":[
					0.00045407674042508006,
					0,
					0.8000315427780151,
					1
				],
				"metallicFactor":0,
				"roughnessFactor":0.5
			}
		},
		{
			"doubleSided":true,
			"name":"Material.041",
			"pbrMetallicRoughness":{
				"baseColorFactor":[
					0.00045407674042508006,
					0,
					0.8000315427780151,
					1
				],
				"metallicFactor":0,
				"roughnessFactor":0.5
			}
		},
		{
			"doubleSided":true,
			"name":"Material.043",
			"pbrMetallicRoughness":{
				"baseColorFactor":[
					0.00045407674042508006,
					0,
					0.8000315427780151,
					1
				],
				"metallicFactor":0,
				"roughnessFactor":0.5
			}
		},
		{
			"doubleSided":true,
			"name":"Material.046",
			"pbrMetallicRoughness":{
				"baseColorFactor":[
					0.00045407674042508006,
					0,
					0.8000315427780151,
					1
				],
				"metallicFactor":0,
				"roughnessFactor":0.5
			}
		},
		{
			"doubleSided":true,
			"name":"Material.051",
			"pbrMetallicRoughness":{
				"baseColorFactor":[
					0.00045407674042508006,
					0,
					0.8000315427780151,
					1
				],
				"metallicFactor":0,
				"roughnessFactor":0.5
			}
		},
		{
			"doubleSided":true,
			"name":"Material.053",
			"pbrMetallicRoughness":{
				"baseColorFactor":[
					0.00045407674042508006,
					0,
					0.8000315427780151,
					1
				],
				"metallicFactor":0,
				"roughnessFactor":0.5
			}
		},
		{
			"doubleSided":true,
			"name":"Material.055",
			"pbrMetallicRoughness":{
				"baseColorFactor":[
					0.00045407674042508006,
					0,
					0.8000315427780151,
					1
				],
				"metallicFactor":0,
				"roughnessFactor":0.5
			}
		}
	],
	"meshes":[
		{
			"name":"Curve.073",
			"primitives":[
				{
					"attributes":{
						"POSITION":0,
						"NORMAL":1,
						"TEXCOORD_0":2
					},
					"indices":3,
					"material":0
				},
				{
					"attributes":{
						"POSITION":4,
						"NORMAL":5,
						"TEXCOORD_0":6
					},
					"indices":7,
					"material":1
				},
				{
					"attributes":{
						"POSITION":8,
						"NORMAL":9,
						"TEXCOORD_0":10
					},
					"indices":11,
					"material":2
				},
				{
					"attributes":{
						"POSITION":12,
						"NORMAL":13,
						"TEXCOORD_0":14
					},
					"indices":15,
					"material":3
				},
				{
					"attributes":{
						"POSITION":16,
						"NORMAL":17,
						"TEXCOORD_0":18
					},
					"indices":19,
					"material":4
				},
				{
					"attributes":{
						"POSITION":20,
						"NORMAL":21,
						"TEXCOORD_0":22
					},
					"indices":23,
					"material":5
				},
				{
					"attributes":{
						"POSITION":24,
						"NORMAL":25,
						"TEXCOORD_0":26
					},
					"indices":27,
					"material":6
				},
				{
					"attributes":{
						"POSITION":28,
						"NORMAL":29,
						"TEXCOORD_0":30
					},
					"indices":31,
					"material":7
				},
				{
					"attributes":{
						"POSITION":32,
						"NORMAL":33,
						"TEXCOORD_0":34
					},
					"indices":35,
					"material":8
				},
				{
					"attributes":{
						"POSITION":36,
						"NORMAL":37,
						"TEXCOORD_0":38
					},
					"indices":39,
					"material":9
				},
				{
					"attributes":{
						"POSITION":40,
						"NORMAL":41,
						"TEXCOORD_0":42
					},
					"indices":43,
					"material":10
				},
				{
					"attributes":{
						"POSITION":44,
						"NORMAL":45,
						"TEXCOORD_0":46
					},
					"indices":47,
					"material":11
				},
				{
					"attributes":{
						"POSITION":48,
						"NORMAL":49,
						"TEXCOORD_0":50
					},
					"indices":51,
					"material":12
				}
			]
		}
	],
	"accessors":[
		{
			"bufferView":0,
			"componentType":5126,
			"count":306,
			"max":[
				0.053095195442438126,
				0.0010000006295740604,
				0.01216090563684702
			],
			"min":[
				-0.005146307870745659,
				-0.0010000038892030716,
				-0.0060209897346794605
			],
			"type":"VEC3"
		},
		{
			"bufferView":1,
			"componentType":5126,
			"count":306,
			"type":"VEC3"
		},
		{
			"bufferView":2,
			"componentType":5126,
			"count":306,
			"type":"VEC2"
		},
		{
			"bufferView":3,
			"componentType":5123,
			"count":588,
			"type":"SCALAR"
		},
		{
			"bufferView":4,
			"componentType":5126,
			"count":321,
			"max":[
				0.09659932553768158,
				-0.08541189134120941,
				-0.2792101204395294
			],
			"min":[
				-0.16121801733970642,
				-0.08741194009780884,
				-0.36654189229011536
			],
			"type":"VEC3"
		},
		{
			"bufferView":5,
			"componentType":5126,
			"count":321,
			"type":"VEC3"
		},
		{
			"bufferView":6,
			"componentType":5126,
			"count":321,
			"type":"VEC2"
		},
		{
			"bufferView":7,
			"componentType":5123,
			"count":588,
			"type":"SCALAR"
		},
		{
			"bufferView":8,
			"componentType":5126,
			"count":321,
			"max":[
				-0.1515709012746811,
				-0.08458369970321655,
				-0.2897811532020569
			],
			"min":[
				-0.18307217955589294,
				-0.08741189539432526,
				-0.36713218688964844
			],
			"type":"VEC3"
		},
		{
			"bufferView":9,
			"componentType":5126,
			"count":321,
			"type":"VEC3"
		},
		{
			"bufferView":10,
			"componentType":5126,
			"count":321,
			"type":"VEC2"
		},
		{
			"bufferView":11,
			"componentType":5123,
			"count":588,
			"type":"SCALAR"
		},
		{
			"bufferView":12,
			"componentType":5126,
			"count":310,
			"max":[
				-0.03305888548493385,
				-0.08458372205495834,
				-0.2551012635231018
			],
			"min":[
				-0.06396342068910599,
				-0.08741191774606705,
				-0.3306944966316223
			],
			"type":"VEC3"
		},
		{
			"bufferView":13,
			"componentType":5126,
			"count":310,
			"type":"VEC3"
		},
		{
			"bufferView":14,
			"componentType":5126,
			"count":310,
			"type":"VEC2"
		},
		{
			"bufferView":15,
			"componentType":5123,
			"count":588,
			"type":"SCALAR"
		},
		{
			"bufferView":16,
			"componentType":5126,
			"count":332,
			"max":[
				-0.05245219171047211,
				-0.085411936044693,
				-0.255117267370224
			],
			"min":[
				-0.18307092785835266,
				-0.08741196244955063,
				-0.30088692903518677
			],
			"type":"VEC3"
		},
		{
			"bufferView":17,
			"componentType":5126,
			"count":332,
			"type":"VEC3"
		},
		{
			"bufferView":18,
			"componentType":5126,
			"count":332,
			"type":"VEC2"
		},
		{
			"bufferView":19,
			"componentType":5123,
			"count":588,
			"type":"SCALAR"
		},
		{
			"bufferView":20,
			"componentType":5126,
			"count":364,
			"max":[
				0.1678801327943802,
				-0.08541194349527359,
				-0.24291649460792542
			],
			"min":[
				0.08646638691425323,
				-0.08745115250349045,
				-0.2905265688896179
			],
			"type":"VEC3"
		},
		{
			"bufferView":21,
			"componentType":5126,
			"count":364,
			"type":"VEC3"
		},
		{
			"bufferView":22,
			"componentType":5126,
			"count":364,
			"type":"VEC2"
		},
		{
			"bufferView":23,
			"componentType":5123,
			"count":588,
			"type":"SCALAR"
		},
		{
			"bufferView":24,
			"componentType":5126,
			"count":324,
			"max":[
				0.16760344803333282,
				-0.07879858464002609,
				-0.12226583808660507
			],
			"min":[
				0.08353841304779053,
				-0.08741196990013123,
				-0.254319965839386
			],
			"type":"VEC3"
		},
		{
			"bufferView":25,
			"componentType":5126,
			"count":324,
			"type":"VEC3"
		},
		{
			"bufferView":26,
			"componentType":5126,
			"count":324,
			"type":"VEC2"
		},
		{
			"bufferView":27,
			"componentType":5123,
			"count":588,
			"type":"SCALAR"
		},
		{
			"bufferView":28,
			"componentType":5126,
			"count":328,
			"max":[
				0.1365060955286026,
				-0.0672752633690834,
				-0.08847446739673615
			],
			"min":[
				0.08407247811555862,
				-0.08056758344173431,
				-0.13460293412208557
			],
			"type":"VEC3"
		},
		{
			"bufferView":29,
			"componentType":5126,
			"count":328,
			"type":"VEC3"
		},
		{
			"bufferView":30,
			"componentType":5126,
			"count":328,
			"type":"VEC2"
		},
		{
			"bufferView":31,
			"componentType":5123,
			"count":588,
			"type":"SCALAR"
		},
		{
			"bufferView":32,
			"componentType":5126,
			"count":310,
			"max":[
				0.11573490500450134,
				-0.044479429721832275,
				-0.07260531932115555
			],
			"min":[
				0.07132367044687271,
				-0.05777175351977348,
				-0.10465628653764725
			],
			"type":"VEC3"
		},
		{
			"bufferView":33,
			"componentType":5126,
			"count":310,
			"type":"VEC3"
		},
		{
			"bufferView":34,
			"componentType":5126,
			"count":310,
			"type":"VEC2"
		},
		{
			"bufferView":35,
			"componentType":5123,
			"count":588,
			"type":"SCALAR"
		},
		{
			"bufferView":36,
			"componentType":5126,
			"count":316,
			"max":[
				0.13626399636268616,
				-0.05637534707784653,
				-0.08834351599216461
			],
			"min":[
				0.07183654606342316,
				-0.06966768950223923,
				-0.10493262112140656
			],
			"type":"VEC3"
		},
		{
			"bufferView":37,
			"componentType":5126,
			"count":316,
			"type":"VEC3"
		},
		{
			"bufferView":38,
			"componentType":5126,
			"count":316,
			"type":"VEC2"
		},
		{
			"bufferView":39,
			"componentType":5123,
			"count":588,
			"type":"SCALAR"
		},
		{
			"bufferView":40,
			"componentType":5126,
			"count":312,
			"max":[
				0.11560187488794327,
				-0.03380889818072319,
				-0.030906828120350838
			],
			"min":[
				0.02664206549525261,
				-0.0471012108027935,
				-0.08327917009592056
			],
			"type":"VEC3"
		},
		{
			"bufferView":41,
			"componentType":5126,
			"count":312,
			"type":"VEC3"
		},
		{
			"bufferView":42,
			"componentType":5126,
			"count":312,
			"type":"VEC2"
		},
		{
			"bufferView":43,
			"componentType":5123,
			"count":588,
			"type":"SCALAR"
		},
		{
			"bufferView":44,
			"componentType":5126,
			"count":304,
			"max":[
				0.08409884572029114,
				-0.02254021167755127,
				-0.0038116928189992905
			],
			"min":[
				0.02616644650697708,
				-0.03583253175020218,
				-0.041770391166210175
			],
			"type":"VEC3"
		},
		{
			"bufferView":45,
			"componentType":5126,
			"count":304,
			"type":"VEC3"
		},
		{
			"bufferView":46,
			"componentType":5126,
			"count":304,
			"type":"VEC2"
		},
		{
			"bufferView":47,
			"componentType":5123,
			"count":588,
			"type":"SCALAR"
		},
		{
			"bufferView":48,
			"componentType":5126,
			"count":310,
			"max":[
				0.08455836027860641,
				0.000768294557929039,
				0.003802455961704254
			],
			"min":[
				0.048072803765535355,
				-0.025006629526615143,
				-0.014987567439675331
			],
			"type":"VEC3"
		},
		{
			"bufferView":49,
			"componentType":5126,
			"count":310,
			"type":"VEC3"
		},
		{
			"bufferView":50,
			"componentType":5126,
			"count":310,
			"type":"VEC2"
		},
		{
			"bufferView":51,
			"componentType":5123,
			"count":588,
			"type":"SCALAR"
		}
	],
	"bufferViews":[
		{
			"buffer":0,
			"byteLength":3672,
			"byteOffset":0,
			"target":34962
		},
		{
			"buffer":0,
			"byteLength":3672,
			"byteOffset":3672,
			"target":34962
		},
		{
			"buffer":0,
			"byteLength":2448,
			"byteOffset":7344,
			"target":34962
		},
		{
			"buffer":0,
			"byteLength":1176,
			"byteOffset":9792,
			"target":34963
		},
		{
			"buffer":0,
			"byteLength":3852,
			"byteOffset":10968,
			"target":34962
		},
		{
			"buffer":0,
			"byteLength":3852,
			"byteOffset":14820,
			"target":34962
		},
		{
			"buffer":0,
			"byteLength":2568,
			"byteOffset":18672,
			"target":34962
		},
		{
			"buffer":0,
			"byteLength":1176,
			"byteOffset":21240,
			"target":34963
		},
		{
			"buffer":0,
			"byteLength":3852,
			"byteOffset":22416,
			"target":34962
		},
		{
			"buffer":0,
			"byteLength":3852,
			"byteOffset":26268,
			"target":34962
		},
		{
			"buffer":0,
			"byteLength":2568,
			"byteOffset":30120,
			"target":34962
		},
		{
			"buffer":0,
			"byteLength":1176,
			"byteOffset":32688,
			"target":34963
		},
		{
			"buffer":0,
			"byteLength":3720,
			"byteOffset":33864,
			"target":34962
		},
		{
			"buffer":0,
			"byteLength":3720,
			"byteOffset":37584,
			"target":34962
		},
		{
			"buffer":0,
			"byteLength":2480,
			"byteOffset":41304,
			"target":34962
		},
		{
			"buffer":0,
			"byteLength":1176,
			"byteOffset":43784,
			"target":34963
		},
		{
			"buffer":0,
			"byteLength":3984,
			"byteOffset":44960,
			"target":34962
		},
		{
			"buffer":0,
			"byteLength":3984,
			"byteOffset":48944,
			"target":34962
		},
		{
			"buffer":0,
			"byteLength":2656,
			"byteOffset":52928,
			"target":34962
		},
		{
			"buffer":0,
			"byteLength":1176,
			"byteOffset":55584,
			"target":34963
		},
		{
			"buffer":0,
			"byteLength":4368,
			"byteOffset":56760,
			"target":34962
		},
		{
			"buffer":0,
			"byteLength":4368,
			"byteOffset":61128,
			"target":34962
		},
		{
			"buffer":0,
			"byteLength":2912,
			"byteOffset":65496,
			"target":34962
		},
		{
			"buffer":0,
			"byteLength":1176,
			"byteOffset":68408,
			"target":34963
		},
		{
			"buffer":0,
			"byteLength":3888,
			"byteOffset":69584,
			"target":34962
		},
		{
			"buffer":0,
			"byteLength":3888,
			"byteOffset":73472,
			"target":34962
		},
		{
			"buffer":0,
			"byteLength":2592,
			"byteOffset":77360,
			"target":34962
		},
		{
			"buffer":0,
			"byteLength":1176,
			"byteOffset":79952,
			"target":34963
		},
		{
			"buffer":0,
			"byteLength":3936,
			"byteOffset":81128,
			"target":34962
		},
		{
			"buffer":0,
			"byteLength":3936,
			"byteOffset":85064,
			"target":34962
		},
		{
			"buffer":0,
			"byteLength":2624,
			"byteOffset":89000,
			"target":34962
		},
		{
			"buffer":0,
			"byteLength":1176,
			"byteOffset":91624,
			"target":34963
		},
		{
			"buffer":0,
			"byteLength":3720,
			"byteOffset":92800,
			"target":34962
		},
		{
			"buffer":0,
			"byteLength":3720,
			"byteOffset":96520,
			"target":34962
		},
		{
			"buffer":0,
			"byteLength":2480,
			"byteOffset":100240,
			"target":34962
		},
		{
			"buffer":0,
			"byteLength":1176,
			"byteOffset":102720,
			"target":34963
		},
		{
			"buffer":0,
			"byteLength":3792,
			"byteOffset":103896,
			"target":34962
		},
		{
			"buffer":0,
			"byteLength":3792,
			"byteOffset":107688,
			"target":34962
		},
		{
			"buffer":0,
			"byteLength":2528,
			"byteOffset":111480,
			"target":34962
		},
		{
			"buffer":0,
			"byteLength":1176,
			"byteOffset":114008,
			"target":34963
		},
		{
			"buffer":0,
			"byteLength":3744,
			"byteOffset":115184,
			"target":34962
		},
		{
			"buffer":0,
			"byteLength":3744,
			"byteOffset":118928,
			"target":34962
		},
		{
			"buffer":0,
			"byteLength":2496,
			"byteOffset":122672,
			"target":34962
		},
		{
			"buffer":0,
			"byteLength":1176,
			"byteOffset":125168,
			"target":34963
		},
		{
			"buffer":0,
			"byteLength":3648,
			"byteOffset":126344,
			"target":34962
		},
		{
			"buffer":0,
			"byteLength":3648,
			"byteOffset":129992,
			"target":34962
		},
		{
			"buffer":0,
			"byteLength":2432,
			"byteOffset":133640,
			"target":34962
		},
		{
			"buffer":0,
			"byteLength":1176,
			"byteOffset":136072,
			"target":34963
		},
		{
			"buffer":0,
			"byteLength":3720,
			"byteOffset":137248,
			"target":34962
		},
		{
			"buffer":0,
			"byteLength":3720,
			"byteOffset":140968,
			"target":34962
		},
		{
			"buffer":0,
			"byteLength":2480,
			"byteOffset":144688,
			"target":34962
		},
		{
			"buffer":0,
			"byteLength":1176,
			"byteOffset":147168,
			"target":34963
		}
	],
	"buffers":[
		{
			"byteLength":148344,
			"uri":"1_bugr.bin"
		}
	]
}
