{
	"asset":{
		"generator":"Khronos glTF Blender I/O v4.0.44",
		"version":"2.0"
	},
	"scene":0,
	"scenes":[
		{
			"name":"Scene",
			"nodes":[
				0
			]
		}
	],
	"nodes":[
		{
			"mesh":0,
			"name":"navinavi.013",
			"rotation":[
				0,
				0.6994649171829224,
				0,
				0.7146669030189514
			],
			"scale":[
				22.83100128173828,
				22.830997467041016,
				22.83100128173828
			],
			"translation":[
				6.635371685028076,
				1.5983411073684692,
				-9.067937850952148
			]
		}
	],
	"materials":[
		{
			"doubleSided":true,
			"name":"Material.057",
			"pbrMetallicRoughness":{
				"baseColorFactor":[
					0.00045407674042508006,
					0,
					0.8000315427780151,
					1
				],
				"metallicFactor":0,
				"roughnessFactor":0.5
			}
		},
		{
			"doubleSided":true,
			"name":"Material.031",
			"pbrMetallicRoughness":{
				"baseColorFactor":[
					0.00045407674042508006,
					0,
					0.8000315427780151,
					1
				],
				"metallicFactor":0,
				"roughnessFactor":0.5
			}
		},
		{
			"doubleSided":true,
			"name":"Material.010",
			"pbrMetallicRoughness":{
				"baseColorFactor":[
					0.00045407674042508006,
					0,
					0.8000315427780151,
					1
				],
				"metallicFactor":0,
				"roughnessFactor":0.5
			}
		},
		{
			"doubleSided":true,
			"name":"Material.013",
			"pbrMetallicRoughness":{
				"baseColorFactor":[
					0.00045407674042508006,
					0,
					0.8000315427780151,
					1
				],
				"metallicFactor":0,
				"roughnessFactor":0.5
			}
		},
		{
			"doubleSided":true,
			"name":"Material.027",
			"pbrMetallicRoughness":{
				"baseColorFactor":[
					0.00045407674042508006,
					0,
					0.8000315427780151,
					1
				],
				"metallicFactor":0,
				"roughnessFactor":0.5
			}
		},
		{
			"doubleSided":true,
			"name":"Material.033",
			"pbrMetallicRoughness":{
				"baseColorFactor":[
					0.00045407674042508006,
					0,
					0.8000315427780151,
					1
				],
				"metallicFactor":0,
				"roughnessFactor":0.5
			}
		},
		{
			"doubleSided":true,
			"name":"Material.038",
			"pbrMetallicRoughness":{
				"baseColorFactor":[
					0.00045407674042508006,
					0,
					0.8000315427780151,
					1
				],
				"metallicFactor":0,
				"roughnessFactor":0.5
			}
		},
		{
			"doubleSided":true,
			"name":"Material.041",
			"pbrMetallicRoughness":{
				"baseColorFactor":[
					0.00045407674042508006,
					0,
					0.8000315427780151,
					1
				],
				"metallicFactor":0,
				"roughnessFactor":0.5
			}
		},
		{
			"doubleSided":true,
			"name":"Material.043",
			"pbrMetallicRoughness":{
				"baseColorFactor":[
					0.00045407674042508006,
					0,
					0.8000315427780151,
					1
				],
				"metallicFactor":0,
				"roughnessFactor":0.5
			}
		},
		{
			"doubleSided":true,
			"name":"Material.046",
			"pbrMetallicRoughness":{
				"baseColorFactor":[
					0.00045407674042508006,
					0,
					0.8000315427780151,
					1
				],
				"metallicFactor":0,
				"roughnessFactor":0.5
			}
		},
		{
			"doubleSided":true,
			"name":"Material.051",
			"pbrMetallicRoughness":{
				"baseColorFactor":[
					0.00045407674042508006,
					0,
					0.8000315427780151,
					1
				],
				"metallicFactor":0,
				"roughnessFactor":0.5
			}
		},
		{
			"doubleSided":true,
			"name":"Material.053",
			"pbrMetallicRoughness":{
				"baseColorFactor":[
					0.00045407674042508006,
					0,
					0.8000315427780151,
					1
				],
				"metallicFactor":0,
				"roughnessFactor":0.5
			}
		},
		{
			"doubleSided":true,
			"name":"Material.055",
			"pbrMetallicRoughness":{
				"baseColorFactor":[
					0.00045407674042508006,
					0,
					0.8000315427780151,
					1
				],
				"metallicFactor":0,
				"roughnessFactor":0.5
			}
		}
	],
	"meshes":[
		{
			"name":"Curve.073",
			"primitives":[
				{
					"attributes":{
						"POSITION":0,
						"NORMAL":1,
						"TEXCOORD_0":2
					},
					"indices":3,
					"material":0
				},
				{
					"attributes":{
						"POSITION":4,
						"NORMAL":5,
						"TEXCOORD_0":6
					},
					"indices":7,
					"material":1
				},
				{
					"attributes":{
						"POSITION":8,
						"NORMAL":9,
						"TEXCOORD_0":10
					},
					"indices":11,
					"material":2
				},
				{
					"attributes":{
						"POSITION":12,
						"NORMAL":13,
						"TEXCOORD_0":14
					},
					"indices":11,
					"material":3
				},
				{
					"attributes":{
						"POSITION":15,
						"NORMAL":16,
						"TEXCOORD_0":17
					},
					"indices":7,
					"material":4
				},
				{
					"attributes":{
						"POSITION":18,
						"NORMAL":19,
						"TEXCOORD_0":20
					},
					"indices":21,
					"material":5
				},
				{
					"attributes":{
						"POSITION":22,
						"NORMAL":23,
						"TEXCOORD_0":24
					},
					"indices":25,
					"material":6
				},
				{
					"attributes":{
						"POSITION":26,
						"NORMAL":27,
						"TEXCOORD_0":28
					},
					"indices":29,
					"material":7
				},
				{
					"attributes":{
						"POSITION":30,
						"NORMAL":31,
						"TEXCOORD_0":32
					},
					"indices":33,
					"material":8
				},
				{
					"attributes":{
						"POSITION":34,
						"NORMAL":35,
						"TEXCOORD_0":36
					},
					"indices":37,
					"material":9
				},
				{
					"attributes":{
						"POSITION":38,
						"NORMAL":39,
						"TEXCOORD_0":40
					},
					"indices":41,
					"material":10
				},
				{
					"attributes":{
						"POSITION":42,
						"NORMAL":43,
						"TEXCOORD_0":44
					},
					"indices":45,
					"material":11
				},
				{
					"attributes":{
						"POSITION":46,
						"NORMAL":47,
						"TEXCOORD_0":48
					},
					"indices":49,
					"material":12
				}
			]
		}
	],
	"accessors":[
		{
			"bufferView":0,
			"componentType":5126,
			"count":300,
			"max":[
				0.053095195442438126,
				0.0010000006295740604,
				0.01216090563684702
			],
			"min":[
				-0.005146307870745659,
				-0.0010000038892030716,
				-0.0060209897346794605
			],
			"type":"VEC3"
		},
		{
			"bufferView":1,
			"componentType":5126,
			"count":300,
			"type":"VEC3"
		},
		{
			"bufferView":2,
			"componentType":5126,
			"count":300,
			"type":"VEC2"
		},
		{
			"bufferView":3,
			"componentType":5123,
			"count":588,
			"type":"SCALAR"
		},
		{
			"bufferView":4,
			"componentType":5126,
			"count":300,
			"max":[
				0.09659932553768158,
				-0.08541189134120941,
				-0.2792101204395294
			],
			"min":[
				-0.16121801733970642,
				-0.08741194009780884,
				-0.36654189229011536
			],
			"type":"VEC3"
		},
		{
			"bufferView":5,
			"componentType":5126,
			"count":300,
			"type":"VEC3"
		},
		{
			"bufferView":6,
			"componentType":5126,
			"count":300,
			"type":"VEC2"
		},
		{
			"bufferView":7,
			"componentType":5123,
			"count":588,
			"type":"SCALAR"
		},
		{
			"bufferView":8,
			"componentType":5126,
			"count":300,
			"max":[
				-0.1515709012746811,
				-0.08458369970321655,
				-0.2897811532020569
			],
			"min":[
				-0.18307217955589294,
				-0.08741189539432526,
				-0.36713218688964844
			],
			"type":"VEC3"
		},
		{
			"bufferView":9,
			"componentType":5126,
			"count":300,
			"type":"VEC3"
		},
		{
			"bufferView":10,
			"componentType":5126,
			"count":300,
			"type":"VEC2"
		},
		{
			"bufferView":11,
			"componentType":5123,
			"count":588,
			"type":"SCALAR"
		},
		{
			"bufferView":12,
			"componentType":5126,
			"count":300,
			"max":[
				-0.03305888548493385,
				-0.08458372205495834,
				-0.2551012635231018
			],
			"min":[
				-0.06396342068910599,
				-0.08741191774606705,
				-0.3306944966316223
			],
			"type":"VEC3"
		},
		{
			"bufferView":13,
			"componentType":5126,
			"count":300,
			"type":"VEC3"
		},
		{
			"bufferView":14,
			"componentType":5126,
			"count":300,
			"type":"VEC2"
		},
		{
			"bufferView":15,
			"componentType":5126,
			"count":300,
			"max":[
				-0.05245219171047211,
				-0.085411936044693,
				-0.255117267370224
			],
			"min":[
				-0.18307092785835266,
				-0.08741196244955063,
				-0.30088692903518677
			],
			"type":"VEC3"
		},
		{
			"bufferView":16,
			"componentType":5126,
			"count":300,
			"type":"VEC3"
		},
		{
			"bufferView":17,
			"componentType":5126,
			"count":300,
			"type":"VEC2"
		},
		{
			"bufferView":18,
			"componentType":5126,
			"count":300,
			"max":[
				0.1678801327943802,
				-0.08541194349527359,
				-0.24291649460792542
			],
			"min":[
				0.08646638691425323,
				-0.08745115250349045,
				-0.2905265688896179
			],
			"type":"VEC3"
		},
		{
			"bufferView":19,
			"componentType":5126,
			"count":300,
			"type":"VEC3"
		},
		{
			"bufferView":20,
			"componentType":5126,
			"count":300,
			"type":"VEC2"
		},
		{
			"bufferView":21,
			"componentType":5123,
			"count":588,
			"type":"SCALAR"
		},
		{
			"bufferView":22,
			"componentType":5126,
			"count":300,
			"max":[
				0.16760344803333282,
				-0.07879858464002609,
				-0.12226583808660507
			],
			"min":[
				0.08353841304779053,
				-0.08741196990013123,
				-0.254319965839386
			],
			"type":"VEC3"
		},
		{
			"bufferView":23,
			"componentType":5126,
			"count":300,
			"type":"VEC3"
		},
		{
			"bufferView":24,
			"componentType":5126,
			"count":300,
			"type":"VEC2"
		},
		{
			"bufferView":25,
			"componentType":5123,
			"count":588,
			"type":"SCALAR"
		},
		{
			"bufferView":26,
			"componentType":5126,
			"count":300,
			"max":[
				0.1365060955286026,
				-0.0672752633690834,
				-0.08847446739673615
			],
			"min":[
				0.08407247811555862,
				-0.08056758344173431,
				-0.13460293412208557
			],
			"type":"VEC3"
		},
		{
			"bufferView":27,
			"componentType":5126,
			"count":300,
			"type":"VEC3"
		},
		{
			"bufferView":28,
			"componentType":5126,
			"count":300,
			"type":"VEC2"
		},
		{
			"bufferView":29,
			"componentType":5123,
			"count":588,
			"type":"SCALAR"
		},
		{
			"bufferView":30,
			"componentType":5126,
			"count":300,
			"max":[
				0.11573490500450134,
				-0.044479429721832275,
				-0.07260531932115555
			],
			"min":[
				0.07132367044687271,
				-0.05777175351977348,
				-0.10465628653764725
			],
			"type":"VEC3"
		},
		{
			"bufferView":31,
			"componentType":5126,
			"count":300,
			"type":"VEC3"
		},
		{
			"bufferView":32,
			"componentType":5126,
			"count":300,
			"type":"VEC2"
		},
		{
			"bufferView":33,
			"componentType":5123,
			"count":588,
			"type":"SCALAR"
		},
		{
			"bufferView":34,
			"componentType":5126,
			"count":300,
			"max":[
				0.13626399636268616,
				-0.05637534707784653,
				-0.08834351599216461
			],
			"min":[
				0.07183654606342316,
				-0.06966768950223923,
				-0.10493262112140656
			],
			"type":"VEC3"
		},
		{
			"bufferView":35,
			"componentType":5126,
			"count":300,
			"type":"VEC3"
		},
		{
			"bufferView":36,
			"componentType":5126,
			"count":300,
			"type":"VEC2"
		},
		{
			"bufferView":37,
			"componentType":5123,
			"count":588,
			"type":"SCALAR"
		},
		{
			"bufferView":38,
			"componentType":5126,
			"count":300,
			"max":[
				0.11560187488794327,
				-0.03380889818072319,
				-0.030906828120350838
			],
			"min":[
				0.02664206549525261,
				-0.0471012108027935,
				-0.08327917009592056
			],
			"type":"VEC3"
		},
		{
			"bufferView":39,
			"componentType":5126,
			"count":300,
			"type":"VEC3"
		},
		{
			"bufferView":40,
			"componentType":5126,
			"count":300,
			"type":"VEC2"
		},
		{
			"bufferView":41,
			"componentType":5123,
			"count":588,
			"type":"SCALAR"
		},
		{
			"bufferView":42,
			"componentType":5126,
			"count":300,
			"max":[
				0.08409884572029114,
				-0.02254021167755127,
				-0.0038116928189992905
			],
			"min":[
				0.02616644650697708,
				-0.03583253175020218,
				-0.041770391166210175
			],
			"type":"VEC3"
		},
		{
			"bufferView":43,
			"componentType":5126,
			"count":300,
			"type":"VEC3"
		},
		{
			"bufferView":44,
			"componentType":5126,
			"count":300,
			"type":"VEC2"
		},
		{
			"bufferView":45,
			"componentType":5123,
			"count":588,
			"type":"SCALAR"
		},
		{
			"bufferView":46,
			"componentType":5126,
			"count":300,
			"max":[
				0.08455836027860641,
				0.000768294557929039,
				0.003802455961704254
			],
			"min":[
				0.048072803765535355,
				-0.025006629526615143,
				-0.014987567439675331
			],
			"type":"VEC3"
		},
		{
			"bufferView":47,
			"componentType":5126,
			"count":300,
			"type":"VEC3"
		},
		{
			"bufferView":48,
			"componentType":5126,
			"count":300,
			"type":"VEC2"
		},
		{
			"bufferView":49,
			"componentType":5123,
			"count":588,
			"type":"SCALAR"
		}
	],
	"bufferViews":[
		{
			"buffer":0,
			"byteLength":3600,
			"byteOffset":0,
			"target":34962
		},
		{
			"buffer":0,
			"byteLength":3600,
			"byteOffset":3600,
			"target":34962
		},
		{
			"buffer":0,
			"byteLength":2400,
			"byteOffset":7200,
			"target":34962
		},
		{
			"buffer":0,
			"byteLength":1176,
			"byteOffset":9600,
			"target":34963
		},
		{
			"buffer":0,
			"byteLength":3600,
			"byteOffset":10776,
			"target":34962
		},
		{
			"buffer":0,
			"byteLength":3600,
			"byteOffset":14376,
			"target":34962
		},
		{
			"buffer":0,
			"byteLength":2400,
			"byteOffset":17976,
			"target":34962
		},
		{
			"buffer":0,
			"byteLength":1176,
			"byteOffset":20376,
			"target":34963
		},
		{
			"buffer":0,
			"byteLength":3600,
			"byteOffset":21552,
			"target":34962
		},
		{
			"buffer":0,
			"byteLength":3600,
			"byteOffset":25152,
			"target":34962
		},
		{
			"buffer":0,
			"byteLength":2400,
			"byteOffset":28752,
			"target":34962
		},
		{
			"buffer":0,
			"byteLength":1176,
			"byteOffset":31152,
			"target":34963
		},
		{
			"buffer":0,
			"byteLength":3600,
			"byteOffset":32328,
			"target":34962
		},
		{
			"buffer":0,
			"byteLength":3600,
			"byteOffset":35928,
			"target":34962
		},
		{
			"buffer":0,
			"byteLength":2400,
			"byteOffset":39528,
			"target":34962
		},
		{
			"buffer":0,
			"byteLength":3600,
			"byteOffset":41928,
			"target":34962
		},
		{
			"buffer":0,
			"byteLength":3600,
			"byteOffset":45528,
			"target":34962
		},
		{
			"buffer":0,
			"byteLength":2400,
			"byteOffset":49128,
			"target":34962
		},
		{
			"buffer":0,
			"byteLength":3600,
			"byteOffset":51528,
			"target":34962
		},
		{
			"buffer":0,
			"byteLength":3600,
			"byteOffset":55128,
			"target":34962
		},
		{
			"buffer":0,
			"byteLength":2400,
			"byteOffset":58728,
			"target":34962
		},
		{
			"buffer":0,
			"byteLength":1176,
			"byteOffset":61128,
			"target":34963
		},
		{
			"buffer":0,
			"byteLength":3600,
			"byteOffset":62304,
			"target":34962
		},
		{
			"buffer":0,
			"byteLength":3600,
			"byteOffset":65904,
			"target":34962
		},
		{
			"buffer":0,
			"byteLength":2400,
			"byteOffset":69504,
			"target":34962
		},
		{
			"buffer":0,
			"byteLength":1176,
			"byteOffset":71904,
			"target":34963
		},
		{
			"buffer":0,
			"byteLength":3600,
			"byteOffset":73080,
			"target":34962
		},
		{
			"buffer":0,
			"byteLength":3600,
			"byteOffset":76680,
			"target":34962
		},
		{
			"buffer":0,
			"byteLength":2400,
			"byteOffset":80280,
			"target":34962
		},
		{
			"buffer":0,
			"byteLength":1176,
			"byteOffset":82680,
			"target":34963
		},
		{
			"buffer":0,
			"byteLength":3600,
			"byteOffset":83856,
			"target":34962
		},
		{
			"buffer":0,
			"byteLength":3600,
			"byteOffset":87456,
			"target":34962
		},
		{
			"buffer":0,
			"byteLength":2400,
			"byteOffset":91056,
			"target":34962
		},
		{
			"buffer":0,
			"byteLength":1176,
			"byteOffset":93456,
			"target":34963
		},
		{
			"buffer":0,
			"byteLength":3600,
			"byteOffset":94632,
			"target":34962
		},
		{
			"buffer":0,
			"byteLength":3600,
			"byteOffset":98232,
			"target":34962
		},
		{
			"buffer":0,
			"byteLength":2400,
			"byteOffset":101832,
			"target":34962
		},
		{
			"buffer":0,
			"byteLength":1176,
			"byteOffset":104232,
			"target":34963
		},
		{
			"buffer":0,
			"byteLength":3600,
			"byteOffset":105408,
			"target":34962
		},
		{
			"buffer":0,
			"byteLength":3600,
			"byteOffset":109008,
			"target":34962
		},
		{
			"buffer":0,
			"byteLength":2400,
			"byteOffset":112608,
			"target":34962
		},
		{
			"buffer":0,
			"byteLength":1176,
			"byteOffset":115008,
			"target":34963
		},
		{
			"buffer":0,
			"byteLength":3600,
			"byteOffset":116184,
			"target":34962
		},
		{
			"buffer":0,
			"byteLength":3600,
			"byteOffset":119784,
			"target":34962
		},
		{
			"buffer":0,
			"byteLength":2400,
			"byteOffset":123384,
			"target":34962
		},
		{
			"buffer":0,
			"byteLength":1176,
			"byteOffset":125784,
			"target":34963
		},
		{
			"buffer":0,
			"byteLength":3600,
			"byteOffset":126960,
			"target":34962
		},
		{
			"buffer":0,
			"byteLength":3600,
			"byteOffset":130560,
			"target":34962
		},
		{
			"buffer":0,
			"byteLength":2400,
			"byteOffset":134160,
			"target":34962
		},
		{
			"buffer":0,
			"byteLength":1176,
			"byteOffset":136560,
			"target":34963
		}
	],
	"buffers":[
		{
			"byteLength":137736,
			"uri":"1_Bugrov.bin"
		}
	]
}
