{
	"asset":{
		"generator":"Khronos glTF Blender I/O v4.0.44",
		"version":"2.0"
	},
	"scene":0,
	"scenes":[
		{
			"name":"Scene",
			"nodes":[
				0
			]
		}
	],
	"nodes":[
		{
			"mesh":0,
			"name":"navinavi.001",
			"rotation":[
				0,
				0.5869768857955933,
				0,
				0.8096036911010742
			],
			"scale":[
				22.83100128173828,
				22.830997467041016,
				22.83100128173828
			],
			"translation":[
				-2.093271255493164,
				-0.3517026901245117,
				-3.3548192977905273
			]
		}
	],
	"materials":[
		{
			"doubleSided":true,
			"name":"Material.122",
			"pbrMetallicRoughness":{
				"baseColorFactor":[
					0.00045407674042508006,
					0,
					0.8000315427780151,
					1
				],
				"metallicFactor":0,
				"roughnessFactor":0.5
			}
		},
		{
			"doubleSided":true,
			"name":"Material.124",
			"pbrMetallicRoughness":{
				"baseColorFactor":[
					0.00045407674042508006,
					0,
					0.8000315427780151,
					1
				],
				"metallicFactor":0,
				"roughnessFactor":0.5
			}
		},
		{
			"doubleSided":true,
			"name":"Material.126",
			"pbrMetallicRoughness":{
				"baseColorFactor":[
					0.00045407674042508006,
					0,
					0.8000315427780151,
					1
				],
				"metallicFactor":0,
				"roughnessFactor":0.5
			}
		},
		{
			"doubleSided":true,
			"name":"Material.128",
			"pbrMetallicRoughness":{
				"baseColorFactor":[
					0.00045407674042508006,
					0,
					0.8000315427780151,
					1
				],
				"metallicFactor":0,
				"roughnessFactor":0.5
			}
		},
		{
			"doubleSided":true,
			"name":"Material.130",
			"pbrMetallicRoughness":{
				"baseColorFactor":[
					0.00045407674042508006,
					0,
					0.8000315427780151,
					1
				],
				"metallicFactor":0,
				"roughnessFactor":0.5
			}
		},
		{
			"doubleSided":true,
			"name":"Material.132",
			"pbrMetallicRoughness":{
				"baseColorFactor":[
					0.00045407674042508006,
					0,
					0.8000315427780151,
					1
				],
				"metallicFactor":0,
				"roughnessFactor":0.5
			}
		}
	],
	"meshes":[
		{
			"name":"Curve.101",
			"primitives":[
				{
					"attributes":{
						"POSITION":0,
						"NORMAL":1,
						"TEXCOORD_0":2
					},
					"indices":3,
					"material":0
				},
				{
					"attributes":{
						"POSITION":4,
						"NORMAL":5,
						"TEXCOORD_0":6
					},
					"indices":7,
					"material":1
				},
				{
					"attributes":{
						"POSITION":8,
						"NORMAL":9,
						"TEXCOORD_0":10
					},
					"indices":3,
					"material":2
				},
				{
					"attributes":{
						"POSITION":11,
						"NORMAL":12,
						"TEXCOORD_0":13
					},
					"indices":14,
					"material":3
				},
				{
					"attributes":{
						"POSITION":15,
						"NORMAL":16,
						"TEXCOORD_0":17
					},
					"indices":18,
					"material":4
				},
				{
					"attributes":{
						"POSITION":19,
						"NORMAL":20,
						"TEXCOORD_0":21
					},
					"indices":22,
					"material":5
				}
			]
		}
	],
	"accessors":[
		{
			"bufferView":0,
			"componentType":5126,
			"count":300,
			"max":[
				0.10683983564376831,
				1.4873407394588867e-08,
				-0.004646506160497665
			],
			"min":[
				-0.019723467528820038,
				-0.0019999947398900986,
				-0.017702439799904823
			],
			"type":"VEC3"
		},
		{
			"bufferView":1,
			"componentType":5126,
			"count":300,
			"type":"VEC3"
		},
		{
			"bufferView":2,
			"componentType":5126,
			"count":300,
			"type":"VEC2"
		},
		{
			"bufferView":3,
			"componentType":5123,
			"count":588,
			"type":"SCALAR"
		},
		{
			"bufferView":4,
			"componentType":5126,
			"count":300,
			"max":[
				0.10733239352703094,
				2.396574672047791e-08,
				0.07173576205968857
			],
			"min":[
				0.0952540934085846,
				-0.002000093460083008,
				-0.01782885193824768
			],
			"type":"VEC3"
		},
		{
			"bufferView":5,
			"componentType":5126,
			"count":300,
			"type":"VEC3"
		},
		{
			"bufferView":6,
			"componentType":5126,
			"count":300,
			"type":"VEC2"
		},
		{
			"bufferView":7,
			"componentType":5123,
			"count":588,
			"type":"SCALAR"
		},
		{
			"bufferView":8,
			"componentType":5126,
			"count":300,
			"max":[
				0.34296897053718567,
				-7.541493829421597e-08,
				0.07159319519996643
			],
			"min":[
				0.09612645208835602,
				-0.002000083914026618,
				0.05843770503997803
			],
			"type":"VEC3"
		},
		{
			"bufferView":9,
			"componentType":5126,
			"count":300,
			"type":"VEC3"
		},
		{
			"bufferView":10,
			"componentType":5126,
			"count":300,
			"type":"VEC2"
		},
		{
			"bufferView":11,
			"componentType":5126,
			"count":300,
			"max":[
				0.36166611313819885,
				1.952430039864339e-08,
				0.07044035941362381
			],
			"min":[
				0.3316733241081238,
				-0.002000092761591077,
				-0.01799064129590988
			],
			"type":"VEC3"
		},
		{
			"bufferView":12,
			"componentType":5126,
			"count":300,
			"type":"VEC3"
		},
		{
			"bufferView":13,
			"componentType":5126,
			"count":300,
			"type":"VEC2"
		},
		{
			"bufferView":14,
			"componentType":5123,
			"count":588,
			"type":"SCALAR"
		},
		{
			"bufferView":15,
			"componentType":5126,
			"count":300,
			"max":[
				0.4388003349304199,
				4.541528930701588e-09,
				0.0031071300618350506
			],
			"min":[
				0.3500394821166992,
				-0.00200000056065619,
				-0.01866062358021736
			],
			"type":"VEC3"
		},
		{
			"bufferView":16,
			"componentType":5126,
			"count":300,
			"type":"VEC3"
		},
		{
			"bufferView":17,
			"componentType":5126,
			"count":300,
			"type":"VEC2"
		},
		{
			"bufferView":18,
			"componentType":5123,
			"count":588,
			"type":"SCALAR"
		},
		{
			"bufferView":19,
			"componentType":5126,
			"count":300,
			"max":[
				0.4467441141605377,
				5.681067705154419e-08,
				0.0030537694692611694
			],
			"min":[
				0.42771628499031067,
				-0.0020000175572931767,
				-0.04916433244943619
			],
			"type":"VEC3"
		},
		{
			"bufferView":20,
			"componentType":5126,
			"count":300,
			"type":"VEC3"
		},
		{
			"bufferView":21,
			"componentType":5126,
			"count":300,
			"type":"VEC2"
		},
		{
			"bufferView":22,
			"componentType":5123,
			"count":588,
			"type":"SCALAR"
		}
	],
	"bufferViews":[
		{
			"buffer":0,
			"byteLength":3600,
			"byteOffset":0,
			"target":34962
		},
		{
			"buffer":0,
			"byteLength":3600,
			"byteOffset":3600,
			"target":34962
		},
		{
			"buffer":0,
			"byteLength":2400,
			"byteOffset":7200,
			"target":34962
		},
		{
			"buffer":0,
			"byteLength":1176,
			"byteOffset":9600,
			"target":34963
		},
		{
			"buffer":0,
			"byteLength":3600,
			"byteOffset":10776,
			"target":34962
		},
		{
			"buffer":0,
			"byteLength":3600,
			"byteOffset":14376,
			"target":34962
		},
		{
			"buffer":0,
			"byteLength":2400,
			"byteOffset":17976,
			"target":34962
		},
		{
			"buffer":0,
			"byteLength":1176,
			"byteOffset":20376,
			"target":34963
		},
		{
			"buffer":0,
			"byteLength":3600,
			"byteOffset":21552,
			"target":34962
		},
		{
			"buffer":0,
			"byteLength":3600,
			"byteOffset":25152,
			"target":34962
		},
		{
			"buffer":0,
			"byteLength":2400,
			"byteOffset":28752,
			"target":34962
		},
		{
			"buffer":0,
			"byteLength":3600,
			"byteOffset":31152,
			"target":34962
		},
		{
			"buffer":0,
			"byteLength":3600,
			"byteOffset":34752,
			"target":34962
		},
		{
			"buffer":0,
			"byteLength":2400,
			"byteOffset":38352,
			"target":34962
		},
		{
			"buffer":0,
			"byteLength":1176,
			"byteOffset":40752,
			"target":34963
		},
		{
			"buffer":0,
			"byteLength":3600,
			"byteOffset":41928,
			"target":34962
		},
		{
			"buffer":0,
			"byteLength":3600,
			"byteOffset":45528,
			"target":34962
		},
		{
			"buffer":0,
			"byteLength":2400,
			"byteOffset":49128,
			"target":34962
		},
		{
			"buffer":0,
			"byteLength":1176,
			"byteOffset":51528,
			"target":34963
		},
		{
			"buffer":0,
			"byteLength":3600,
			"byteOffset":52704,
			"target":34962
		},
		{
			"buffer":0,
			"byteLength":3600,
			"byteOffset":56304,
			"target":34962
		},
		{
			"buffer":0,
			"byteLength":2400,
			"byteOffset":59904,
			"target":34962
		},
		{
			"buffer":0,
			"byteLength":1176,
			"byteOffset":62304,
			"target":34963
		}
	],
	"buffers":[
		{
			"byteLength":63480,
			"uri":"1_Degtiarjov.bin"
		}
	]
}
