{
	"asset":{
		"generator":"Khronos glTF Blender I/O v4.0.44",
		"version":"2.0"
	},
	"scene":0,
	"scenes":[
		{
			"name":"Scene",
			"nodes":[
				0
			]
		}
	],
	"nodes":[
		{
			"mesh":0,
			"name":"navinavi.001",
			"rotation":[
				0,
				0.5346336364746094,
				0,
				0.8450839519500732
			],
			"scale":[
				22.83099937438965,
				22.830997467041016,
				22.83099937438965
			],
			"translation":[
				4.395163059234619,
				1.5356898307800293,
				-3.0977790355682373
			]
		}
	],
	"materials":[
		{
			"doubleSided":true,
			"name":"Material.014",
			"pbrMetallicRoughness":{
				"baseColorFactor":[
					0.00045407674042508006,
					0,
					0.8000315427780151,
					1
				],
				"metallicFactor":0,
				"roughnessFactor":0.5
			}
		},
		{
			"doubleSided":true,
			"name":"Material.029",
			"pbrMetallicRoughness":{
				"baseColorFactor":[
					0.00045407674042508006,
					0,
					0.8000315427780151,
					1
				],
				"metallicFactor":0,
				"roughnessFactor":0.5
			}
		},
		{
			"doubleSided":true,
			"name":"Material.034",
			"pbrMetallicRoughness":{
				"baseColorFactor":[
					0.00045407674042508006,
					0,
					0.8000315427780151,
					1
				],
				"metallicFactor":0,
				"roughnessFactor":0.5
			}
		},
		{
			"doubleSided":true,
			"name":"Material.066",
			"pbrMetallicRoughness":{
				"baseColorFactor":[
					0.00045407674042508006,
					0,
					0.8000315427780151,
					1
				],
				"metallicFactor":0,
				"roughnessFactor":0.5
			}
		}
	],
	"meshes":[
		{
			"name":"Curve.020",
			"primitives":[
				{
					"attributes":{
						"POSITION":0,
						"NORMAL":1,
						"TEXCOORD_0":2
					},
					"indices":3,
					"material":0
				},
				{
					"attributes":{
						"POSITION":4,
						"NORMAL":5,
						"TEXCOORD_0":6
					},
					"indices":7,
					"material":1
				},
				{
					"attributes":{
						"POSITION":8,
						"NORMAL":9,
						"TEXCOORD_0":10
					},
					"indices":11,
					"material":2
				},
				{
					"attributes":{
						"POSITION":12,
						"NORMAL":13,
						"TEXCOORD_0":14
					},
					"indices":15,
					"material":3
				}
			]
		}
	],
	"accessors":[
		{
			"bufferView":0,
			"componentType":5126,
			"count":316,
			"max":[
				0.23020532727241516,
				3.544375903885566e-11,
				0.011239705607295036
			],
			"min":[
				0.11156922578811646,
				-0.017369043081998825,
				-0.010110720992088318
			],
			"type":"VEC3"
		},
		{
			"bufferView":1,
			"componentType":5126,
			"count":316,
			"type":"VEC3"
		},
		{
			"bufferView":2,
			"componentType":5126,
			"count":316,
			"type":"VEC2"
		},
		{
			"bufferView":3,
			"componentType":5123,
			"count":588,
			"type":"SCALAR"
		},
		{
			"bufferView":4,
			"componentType":5126,
			"count":332,
			"max":[
				-0.325474351644516,
				-0.04652084410190582,
				-0.018333464860916138
			],
			"min":[
				-0.3484512269496918,
				-0.0813545361161232,
				-0.1837237924337387
			],
			"type":"VEC3"
		},
		{
			"bufferView":5,
			"componentType":5126,
			"count":332,
			"type":"VEC3"
		},
		{
			"bufferView":6,
			"componentType":5126,
			"count":332,
			"type":"VEC2"
		},
		{
			"bufferView":7,
			"componentType":5123,
			"count":588,
			"type":"SCALAR"
		},
		{
			"bufferView":8,
			"componentType":5126,
			"count":344,
			"max":[
				-0.30628305673599243,
				-0.07831968367099762,
				-0.1742819994688034
			],
			"min":[
				-0.348826140165329,
				-0.0811479240655899,
				-0.18616130948066711
			],
			"type":"VEC3"
		},
		{
			"bufferView":9,
			"componentType":5126,
			"count":344,
			"type":"VEC3"
		},
		{
			"bufferView":10,
			"componentType":5126,
			"count":344,
			"type":"VEC2"
		},
		{
			"bufferView":11,
			"componentType":5123,
			"count":588,
			"type":"SCALAR"
		},
		{
			"bufferView":12,
			"componentType":5126,
			"count":326,
			"max":[
				0.12203294783830643,
				-0.014718970283865929,
				0.010800749063491821
			],
			"min":[
				-0.3375210165977478,
				-0.04849620535969734,
				-0.02946445718407631
			],
			"type":"VEC3"
		},
		{
			"bufferView":13,
			"componentType":5126,
			"count":326,
			"type":"VEC3"
		},
		{
			"bufferView":14,
			"componentType":5126,
			"count":326,
			"type":"VEC2"
		},
		{
			"bufferView":15,
			"componentType":5123,
			"count":588,
			"type":"SCALAR"
		}
	],
	"bufferViews":[
		{
			"buffer":0,
			"byteLength":3792,
			"byteOffset":0,
			"target":34962
		},
		{
			"buffer":0,
			"byteLength":3792,
			"byteOffset":3792,
			"target":34962
		},
		{
			"buffer":0,
			"byteLength":2528,
			"byteOffset":7584,
			"target":34962
		},
		{
			"buffer":0,
			"byteLength":1176,
			"byteOffset":10112,
			"target":34963
		},
		{
			"buffer":0,
			"byteLength":3984,
			"byteOffset":11288,
			"target":34962
		},
		{
			"buffer":0,
			"byteLength":3984,
			"byteOffset":15272,
			"target":34962
		},
		{
			"buffer":0,
			"byteLength":2656,
			"byteOffset":19256,
			"target":34962
		},
		{
			"buffer":0,
			"byteLength":1176,
			"byteOffset":21912,
			"target":34963
		},
		{
			"buffer":0,
			"byteLength":4128,
			"byteOffset":23088,
			"target":34962
		},
		{
			"buffer":0,
			"byteLength":4128,
			"byteOffset":27216,
			"target":34962
		},
		{
			"buffer":0,
			"byteLength":2752,
			"byteOffset":31344,
			"target":34962
		},
		{
			"buffer":0,
			"byteLength":1176,
			"byteOffset":34096,
			"target":34963
		},
		{
			"buffer":0,
			"byteLength":3912,
			"byteOffset":35272,
			"target":34962
		},
		{
			"buffer":0,
			"byteLength":3912,
			"byteOffset":39184,
			"target":34962
		},
		{
			"buffer":0,
			"byteLength":2608,
			"byteOffset":43096,
			"target":34962
		},
		{
			"buffer":0,
			"byteLength":1176,
			"byteOffset":45704,
			"target":34963
		}
	],
	"buffers":[
		{
			"byteLength":46880,
			"uri":"2_bugr.bin"
		}
	]
}
