{
	"asset":{
		"generator":"Khronos glTF Blender I/O v4.0.44",
		"version":"2.0"
	},
	"scene":0,
	"scenes":[
		{
			"name":"Scene",
			"nodes":[
				0
			]
		}
	],
	"nodes":[
		{
			"mesh":0,
			"name":"navinavi.006",
			"rotation":[
				0,
				0.5933616757392883,
				0,
				0.8049359917640686
			],
			"scale":[
				22.83099937438965,
				22.830997467041016,
				22.83099937438965
			],
			"translation":[
				5.803164482116699,
				1.2942057847976685,
				-8.590801239013672
			]
		}
	],
	"materials":[
		{
			"doubleSided":true,
			"name":"Material.046",
			"pbrMetallicRoughness":{
				"baseColorFactor":[
					0.00045407674042508006,
					0,
					0.8000315427780151,
					1
				],
				"metallicFactor":0,
				"roughnessFactor":0.5
			}
		},
		{
			"doubleSided":true,
			"name":"Material.041",
			"pbrMetallicRoughness":{
				"baseColorFactor":[
					0.00045407674042508006,
					0,
					0.8000315427780151,
					1
				],
				"metallicFactor":0,
				"roughnessFactor":0.5
			}
		},
		{
			"doubleSided":true,
			"name":"Material.033",
			"pbrMetallicRoughness":{
				"baseColorFactor":[
					0.00045407674042508006,
					0,
					0.8000315427780151,
					1
				],
				"metallicFactor":0,
				"roughnessFactor":0.5
			}
		},
		{
			"doubleSided":true,
			"name":"Material.027",
			"pbrMetallicRoughness":{
				"baseColorFactor":[
					0.00045407674042508006,
					0,
					0.8000315427780151,
					1
				],
				"metallicFactor":0,
				"roughnessFactor":0.5
			}
		},
		{
			"doubleSided":true,
			"name":"Material.013",
			"pbrMetallicRoughness":{
				"baseColorFactor":[
					0.00045407674042508006,
					0,
					0.8000315427780151,
					1
				],
				"metallicFactor":0,
				"roughnessFactor":0.5
			}
		},
		{
			"doubleSided":true,
			"name":"Material.010",
			"pbrMetallicRoughness":{
				"baseColorFactor":[
					0.00045407674042508006,
					0,
					0.8000315427780151,
					1
				],
				"metallicFactor":0,
				"roughnessFactor":0.5
			}
		},
		{
			"doubleSided":true,
			"name":"Material.031",
			"pbrMetallicRoughness":{
				"baseColorFactor":[
					0.00045407674042508006,
					0,
					0.8000315427780151,
					1
				],
				"metallicFactor":0,
				"roughnessFactor":0.5
			}
		}
	],
	"meshes":[
		{
			"name":"Curve.056",
			"primitives":[
				{
					"attributes":{
						"POSITION":0,
						"NORMAL":1,
						"TEXCOORD_0":2
					},
					"indices":3,
					"material":0
				},
				{
					"attributes":{
						"POSITION":4,
						"NORMAL":5,
						"TEXCOORD_0":6
					},
					"indices":7,
					"material":1
				},
				{
					"attributes":{
						"POSITION":8,
						"NORMAL":9,
						"TEXCOORD_0":10
					},
					"indices":11,
					"material":2
				},
				{
					"attributes":{
						"POSITION":12,
						"NORMAL":13,
						"TEXCOORD_0":14
					},
					"indices":15,
					"material":3
				},
				{
					"attributes":{
						"POSITION":16,
						"NORMAL":17,
						"TEXCOORD_0":18
					},
					"indices":19,
					"material":4
				},
				{
					"attributes":{
						"POSITION":20,
						"NORMAL":21,
						"TEXCOORD_0":22
					},
					"indices":23,
					"material":5
				},
				{
					"attributes":{
						"POSITION":24,
						"NORMAL":25,
						"TEXCOORD_0":26
					},
					"indices":27,
					"material":6
				}
			]
		}
	],
	"accessors":[
		{
			"bufferView":0,
			"componentType":5126,
			"count":300,
			"max":[
				0.11307432502508163,
				0.012720360420644283,
				0.03942263871431351
			],
			"min":[
				0.032396648079156876,
				-0.0027624801732599735,
				-0.011461984366178513
			],
			"type":"VEC3"
		},
		{
			"bufferView":1,
			"componentType":5126,
			"count":300,
			"type":"VEC3"
		},
		{
			"bufferView":2,
			"componentType":5126,
			"count":300,
			"type":"VEC2"
		},
		{
			"bufferView":3,
			"componentType":5123,
			"count":588,
			"type":"SCALAR"
		},
		{
			"bufferView":4,
			"componentType":5126,
			"count":300,
			"max":[
				0.11258681118488312,
				-0.0007234904915094376,
				-0.0004226863384246826
			],
			"min":[
				0.04312784969806671,
				-0.018132392317056656,
				-0.02250802330672741
			],
			"type":"VEC3"
		},
		{
			"bufferView":5,
			"componentType":5126,
			"count":300,
			"type":"VEC3"
		},
		{
			"bufferView":6,
			"componentType":5126,
			"count":300,
			"type":"VEC2"
		},
		{
			"bufferView":7,
			"componentType":5123,
			"count":588,
			"type":"SCALAR"
		},
		{
			"bufferView":8,
			"componentType":5126,
			"count":300,
			"max":[
				0.11624854058027267,
				-0.01603664644062519,
				-0.010850653983652592
			],
			"min":[
				0.043117865920066833,
				-0.03267868235707283,
				-0.03279520198702812
			],
			"type":"VEC3"
		},
		{
			"bufferView":9,
			"componentType":5126,
			"count":300,
			"type":"VEC3"
		},
		{
			"bufferView":10,
			"componentType":5126,
			"count":300,
			"type":"VEC2"
		},
		{
			"bufferView":11,
			"componentType":5123,
			"count":588,
			"type":"SCALAR"
		},
		{
			"bufferView":12,
			"componentType":5126,
			"count":300,
			"max":[
				0.1160934641957283,
				-0.030654480680823326,
				-0.021181557327508926
			],
			"min":[
				-0.023831821978092194,
				-0.03822961822152138,
				-0.08752945065498352
			],
			"type":"VEC3"
		},
		{
			"bufferView":13,
			"componentType":5126,
			"count":300,
			"type":"VEC3"
		},
		{
			"bufferView":14,
			"componentType":5126,
			"count":300,
			"type":"VEC2"
		},
		{
			"bufferView":15,
			"componentType":5123,
			"count":588,
			"type":"SCALAR"
		},
		{
			"bufferView":16,
			"componentType":5126,
			"count":300,
			"max":[
				-0.013637498021125793,
				-0.03606123477220535,
				-0.07561928033828735
			],
			"min":[
				-0.2646870017051697,
				-0.06175073981285095,
				-0.09094607830047607
			],
			"type":"VEC3"
		},
		{
			"bufferView":17,
			"componentType":5126,
			"count":300,
			"type":"VEC3"
		},
		{
			"bufferView":18,
			"componentType":5126,
			"count":300,
			"type":"VEC2"
		},
		{
			"bufferView":19,
			"componentType":5123,
			"count":588,
			"type":"SCALAR"
		},
		{
			"bufferView":20,
			"componentType":5126,
			"count":300,
			"max":[
				-0.2536374628543854,
				-0.05939321964979172,
				-0.07978147268295288
			],
			"min":[
				-0.29291754961013794,
				-0.06139323115348816,
				-0.10597658902406693
			],
			"type":"VEC3"
		},
		{
			"bufferView":21,
			"componentType":5126,
			"count":300,
			"type":"VEC3"
		},
		{
			"bufferView":22,
			"componentType":5126,
			"count":300,
			"type":"VEC2"
		},
		{
			"bufferView":23,
			"componentType":5123,
			"count":588,
			"type":"SCALAR"
		},
		{
			"bufferView":24,
			"componentType":5126,
			"count":300,
			"max":[
				-0.2811955511569977,
				-0.059385888278484344,
				-0.0941547080874443
			],
			"min":[
				-0.34906551241874695,
				-0.06138589233160019,
				-0.10702567547559738
			],
			"type":"VEC3"
		},
		{
			"bufferView":25,
			"componentType":5126,
			"count":300,
			"type":"VEC3"
		},
		{
			"bufferView":26,
			"componentType":5126,
			"count":300,
			"type":"VEC2"
		},
		{
			"bufferView":27,
			"componentType":5123,
			"count":588,
			"type":"SCALAR"
		}
	],
	"bufferViews":[
		{
			"buffer":0,
			"byteLength":3600,
			"byteOffset":0,
			"target":34962
		},
		{
			"buffer":0,
			"byteLength":3600,
			"byteOffset":3600,
			"target":34962
		},
		{
			"buffer":0,
			"byteLength":2400,
			"byteOffset":7200,
			"target":34962
		},
		{
			"buffer":0,
			"byteLength":1176,
			"byteOffset":9600,
			"target":34963
		},
		{
			"buffer":0,
			"byteLength":3600,
			"byteOffset":10776,
			"target":34962
		},
		{
			"buffer":0,
			"byteLength":3600,
			"byteOffset":14376,
			"target":34962
		},
		{
			"buffer":0,
			"byteLength":2400,
			"byteOffset":17976,
			"target":34962
		},
		{
			"buffer":0,
			"byteLength":1176,
			"byteOffset":20376,
			"target":34963
		},
		{
			"buffer":0,
			"byteLength":3600,
			"byteOffset":21552,
			"target":34962
		},
		{
			"buffer":0,
			"byteLength":3600,
			"byteOffset":25152,
			"target":34962
		},
		{
			"buffer":0,
			"byteLength":2400,
			"byteOffset":28752,
			"target":34962
		},
		{
			"buffer":0,
			"byteLength":1176,
			"byteOffset":31152,
			"target":34963
		},
		{
			"buffer":0,
			"byteLength":3600,
			"byteOffset":32328,
			"target":34962
		},
		{
			"buffer":0,
			"byteLength":3600,
			"byteOffset":35928,
			"target":34962
		},
		{
			"buffer":0,
			"byteLength":2400,
			"byteOffset":39528,
			"target":34962
		},
		{
			"buffer":0,
			"byteLength":1176,
			"byteOffset":41928,
			"target":34963
		},
		{
			"buffer":0,
			"byteLength":3600,
			"byteOffset":43104,
			"target":34962
		},
		{
			"buffer":0,
			"byteLength":3600,
			"byteOffset":46704,
			"target":34962
		},
		{
			"buffer":0,
			"byteLength":2400,
			"byteOffset":50304,
			"target":34962
		},
		{
			"buffer":0,
			"byteLength":1176,
			"byteOffset":52704,
			"target":34963
		},
		{
			"buffer":0,
			"byteLength":3600,
			"byteOffset":53880,
			"target":34962
		},
		{
			"buffer":0,
			"byteLength":3600,
			"byteOffset":57480,
			"target":34962
		},
		{
			"buffer":0,
			"byteLength":2400,
			"byteOffset":61080,
			"target":34962
		},
		{
			"buffer":0,
			"byteLength":1176,
			"byteOffset":63480,
			"target":34963
		},
		{
			"buffer":0,
			"byteLength":3600,
			"byteOffset":64656,
			"target":34962
		},
		{
			"buffer":0,
			"byteLength":3600,
			"byteOffset":68256,
			"target":34962
		},
		{
			"buffer":0,
			"byteLength":2400,
			"byteOffset":71856,
			"target":34962
		},
		{
			"buffer":0,
			"byteLength":1176,
			"byteOffset":74256,
			"target":34963
		}
	],
	"buffers":[
		{
			"byteLength":75432,
			"uri":"3.bin"
		}
	]
}
