{
  "asset": {
    "generator": "Khronos glTF Blender I/O v4.0.44",
    "version": "2.0"
  },
  "scene": 0,
  "scenes": [
    {
      "name": "Scene",
      "nodes": [0]
    }
  ],
  "nodes": [
    {
      "mesh": 0,
      "name": "navinavi.001",
      "rotation": [0, 0.4906146824359894, 0, 0.871376633644104],
      "scale": [22.83100128173828, 22.830997467041016, 22.83100128173828],
      "translation": [
        -1.7937068939208984, -0.17840257287025452, 7.997076511383057
      ]
    }
  ],
  "materials": [
    {
      "doubleSided": true,
      "name": "Material.134",
      "pbrMetallicRoughness": {
        "baseColorFactor": [0.00045407674042508006, 0, 0.8000315427780151, 1],
        "metallicFactor": 0,
        "roughnessFactor": 0.5
      }
    },
    {
      "doubleSided": true,
      "name": "Material.136",
      "pbrMetallicRoughness": {
        "baseColorFactor": [0.00045407674042508006, 0, 0.8000315427780151, 1],
        "metallicFactor": 0,
        "roughnessFactor": 0.5
      }
    },
    {
      "doubleSided": true,
      "name": "Material.138",
      "pbrMetallicRoughness": {
        "baseColorFactor": [0.00045407674042508006, 0, 0.8000315427780151, 1],
        "metallicFactor": 0,
        "roughnessFactor": 0.5
      }
    }
  ],
  "meshes": [
    {
      "name": "Curve.107",
      "primitives": [
        {
          "attributes": {
            "POSITION": 0,
            "NORMAL": 1,
            "TEXCOORD_0": 2
          },
          "indices": 3,
          "material": 0
        },
        {
          "attributes": {
            "POSITION": 4,
            "NORMAL": 5,
            "TEXCOORD_0": 6
          },
          "indices": 7,
          "material": 1
        },
        {
          "attributes": {
            "POSITION": 8,
            "NORMAL": 9,
            "TEXCOORD_0": 10
          },
          "indices": 11,
          "material": 2
        }
      ]
    }
  ],
  "accessors": [
    {
      "bufferView": 0,
      "componentType": 5126,
      "count": 300,
      "max": [0.22980329394340515, 0.028433188796043396, 0.006227596662938595],
      "min": [
        -0.18091422319412231, -0.0010000047041103244, -0.017091097310185432
      ],
      "type": "VEC3"
    },
    {
      "bufferView": 1,
      "componentType": 5126,
      "count": 300,
      "type": "VEC3"
    },
    {
      "bufferView": 2,
      "componentType": 5126,
      "count": 300,
      "type": "VEC2"
    },
    {
      "bufferView": 3,
      "componentType": 5123,
      "count": 588,
      "type": "SCALAR"
    },
    {
      "bufferView": 4,
      "componentType": 5126,
      "count": 300,
      "max": [
        0.23198643326759338, 0.029573731124401093, -0.0047366321086883545
      ],
      "min": [0.18753007054328918, 0.009368887171149254, -0.17405802011489868],
      "type": "VEC3"
    },
    {
      "bufferView": 5,
      "componentType": 5126,
      "count": 300,
      "type": "VEC3"
    },
    {
      "bufferView": 6,
      "componentType": 5126,
      "count": 300,
      "type": "VEC2"
    },
    {
      "bufferView": 7,
      "componentType": 5123,
      "count": 588,
      "type": "SCALAR"
    },
    {
      "bufferView": 8,
      "componentType": 5126,
      "count": 300,
      "max": [0.25290849804878235, 0.012159775011241436, -0.16290181875228882],
      "min": [0.18730539083480835, 0.0027200214099138975, -0.1800411343574524],
      "type": "VEC3"
    },
    {
      "bufferView": 9,
      "componentType": 5126,
      "count": 300,
      "type": "VEC3"
    },
    {
      "bufferView": 10,
      "componentType": 5126,
      "count": 300,
      "type": "VEC2"
    },
    {
      "bufferView": 11,
      "componentType": 5123,
      "count": 588,
      "type": "SCALAR"
    }
  ],
  "bufferViews": [
    {
      "buffer": 0,
      "byteLength": 3600,
      "byteOffset": 0,
      "target": 34962
    },
    {
      "buffer": 0,
      "byteLength": 3600,
      "byteOffset": 3600,
      "target": 34962
    },
    {
      "buffer": 0,
      "byteLength": 2400,
      "byteOffset": 7200,
      "target": 34962
    },
    {
      "buffer": 0,
      "byteLength": 1176,
      "byteOffset": 9600,
      "target": 34963
    },
    {
      "buffer": 0,
      "byteLength": 3600,
      "byteOffset": 10776,
      "target": 34962
    },
    {
      "buffer": 0,
      "byteLength": 3600,
      "byteOffset": 14376,
      "target": 34962
    },
    {
      "buffer": 0,
      "byteLength": 2400,
      "byteOffset": 17976,
      "target": 34962
    },
    {
      "buffer": 0,
      "byteLength": 1176,
      "byteOffset": 20376,
      "target": 34963
    },
    {
      "buffer": 0,
      "byteLength": 3600,
      "byteOffset": 21552,
      "target": 34962
    },
    {
      "buffer": 0,
      "byteLength": 3600,
      "byteOffset": 25152,
      "target": 34962
    },
    {
      "buffer": 0,
      "byteLength": 2400,
      "byteOffset": 28752,
      "target": 34962
    },
    {
      "buffer": 0,
      "byteLength": 1176,
      "byteOffset": 31152,
      "target": 34963
    }
  ],
  "buffers": [
    {
      "byteLength": 32328,
      "uri": "4_Degtiarjov.bin"
    }
  ]
}
