{
  "asset": {
    "generator": "Khronos glTF Blender I/O v4.0.44",
    "version": "2.0"
  },
  "scene": 0,
  "scenes": [
    {
      "name": "Scene",
      "nodes": [0, 1]
    }
  ],
  "nodes": [
    {
      "mesh": 0,
      "name": "path6",
      "rotation": [0, 1, 0, 0],
      "scale": [-0.1183728575706482, -0.1183728575706482, -0.1183728575706482],
      "translation": [
        0.00019117002375423908, 0.002377954311668873, 0.00042692641727626324
      ]
    },
    {
      "mesh": 1,
      "name": "Curve",
      "scale": [0.38700056076049805, 0.38700056076049805, 0.38700056076049805],
      "translation": [-0.0005194277036935091, 0, 0.0009372992208227515]
    }
  ],
  "materials": [
    {
      "doubleSided": true,
      "name": "Material.001",
      "pbrMetallicRoughness": {
        "baseColorFactor": [0.00045407674042508006, 0, 0.8000315427780151, 1],
        "metallicFactor": 0,
        "roughnessFactor": 0.5
      }
    },
    {
      "doubleSided": true,
      "name": "Material.002",
      "pbrMetallicRoughness": {
        "baseColorFactor": [0.00045407674042508006, 0, 0.8000315427780151, 1],
        "metallicFactor": 0,
        "roughnessFactor": 0.5
      }
    },
    {
      "doubleSided": true,
      "name": "Material.003",
      "pbrMetallicRoughness": {
        "baseColorFactor": [0.00045407674042508006, 0, 0.8000315427780151, 1],
        "metallicFactor": 0,
        "roughnessFactor": 0.5
      }
    },
    {
      "doubleSided": true,
      "name": "Material.004",
      "pbrMetallicRoughness": {
        "baseColorFactor": [0.00045407674042508006, 0, 0.8000315427780151, 1],
        "metallicFactor": 0,
        "roughnessFactor": 0.5
      }
    },
    {
      "doubleSided": true,
      "name": "Material",
      "pbrMetallicRoughness": {
        "baseColorFactor": [0.8000937700271606, 0.5759685039520264, 0, 1],
        "metallicFactor": 0,
        "roughnessFactor": 0.4000000059604645
      }
    }
  ],
  "meshes": [
    {
      "name": "path6",
      "primitives": [
        {
          "attributes": {
            "POSITION": 0,
            "NORMAL": 1,
            "TEXCOORD_0": 2
          },
          "indices": 3,
          "material": 0
        },
        {
          "attributes": {
            "POSITION": 4,
            "NORMAL": 5,
            "TEXCOORD_0": 6
          },
          "indices": 7,
          "material": 1
        },
        {
          "attributes": {
            "POSITION": 8,
            "NORMAL": 9,
            "TEXCOORD_0": 10
          },
          "indices": 11,
          "material": 2
        },
        {
          "attributes": {
            "POSITION": 12,
            "NORMAL": 13,
            "TEXCOORD_0": 14
          },
          "indices": 15,
          "material": 3
        }
      ]
    },
    {
      "name": "Curve",
      "primitives": [
        {
          "attributes": {
            "POSITION": 16,
            "NORMAL": 17,
            "TEXCOORD_0": 18
          },
          "indices": 19,
          "material": 4
        }
      ]
    }
  ],
  "accessors": [
    {
      "bufferView": 0,
      "componentType": 5126,
      "count": 2143,
      "max": [0.21647390723228455, 0.009999999776482582, 0.2267947793006897],
      "min": [-0.21702829003334045, -0.009999999776482582, -0.2066158652305603],
      "type": "VEC3"
    },
    {
      "bufferView": 1,
      "componentType": 5126,
      "count": 2143,
      "type": "VEC3"
    },
    {
      "bufferView": 2,
      "componentType": 5126,
      "count": 2143,
      "type": "VEC2"
    },
    {
      "bufferView": 3,
      "componentType": 5123,
      "count": 4512,
      "type": "SCALAR"
    },
    {
      "bufferView": 4,
      "componentType": 5126,
      "count": 2140,
      "max": [0.21647390723228455, 0.010078644379973412, 0.2267947793006897],
      "min": [-0.21702829003334045, -0.009921355172991753, -0.2066158652305603],
      "type": "VEC3"
    },
    {
      "bufferView": 5,
      "componentType": 5126,
      "count": 2140,
      "type": "VEC3"
    },
    {
      "bufferView": 6,
      "componentType": 5126,
      "count": 2140,
      "type": "VEC2"
    },
    {
      "bufferView": 7,
      "componentType": 5123,
      "count": 4512,
      "type": "SCALAR"
    },
    {
      "bufferView": 8,
      "componentType": 5126,
      "count": 2145,
      "max": [0.21647390723228455, 0.030010035261511803, 0.2267947793006897],
      "min": [-0.21702829003334045, 0.010010035708546638, -0.2066158652305603],
      "type": "VEC3"
    },
    {
      "bufferView": 9,
      "componentType": 5126,
      "count": 2145,
      "type": "VEC3"
    },
    {
      "bufferView": 10,
      "componentType": 5126,
      "count": 2145,
      "type": "VEC2"
    },
    {
      "bufferView": 11,
      "componentType": 5123,
      "count": 4512,
      "type": "SCALAR"
    },
    {
      "bufferView": 12,
      "componentType": 5126,
      "count": 2143,
      "max": [0.21647390723228455, 0.030088679865002632, 0.2267947793006897],
      "min": [-0.21702829003334045, 0.010088680312037468, -0.2066158652305603],
      "type": "VEC3"
    },
    {
      "bufferView": 13,
      "componentType": 5126,
      "count": 2143,
      "type": "VEC3"
    },
    {
      "bufferView": 14,
      "componentType": 5126,
      "count": 2143,
      "type": "VEC2"
    },
    {
      "bufferView": 15,
      "componentType": 5123,
      "count": 4512,
      "type": "SCALAR"
    },
    {
      "bufferView": 16,
      "componentType": 5126,
      "count": 48,
      "max": [0.11289119720458984, 0, 0.11286735534667969],
      "min": [-0.11289119720458984, 0, -0.11286735534667969],
      "type": "VEC3"
    },
    {
      "bufferView": 17,
      "componentType": 5126,
      "count": 48,
      "type": "VEC3"
    },
    {
      "bufferView": 18,
      "componentType": 5126,
      "count": 48,
      "type": "VEC2"
    },
    {
      "bufferView": 19,
      "componentType": 5123,
      "count": 138,
      "type": "SCALAR"
    }
  ],
  "bufferViews": [
    {
      "buffer": 0,
      "byteLength": 25716,
      "byteOffset": 0,
      "target": 34962
    },
    {
      "buffer": 0,
      "byteLength": 25716,
      "byteOffset": 25716,
      "target": 34962
    },
    {
      "buffer": 0,
      "byteLength": 17144,
      "byteOffset": 51432,
      "target": 34962
    },
    {
      "buffer": 0,
      "byteLength": 9024,
      "byteOffset": 68576,
      "target": 34963
    },
    {
      "buffer": 0,
      "byteLength": 25680,
      "byteOffset": 77600,
      "target": 34962
    },
    {
      "buffer": 0,
      "byteLength": 25680,
      "byteOffset": 103280,
      "target": 34962
    },
    {
      "buffer": 0,
      "byteLength": 17120,
      "byteOffset": 128960,
      "target": 34962
    },
    {
      "buffer": 0,
      "byteLength": 9024,
      "byteOffset": 146080,
      "target": 34963
    },
    {
      "buffer": 0,
      "byteLength": 25740,
      "byteOffset": 155104,
      "target": 34962
    },
    {
      "buffer": 0,
      "byteLength": 25740,
      "byteOffset": 180844,
      "target": 34962
    },
    {
      "buffer": 0,
      "byteLength": 17160,
      "byteOffset": 206584,
      "target": 34962
    },
    {
      "buffer": 0,
      "byteLength": 9024,
      "byteOffset": 223744,
      "target": 34963
    },
    {
      "buffer": 0,
      "byteLength": 25716,
      "byteOffset": 232768,
      "target": 34962
    },
    {
      "buffer": 0,
      "byteLength": 25716,
      "byteOffset": 258484,
      "target": 34962
    },
    {
      "buffer": 0,
      "byteLength": 17144,
      "byteOffset": 284200,
      "target": 34962
    },
    {
      "buffer": 0,
      "byteLength": 9024,
      "byteOffset": 301344,
      "target": 34963
    },
    {
      "buffer": 0,
      "byteLength": 576,
      "byteOffset": 310368,
      "target": 34962
    },
    {
      "buffer": 0,
      "byteLength": 576,
      "byteOffset": 310944,
      "target": 34962
    },
    {
      "buffer": 0,
      "byteLength": 384,
      "byteOffset": 311520,
      "target": 34962
    },
    {
      "buffer": 0,
      "byteLength": 276,
      "byteOffset": 311904,
      "target": 34963
    }
  ],
  "buffers": [
    {
      "byteLength": 312180,
      "uri": "arr_yellow_glorax.bin"
    }
  ]
}
