{
	"asset":{
		"generator":"Khronos glTF Blender I/O v4.0.44",
		"version":"2.0"
	},
	"scene":0,
	"scenes":[
		{
			"name":"Scene",
			"nodes":[
				0
			]
		}
	],
	"nodes":[
		{
			"mesh":0,
			"name":"Curve",
			"scale":[
				0.30298101902008057,
				0.30298101902008057,
				0.30298101902008057
			],
			"translation":[
				-0.00021353806369006634,
				0,
				0.001286569982767105
			]
		}
	],
	"materials":[
		{
			"doubleSided":true,
			"name":"Material",
			"pbrMetallicRoughness":{
				"baseColorFactor":[
					0.8000473976135254,
					0.5708437561988831,
					0,
					1
				],
				"metallicFactor":0,
				"roughnessFactor":0.4000000059604645
			}
		},
		{
			"doubleSided":true,
			"name":"Material.001",
			"pbrMetallicRoughness":{
				"baseColorFactor":[
					0.00045407674042508006,
					0,
					0.8000315427780151,
					1
				],
				"metallicFactor":0,
				"roughnessFactor":0.5
			}
		},
		{
			"doubleSided":true,
			"name":"Material.002",
			"pbrMetallicRoughness":{
				"baseColorFactor":[
					0.00045407674042508006,
					0,
					0.8000315427780151,
					1
				],
				"metallicFactor":0,
				"roughnessFactor":0.5
			}
		},
		{
			"doubleSided":true,
			"name":"Material.003",
			"pbrMetallicRoughness":{
				"baseColorFactor":[
					0.00045407674042508006,
					0,
					0.8000315427780151,
					1
				],
				"metallicFactor":0,
				"roughnessFactor":0.5
			}
		},
		{
			"doubleSided":true,
			"name":"Material.004",
			"pbrMetallicRoughness":{
				"baseColorFactor":[
					0.00045407674042508006,
					0,
					0.8000315427780151,
					1
				],
				"metallicFactor":0,
				"roughnessFactor":0.5
			}
		}
	],
	"meshes":[
		{
			"name":"Curve",
			"primitives":[
				{
					"attributes":{
						"POSITION":0,
						"NORMAL":1,
						"TEXCOORD_0":2
					},
					"indices":3,
					"material":0
				},
				{
					"attributes":{
						"POSITION":4,
						"NORMAL":5,
						"TEXCOORD_0":6
					},
					"indices":7,
					"material":1
				},
				{
					"attributes":{
						"POSITION":8,
						"NORMAL":9,
						"TEXCOORD_0":10
					},
					"indices":11,
					"material":2
				},
				{
					"attributes":{
						"POSITION":12,
						"NORMAL":13,
						"TEXCOORD_0":14
					},
					"indices":15,
					"material":3
				},
				{
					"attributes":{
						"POSITION":16,
						"NORMAL":17,
						"TEXCOORD_0":18
					},
					"indices":19,
					"material":4
				}
			]
		}
	],
	"accessors":[
		{
			"bufferView":0,
			"componentType":5126,
			"count":192,
			"max":[
				0.11289119720458984,
				0,
				0.11286735534667969
			],
			"min":[
				-0.11289119720458984,
				-0.019999999552965164,
				-0.11286735534667969
			],
			"type":"VEC3"
		},
		{
			"bufferView":1,
			"componentType":5126,
			"count":192,
			"type":"VEC3"
		},
		{
			"bufferView":2,
			"componentType":5126,
			"count":192,
			"type":"VEC2"
		},
		{
			"bufferView":3,
			"componentType":5123,
			"count":564,
			"type":"SCALAR"
		},
		{
			"bufferView":4,
			"componentType":5126,
			"count":2138,
			"max":[
				0.08273418992757797,
				0.011755464598536491,
				0.08577007055282593
			],
			"min":[
				-0.08663251250982285,
				0.003941585775464773,
				-0.08356086164712906
			],
			"type":"VEC3"
		},
		{
			"bufferView":5,
			"componentType":5126,
			"count":2138,
			"type":"VEC3"
		},
		{
			"bufferView":6,
			"componentType":5126,
			"count":2138,
			"type":"VEC2"
		},
		{
			"bufferView":7,
			"componentType":5123,
			"count":4512,
			"type":"SCALAR"
		},
		{
			"bufferView":8,
			"componentType":5126,
			"count":2146,
			"max":[
				0.08273418992757797,
				0.011724739335477352,
				0.08577007055282593
			],
			"min":[
				-0.08663251250982285,
				0.003910859581083059,
				-0.08356086164712906
			],
			"type":"VEC3"
		},
		{
			"bufferView":9,
			"componentType":5126,
			"count":2146,
			"type":"VEC3"
		},
		{
			"bufferView":10,
			"componentType":5126,
			"count":2146,
			"type":"VEC2"
		},
		{
			"bufferView":11,
			"componentType":5123,
			"count":4512,
			"type":"SCALAR"
		},
		{
			"bufferView":12,
			"componentType":5126,
			"count":2126,
			"max":[
				0.08273418992757797,
				0.003937664441764355,
				0.08577007055282593
			],
			"min":[
				-0.08663251250982285,
				-0.003876214846968651,
				-0.08356086164712906
			],
			"type":"VEC3"
		},
		{
			"bufferView":13,
			"componentType":5126,
			"count":2126,
			"type":"VEC3"
		},
		{
			"bufferView":14,
			"componentType":5126,
			"count":2126,
			"type":"VEC2"
		},
		{
			"bufferView":15,
			"componentType":5123,
			"count":4512,
			"type":"SCALAR"
		},
		{
			"bufferView":16,
			"componentType":5126,
			"count":2136,
			"max":[
				0.08273418992757797,
				0.003906938713043928,
				0.08577007055282593
			],
			"min":[
				-0.08663251250982285,
				-0.003906941041350365,
				-0.08356086164712906
			],
			"type":"VEC3"
		},
		{
			"bufferView":17,
			"componentType":5126,
			"count":2136,
			"type":"VEC3"
		},
		{
			"bufferView":18,
			"componentType":5126,
			"count":2136,
			"type":"VEC2"
		},
		{
			"bufferView":19,
			"componentType":5123,
			"count":4512,
			"type":"SCALAR"
		}
	],
	"bufferViews":[
		{
			"buffer":0,
			"byteLength":2304,
			"byteOffset":0,
			"target":34962
		},
		{
			"buffer":0,
			"byteLength":2304,
			"byteOffset":2304,
			"target":34962
		},
		{
			"buffer":0,
			"byteLength":1536,
			"byteOffset":4608,
			"target":34962
		},
		{
			"buffer":0,
			"byteLength":1128,
			"byteOffset":6144,
			"target":34963
		},
		{
			"buffer":0,
			"byteLength":25656,
			"byteOffset":7272,
			"target":34962
		},
		{
			"buffer":0,
			"byteLength":25656,
			"byteOffset":32928,
			"target":34962
		},
		{
			"buffer":0,
			"byteLength":17104,
			"byteOffset":58584,
			"target":34962
		},
		{
			"buffer":0,
			"byteLength":9024,
			"byteOffset":75688,
			"target":34963
		},
		{
			"buffer":0,
			"byteLength":25752,
			"byteOffset":84712,
			"target":34962
		},
		{
			"buffer":0,
			"byteLength":25752,
			"byteOffset":110464,
			"target":34962
		},
		{
			"buffer":0,
			"byteLength":17168,
			"byteOffset":136216,
			"target":34962
		},
		{
			"buffer":0,
			"byteLength":9024,
			"byteOffset":153384,
			"target":34963
		},
		{
			"buffer":0,
			"byteLength":25512,
			"byteOffset":162408,
			"target":34962
		},
		{
			"buffer":0,
			"byteLength":25512,
			"byteOffset":187920,
			"target":34962
		},
		{
			"buffer":0,
			"byteLength":17008,
			"byteOffset":213432,
			"target":34962
		},
		{
			"buffer":0,
			"byteLength":9024,
			"byteOffset":230440,
			"target":34963
		},
		{
			"buffer":0,
			"byteLength":25632,
			"byteOffset":239464,
			"target":34962
		},
		{
			"buffer":0,
			"byteLength":25632,
			"byteOffset":265096,
			"target":34962
		},
		{
			"buffer":0,
			"byteLength":17088,
			"byteOffset":290728,
			"target":34962
		},
		{
			"buffer":0,
			"byteLength":9024,
			"byteOffset":307816,
			"target":34963
		}
	],
	"buffers":[
		{
			"byteLength":316840,
			"uri":"arrowyellowglorax.bin"
		}
	]
}
