{
	"asset":{
		"generator":"Khronos glTF Blender I/O v4.0.44",
		"version":"2.0"
	},
	"scene":0,
	"scenes":[
		{
			"name":"Scene",
			"nodes":[
				0
			]
		}
	],
	"nodes":[
		{
			"mesh":0,
			"name":"navinavi.006",
			"rotation":[
				0,
				0.5111635327339172,
				0,
				0.8594835996627808
			],
			"scale":[
				22.83099937438965,
				22.830997467041016,
				22.83099937438965
			],
			"translation":[
				3.2375247478485107,
				0.043796926736831665,
				-6.5082502365112305
			]
		}
	],
	"materials":[
		{
			"doubleSided":true,
			"name":"Material.046",
			"pbrMetallicRoughness":{
				"baseColorFactor":[
					0.00045407674042508006,
					0,
					0.8000315427780151,
					1
				],
				"metallicFactor":0,
				"roughnessFactor":0.5
			}
		},
		{
			"doubleSided":true,
			"name":"Material.033",
			"pbrMetallicRoughness":{
				"baseColorFactor":[
					0.00045407674042508006,
					0,
					0.8000315427780151,
					1
				],
				"metallicFactor":0,
				"roughnessFactor":0.5
			}
		},
		{
			"doubleSided":true,
			"name":"Material.041",
			"pbrMetallicRoughness":{
				"baseColorFactor":[
					0.00045407674042508006,
					0,
					0.8000315427780151,
					1
				],
				"metallicFactor":0,
				"roughnessFactor":0.5
			}
		},
		{
			"doubleSided":true,
			"name":"Material.031",
			"pbrMetallicRoughness":{
				"baseColorFactor":[
					0.00045407674042508006,
					0,
					0.8000315427780151,
					1
				],
				"metallicFactor":0,
				"roughnessFactor":0.5
			}
		}
	],
	"meshes":[
		{
			"name":"Curve.056",
			"primitives":[
				{
					"attributes":{
						"POSITION":0,
						"NORMAL":1,
						"TEXCOORD_0":2
					},
					"indices":3,
					"material":0
				},
				{
					"attributes":{
						"POSITION":4,
						"NORMAL":5,
						"TEXCOORD_0":6
					},
					"indices":7,
					"material":1
				},
				{
					"attributes":{
						"POSITION":8,
						"NORMAL":9,
						"TEXCOORD_0":10
					},
					"indices":11,
					"material":2
				},
				{
					"attributes":{
						"POSITION":12,
						"NORMAL":13,
						"TEXCOORD_0":14
					},
					"indices":15,
					"material":3
				}
			]
		}
	],
	"accessors":[
		{
			"bufferView":0,
			"componentType":5126,
			"count":316,
			"max":[
				0.1329333782196045,
				0.023735005408525467,
				0.024663420394062996
			],
			"min":[
				-0.13906048238277435,
				0.0029781623743474483,
				-0.03069639578461647
			],
			"type":"VEC3"
		},
		{
			"bufferView":1,
			"componentType":5126,
			"count":316,
			"type":"VEC3"
		},
		{
			"bufferView":2,
			"componentType":5126,
			"count":316,
			"type":"VEC2"
		},
		{
			"bufferView":3,
			"componentType":5123,
			"count":588,
			"type":"SCALAR"
		},
		{
			"bufferView":4,
			"componentType":5126,
			"count":320,
			"max":[
				-0.12945494055747986,
				0.004834491293877363,
				0.0245828740298748
			],
			"min":[
				-0.25620609521865845,
				-0.0076441471464931965,
				0.007897887378931046
			],
			"type":"VEC3"
		},
		{
			"bufferView":5,
			"componentType":5126,
			"count":320,
			"type":"VEC3"
		},
		{
			"bufferView":6,
			"componentType":5126,
			"count":320,
			"type":"VEC2"
		},
		{
			"bufferView":7,
			"componentType":5123,
			"count":588,
			"type":"SCALAR"
		},
		{
			"bufferView":8,
			"componentType":5126,
			"count":336,
			"max":[
				-0.24445965886116028,
				-0.005478791892528534,
				0.019596774131059647
			],
			"min":[
				-0.281561017036438,
				-0.019322723150253296,
				-0.13345694541931152
			],
			"type":"VEC3"
		},
		{
			"bufferView":9,
			"componentType":5126,
			"count":336,
			"type":"VEC3"
		},
		{
			"bufferView":10,
			"componentType":5126,
			"count":336,
			"type":"VEC2"
		},
		{
			"bufferView":11,
			"componentType":5123,
			"count":588,
			"type":"SCALAR"
		},
		{
			"bufferView":12,
			"componentType":5126,
			"count":300,
			"max":[
				0.2092975676059723,
				0.023781506344676018,
				-0.013020195066928864
			],
			"min":[
				0.12131646275520325,
				0.021716924384236336,
				-0.030394118279218674
			],
			"type":"VEC3"
		},
		{
			"bufferView":13,
			"componentType":5126,
			"count":300,
			"type":"VEC3"
		},
		{
			"bufferView":14,
			"componentType":5126,
			"count":300,
			"type":"VEC2"
		},
		{
			"bufferView":15,
			"componentType":5123,
			"count":588,
			"type":"SCALAR"
		}
	],
	"bufferViews":[
		{
			"buffer":0,
			"byteLength":3792,
			"byteOffset":0,
			"target":34962
		},
		{
			"buffer":0,
			"byteLength":3792,
			"byteOffset":3792,
			"target":34962
		},
		{
			"buffer":0,
			"byteLength":2528,
			"byteOffset":7584,
			"target":34962
		},
		{
			"buffer":0,
			"byteLength":1176,
			"byteOffset":10112,
			"target":34963
		},
		{
			"buffer":0,
			"byteLength":3840,
			"byteOffset":11288,
			"target":34962
		},
		{
			"buffer":0,
			"byteLength":3840,
			"byteOffset":15128,
			"target":34962
		},
		{
			"buffer":0,
			"byteLength":2560,
			"byteOffset":18968,
			"target":34962
		},
		{
			"buffer":0,
			"byteLength":1176,
			"byteOffset":21528,
			"target":34963
		},
		{
			"buffer":0,
			"byteLength":4032,
			"byteOffset":22704,
			"target":34962
		},
		{
			"buffer":0,
			"byteLength":4032,
			"byteOffset":26736,
			"target":34962
		},
		{
			"buffer":0,
			"byteLength":2688,
			"byteOffset":30768,
			"target":34962
		},
		{
			"buffer":0,
			"byteLength":1176,
			"byteOffset":33456,
			"target":34963
		},
		{
			"buffer":0,
			"byteLength":3600,
			"byteOffset":34632,
			"target":34962
		},
		{
			"buffer":0,
			"byteLength":3600,
			"byteOffset":38232,
			"target":34962
		},
		{
			"buffer":0,
			"byteLength":2400,
			"byteOffset":41832,
			"target":34962
		},
		{
			"buffer":0,
			"byteLength":1176,
			"byteOffset":44232,
			"target":34963
		}
	],
	"buffers":[
		{
			"byteLength":45408,
			"uri":"balak3new.bin"
		}
	]
}
