{
	"asset":{
		"generator":"Khronos glTF Blender I/O v4.0.44",
		"version":"2.0"
	},
	"scene":0,
	"scenes":[
		{
			"name":"Scene",
			"nodes":[
				0
			]
		}
	],
	"nodes":[
		{
			"mesh":0,
			"name":"navinavi.001",
			"rotation":[
				0,
				0.5175657868385315,
				0,
				0.8556433916091919
			],
			"scale":[
				22.83099937438965,
				22.830997467041016,
				22.83099937438965
			],
			"translation":[
				-3.494424819946289,
				-0.18179205060005188,
				10.744770050048828
			]
		}
	],
	"materials":[
		{
			"doubleSided":true,
			"name":"Material.031",
			"pbrMetallicRoughness":{
				"baseColorFactor":[
					0.00045407674042508006,
					0,
					0.8000315427780151,
					1
				],
				"metallicFactor":0,
				"roughnessFactor":0.5
			}
		},
		{
			"doubleSided":true,
			"name":"Material.066",
			"pbrMetallicRoughness":{
				"baseColorFactor":[
					0.00045407674042508006,
					0,
					0.8000315427780151,
					1
				],
				"metallicFactor":0,
				"roughnessFactor":0.5
			}
		},
		{
			"doubleSided":true,
			"name":"Material.055",
			"pbrMetallicRoughness":{
				"baseColorFactor":[
					0.00045407674042508006,
					0,
					0.8000315427780151,
					1
				],
				"metallicFactor":0,
				"roughnessFactor":0.5
			}
		},
		{
			"doubleSided":true,
			"name":"Material.057",
			"pbrMetallicRoughness":{
				"baseColorFactor":[
					0.00045407674042508006,
					0,
					0.8000315427780151,
					1
				],
				"metallicFactor":0,
				"roughnessFactor":0.5
			}
		}
	],
	"meshes":[
		{
			"name":"Curve.098",
			"primitives":[
				{
					"attributes":{
						"POSITION":0,
						"NORMAL":1,
						"TEXCOORD_0":2
					},
					"indices":3,
					"material":0
				},
				{
					"attributes":{
						"POSITION":4,
						"NORMAL":5,
						"TEXCOORD_0":6
					},
					"indices":7,
					"material":1
				},
				{
					"attributes":{
						"POSITION":8,
						"NORMAL":9,
						"TEXCOORD_0":10
					},
					"indices":11,
					"material":2
				},
				{
					"attributes":{
						"POSITION":12,
						"NORMAL":13,
						"TEXCOORD_0":14
					},
					"indices":15,
					"material":3
				}
			]
		}
	],
	"accessors":[
		{
			"bufferView":0,
			"componentType":5126,
			"count":300,
			"max":[
				0.05727258324623108,
				0.006866761948913336,
				0.004322443623095751
			],
			"min":[
				-0.03996393829584122,
				-0.002000001259148121,
				-0.010324298404157162
			],
			"type":"VEC3"
		},
		{
			"bufferView":1,
			"componentType":5126,
			"count":300,
			"type":"VEC3"
		},
		{
			"bufferView":2,
			"componentType":5126,
			"count":300,
			"type":"VEC2"
		},
		{
			"bufferView":3,
			"componentType":5123,
			"count":588,
			"type":"SCALAR"
		},
		{
			"bufferView":4,
			"componentType":5126,
			"count":340,
			"max":[
				0.3638797998428345,
				-0.002090083435177803,
				-0.14727987349033356
			],
			"min":[
				0.34268268942832947,
				-0.0040901172906160355,
				-0.21013596653938293
			],
			"type":"VEC3"
		},
		{
			"bufferView":5,
			"componentType":5126,
			"count":340,
			"type":"VEC3"
		},
		{
			"bufferView":6,
			"componentType":5126,
			"count":340,
			"type":"VEC2"
		},
		{
			"bufferView":7,
			"componentType":5123,
			"count":588,
			"type":"SCALAR"
		},
		{
			"bufferView":8,
			"componentType":5126,
			"count":470,
			"max":[
				-0.028576940298080444,
				0.0002700481563806534,
				0.001393735408782959
			],
			"min":[
				-0.06894567608833313,
				-0.004089654888957739,
				-0.14008857309818268
			],
			"type":"VEC3"
		},
		{
			"bufferView":9,
			"componentType":5126,
			"count":470,
			"type":"VEC3"
		},
		{
			"bufferView":10,
			"componentType":5126,
			"count":470,
			"type":"VEC2"
		},
		{
			"bufferView":11,
			"componentType":5123,
			"count":588,
			"type":"SCALAR"
		},
		{
			"bufferView":12,
			"componentType":5126,
			"count":326,
			"max":[
				0.35437822341918945,
				-0.002089642221108079,
				-0.12832966446876526
			],
			"min":[
				-0.06829902529716492,
				-0.004090095870196819,
				-0.21047893166542053
			],
			"type":"VEC3"
		},
		{
			"bufferView":13,
			"componentType":5126,
			"count":326,
			"type":"VEC3"
		},
		{
			"bufferView":14,
			"componentType":5126,
			"count":326,
			"type":"VEC2"
		},
		{
			"bufferView":15,
			"componentType":5123,
			"count":588,
			"type":"SCALAR"
		}
	],
	"bufferViews":[
		{
			"buffer":0,
			"byteLength":3600,
			"byteOffset":0,
			"target":34962
		},
		{
			"buffer":0,
			"byteLength":3600,
			"byteOffset":3600,
			"target":34962
		},
		{
			"buffer":0,
			"byteLength":2400,
			"byteOffset":7200,
			"target":34962
		},
		{
			"buffer":0,
			"byteLength":1176,
			"byteOffset":9600,
			"target":34963
		},
		{
			"buffer":0,
			"byteLength":4080,
			"byteOffset":10776,
			"target":34962
		},
		{
			"buffer":0,
			"byteLength":4080,
			"byteOffset":14856,
			"target":34962
		},
		{
			"buffer":0,
			"byteLength":2720,
			"byteOffset":18936,
			"target":34962
		},
		{
			"buffer":0,
			"byteLength":1176,
			"byteOffset":21656,
			"target":34963
		},
		{
			"buffer":0,
			"byteLength":5640,
			"byteOffset":22832,
			"target":34962
		},
		{
			"buffer":0,
			"byteLength":5640,
			"byteOffset":28472,
			"target":34962
		},
		{
			"buffer":0,
			"byteLength":3760,
			"byteOffset":34112,
			"target":34962
		},
		{
			"buffer":0,
			"byteLength":1176,
			"byteOffset":37872,
			"target":34963
		},
		{
			"buffer":0,
			"byteLength":3912,
			"byteOffset":39048,
			"target":34962
		},
		{
			"buffer":0,
			"byteLength":3912,
			"byteOffset":42960,
			"target":34962
		},
		{
			"buffer":0,
			"byteLength":2608,
			"byteOffset":46872,
			"target":34962
		},
		{
			"buffer":0,
			"byteLength":1176,
			"byteOffset":49480,
			"target":34963
		}
	],
	"buffers":[
		{
			"byteLength":50656,
			"uri":"balak5new.bin"
		}
	]
}
