{
	"asset":{
		"generator":"Khronos glTF Blender I/O v4.0.44",
		"version":"2.0"
	},
	"scene":0,
	"scenes":[
		{
			"name":"Scene",
			"nodes":[
				0
			]
		}
	],
	"nodes":[
		{
			"mesh":0,
			"name":"navinavi.013",
			"rotation":[
				0,
				0.6994649171829224,
				0,
				0.7146669030189514
			],
			"scale":[
				22.83100128173828,
				22.830997467041016,
				22.83100128173828
			],
			"translation":[
				6.635371685028076,
				1.5983411073684692,
				-9.067937850952148
			]
		}
	],
	"materials":[
		{
			"doubleSided":true,
			"name":"Material.011",
			"pbrMetallicRoughness":{
				"baseColorFactor":[
					0.00045407674042508006,
					0,
					0.8000315427780151,
					1
				],
				"metallicFactor":0,
				"roughnessFactor":0.5
			}
		},
		{
			"doubleSided":true,
			"name":"Material.013",
			"pbrMetallicRoughness":{
				"baseColorFactor":[
					0.00045407674042508006,
					0,
					0.8000315427780151,
					1
				],
				"metallicFactor":0,
				"roughnessFactor":0.5
			}
		},
		{
			"doubleSided":true,
			"name":"Material.027",
			"pbrMetallicRoughness":{
				"baseColorFactor":[
					0.00045407674042508006,
					0,
					0.8000315427780151,
					1
				],
				"metallicFactor":0,
				"roughnessFactor":0.5
			}
		}
	],
	"meshes":[
		{
			"name":"Curve.073",
			"primitives":[
				{
					"attributes":{
						"POSITION":0,
						"NORMAL":1,
						"TEXCOORD_0":2
					},
					"indices":3,
					"material":0
				},
				{
					"attributes":{
						"POSITION":4,
						"NORMAL":5,
						"TEXCOORD_0":6
					},
					"indices":7,
					"material":1
				},
				{
					"attributes":{
						"POSITION":8,
						"NORMAL":9,
						"TEXCOORD_0":10
					},
					"indices":11,
					"material":2
				}
			]
		}
	],
	"accessors":[
		{
			"bufferView":0,
			"componentType":5126,
			"count":324,
			"max":[
				-0.1515709012746811,
				-0.08458369970321655,
				-0.2897811532020569
			],
			"min":[
				-0.18307217955589294,
				-0.08741189539432526,
				-0.36713218688964844
			],
			"type":"VEC3"
		},
		{
			"bufferView":1,
			"componentType":5126,
			"count":324,
			"type":"VEC3"
		},
		{
			"bufferView":2,
			"componentType":5126,
			"count":324,
			"type":"VEC2"
		},
		{
			"bufferView":3,
			"componentType":5123,
			"count":588,
			"type":"SCALAR"
		},
		{
			"bufferView":4,
			"componentType":5126,
			"count":310,
			"max":[
				-0.03305888548493385,
				-0.08458372205495834,
				-0.2551012635231018
			],
			"min":[
				-0.06396342068910599,
				-0.08741191774606705,
				-0.3306944966316223
			],
			"type":"VEC3"
		},
		{
			"bufferView":5,
			"componentType":5126,
			"count":310,
			"type":"VEC3"
		},
		{
			"bufferView":6,
			"componentType":5126,
			"count":310,
			"type":"VEC2"
		},
		{
			"bufferView":7,
			"componentType":5123,
			"count":588,
			"type":"SCALAR"
		},
		{
			"bufferView":8,
			"componentType":5126,
			"count":333,
			"max":[
				-0.05245219171047211,
				-0.085411936044693,
				-0.255117267370224
			],
			"min":[
				-0.18307092785835266,
				-0.08741196244955063,
				-0.30088692903518677
			],
			"type":"VEC3"
		},
		{
			"bufferView":9,
			"componentType":5126,
			"count":333,
			"type":"VEC3"
		},
		{
			"bufferView":10,
			"componentType":5126,
			"count":333,
			"type":"VEC2"
		},
		{
			"bufferView":11,
			"componentType":5123,
			"count":588,
			"type":"SCALAR"
		}
	],
	"bufferViews":[
		{
			"buffer":0,
			"byteLength":3888,
			"byteOffset":0,
			"target":34962
		},
		{
			"buffer":0,
			"byteLength":3888,
			"byteOffset":3888,
			"target":34962
		},
		{
			"buffer":0,
			"byteLength":2592,
			"byteOffset":7776,
			"target":34962
		},
		{
			"buffer":0,
			"byteLength":1176,
			"byteOffset":10368,
			"target":34963
		},
		{
			"buffer":0,
			"byteLength":3720,
			"byteOffset":11544,
			"target":34962
		},
		{
			"buffer":0,
			"byteLength":3720,
			"byteOffset":15264,
			"target":34962
		},
		{
			"buffer":0,
			"byteLength":2480,
			"byteOffset":18984,
			"target":34962
		},
		{
			"buffer":0,
			"byteLength":1176,
			"byteOffset":21464,
			"target":34963
		},
		{
			"buffer":0,
			"byteLength":3996,
			"byteOffset":22640,
			"target":34962
		},
		{
			"buffer":0,
			"byteLength":3996,
			"byteOffset":26636,
			"target":34962
		},
		{
			"buffer":0,
			"byteLength":2664,
			"byteOffset":30632,
			"target":34962
		},
		{
			"buffer":0,
			"byteLength":1176,
			"byteOffset":33296,
			"target":34963
		}
	],
	"buffers":[
		{
			"byteLength":34472,
			"uri":"bug0.bin"
		}
	]
}
