{
	"asset":{
		"generator":"Khronos glTF Blender I/O v4.0.44",
		"version":"2.0"
	},
	"scene":0,
	"scenes":[
		{
			"name":"Scene",
			"nodes":[
				0
			]
		}
	],
	"nodes":[
		{
			"mesh":0,
			"name":"navinavi.013",
			"rotation":[
				0,
				0.6994649171829224,
				0,
				0.7146669030189514
			],
			"scale":[
				22.83100128173828,
				22.830997467041016,
				22.83100128173828
			],
			"translation":[
				6.635371685028076,
				1.5983411073684692,
				-9.067937850952148
			]
		}
	],
	"materials":[
		{
			"doubleSided":true,
			"name":"Material.057",
			"pbrMetallicRoughness":{
				"baseColorFactor":[
					0.00045407674042508006,
					0,
					0.8000315427780151,
					1
				],
				"metallicFactor":0,
				"roughnessFactor":0.5
			}
		},
		{
			"doubleSided":true,
			"name":"Material.010",
			"pbrMetallicRoughness":{
				"baseColorFactor":[
					0.00045407674042508006,
					0,
					0.8000315427780151,
					1
				],
				"metallicFactor":0,
				"roughnessFactor":0.5
			}
		},
		{
			"doubleSided":true,
			"name":"Material.033",
			"pbrMetallicRoughness":{
				"baseColorFactor":[
					0.00045407674042508006,
					0,
					0.8000315427780151,
					1
				],
				"metallicFactor":0,
				"roughnessFactor":0.5
			}
		},
		{
			"doubleSided":true,
			"name":"Material.038",
			"pbrMetallicRoughness":{
				"baseColorFactor":[
					0.00045407674042508006,
					0,
					0.8000315427780151,
					1
				],
				"metallicFactor":0,
				"roughnessFactor":0.5
			}
		},
		{
			"doubleSided":true,
			"name":"Material.041",
			"pbrMetallicRoughness":{
				"baseColorFactor":[
					0.00045407674042508006,
					0,
					0.8000315427780151,
					1
				],
				"metallicFactor":0,
				"roughnessFactor":0.5
			}
		},
		{
			"doubleSided":true,
			"name":"Material.043",
			"pbrMetallicRoughness":{
				"baseColorFactor":[
					0.00045407674042508006,
					0,
					0.8000315427780151,
					1
				],
				"metallicFactor":0,
				"roughnessFactor":0.5
			}
		},
		{
			"doubleSided":true,
			"name":"Material.046",
			"pbrMetallicRoughness":{
				"baseColorFactor":[
					0.00045407674042508006,
					0,
					0.8000315427780151,
					1
				],
				"metallicFactor":0,
				"roughnessFactor":0.5
			}
		},
		{
			"doubleSided":true,
			"name":"Material.051",
			"pbrMetallicRoughness":{
				"baseColorFactor":[
					0.00045407674042508006,
					0,
					0.8000315427780151,
					1
				],
				"metallicFactor":0,
				"roughnessFactor":0.5
			}
		},
		{
			"doubleSided":true,
			"name":"Material.053",
			"pbrMetallicRoughness":{
				"baseColorFactor":[
					0.00045407674042508006,
					0,
					0.8000315427780151,
					1
				],
				"metallicFactor":0,
				"roughnessFactor":0.5
			}
		},
		{
			"doubleSided":true,
			"name":"Material.055",
			"pbrMetallicRoughness":{
				"baseColorFactor":[
					0.00045407674042508006,
					0,
					0.8000315427780151,
					1
				],
				"metallicFactor":0,
				"roughnessFactor":0.5
			}
		},
		{
			"doubleSided":true,
			"name":"Material.031",
			"pbrMetallicRoughness":{
				"baseColorFactor":[
					0.00045407674042508006,
					0,
					0.8000315427780151,
					1
				],
				"metallicFactor":0,
				"roughnessFactor":0.5
			}
		}
	],
	"meshes":[
		{
			"name":"Curve.073",
			"primitives":[
				{
					"attributes":{
						"POSITION":0,
						"NORMAL":1,
						"TEXCOORD_0":2
					},
					"indices":3,
					"material":0
				},
				{
					"attributes":{
						"POSITION":4,
						"NORMAL":5,
						"TEXCOORD_0":6
					},
					"indices":7,
					"material":1
				},
				{
					"attributes":{
						"POSITION":8,
						"NORMAL":9,
						"TEXCOORD_0":10
					},
					"indices":11,
					"material":2
				},
				{
					"attributes":{
						"POSITION":12,
						"NORMAL":13,
						"TEXCOORD_0":14
					},
					"indices":15,
					"material":3
				},
				{
					"attributes":{
						"POSITION":16,
						"NORMAL":17,
						"TEXCOORD_0":18
					},
					"indices":19,
					"material":4
				},
				{
					"attributes":{
						"POSITION":20,
						"NORMAL":21,
						"TEXCOORD_0":22
					},
					"indices":23,
					"material":5
				},
				{
					"attributes":{
						"POSITION":24,
						"NORMAL":25,
						"TEXCOORD_0":26
					},
					"indices":27,
					"material":6
				},
				{
					"attributes":{
						"POSITION":28,
						"NORMAL":29,
						"TEXCOORD_0":30
					},
					"indices":31,
					"material":7
				},
				{
					"attributes":{
						"POSITION":32,
						"NORMAL":33,
						"TEXCOORD_0":34
					},
					"indices":35,
					"material":8
				},
				{
					"attributes":{
						"POSITION":36,
						"NORMAL":37,
						"TEXCOORD_0":38
					},
					"indices":39,
					"material":9
				},
				{
					"attributes":{
						"POSITION":40,
						"NORMAL":41,
						"TEXCOORD_0":42
					},
					"indices":43,
					"material":10
				}
			]
		}
	],
	"accessors":[
		{
			"bufferView":0,
			"componentType":5126,
			"count":307,
			"max":[
				0.053095195442438126,
				0.0010000006295740604,
				0.01216090563684702
			],
			"min":[
				-0.005146307870745659,
				-0.0010000038892030716,
				-0.0060209897346794605
			],
			"type":"VEC3"
		},
		{
			"bufferView":1,
			"componentType":5126,
			"count":307,
			"type":"VEC3"
		},
		{
			"bufferView":2,
			"componentType":5126,
			"count":307,
			"type":"VEC2"
		},
		{
			"bufferView":3,
			"componentType":5123,
			"count":588,
			"type":"SCALAR"
		},
		{
			"bufferView":4,
			"componentType":5126,
			"count":3,
			"max":[
				0.09467358887195587,
				-0.08541194349527359,
				-0.2896425426006317
			],
			"min":[
				0.09368084371089935,
				-0.08741194009780884,
				-0.29028069972991943
			],
			"type":"VEC3"
		},
		{
			"bufferView":5,
			"componentType":5126,
			"count":3,
			"type":"VEC3"
		},
		{
			"bufferView":6,
			"componentType":5126,
			"count":3,
			"type":"VEC2"
		},
		{
			"bufferView":7,
			"componentType":5123,
			"count":3,
			"type":"SCALAR"
		},
		{
			"bufferView":8,
			"componentType":5126,
			"count":368,
			"max":[
				0.1678801327943802,
				-0.08541194349527359,
				-0.24291649460792542
			],
			"min":[
				0.08646638691425323,
				-0.08745115250349045,
				-0.2905265688896179
			],
			"type":"VEC3"
		},
		{
			"bufferView":9,
			"componentType":5126,
			"count":368,
			"type":"VEC3"
		},
		{
			"bufferView":10,
			"componentType":5126,
			"count":368,
			"type":"VEC2"
		},
		{
			"bufferView":11,
			"componentType":5123,
			"count":588,
			"type":"SCALAR"
		},
		{
			"bufferView":12,
			"componentType":5126,
			"count":324,
			"max":[
				0.16760344803333282,
				-0.07879858464002609,
				-0.12226583808660507
			],
			"min":[
				0.08353841304779053,
				-0.08741196990013123,
				-0.254319965839386
			],
			"type":"VEC3"
		},
		{
			"bufferView":13,
			"componentType":5126,
			"count":324,
			"type":"VEC3"
		},
		{
			"bufferView":14,
			"componentType":5126,
			"count":324,
			"type":"VEC2"
		},
		{
			"bufferView":15,
			"componentType":5123,
			"count":588,
			"type":"SCALAR"
		},
		{
			"bufferView":16,
			"componentType":5126,
			"count":328,
			"max":[
				0.1365060955286026,
				-0.0672752633690834,
				-0.08847446739673615
			],
			"min":[
				0.08407247811555862,
				-0.08056758344173431,
				-0.13460293412208557
			],
			"type":"VEC3"
		},
		{
			"bufferView":17,
			"componentType":5126,
			"count":328,
			"type":"VEC3"
		},
		{
			"bufferView":18,
			"componentType":5126,
			"count":328,
			"type":"VEC2"
		},
		{
			"bufferView":19,
			"componentType":5123,
			"count":588,
			"type":"SCALAR"
		},
		{
			"bufferView":20,
			"componentType":5126,
			"count":310,
			"max":[
				0.11573490500450134,
				-0.044479429721832275,
				-0.07260531932115555
			],
			"min":[
				0.07132367044687271,
				-0.05777175351977348,
				-0.10465628653764725
			],
			"type":"VEC3"
		},
		{
			"bufferView":21,
			"componentType":5126,
			"count":310,
			"type":"VEC3"
		},
		{
			"bufferView":22,
			"componentType":5126,
			"count":310,
			"type":"VEC2"
		},
		{
			"bufferView":23,
			"componentType":5123,
			"count":588,
			"type":"SCALAR"
		},
		{
			"bufferView":24,
			"componentType":5126,
			"count":316,
			"max":[
				0.13626399636268616,
				-0.05637534707784653,
				-0.08834351599216461
			],
			"min":[
				0.07183654606342316,
				-0.06966768950223923,
				-0.10493262112140656
			],
			"type":"VEC3"
		},
		{
			"bufferView":25,
			"componentType":5126,
			"count":316,
			"type":"VEC3"
		},
		{
			"bufferView":26,
			"componentType":5126,
			"count":316,
			"type":"VEC2"
		},
		{
			"bufferView":27,
			"componentType":5123,
			"count":588,
			"type":"SCALAR"
		},
		{
			"bufferView":28,
			"componentType":5126,
			"count":312,
			"max":[
				0.11560187488794327,
				-0.03380889818072319,
				-0.030906828120350838
			],
			"min":[
				0.02664206549525261,
				-0.0471012108027935,
				-0.08327917009592056
			],
			"type":"VEC3"
		},
		{
			"bufferView":29,
			"componentType":5126,
			"count":312,
			"type":"VEC3"
		},
		{
			"bufferView":30,
			"componentType":5126,
			"count":312,
			"type":"VEC2"
		},
		{
			"bufferView":31,
			"componentType":5123,
			"count":588,
			"type":"SCALAR"
		},
		{
			"bufferView":32,
			"componentType":5126,
			"count":304,
			"max":[
				0.08409884572029114,
				-0.02254021167755127,
				-0.0038116928189992905
			],
			"min":[
				0.02616644650697708,
				-0.03583253175020218,
				-0.041770391166210175
			],
			"type":"VEC3"
		},
		{
			"bufferView":33,
			"componentType":5126,
			"count":304,
			"type":"VEC3"
		},
		{
			"bufferView":34,
			"componentType":5126,
			"count":304,
			"type":"VEC2"
		},
		{
			"bufferView":35,
			"componentType":5123,
			"count":588,
			"type":"SCALAR"
		},
		{
			"bufferView":36,
			"componentType":5126,
			"count":310,
			"max":[
				0.08455836027860641,
				0.000768294557929039,
				0.003802455961704254
			],
			"min":[
				0.048072803765535355,
				-0.025006629526615143,
				-0.014987567439675331
			],
			"type":"VEC3"
		},
		{
			"bufferView":37,
			"componentType":5126,
			"count":310,
			"type":"VEC3"
		},
		{
			"bufferView":38,
			"componentType":5126,
			"count":310,
			"type":"VEC2"
		},
		{
			"bufferView":39,
			"componentType":5123,
			"count":588,
			"type":"SCALAR"
		},
		{
			"bufferView":40,
			"componentType":5126,
			"count":300,
			"max":[
				0.09806433320045471,
				-0.08541212975978851,
				-0.27855491638183594
			],
			"min":[
				-0.15197435021400452,
				-0.08741213381290436,
				-0.36451393365859985
			],
			"type":"VEC3"
		},
		{
			"bufferView":41,
			"componentType":5126,
			"count":300,
			"type":"VEC3"
		},
		{
			"bufferView":42,
			"componentType":5126,
			"count":300,
			"type":"VEC2"
		},
		{
			"bufferView":43,
			"componentType":5123,
			"count":588,
			"type":"SCALAR"
		}
	],
	"bufferViews":[
		{
			"buffer":0,
			"byteLength":3684,
			"byteOffset":0,
			"target":34962
		},
		{
			"buffer":0,
			"byteLength":3684,
			"byteOffset":3684,
			"target":34962
		},
		{
			"buffer":0,
			"byteLength":2456,
			"byteOffset":7368,
			"target":34962
		},
		{
			"buffer":0,
			"byteLength":1176,
			"byteOffset":9824,
			"target":34963
		},
		{
			"buffer":0,
			"byteLength":36,
			"byteOffset":11000,
			"target":34962
		},
		{
			"buffer":0,
			"byteLength":36,
			"byteOffset":11036,
			"target":34962
		},
		{
			"buffer":0,
			"byteLength":24,
			"byteOffset":11072,
			"target":34962
		},
		{
			"buffer":0,
			"byteLength":6,
			"byteOffset":11096,
			"target":34963
		},
		{
			"buffer":0,
			"byteLength":4416,
			"byteOffset":11104,
			"target":34962
		},
		{
			"buffer":0,
			"byteLength":4416,
			"byteOffset":15520,
			"target":34962
		},
		{
			"buffer":0,
			"byteLength":2944,
			"byteOffset":19936,
			"target":34962
		},
		{
			"buffer":0,
			"byteLength":1176,
			"byteOffset":22880,
			"target":34963
		},
		{
			"buffer":0,
			"byteLength":3888,
			"byteOffset":24056,
			"target":34962
		},
		{
			"buffer":0,
			"byteLength":3888,
			"byteOffset":27944,
			"target":34962
		},
		{
			"buffer":0,
			"byteLength":2592,
			"byteOffset":31832,
			"target":34962
		},
		{
			"buffer":0,
			"byteLength":1176,
			"byteOffset":34424,
			"target":34963
		},
		{
			"buffer":0,
			"byteLength":3936,
			"byteOffset":35600,
			"target":34962
		},
		{
			"buffer":0,
			"byteLength":3936,
			"byteOffset":39536,
			"target":34962
		},
		{
			"buffer":0,
			"byteLength":2624,
			"byteOffset":43472,
			"target":34962
		},
		{
			"buffer":0,
			"byteLength":1176,
			"byteOffset":46096,
			"target":34963
		},
		{
			"buffer":0,
			"byteLength":3720,
			"byteOffset":47272,
			"target":34962
		},
		{
			"buffer":0,
			"byteLength":3720,
			"byteOffset":50992,
			"target":34962
		},
		{
			"buffer":0,
			"byteLength":2480,
			"byteOffset":54712,
			"target":34962
		},
		{
			"buffer":0,
			"byteLength":1176,
			"byteOffset":57192,
			"target":34963
		},
		{
			"buffer":0,
			"byteLength":3792,
			"byteOffset":58368,
			"target":34962
		},
		{
			"buffer":0,
			"byteLength":3792,
			"byteOffset":62160,
			"target":34962
		},
		{
			"buffer":0,
			"byteLength":2528,
			"byteOffset":65952,
			"target":34962
		},
		{
			"buffer":0,
			"byteLength":1176,
			"byteOffset":68480,
			"target":34963
		},
		{
			"buffer":0,
			"byteLength":3744,
			"byteOffset":69656,
			"target":34962
		},
		{
			"buffer":0,
			"byteLength":3744,
			"byteOffset":73400,
			"target":34962
		},
		{
			"buffer":0,
			"byteLength":2496,
			"byteOffset":77144,
			"target":34962
		},
		{
			"buffer":0,
			"byteLength":1176,
			"byteOffset":79640,
			"target":34963
		},
		{
			"buffer":0,
			"byteLength":3648,
			"byteOffset":80816,
			"target":34962
		},
		{
			"buffer":0,
			"byteLength":3648,
			"byteOffset":84464,
			"target":34962
		},
		{
			"buffer":0,
			"byteLength":2432,
			"byteOffset":88112,
			"target":34962
		},
		{
			"buffer":0,
			"byteLength":1176,
			"byteOffset":90544,
			"target":34963
		},
		{
			"buffer":0,
			"byteLength":3720,
			"byteOffset":91720,
			"target":34962
		},
		{
			"buffer":0,
			"byteLength":3720,
			"byteOffset":95440,
			"target":34962
		},
		{
			"buffer":0,
			"byteLength":2480,
			"byteOffset":99160,
			"target":34962
		},
		{
			"buffer":0,
			"byteLength":1176,
			"byteOffset":101640,
			"target":34963
		},
		{
			"buffer":0,
			"byteLength":3600,
			"byteOffset":102816,
			"target":34962
		},
		{
			"buffer":0,
			"byteLength":3600,
			"byteOffset":106416,
			"target":34962
		},
		{
			"buffer":0,
			"byteLength":2400,
			"byteOffset":110016,
			"target":34962
		},
		{
			"buffer":0,
			"byteLength":1176,
			"byteOffset":112416,
			"target":34963
		}
	],
	"buffers":[
		{
			"byteLength":113592,
			"uri":"bug1.bin"
		}
	]
}
