{
	"asset":{
		"generator":"Khronos glTF Blender I/O v4.0.44",
		"version":"2.0"
	},
	"scene":0,
	"scenes":[
		{
			"name":"Scene",
			"nodes":[
				0
			]
		}
	],
	"nodes":[
		{
			"mesh":0,
			"name":"navinavi.002",
			"rotation":[
				0,
				0.49884381890296936,
				0,
				0.8666920065879822
			],
			"scale":[
				22.83099937438965,
				22.830997467041016,
				22.83099937438965
			],
			"translation":[
				-2.2651400566101074,
				-0.3517027497291565,
				8.715510368347168
			]
		}
	],
	"materials":[
		{
			"doubleSided":true,
			"name":"Material.010",
			"pbrMetallicRoughness":{
				"baseColorFactor":[
					0.00045407674042508006,
					0,
					0.8000315427780151,
					1
				],
				"metallicFactor":0,
				"roughnessFactor":0.5
			}
		},
		{
			"doubleSided":true,
			"name":"Material.031",
			"pbrMetallicRoughness":{
				"baseColorFactor":[
					0.00045407674042508006,
					0,
					0.8000315427780151,
					1
				],
				"metallicFactor":0,
				"roughnessFactor":0.5
			}
		},
		{
			"doubleSided":true,
			"name":"Material.013",
			"pbrMetallicRoughness":{
				"baseColorFactor":[
					0.00045407674042508006,
					0,
					0.8000315427780151,
					1
				],
				"metallicFactor":0,
				"roughnessFactor":0.5
			}
		}
	],
	"meshes":[
		{
			"name":"Curve.020",
			"primitives":[
				{
					"attributes":{
						"POSITION":0,
						"NORMAL":1,
						"TEXCOORD_0":2
					},
					"indices":3,
					"material":0
				},
				{
					"attributes":{
						"POSITION":4,
						"NORMAL":5,
						"TEXCOORD_0":6
					},
					"indices":7,
					"material":1
				},
				{
					"attributes":{
						"POSITION":8,
						"NORMAL":9,
						"TEXCOORD_0":10
					},
					"indices":11,
					"material":2
				}
			]
		}
	],
	"accessors":[
		{
			"bufferView":0,
			"componentType":5126,
			"count":300,
			"max":[
				0.2425086796283722,
				0.03376002237200737,
				-0.00032113376073539257
			],
			"min":[
				-0.15361647307872772,
				0.005637180991470814,
				-0.01218313816934824
			],
			"type":"VEC3"
		},
		{
			"bufferView":1,
			"componentType":5126,
			"count":300,
			"type":"VEC3"
		},
		{
			"bufferView":2,
			"componentType":5126,
			"count":300,
			"type":"VEC2"
		},
		{
			"bufferView":3,
			"componentType":5123,
			"count":588,
			"type":"SCALAR"
		},
		{
			"bufferView":4,
			"componentType":5126,
			"count":300,
			"max":[
				-0.07770988345146179,
				0.007637274917215109,
				-0.12854772806167603
			],
			"min":[
				-0.17900429666042328,
				0.003919829614460468,
				-0.15931782126426697
			],
			"type":"VEC3"
		},
		{
			"bufferView":5,
			"componentType":5126,
			"count":300,
			"type":"VEC3"
		},
		{
			"bufferView":6,
			"componentType":5126,
			"count":300,
			"type":"VEC2"
		},
		{
			"bufferView":7,
			"componentType":5123,
			"count":588,
			"type":"SCALAR"
		},
		{
			"bufferView":8,
			"componentType":5126,
			"count":300,
			"max":[
				-0.14295339584350586,
				0.007587917614728212,
				-0.0008872374892234802
			],
			"min":[
				-0.17912700772285461,
				0.005557178519666195,
				-0.14013847708702087
			],
			"type":"VEC3"
		},
		{
			"bufferView":9,
			"componentType":5126,
			"count":300,
			"type":"VEC3"
		},
		{
			"bufferView":10,
			"componentType":5126,
			"count":300,
			"type":"VEC2"
		},
		{
			"bufferView":11,
			"componentType":5123,
			"count":588,
			"type":"SCALAR"
		}
	],
	"bufferViews":[
		{
			"buffer":0,
			"byteLength":3600,
			"byteOffset":0,
			"target":34962
		},
		{
			"buffer":0,
			"byteLength":3600,
			"byteOffset":3600,
			"target":34962
		},
		{
			"buffer":0,
			"byteLength":2400,
			"byteOffset":7200,
			"target":34962
		},
		{
			"buffer":0,
			"byteLength":1176,
			"byteOffset":9600,
			"target":34963
		},
		{
			"buffer":0,
			"byteLength":3600,
			"byteOffset":10776,
			"target":34962
		},
		{
			"buffer":0,
			"byteLength":3600,
			"byteOffset":14376,
			"target":34962
		},
		{
			"buffer":0,
			"byteLength":2400,
			"byteOffset":17976,
			"target":34962
		},
		{
			"buffer":0,
			"byteLength":1176,
			"byteOffset":20376,
			"target":34963
		},
		{
			"buffer":0,
			"byteLength":3600,
			"byteOffset":21552,
			"target":34962
		},
		{
			"buffer":0,
			"byteLength":3600,
			"byteOffset":25152,
			"target":34962
		},
		{
			"buffer":0,
			"byteLength":2400,
			"byteOffset":28752,
			"target":34962
		},
		{
			"buffer":0,
			"byteLength":1176,
			"byteOffset":31152,
			"target":34963
		}
	],
	"buffers":[
		{
			"byteLength":32328,
			"uri":"bush2.bin"
		}
	]
}
