{
	"asset":{
		"generator":"Khronos glTF Blender I/O v4.0.44",
		"version":"2.0"
	},
	"scene":0,
	"scenes":[
		{
			"name":"Scene",
			"nodes":[
				0
			]
		}
	],
	"nodes":[
		{
			"mesh":0,
			"name":"Curve",
			"rotation":[
				0,
				0.9855265617370605,
				0,
				0.16952122747898102
			],
			"scale":[
				7.944444179534912,
				7.944446086883545,
				7.944444179534912
			],
			"translation":[
				-3.893876314163208,
				-0.009620492346584797,
				-1.445094108581543
			]
		}
	],
	"materials":[
		{
			"doubleSided":true,
			"name":"Material.025",
			"pbrMetallicRoughness":{
				"baseColorFactor":[
					0.001660459558479488,
					0.0003183941589668393,
					0.8470158576965332,
					1
				],
				"metallicFactor":0,
				"roughnessFactor":0.5
			}
		}
	],
	"meshes":[
		{
			"name":"Curve",
			"primitives":[
				{
					"attributes":{
						"POSITION":0,
						"NORMAL":1,
						"TEXCOORD_0":2
					},
					"indices":3,
					"material":0
				}
			]
		}
	],
	"accessors":[
		{
			"bufferView":0,
			"componentType":5126,
			"count":1254,
			"max":[
				0.07163181155920029,
				0,
				-0.025645580142736435
			],
			"min":[
				0.013151824474334717,
				-0.009999999776482582,
				-0.0585746243596077
			],
			"type":"VEC3"
		},
		{
			"bufferView":1,
			"componentType":5126,
			"count":1254,
			"type":"VEC3"
		},
		{
			"bufferView":2,
			"componentType":5126,
			"count":1254,
			"type":"VEC2"
		},
		{
			"bufferView":3,
			"componentType":5123,
			"count":2580,
			"type":"SCALAR"
		}
	],
	"bufferViews":[
		{
			"buffer":0,
			"byteLength":15048,
			"byteOffset":0,
			"target":34962
		},
		{
			"buffer":0,
			"byteLength":15048,
			"byteOffset":15048,
			"target":34962
		},
		{
			"buffer":0,
			"byteLength":10032,
			"byteOffset":30096,
			"target":34962
		},
		{
			"buffer":0,
			"byteLength":5160,
			"byteOffset":40128,
			"target":34963
		}
	],
	"buffers":[
		{
			"byteLength":45288,
			"uri":"chevron.bin"
		}
	]
}
