{
	"asset":{
		"generator":"Khronos glTF Blender I/O v4.0.44",
		"version":"2.0"
	},
	"scene":0,
	"scenes":[
		{
			"name":"Scene",
			"nodes":[
				0
			]
		}
	],
	"nodes":[
		{
			"mesh":0,
			"name":"navinavi.002",
			"rotation":[
				0,
				0.4906146824359894,
				0,
				0.871376633644104
			],
			"scale":[
				22.83100128173828,
				22.830997467041016,
				22.83100128173828
			],
			"translation":[
				-1.7937068939208984,
				-0.17840257287025452,
				7.997076511383057
			]
		}
	],
	"materials":[
		{
			"doubleSided":true,
			"name":"Material.134",
			"pbrMetallicRoughness":{
				"baseColorFactor":[
					0.00045407674042508006,
					0,
					0.8000315427780151,
					1
				],
				"metallicFactor":0,
				"roughnessFactor":0.5
			}
		},
		{
			"doubleSided":true,
			"name":"Material.136",
			"pbrMetallicRoughness":{
				"baseColorFactor":[
					0.00045407674042508006,
					0,
					0.8000315427780151,
					1
				],
				"metallicFactor":0,
				"roughnessFactor":0.5
			}
		},
		{
			"doubleSided":true,
			"name":"Material.138",
			"pbrMetallicRoughness":{
				"baseColorFactor":[
					0.00045407674042508006,
					0,
					0.8000315427780151,
					1
				],
				"metallicFactor":0,
				"roughnessFactor":0.5
			}
		}
	],
	"meshes":[
		{
			"name":"Curve.107",
			"primitives":[
				{
					"attributes":{
						"POSITION":0,
						"NORMAL":1,
						"TEXCOORD_0":2
					},
					"indices":3,
					"material":0
				},
				{
					"attributes":{
						"POSITION":4,
						"NORMAL":5,
						"TEXCOORD_0":6
					},
					"indices":7,
					"material":1
				},
				{
					"attributes":{
						"POSITION":8,
						"NORMAL":9,
						"TEXCOORD_0":10
					},
					"indices":11,
					"material":2
				}
			]
		}
	],
	"accessors":[
		{
			"bufferView":0,
			"componentType":5126,
			"count":320,
			"max":[
				0.22980329394340515,
				0.026837799698114395,
				0.006227596662938595
			],
			"min":[
				-0.18091422319412231,
				-0.0010000047041103244,
				-0.017091097310185432
			],
			"type":"VEC3"
		},
		{
			"bufferView":1,
			"componentType":5126,
			"count":320,
			"type":"VEC3"
		},
		{
			"bufferView":2,
			"componentType":5126,
			"count":320,
			"type":"VEC2"
		},
		{
			"bufferView":3,
			"componentType":5123,
			"count":588,
			"type":"SCALAR"
		},
		{
			"bufferView":4,
			"componentType":5126,
			"count":316,
			"max":[
				0.23198643326759338,
				0.02797834202647209,
				-0.0047366321086883545
			],
			"min":[
				0.18263103067874908,
				-0.002508764388039708,
				-0.174490287899971
			],
			"type":"VEC3"
		},
		{
			"bufferView":5,
			"componentType":5126,
			"count":316,
			"type":"VEC3"
		},
		{
			"bufferView":6,
			"componentType":5126,
			"count":316,
			"type":"VEC2"
		},
		{
			"bufferView":7,
			"componentType":5123,
			"count":588,
			"type":"SCALAR"
		},
		{
			"bufferView":8,
			"componentType":5126,
			"count":312,
			"max":[
				0.22977036237716675,
				0.000282123452052474,
				-0.16333408653736115
			],
			"min":[
				0.18240635097026825,
				-0.00639228243380785,
				-0.17816457152366638
			],
			"type":"VEC3"
		},
		{
			"bufferView":9,
			"componentType":5126,
			"count":312,
			"type":"VEC3"
		},
		{
			"bufferView":10,
			"componentType":5126,
			"count":312,
			"type":"VEC2"
		},
		{
			"bufferView":11,
			"componentType":5123,
			"count":588,
			"type":"SCALAR"
		}
	],
	"bufferViews":[
		{
			"buffer":0,
			"byteLength":3840,
			"byteOffset":0,
			"target":34962
		},
		{
			"buffer":0,
			"byteLength":3840,
			"byteOffset":3840,
			"target":34962
		},
		{
			"buffer":0,
			"byteLength":2560,
			"byteOffset":7680,
			"target":34962
		},
		{
			"buffer":0,
			"byteLength":1176,
			"byteOffset":10240,
			"target":34963
		},
		{
			"buffer":0,
			"byteLength":3792,
			"byteOffset":11416,
			"target":34962
		},
		{
			"buffer":0,
			"byteLength":3792,
			"byteOffset":15208,
			"target":34962
		},
		{
			"buffer":0,
			"byteLength":2528,
			"byteOffset":19000,
			"target":34962
		},
		{
			"buffer":0,
			"byteLength":1176,
			"byteOffset":21528,
			"target":34963
		},
		{
			"buffer":0,
			"byteLength":3744,
			"byteOffset":22704,
			"target":34962
		},
		{
			"buffer":0,
			"byteLength":3744,
			"byteOffset":26448,
			"target":34962
		},
		{
			"buffer":0,
			"byteLength":2496,
			"byteOffset":30192,
			"target":34962
		},
		{
			"buffer":0,
			"byteLength":1176,
			"byteOffset":32688,
			"target":34963
		}
	],
	"buffers":[
		{
			"byteLength":33864,
			"uri":"degt4.bin"
		}
	]
}
