{
	"asset":{
		"generator":"Khronos glTF Blender I/O v4.0.44",
		"version":"2.0"
	},
	"scene":0,
	"scenes":[
		{
			"name":"Scene",
			"nodes":[
				1
			]
		}
	],
	"nodes":[
		{
			"mesh":0,
			"name":"Palestine",
			"translation":[
				-0.022912893444299698,
				2.479801654815674,
				-1.0496408939361572
			]
		},
		{
			"children":[
				0
			],
			"name":" flag"
		}
	],
	"materials":[
		{
			"doubleSided":true,
			"name":"Material.011",
			"pbrMetallicRoughness":{
				"baseColorFactor":[
					0.001670801779255271,
					0,
					0.8001416921615601,
					1
				],
				"metallicFactor":0,
				"roughnessFactor":0.4000000059604645
			}
		},
		{
			"doubleSided":true,
			"name":"Material.010",
			"pbrMetallicRoughness":{
				"baseColorFactor":[
					0.05307372659444809,
					0.051367875188589096,
					0.05348581448197365,
					1
				],
				"metallicFactor":0,
				"roughnessFactor":0.4000000059604645
			}
		}
	],
	"meshes":[
		{
			"name":"\u041f\u043b\u043e\u0441\u043a\u043e\u0441\u0442\u044c.004",
			"primitives":[
				{
					"attributes":{
						"POSITION":0,
						"NORMAL":1,
						"TEXCOORD_0":2,
						"TEXCOORD_1":3,
						"TEXCOORD_2":4
					},
					"indices":5,
					"material":0
				},
				{
					"attributes":{
						"POSITION":6,
						"NORMAL":7,
						"TEXCOORD_0":8,
						"TEXCOORD_1":9,
						"TEXCOORD_2":10
					},
					"indices":11,
					"material":1
				}
			]
		}
	],
	"accessors":[
		{
			"bufferView":0,
			"componentType":5126,
			"count":186913,
			"max":[
				0.04613413289189339,
				0.7004995346069336,
				1.0715947151184082
			],
			"min":[
				-8.75443362247097e-08,
				-0.7000001668930054,
				-1.0500001907348633
			],
			"type":"VEC3"
		},
		{
			"bufferView":1,
			"componentType":5126,
			"count":186913,
			"type":"VEC3"
		},
		{
			"bufferView":2,
			"componentType":5126,
			"count":186913,
			"type":"VEC2"
		},
		{
			"bufferView":3,
			"componentType":5126,
			"count":186913,
			"type":"VEC2"
		},
		{
			"bufferView":4,
			"componentType":5126,
			"count":186913,
			"type":"VEC2"
		},
		{
			"bufferView":5,
			"componentType":5125,
			"count":1116288,
			"type":"SCALAR"
		},
		{
			"bufferView":6,
			"componentType":5126,
			"count":3613,
			"max":[
				0.04217221215367317,
				0.8627320528030396,
				1.069035530090332
			],
			"min":[
				0.0033831242471933365,
				-2.4132540225982666,
				1.030246615409851
			],
			"type":"VEC3"
		},
		{
			"bufferView":7,
			"componentType":5126,
			"count":3613,
			"type":"VEC3"
		},
		{
			"bufferView":8,
			"componentType":5126,
			"count":3613,
			"type":"VEC2"
		},
		{
			"bufferView":9,
			"componentType":5126,
			"count":3613,
			"type":"VEC2"
		},
		{
			"bufferView":10,
			"componentType":5126,
			"count":3613,
			"type":"VEC2"
		},
		{
			"bufferView":11,
			"componentType":5123,
			"count":18432,
			"type":"SCALAR"
		}
	],
	"bufferViews":[
		{
			"buffer":0,
			"byteLength":2242956,
			"byteOffset":0,
			"target":34962
		},
		{
			"buffer":0,
			"byteLength":2242956,
			"byteOffset":2242956,
			"target":34962
		},
		{
			"buffer":0,
			"byteLength":1495304,
			"byteOffset":4485912,
			"target":34962
		},
		{
			"buffer":0,
			"byteLength":1495304,
			"byteOffset":5981216,
			"target":34962
		},
		{
			"buffer":0,
			"byteLength":1495304,
			"byteOffset":7476520,
			"target":34962
		},
		{
			"buffer":0,
			"byteLength":4465152,
			"byteOffset":8971824,
			"target":34963
		},
		{
			"buffer":0,
			"byteLength":43356,
			"byteOffset":13436976,
			"target":34962
		},
		{
			"buffer":0,
			"byteLength":43356,
			"byteOffset":13480332,
			"target":34962
		},
		{
			"buffer":0,
			"byteLength":28904,
			"byteOffset":13523688,
			"target":34962
		},
		{
			"buffer":0,
			"byteLength":28904,
			"byteOffset":13552592,
			"target":34962
		},
		{
			"buffer":0,
			"byteLength":28904,
			"byteOffset":13581496,
			"target":34962
		},
		{
			"buffer":0,
			"byteLength":36864,
			"byteOffset":13610400,
			"target":34963
		}
	],
	"buffers":[
		{
			"byteLength":13647264,
			"uri":"flag1.bin"
		}
	]
}
