{
	"asset":{
		"generator":"Khronos glTF Blender I/O v4.0.44",
		"version":"2.0"
	},
	"scene":0,
	"scenes":[
		{
			"name":"Scene",
			"nodes":[
				1
			]
		}
	],
	"nodes":[
		{
			"mesh":0,
			"name":"Cylinder.001",
			"rotation":[
				0,
				-0.1878724992275238,
				0,
				0.9821934700012207
			]
		},
		{
			"children":[
				0
			],
			"name":"flag"
		}
	],
	"materials":[
		{
			"doubleSided":true,
			"name":"Wood.001",
			"normalTexture":{
				"index":0,
				"texCoord":1
			},
			"pbrMetallicRoughness":{
				"baseColorTexture":{
					"index":1,
					"texCoord":1
				},
				"metallicFactor":0,
				"metallicRoughnessTexture":{
					"index":2,
					"texCoord":1
				}
			}
		},
		{
			"doubleSided":true,
			"name":"Material",
			"pbrMetallicRoughness":{
				"baseColorFactor":[
					0.0009182946523651481,
					0,
					0.8000473976135254,
					1
				],
				"metallicFactor":0,
				"roughnessFactor":0.4000000059604645
			}
		}
	],
	"meshes":[
		{
			"name":"Cylinder.031",
			"primitives":[
				{
					"attributes":{
						"POSITION":0,
						"NORMAL":1,
						"TEXCOORD_0":2,
						"TEXCOORD_1":3
					},
					"indices":4,
					"material":0
				},
				{
					"attributes":{
						"POSITION":5,
						"NORMAL":6,
						"TEXCOORD_0":7,
						"TEXCOORD_1":8
					},
					"indices":9,
					"material":1
				}
			]
		}
	],
	"textures":[
		{
			"sampler":0,
			"source":0
		},
		{
			"sampler":0,
			"source":1
		},
		{
			"sampler":0,
			"source":2
		}
	],
	"images":[
		{
			"mimeType":"image/jpeg",
			"name":"Wood058_2K_Normal",
			"uri":"Wood058_2K_Normal.jpg"
		},
		{
			"mimeType":"image/jpeg",
			"name":"Wood058_2K_Color",
			"uri":"Wood058_2K_Color.jpg"
		},
		{
			"mimeType":"image/png",
			"name":"Wood058_2K_Roughness",
			"uri":"Wood058_2K_Roughness.png"
		}
	],
	"accessors":[
		{
			"bufferView":0,
			"componentType":5126,
			"count":257,
			"max":[
				0.026887862011790276,
				0.9123314023017883,
				0.026866786181926727
			],
			"min":[
				-0.026887573301792145,
				-0.17573601007461548,
				-0.02686653658747673
			],
			"type":"VEC3"
		},
		{
			"bufferView":1,
			"componentType":5126,
			"count":257,
			"type":"VEC3"
		},
		{
			"bufferView":2,
			"componentType":5126,
			"count":257,
			"type":"VEC2"
		},
		{
			"bufferView":3,
			"componentType":5126,
			"count":257,
			"type":"VEC2"
		},
		{
			"bufferView":4,
			"componentType":5123,
			"count":1092,
			"type":"SCALAR"
		},
		{
			"bufferView":5,
			"componentType":5126,
			"count":4225,
			"max":[
				0.6690776944160461,
				0.8640075922012329,
				0.04472287744283676
			],
			"min":[
				0.004548758268356323,
				0.25003594160079956,
				-0.36311104893684387
			],
			"type":"VEC3"
		},
		{
			"bufferView":6,
			"componentType":5126,
			"count":4225,
			"type":"VEC3"
		},
		{
			"bufferView":7,
			"componentType":5126,
			"count":4225,
			"type":"VEC2"
		},
		{
			"bufferView":8,
			"componentType":5126,
			"count":4225,
			"type":"VEC2"
		},
		{
			"bufferView":9,
			"componentType":5123,
			"count":23040,
			"type":"SCALAR"
		}
	],
	"bufferViews":[
		{
			"buffer":0,
			"byteLength":3084,
			"byteOffset":0,
			"target":34962
		},
		{
			"buffer":0,
			"byteLength":3084,
			"byteOffset":3084,
			"target":34962
		},
		{
			"buffer":0,
			"byteLength":2056,
			"byteOffset":6168,
			"target":34962
		},
		{
			"buffer":0,
			"byteLength":2056,
			"byteOffset":8224,
			"target":34962
		},
		{
			"buffer":0,
			"byteLength":2184,
			"byteOffset":10280,
			"target":34963
		},
		{
			"buffer":0,
			"byteLength":50700,
			"byteOffset":12464,
			"target":34962
		},
		{
			"buffer":0,
			"byteLength":50700,
			"byteOffset":63164,
			"target":34962
		},
		{
			"buffer":0,
			"byteLength":33800,
			"byteOffset":113864,
			"target":34962
		},
		{
			"buffer":0,
			"byteLength":33800,
			"byteOffset":147664,
			"target":34962
		},
		{
			"buffer":0,
			"byteLength":46080,
			"byteOffset":181464,
			"target":34963
		}
	],
	"samplers":[
		{
			"magFilter":9729,
			"minFilter":9987
		}
	],
	"buffers":[
		{
			"byteLength":227544,
			"uri":"flag%20glorax.bin"
		}
	]
}
