{
	"asset":{
		"generator":"Khronos glTF Blender I/O v4.0.44",
		"version":"2.0"
	},
	"scene":0,
	"scenes":[
		{
			"name":"Scene",
			"nodes":[
				0
			]
		}
	],
	"nodes":[
		{
			"mesh":0,
			"name":"Curve.034",
			"rotation":[
				-0.002338632708415389,
				0.9828270673751831,
				0.0004393532290123403,
				0.18451383709907532
			],
			"scale":[
				22.83099937438965,
				22.830995559692383,
				22.830997467041016
			],
			"translation":[
				-1.7335084676742554,
				-0.3745337724685669,
				-2.1921942234039307
			]
		}
	],
	"materials":[
		{
			"doubleSided":true,
			"name":"Material.116",
			"pbrMetallicRoughness":{
				"baseColorFactor":[
					0.00045407674042508006,
					0,
					0.8000315427780151,
					1
				],
				"metallicFactor":0,
				"roughnessFactor":0.5
			}
		},
		{
			"doubleSided":true,
			"name":"Material.114",
			"pbrMetallicRoughness":{
				"baseColorFactor":[
					0.00045407674042508006,
					0,
					0.8000315427780151,
					1
				],
				"metallicFactor":0,
				"roughnessFactor":0.5
			}
		}
	],
	"meshes":[
		{
			"name":"Curve.016",
			"primitives":[
				{
					"attributes":{
						"POSITION":0,
						"NORMAL":1,
						"TEXCOORD_0":2
					},
					"indices":3,
					"material":0
				},
				{
					"attributes":{
						"POSITION":4,
						"NORMAL":5,
						"TEXCOORD_0":6
					},
					"indices":7,
					"material":1
				}
			]
		}
	],
	"accessors":[
		{
			"bufferView":0,
			"componentType":5126,
			"count":300,
			"max":[
				0.05377883464097977,
				0.011367687955498695,
				0.01202349178493023
			],
			"min":[
				-0.11911731958389282,
				-0.0009909700602293015,
				-0.0069983950816094875
			],
			"type":"VEC3"
		},
		{
			"bufferView":1,
			"componentType":5126,
			"count":300,
			"type":"VEC3"
		},
		{
			"bufferView":2,
			"componentType":5126,
			"count":300,
			"type":"VEC2"
		},
		{
			"bufferView":3,
			"componentType":5123,
			"count":588,
			"type":"SCALAR"
		},
		{
			"bufferView":4,
			"componentType":5126,
			"count":300,
			"max":[
				0.05436466634273529,
				0.0016762276645749807,
				0.003978997468948364
			],
			"min":[
				0.01885310746729374,
				-0.0008098762482404709,
				-0.31767407059669495
			],
			"type":"VEC3"
		},
		{
			"bufferView":5,
			"componentType":5126,
			"count":300,
			"type":"VEC3"
		},
		{
			"bufferView":6,
			"componentType":5126,
			"count":300,
			"type":"VEC2"
		},
		{
			"bufferView":7,
			"componentType":5123,
			"count":588,
			"type":"SCALAR"
		}
	],
	"bufferViews":[
		{
			"buffer":0,
			"byteLength":3600,
			"byteOffset":0,
			"target":34962
		},
		{
			"buffer":0,
			"byteLength":3600,
			"byteOffset":3600,
			"target":34962
		},
		{
			"buffer":0,
			"byteLength":2400,
			"byteOffset":7200,
			"target":34962
		},
		{
			"buffer":0,
			"byteLength":1176,
			"byteOffset":9600,
			"target":34963
		},
		{
			"buffer":0,
			"byteLength":3600,
			"byteOffset":10776,
			"target":34962
		},
		{
			"buffer":0,
			"byteLength":3600,
			"byteOffset":14376,
			"target":34962
		},
		{
			"buffer":0,
			"byteLength":2400,
			"byteOffset":17976,
			"target":34962
		},
		{
			"buffer":0,
			"byteLength":1176,
			"byteOffset":20376,
			"target":34963
		}
	],
	"buffers":[
		{
			"byteLength":21552,
			"uri":"LefttNavi.bin"
		}
	]
}
