{
	"asset":{
		"generator":"Khronos glTF Blender I/O v4.0.44",
		"version":"2.0"
	},
	"scene":0,
	"scenes":[
		{
			"name":"Scene",
			"nodes":[
				0
			]
		}
	],
	"nodes":[
		{
			"mesh":0,
			"name":"Curve.001",
			"scale":[
				0.11067625880241394,
				0.11067625880241394,
				0.11067625880241394
			],
			"translation":[
				-0.00018881261348724365,
				0,
				0.0003940500319004059
			]
		}
	],
	"materials":[
		{
			"doubleSided":true,
			"name":"Material.001",
			"pbrMetallicRoughness":{
				"baseColorFactor":[
					0.00045407674042508006,
					0,
					0.8000315427780151,
					1
				],
				"metallicFactor":0,
				"roughnessFactor":0.5
			}
		}
	],
	"meshes":[
		{
			"name":"Curve.001",
			"primitives":[
				{
					"attributes":{
						"POSITION":0,
						"NORMAL":1,
						"TEXCOORD_0":2
					},
					"indices":3,
					"material":0
				}
			]
		}
	],
	"accessors":[
		{
			"bufferView":0,
			"componentType":5126,
			"count":1151,
			"max":[
				0.15696267783641815,
				0.47024714946746826,
				0.11286735534667969
			],
			"min":[
				-0.16605158150196075,
				-0.03999999910593033,
				-0.11286735534667969
			],
			"type":"VEC3"
		},
		{
			"bufferView":1,
			"componentType":5126,
			"count":1151,
			"type":"VEC3"
		},
		{
			"bufferView":2,
			"componentType":5126,
			"count":1151,
			"type":"VEC2"
		},
		{
			"bufferView":3,
			"componentType":5123,
			"count":2292,
			"type":"SCALAR"
		}
	],
	"bufferViews":[
		{
			"buffer":0,
			"byteLength":13812,
			"byteOffset":0,
			"target":34962
		},
		{
			"buffer":0,
			"byteLength":13812,
			"byteOffset":13812,
			"target":34962
		},
		{
			"buffer":0,
			"byteLength":9208,
			"byteOffset":27624,
			"target":34962
		},
		{
			"buffer":0,
			"byteLength":4584,
			"byteOffset":36832,
			"target":34963
		}
	],
	"buffers":[
		{
			"byteLength":41416,
			"uri":"location-point.bin"
		}
	]
}
