{
	"asset":{
		"generator":"Khronos glTF Blender I/O v4.0.44",
		"version":"2.0"
	},
	"scene":0,
	"scenes":[
		{
			"name":"Scene",
			"nodes":[
				0
			]
		}
	],
	"nodes":[
		{
			"mesh":0,
			"name":"Curve.021",
			"rotation":[
				1.1163801900693215e-05,
				-0.709109902381897,
				1.1227321920159739e-05,
				0.7050979733467102
			],
			"scale":[
				98.13125610351562,
				98.13125610351562,
				98.13125610351562
			],
			"translation":[
				-0.6282981634140015,
				-0.16330289840698242,
				-2.9596824645996094
			]
		}
	],
	"materials":[
		{
			"doubleSided":true,
			"name":"Material.081",
			"pbrMetallicRoughness":{
				"baseColorFactor":[
					0.00045407674042508006,
					0,
					0.8000315427780151,
					1
				],
				"metallicFactor":0,
				"roughnessFactor":0.5
			}
		}
	],
	"meshes":[
		{
			"name":"Curve.004",
			"primitives":[
				{
					"attributes":{
						"POSITION":0,
						"NORMAL":1,
						"TEXCOORD_0":2
					},
					"indices":3,
					"material":0
				}
			]
		}
	],
	"accessors":[
		{
			"bufferView":0,
			"componentType":5126,
			"count":3914,
			"max":[
				0.07935928553342819,
				0.01667138561606407,
				0.05706893652677536
			],
			"min":[
				-0.08126716315746307,
				-0.0021662041544914246,
				-0.08172489702701569
			],
			"type":"VEC3"
		},
		{
			"bufferView":1,
			"componentType":5126,
			"count":3914,
			"type":"VEC3"
		},
		{
			"bufferView":2,
			"componentType":5126,
			"count":3914,
			"type":"VEC2"
		},
		{
			"bufferView":3,
			"componentType":5123,
			"count":8352,
			"type":"SCALAR"
		}
	],
	"bufferViews":[
		{
			"buffer":0,
			"byteLength":46968,
			"byteOffset":0,
			"target":34962
		},
		{
			"buffer":0,
			"byteLength":46968,
			"byteOffset":46968,
			"target":34962
		},
		{
			"buffer":0,
			"byteLength":31312,
			"byteOffset":93936,
			"target":34962
		},
		{
			"buffer":0,
			"byteLength":16704,
			"byteOffset":125248,
			"target":34963
		}
	],
	"buffers":[
		{
			"byteLength":141952,
			"uri":"navi-bashkirova.bin"
		}
	]
}
