{
	"asset":{
		"generator":"Khronos glTF Blender I/O v4.0.44",
		"version":"2.0"
	},
	"scene":0,
	"scenes":[
		{
			"name":"Scene",
			"nodes":[
				0
			]
		}
	],
	"nodes":[
		{
			"mesh":0,
			"name":"Curve.001",
			"rotation":[
				0,
				0.5324375033378601,
				0,
				0.8464694023132324
			],
			"scale":[
				0.9971323013305664,
				0.9971322417259216,
				0.9971323013305664
			],
			"translation":[
				-6.216207027435303,
				-0.3494579493999481,
				4.041128158569336
			]
		}
	],
	"materials":[
		{
			"doubleSided":true,
			"name":"Material.014",
			"pbrMetallicRoughness":{
				"baseColorFactor":[
					0.00045407674042508006,
					0,
					0.8000315427780151,
					1
				],
				"metallicFactor":0,
				"roughnessFactor":0.5
			}
		}
	],
	"meshes":[
		{
			"name":"Curve.001",
			"primitives":[
				{
					"attributes":{
						"POSITION":0,
						"NORMAL":1,
						"TEXCOORD_0":2
					},
					"indices":3,
					"material":0
				}
			]
		}
	],
	"accessors":[
		{
			"bufferView":0,
			"componentType":5126,
			"count":2833,
			"max":[
				10.918549537658691,
				0.47024714946746826,
				0.13984942436218262
			],
			"min":[
				-0.16605158150196075,
				-0.05764373391866684,
				-1.5232871770858765
			],
			"type":"VEC3"
		},
		{
			"bufferView":1,
			"componentType":5126,
			"count":2833,
			"type":"VEC3"
		},
		{
			"bufferView":2,
			"componentType":5126,
			"count":2833,
			"type":"VEC2"
		},
		{
			"bufferView":3,
			"componentType":5123,
			"count":5892,
			"type":"SCALAR"
		}
	],
	"bufferViews":[
		{
			"buffer":0,
			"byteLength":33996,
			"byteOffset":0,
			"target":34962
		},
		{
			"buffer":0,
			"byteLength":33996,
			"byteOffset":33996,
			"target":34962
		},
		{
			"buffer":0,
			"byteLength":22664,
			"byteOffset":67992,
			"target":34962
		},
		{
			"buffer":0,
			"byteLength":11784,
			"byteOffset":90656,
			"target":34963
		}
	],
	"buffers":[
		{
			"byteLength":102440,
			"uri":"navilocation3.bin"
		}
	]
}
