{
	"asset":{
		"generator":"Khronos glTF Blender I/O v4.0.44",
		"version":"2.0"
	},
	"scene":0,
	"scenes":[
		{
			"name":"Scene",
			"nodes":[
				0
			]
		}
	],
	"nodes":[
		{
			"mesh":0,
			"name":"Curve.001",
			"rotation":[
				0,
				-0.8144645690917969,
				0,
				0.5802132487297058
			],
			"scale":[
				50.89518356323242,
				50.89518737792969,
				50.89518356323242
			],
			"translation":[
				-3.669678211212158,
				-0.09117066860198975,
				-5.049813270568848
			]
		}
	],
	"materials":[
		{
			"doubleSided":true,
			"name":"Material.025",
			"pbrMetallicRoughness":{
				"baseColorFactor":[
					0.001660459558479488,
					0.0003183941589668393,
					0.8470158576965332,
					1
				],
				"metallicFactor":0,
				"roughnessFactor":0.5
			}
		}
	],
	"meshes":[
		{
			"name":"Curve.001",
			"primitives":[
				{
					"attributes":{
						"POSITION":0,
						"NORMAL":1,
						"TEXCOORD_0":2
					},
					"indices":3,
					"material":0
				}
			]
		}
	],
	"accessors":[
		{
			"bufferView":0,
			"componentType":5126,
			"count":1543,
			"max":[
				0.09542891383171082,
				0.0009557133889757097,
				-0.009434394538402557
			],
			"min":[
				0.034014809876680374,
				0,
				-0.1431862860918045
			],
			"type":"VEC3"
		},
		{
			"bufferView":1,
			"componentType":5126,
			"count":1543,
			"type":"VEC3"
		},
		{
			"bufferView":2,
			"componentType":5126,
			"count":1543,
			"type":"VEC2"
		},
		{
			"bufferView":3,
			"componentType":5123,
			"count":3012,
			"type":"SCALAR"
		}
	],
	"bufferViews":[
		{
			"buffer":0,
			"byteLength":18516,
			"byteOffset":0,
			"target":34962
		},
		{
			"buffer":0,
			"byteLength":18516,
			"byteOffset":18516,
			"target":34962
		},
		{
			"buffer":0,
			"byteLength":12344,
			"byteOffset":37032,
			"target":34962
		},
		{
			"buffer":0,
			"byteLength":6024,
			"byteOffset":49376,
			"target":34963
		}
	],
	"buffers":[
		{
			"byteLength":55400,
			"uri":"navigation.bin"
		}
	]
}
