{
	"asset":{
		"generator":"Khronos glTF Blender I/O v4.0.44",
		"version":"2.0"
	},
	"scene":0,
	"scenes":[
		{
			"name":"Scene",
			"nodes":[
				0
			]
		}
	],
	"nodes":[
		{
			"mesh":0,
			"name":"Curve.001",
			"rotation":[
				0,
				0.5804981589317322,
				0,
				0.8142616748809814
			],
			"scale":[
				1.1441518068313599,
				1.1441519260406494,
				1.1441518068313599
			],
			"translation":[
				-6.218388080596924,
				-0.33600476384162903,
				4.042872905731201
			]
		}
	],
	"materials":[
		{
			"doubleSided":true,
			"name":"Material.014",
			"pbrMetallicRoughness":{
				"baseColorFactor":[
					0.7815974950790405,
					0.800054669380188,
					0.08128264546394348,
					1
				],
				"metallicFactor":0,
				"roughnessFactor":0.5
			}
		},
		{
			"doubleSided":true,
			"name":"Material.081",
			"pbrMetallicRoughness":{
				"baseColorFactor":[
					0.00045407674042508006,
					0,
					0.8000315427780151,
					1
				],
				"metallicFactor":0,
				"roughnessFactor":0.5
			}
		},
		{
			"doubleSided":true,
			"name":"Material.001",
			"pbrMetallicRoughness":{
				"baseColorFactor":[
					0.7815974950790405,
					0.800054669380188,
					0.08128264546394348,
					1
				],
				"metallicFactor":0,
				"roughnessFactor":0.5
			}
		}
	],
	"meshes":[
		{
			"name":"Curve.001",
			"primitives":[
				{
					"attributes":{
						"POSITION":0,
						"NORMAL":1,
						"TEXCOORD_0":2
					},
					"indices":3,
					"material":0
				},
				{
					"attributes":{
						"POSITION":4,
						"NORMAL":5,
						"TEXCOORD_0":6
					},
					"indices":7,
					"material":1
				},
				{
					"attributes":{
						"POSITION":8,
						"NORMAL":9,
						"TEXCOORD_0":10
					},
					"indices":11,
					"material":2
				}
			]
		}
	],
	"accessors":[
		{
			"bufferView":0,
			"componentType":5126,
			"count":1092,
			"max":[
				0.15696267783641815,
				0.47024714946746826,
				0.11286735534667969
			],
			"min":[
				-0.16605158150196075,
				-0.03999999910593033,
				-0.11286735534667969
			],
			"type":"VEC3"
		},
		{
			"bufferView":1,
			"componentType":5126,
			"count":1092,
			"type":"VEC3"
		},
		{
			"bufferView":2,
			"componentType":5126,
			"count":1092,
			"type":"VEC2"
		},
		{
			"bufferView":3,
			"componentType":5123,
			"count":2292,
			"type":"SCALAR"
		},
		{
			"bufferView":4,
			"componentType":5126,
			"count":300,
			"max":[
				9.581609725952148,
				-0.013720124959945679,
				0.11683636903762817
			],
			"min":[
				-0.11523295938968658,
				-0.05362921208143234,
				-0.22458314895629883
			],
			"type":"VEC3"
		},
		{
			"bufferView":5,
			"componentType":5126,
			"count":300,
			"type":"VEC3"
		},
		{
			"bufferView":6,
			"componentType":5126,
			"count":300,
			"type":"VEC2"
		},
		{
			"bufferView":7,
			"componentType":5123,
			"count":588,
			"type":"SCALAR"
		},
		{
			"bufferView":8,
			"componentType":5126,
			"count":1092,
			"max":[
				9.62328815460205,
				0.47024714946746826,
				0.005306243896484375
			],
			"min":[
				9.300273895263672,
				-0.03999998793005943,
				-0.220428466796875
			],
			"type":"VEC3"
		},
		{
			"bufferView":9,
			"componentType":5126,
			"count":1092,
			"type":"VEC3"
		},
		{
			"bufferView":10,
			"componentType":5126,
			"count":1092,
			"type":"VEC2"
		},
		{
			"bufferView":11,
			"componentType":5123,
			"count":2292,
			"type":"SCALAR"
		}
	],
	"bufferViews":[
		{
			"buffer":0,
			"byteLength":13104,
			"byteOffset":0,
			"target":34962
		},
		{
			"buffer":0,
			"byteLength":13104,
			"byteOffset":13104,
			"target":34962
		},
		{
			"buffer":0,
			"byteLength":8736,
			"byteOffset":26208,
			"target":34962
		},
		{
			"buffer":0,
			"byteLength":4584,
			"byteOffset":34944,
			"target":34963
		},
		{
			"buffer":0,
			"byteLength":3600,
			"byteOffset":39528,
			"target":34962
		},
		{
			"buffer":0,
			"byteLength":3600,
			"byteOffset":43128,
			"target":34962
		},
		{
			"buffer":0,
			"byteLength":2400,
			"byteOffset":46728,
			"target":34962
		},
		{
			"buffer":0,
			"byteLength":1176,
			"byteOffset":49128,
			"target":34963
		},
		{
			"buffer":0,
			"byteLength":13104,
			"byteOffset":50304,
			"target":34962
		},
		{
			"buffer":0,
			"byteLength":13104,
			"byteOffset":63408,
			"target":34962
		},
		{
			"buffer":0,
			"byteLength":8736,
			"byteOffset":76512,
			"target":34962
		},
		{
			"buffer":0,
			"byteLength":4584,
			"byteOffset":85248,
			"target":34963
		}
	],
	"buffers":[
		{
			"byteLength":89832,
			"uri":"navilocoNEWyellow.bin"
		}
	]
}
