{
	"asset":{
		"generator":"Khronos glTF Blender I/O v4.0.44",
		"version":"2.0"
	},
	"scene":0,
	"scenes":[
		{
			"name":"Scene",
			"nodes":[
				0
			]
		}
	],
	"nodes":[
		{
			"mesh":0,
			"name":"point-2",
			"rotation":[
				0,
				0.7108347415924072,
				0,
				0.7033591270446777
			],
			"scale":[
				0.38281798362731934,
				0.3828180134296417,
				0.38281798362731934
			],
			"translation":[
				-0.002382993698120117,
				0.03228345513343811,
				-0.0006518363952636719
			]
		}
	],
	"materials":[
		{
			"doubleSided":true,
			"name":"Material.106",
			"pbrMetallicRoughness":{
				"baseColorFactor":[
					0.8001105785369873,
					0.7328417897224426,
					0.12874343991279602,
					1
				],
				"metallicFactor":0,
				"roughnessFactor":0.5
			}
		}
	],
	"meshes":[
		{
			"name":"Curve.018",
			"primitives":[
				{
					"attributes":{
						"POSITION":0,
						"NORMAL":1,
						"TEXCOORD_0":2
					},
					"indices":3,
					"material":0
				}
			]
		}
	],
	"accessors":[
		{
			"bufferView":0,
			"componentType":5126,
			"count":1092,
			"max":[
				0.17059898376464844,
				0.5337414741516113,
				0.11286735534667969
			],
			"min":[
				-0.17968758940696716,
				-0.03999999910593033,
				-0.11286735534667969
			],
			"type":"VEC3"
		},
		{
			"bufferView":1,
			"componentType":5126,
			"count":1092,
			"type":"VEC3"
		},
		{
			"bufferView":2,
			"componentType":5126,
			"count":1092,
			"type":"VEC2"
		},
		{
			"bufferView":3,
			"componentType":5123,
			"count":2292,
			"type":"SCALAR"
		}
	],
	"bufferViews":[
		{
			"buffer":0,
			"byteLength":13104,
			"byteOffset":0,
			"target":34962
		},
		{
			"buffer":0,
			"byteLength":13104,
			"byteOffset":13104,
			"target":34962
		},
		{
			"buffer":0,
			"byteLength":8736,
			"byteOffset":26208,
			"target":34962
		},
		{
			"buffer":0,
			"byteLength":4584,
			"byteOffset":34944,
			"target":34963
		}
	],
	"buffers":[
		{
			"byteLength":39528,
			"uri":"NEWpoint.bin"
		}
	]
}
