{
	"asset":{
		"generator":"Khronos glTF Blender I/O v4.0.44",
		"version":"2.0"
	},
	"scene":0,
	"scenes":[
		{
			"name":"Scene",
			"nodes":[
				0
			]
		}
	],
	"nodes":[
		{
			"mesh":0,
			"name":"Curve.001",
			"rotation":[
				0.5,
				0.5,
				-0.5,
				0.5
			],
			"translation":[
				0.007605008780956268,
				0,
				-0.011064227670431137
			]
		}
	],
	"materials":[
		{
			"doubleSided":true,
			"name":"Material.009",
			"pbrMetallicRoughness":{
				"baseColorFactor":[
					0.8001489639282227,
					0.6070151329040527,
					0,
					1
				],
				"metallicFactor":0,
				"roughnessFactor":0.4000000059604645
			}
		}
	],
	"meshes":[
		{
			"name":"Curve.001",
			"primitives":[
				{
					"attributes":{
						"POSITION":0,
						"NORMAL":1,
						"TEXCOORD_0":2
					},
					"indices":3,
					"material":0
				}
			]
		}
	],
	"accessors":[
		{
			"bufferView":0,
			"componentType":5126,
			"count":1633,
			"max":[
				0.08737696707248688,
				0,
				0.09231362491846085
			],
			"min":[
				-0.09607122838497162,
				-0.019999999552965164,
				-0.09109582751989365
			],
			"type":"VEC3"
		},
		{
			"bufferView":1,
			"componentType":5126,
			"count":1633,
			"type":"VEC3"
		},
		{
			"bufferView":2,
			"componentType":5126,
			"count":1633,
			"type":"VEC2"
		},
		{
			"bufferView":3,
			"componentType":5123,
			"count":3348,
			"type":"SCALAR"
		}
	],
	"bufferViews":[
		{
			"buffer":0,
			"byteLength":19596,
			"byteOffset":0,
			"target":34962
		},
		{
			"buffer":0,
			"byteLength":19596,
			"byteOffset":19596,
			"target":34962
		},
		{
			"buffer":0,
			"byteLength":13064,
			"byteOffset":39192,
			"target":34962
		},
		{
			"buffer":0,
			"byteLength":6696,
			"byteOffset":52256,
			"target":34963
		}
	],
	"buffers":[
		{
			"byteLength":58952,
			"uri":"number.bin"
		}
	]
}
