{
	"asset":{
		"generator":"Khronos glTF Blender I/O v4.0.44",
		"version":"2.0"
	},
	"scene":0,
	"scenes":[
		{
			"name":"Scene",
			"nodes":[
				2
			]
		}
	],
	"nodes":[
		{
			"mesh":0,
			"name":"pin_metal"
		},
		{
			"children":[
				0
			],
			"mesh":1,
			"name":"pin_plastic_body",
			"rotation":[
				0.004388174507766962,
				-0.005737628322094679,
				-0.03670111298561096,
				0.9993003010749817
			],
			"translation":[
				0,
				0.007546752691268921,
				0
			]
		},
		{
			"children":[
				1
			],
			"name":"plastic_pin",
			"scale":[
				6.013749122619629,
				6.013749122619629,
				6.013749122619629
			]
		}
	],
	"materials":[
		{
			"doubleSided":true,
			"name":"Material.010",
			"pbrMetallicRoughness":{
				"baseColorFactor":[
					0.1774756759405136,
					0.1774756759405136,
					0.1774756759405136,
					1
				],
				"metallicFactor":0,
				"roughnessFactor":0.5
			}
		},
		{
			"doubleSided":true,
			"name":"Material.009",
			"pbrMetallicRoughness":{
				"baseColorFactor":[
					0.004450544714927673,
					0,
					0.8000858426094055,
					1
				],
				"metallicFactor":0,
				"roughnessFactor":0.4000000059604645
			}
		}
	],
	"meshes":[
		{
			"name":"Cylinder.001",
			"primitives":[
				{
					"attributes":{
						"POSITION":0,
						"NORMAL":1,
						"TEXCOORD_0":2
					},
					"indices":3,
					"material":0
				}
			]
		},
		{
			"name":"Cylinder",
			"primitives":[
				{
					"attributes":{
						"POSITION":4,
						"NORMAL":5,
						"TEXCOORD_0":6
					},
					"indices":7,
					"material":1
				}
			]
		}
	],
	"accessors":[
		{
			"bufferView":0,
			"componentType":5126,
			"count":120,
			"max":[
				0.0003589543921407312,
				0.0004938025958836079,
				0.00035895445034839213
			],
			"min":[
				-0.0003589543339330703,
				-0.011835726909339428,
				-0.00035895442124456167
			],
			"type":"VEC3"
		},
		{
			"bufferView":1,
			"componentType":5126,
			"count":120,
			"type":"VEC3"
		},
		{
			"bufferView":2,
			"componentType":5126,
			"count":120,
			"type":"VEC2"
		},
		{
			"bufferView":3,
			"componentType":5123,
			"count":282,
			"type":"SCALAR"
		},
		{
			"bufferView":4,
			"componentType":5126,
			"count":882,
			"max":[
				0.0024999999441206455,
				0.0040000006556510925,
				0.0024999999441206455
			],
			"min":[
				-0.0024999999441206455,
				-0.0040000006556510925,
				-0.0024999999441206455
			],
			"type":"VEC3"
		},
		{
			"bufferView":5,
			"componentType":5126,
			"count":882,
			"type":"VEC3"
		},
		{
			"bufferView":6,
			"componentType":5126,
			"count":882,
			"type":"VEC2"
		},
		{
			"bufferView":7,
			"componentType":5123,
			"count":2592,
			"type":"SCALAR"
		}
	],
	"bufferViews":[
		{
			"buffer":0,
			"byteLength":1440,
			"byteOffset":0,
			"target":34962
		},
		{
			"buffer":0,
			"byteLength":1440,
			"byteOffset":1440,
			"target":34962
		},
		{
			"buffer":0,
			"byteLength":960,
			"byteOffset":2880,
			"target":34962
		},
		{
			"buffer":0,
			"byteLength":564,
			"byteOffset":3840,
			"target":34963
		},
		{
			"buffer":0,
			"byteLength":10584,
			"byteOffset":4404,
			"target":34962
		},
		{
			"buffer":0,
			"byteLength":10584,
			"byteOffset":14988,
			"target":34962
		},
		{
			"buffer":0,
			"byteLength":7056,
			"byteOffset":25572,
			"target":34962
		},
		{
			"buffer":0,
			"byteLength":5184,
			"byteOffset":32628,
			"target":34963
		}
	],
	"buffers":[
		{
			"byteLength":37812,
			"uri":"pin%20glorax.bin"
		}
	]
}
