{
	"asset":{
		"generator":"Khronos glTF Blender I/O v4.0.44",
		"version":"2.0"
	},
	"scene":0,
	"scenes":[
		{
			"name":"Scene",
			"nodes":[
				0,
				1,
				2
			]
		}
	],
	"nodes":[
		{
			"mesh":0,
			"name":"Curve.034",
			"rotation":[
				0.15393151342868805,
				0,
				-0.9880815148353577,
				4.923943563994726e-08
			],
			"scale":[
				-2.700000286102295,
				-22.830997467041016,
				-22.761322021484375
			],
			"translation":[
				-5.581855297088623,
				-0.3739938735961914,
				4.329155921936035
			]
		},
		{
			"mesh":1,
			"name":"Curve.035",
			"rotation":[
				0.8060190677642822,
				0,
				-0.5918895602226257,
				1.6839048555539193e-07
			],
			"scale":[
				-1.1441518068313599,
				-1.1441519260406494,
				-1.1441518068313599
			],
			"translation":[
				-2.8240835666656494,
				-0.33600473403930664,
				-6.1288251876831055
			]
		},
		{
			"mesh":2,
			"name":"Curve.032",
			"rotation":[
				0.8107162714004517,
				0,
				-0.5854394435882568,
				2.5933096026165003e-07
			],
			"scale":[
				-22.83100128173828,
				-22.830997467041016,
				-22.83100128173828
			],
			"translation":[
				-2.6556546688079834,
				-0.3517027199268341,
				-6.211903095245361
			]
		}
	],
	"materials":[
		{
			"doubleSided":true,
			"name":"Material.081",
			"pbrMetallicRoughness":{
				"baseColorFactor":[
					0.00045407674042508006,
					0,
					0.8000315427780151,
					1
				],
				"metallicFactor":0,
				"roughnessFactor":0.5
			}
		},
		{
			"doubleSided":true,
			"name":"Material.086",
			"pbrMetallicRoughness":{
				"baseColorFactor":[
					0.7815974950790405,
					0.800054669380188,
					0.08128264546394348,
					1
				],
				"metallicFactor":0,
				"roughnessFactor":0.5
			}
		},
		{
			"doubleSided":true,
			"name":"Material.113",
			"pbrMetallicRoughness":{
				"baseColorFactor":[
					0.00045407674042508006,
					0,
					0.8000315427780151,
					1
				],
				"metallicFactor":0,
				"roughnessFactor":0.5
			}
		}
	],
	"meshes":[
		{
			"name":"Curve",
			"primitives":[
				{
					"attributes":{
						"POSITION":0,
						"NORMAL":1,
						"TEXCOORD_0":2
					},
					"indices":3,
					"material":0
				}
			]
		},
		{
			"name":"Curve.016",
			"primitives":[
				{
					"attributes":{
						"POSITION":4,
						"NORMAL":5,
						"TEXCOORD_0":6
					},
					"indices":7,
					"material":1
				}
			]
		},
		{
			"name":"Curve.025",
			"primitives":[
				{
					"attributes":{
						"POSITION":8,
						"NORMAL":9,
						"TEXCOORD_0":10
					},
					"indices":3,
					"material":2
				}
			]
		}
	],
	"accessors":[
		{
			"bufferView":0,
			"componentType":5126,
			"count":300,
			"max":[
				0.21611101925373077,
				0.001000000280328095,
				0.006870374549180269
			],
			"min":[
				-0.24298614263534546,
				-0.0010000000474974513,
				-0.007078453898429871
			],
			"type":"VEC3"
		},
		{
			"bufferView":1,
			"componentType":5126,
			"count":300,
			"type":"VEC3"
		},
		{
			"bufferView":2,
			"componentType":5126,
			"count":300,
			"type":"VEC2"
		},
		{
			"bufferView":3,
			"componentType":5123,
			"count":588,
			"type":"SCALAR"
		},
		{
			"bufferView":4,
			"componentType":5126,
			"count":1092,
			"max":[
				0.15696267783641815,
				0.47024714946746826,
				0.11286735534667969
			],
			"min":[
				-0.16605158150196075,
				-0.03999999910593033,
				-0.11286735534667969
			],
			"type":"VEC3"
		},
		{
			"bufferView":5,
			"componentType":5126,
			"count":1092,
			"type":"VEC3"
		},
		{
			"bufferView":6,
			"componentType":5126,
			"count":1092,
			"type":"VEC2"
		},
		{
			"bufferView":7,
			"componentType":5123,
			"count":2292,
			"type":"SCALAR"
		},
		{
			"bufferView":8,
			"componentType":5126,
			"count":300,
			"max":[
				0.4859722852706909,
				0,
				0.002305835485458374
			],
			"min":[
				0,
				-0.0020000000949949026,
				-0.011851072311401367
			],
			"type":"VEC3"
		},
		{
			"bufferView":9,
			"componentType":5126,
			"count":300,
			"type":"VEC3"
		},
		{
			"bufferView":10,
			"componentType":5126,
			"count":300,
			"type":"VEC2"
		}
	],
	"bufferViews":[
		{
			"buffer":0,
			"byteLength":3600,
			"byteOffset":0,
			"target":34962
		},
		{
			"buffer":0,
			"byteLength":3600,
			"byteOffset":3600,
			"target":34962
		},
		{
			"buffer":0,
			"byteLength":2400,
			"byteOffset":7200,
			"target":34962
		},
		{
			"buffer":0,
			"byteLength":1176,
			"byteOffset":9600,
			"target":34963
		},
		{
			"buffer":0,
			"byteLength":13104,
			"byteOffset":10776,
			"target":34962
		},
		{
			"buffer":0,
			"byteLength":13104,
			"byteOffset":23880,
			"target":34962
		},
		{
			"buffer":0,
			"byteLength":8736,
			"byteOffset":36984,
			"target":34962
		},
		{
			"buffer":0,
			"byteLength":4584,
			"byteOffset":45720,
			"target":34963
		},
		{
			"buffer":0,
			"byteLength":3600,
			"byteOffset":50304,
			"target":34962
		},
		{
			"buffer":0,
			"byteLength":3600,
			"byteOffset":53904,
			"target":34962
		},
		{
			"buffer":0,
			"byteLength":2400,
			"byteOffset":57504,
			"target":34962
		}
	],
	"buffers":[
		{
			"byteLength":59904,
			"uri":"test14-newnavi.bin"
		}
	]
}
