{
	"asset":{
		"generator":"Khronos glTF Blender I/O v4.0.44",
		"version":"2.0"
	},
	"scene":0,
	"scenes":[
		{
			"name":"Scene",
			"nodes":[
				0,
				1,
				2
			]
		}
	],
	"nodes":[
		{
			"mesh":0,
			"name":"Curve.006",
			"translation":[
				-0.11145535856485367,
				0,
				0.026266546919941902
			]
		},
		{
			"mesh":1,
			"name":"Curve.019",
			"translation":[
				-0.11145535856485367,
				0,
				0.026266546919941902
			]
		},
		{
			"mesh":2,
			"name":"Logo_GloraX_Zan",
			"translation":[
				-0.11143535375595093,
				-0.009985353797674179,
				0.016675211489200592
			]
		}
	],
	"materials":[
		{
			"doubleSided":true,
			"name":"Material.001",
			"pbrMetallicRoughness":{
				"baseColorFactor":[
					0.00045407674042508006,
					0,
					0.8000315427780151,
					1
				],
				"metallicFactor":0,
				"roughnessFactor":0.5
			}
		}
	],
	"meshes":[
		{
			"name":"Curve.046",
			"primitives":[
				{
					"attributes":{
						"POSITION":0,
						"NORMAL":1,
						"TEXCOORD_0":2
					},
					"indices":3,
					"material":0
				}
			]
		},
		{
			"name":"Curve.059",
			"primitives":[
				{
					"attributes":{
						"POSITION":4,
						"NORMAL":5,
						"TEXCOORD_0":6
					},
					"indices":7,
					"material":0
				}
			]
		},
		{
			"name":"Logo_GloraX_Zan",
			"primitives":[
				{
					"attributes":{
						"POSITION":8,
						"NORMAL":9,
						"TEXCOORD_0":10
					},
					"indices":11,
					"material":0
				}
			]
		}
	],
	"accessors":[
		{
			"bufferView":0,
			"componentType":5126,
			"count":1359,
			"max":[
				0.20317593216896057,
				0,
				-0.004796862602233887
			],
			"min":[
				0.0005362331867218018,
				0,
				-0.0353839136660099
			],
			"type":"VEC3"
		},
		{
			"bufferView":1,
			"componentType":5126,
			"count":1359,
			"type":"VEC3"
		},
		{
			"bufferView":2,
			"componentType":5126,
			"count":1359,
			"type":"VEC2"
		},
		{
			"bufferView":3,
			"componentType":5123,
			"count":4047,
			"type":"SCALAR"
		},
		{
			"bufferView":4,
			"componentType":5126,
			"count":460,
			"max":[
				0.3039877712726593,
				0,
				-0.041450537741184235
			],
			"min":[
				0.18770983815193176,
				0,
				-0.07107821851968765
			],
			"type":"VEC3"
		},
		{
			"bufferView":5,
			"componentType":5126,
			"count":460,
			"type":"VEC3"
		},
		{
			"bufferView":6,
			"componentType":5126,
			"count":460,
			"type":"VEC2"
		},
		{
			"bufferView":7,
			"componentType":5123,
			"count":1404,
			"type":"SCALAR"
		},
		{
			"bufferView":8,
			"componentType":5126,
			"count":2639,
			"max":[
				0.16894449293613434,
				0.0099893007427454,
				-0.0324888676404953
			],
			"min":[
				0,
				0,
				-0.06290379911661148
			],
			"type":"VEC3"
		},
		{
			"bufferView":9,
			"componentType":5126,
			"count":2639,
			"type":"VEC3"
		},
		{
			"bufferView":10,
			"componentType":5126,
			"count":2639,
			"type":"VEC2"
		},
		{
			"bufferView":11,
			"componentType":5123,
			"count":5787,
			"type":"SCALAR"
		}
	],
	"bufferViews":[
		{
			"buffer":0,
			"byteLength":16308,
			"byteOffset":0,
			"target":34962
		},
		{
			"buffer":0,
			"byteLength":16308,
			"byteOffset":16308,
			"target":34962
		},
		{
			"buffer":0,
			"byteLength":10872,
			"byteOffset":32616,
			"target":34962
		},
		{
			"buffer":0,
			"byteLength":8094,
			"byteOffset":43488,
			"target":34963
		},
		{
			"buffer":0,
			"byteLength":5520,
			"byteOffset":51584,
			"target":34962
		},
		{
			"buffer":0,
			"byteLength":5520,
			"byteOffset":57104,
			"target":34962
		},
		{
			"buffer":0,
			"byteLength":3680,
			"byteOffset":62624,
			"target":34962
		},
		{
			"buffer":0,
			"byteLength":2808,
			"byteOffset":66304,
			"target":34963
		},
		{
			"buffer":0,
			"byteLength":31668,
			"byteOffset":69112,
			"target":34962
		},
		{
			"buffer":0,
			"byteLength":31668,
			"byteOffset":100780,
			"target":34962
		},
		{
			"buffer":0,
			"byteLength":21112,
			"byteOffset":132448,
			"target":34962
		},
		{
			"buffer":0,
			"byteLength":11574,
			"byteOffset":153560,
			"target":34963
		}
	],
	"buffers":[
		{
			"byteLength":165136,
			"uri":"x%20logo%20glorax-premium.bin"
		}
	]
}
