<svg width="19" height="21" viewBox="0 0 19 21" fill="none" xmlns="http://www.w3.org/2000/svg">
<path fill-rule="evenodd" clip-rule="evenodd" d="M1.69632 20.3956C1.77842 20.3636 1.86457 20.3233 1.9534 20.2732L13.7512 13.596L10.9555 10.7083L1.69632 20.3956ZM14.2747 13.301L11.3566 10.288L14.2721 7.2375L18.2858 9.50173C19.2752 10.0598 18.7691 10.757 18.2858 11.0298L14.2747 13.301ZM13.7498 6.94386L1.95475 0.290338C1.82823 0.219363 1.68555 0.176222 1.54287 0.156738L10.9528 9.87191L13.7498 6.94386ZM0.851025 0.276421L10.5517 10.2908L0.896789 20.3929C0.615474 20.2078 0.463375 19.807 0.462029 19.2893C0.456645 18.297 0.379923 2.54204 0.374539 1.36052C0.371847 0.792726 0.571056 0.447595 0.851025 0.276421Z" fill="white" fill-opacity="0.3"/>
</svg>
