<?xml version="1.0" encoding="utf-8"?>
<!-- Generator: Adobe Illustrator 25.4.1, SVG Export Plug-In . SVG Version: 6.00 Build 0)  -->
<svg version="1.1" xmlns="http://www.w3.org/2000/svg" xmlns:xlink="http://www.w3.org/1999/xlink" x="0px" y="0px"
	 viewBox="0 0 500 500" style="enable-background:new 0 0 500 500;" xml:space="preserve">
<style type="text/css">
	.st0{fill:#72A7AD;}
	.st1{font-family:'Montserrat-ExtraBoldItalic';}
	.st2{font-size:34px;}
	.st3{letter-spacing:2;}
</style>
<g id="BACKGROUND">
</g>
<g id="OBJECTS">
	<g>
		<path class="st0" d="M289.1,268.1c-4.1-0.8-12.9-3.4-12.8-10.3c0.4-21,37.2-25.3,62.6-25.8c0,0-66.8-6.7-73.5,24.2
			c-4.4,20.3,16.8,24.7,23.7,25.5v5.4l14.4-12.3l-14.4-12.3V268.1z"/>
		<path class="st0" d="M404.2,268.1c4.1-0.8,12.9-3.4,12.8-10.3c-0.4-21-37.2-25.3-62.6-25.8c0,0,66.8-6.7,73.5,24.2
			c4.4,20.3-16.8,24.7-23.7,25.5v5.4l-14.4-12.3l14.4-12.3V268.1z"/>
	</g>
</g>
<g id="TEXTS">
	<text transform="matrix(1 0 0 1 307.3545 280.1829)" class="st0 st1 st2 st3">360ยบ</text>
</g>
</svg>
