<?xml version="1.0" encoding="utf-8"?>
<!-- Generator: Adobe Illustrator 25.4.1, SVG Export Plug-In . SVG Version: 6.00 Build 0)  -->
<svg version="1.1" xmlns="http://www.w3.org/2000/svg" xmlns:xlink="http://www.w3.org/1999/xlink" x="0px" y="0px"
	 viewBox="0 0 170.5 58.2" style="enable-background:new 0 0 170.5 58.2;" xml:space="preserve">
<style type="text/css">
	.st0{display:none;}
	.st1{display:none;fill:#1C3341;}
	.st2{display:inline;fill:#00728B;}
	.st3{display:inline;fill:#823156;}
	.st4{fill:#72A7AD;}
	.st5{display:inline;fill:#5B859B;}
	.st6{font-family:'Montserrat-ExtraBoldItalic';}
	.st7{font-size:34px;}
	.st8{letter-spacing:2;}
</style>
<g id="BACKGROUND" class="st0">
</g>
<g id="OBJECTS">
	<path class="st1" d="M-53.5-117.3c-0.5,6.8-2.1,13.3-4.7,19.4c-2.6,6.1-6.3,11.6-10.7,16.4c-8.8,9.6-21,15.7-33.5,17.3
		c-6.3,0.8-12.7,0.5-18.9-0.8c-6.1-1.4-12-3.8-17.3-7.2c-5.3-3.4-10-7.6-13.8-12.6c-3.8-4.9-6.8-10.5-8.7-16.5
		c-3.8-11.9-3.3-25.1,1.4-36.7c4.7-11.6,13.6-21.5,24.8-27.5c11.2-6,24.6-8,37.4-5.4c12.1,2.4,23.5,9.1,32,18.6l-16.2-0.9l22,7.7
		l-3.7-21.6l-1.9,14.7c-1.5-2.2-3.2-4.4-5-6.4c-2.3-2.5-4.9-4.8-7.6-7c-2.7-2.1-5.7-3.9-8.8-5.5c-3.1-1.6-6.4-2.8-9.8-3.9
		c-3.4-0.9-6.9-1.6-10.4-2c-3.5-0.3-7.1-0.4-10.6-0.1c-7.1,0.5-14.1,2.4-20.6,5.5c-13,6.1-23.7,17.1-29.5,30.5
		c-2.9,6.7-4.5,13.9-4.9,21.1c-0.3,7.3,0.6,14.6,2.8,21.6c2.2,7,5.7,13.5,10.2,19.2c4.5,5.7,10,10.6,16.3,14.4
		c6.2,3.7,13.1,6.4,20.2,7.7c7.1,1.3,14.4,1.3,21.5,0.1c7.1-1.3,13.9-3.8,20-7.5c6.1-3.7,11.5-8.4,15.8-13.9
		c4.3-5.5,7.7-11.8,9.7-18.4c1-3.3,1.7-6.7,2.1-10.1C-53.3-110.5-53.2-113.9-53.5-117.3z"/>
	<g class="st0">
		<path class="st2" d="M142-87.8c-4.6,5.4-10.3,9.6-16.5,12.8c-12.5,6.5-26.7,9.3-40.8,9.4c-14.1,0-28.3-2.9-40.8-9.4
			c-6.2-3.3-12-7.5-16.5-12.8C23.7-92,21-97,19.5-102.6L30-96.3l-12.6-13.7l-5.5,16.6l6.5-9.1c0,0.3,0,0.6,0,0.9l0.1,1.4
			c0.1,0.5,0.1,0.9,0.2,1.4c0.1,1,0.3,1.9,0.6,2.8c0.9,3.8,2.5,7.3,4.5,10.7c4.1,6.7,10,12.1,16.5,16.3c6.6,4.2,13.8,7.3,21.3,9.3
			c7.5,2,15.3,2.9,23,3c7.7-0.1,15.5-0.9,23-3c7.5-2,14.8-5.1,21.3-9.3c6.5-4.2,12.4-9.7,16.5-16.3c4.1-6.6,6.3-14.5,5.3-22
			C149.8-99.8,146.7-93.1,142-87.8z"/>
		<path class="st2" d="M27.4-145.8c4.6-5.4,10.3-9.6,16.5-12.8c12.5-6.5,26.7-9.3,40.8-9.4c14.1,0,28.3,2.9,40.8,9.4
			c6.2,3.3,12,7.5,16.5,12.8c3.1,3.5,5.5,7.7,7.1,12.2l-8.8-7.6l10.1,15.6l0.4-0.8c0,0,0,0.1,0,0.1c0,0,0-0.1,0-0.1l7.8-14.6
			l-7.7,7.7l0,0c-0.1-0.5-0.1-0.9-0.2-1.4c-0.1-1-0.3-1.9-0.6-2.8c-0.9-3.8-2.5-7.3-4.5-10.7c-4.1-6.7-10-12.1-16.5-16.3
			c-6.6-4.2-13.8-7.3-21.3-9.3c-7.5-2-15.3-2.9-23-3c-7.7,0.1-15.5,0.9-23,3c-7.5,2-14.8,5.1-21.3,9.3c-6.5,4.2-12.4,9.7-16.5,16.3
			c-4.1,6.6-6.3,14.5-5.3,22C19.6-133.8,22.7-140.4,27.4-145.8z"/>
	</g>
	<g class="st0">
		<path class="st3" d="M-103.3,51.2l-18.9-13.1v5.5c-13.3-0.1-46-1.9-51.9-15.6c-6.1-14.2,9.5-27.5,9.5-27.5
			c-20,8.3-32.8,28.9-13.1,45.2c15.3,12.5,43.4,13.1,55.4,12.7v4.4L-103.3,51.2z"/>
		<path class="st3" d="M-61.3,0.5c0,0,15.6,13.4,9.5,27.5c-6.5,15-45.4,15.7-55.2,15.6l11,7.6l-11.3,7c8.3,0.5,41.9,1.7,59.1-12.5
			C-28.5,29.4-41.3,8.8-61.3,0.5z"/>
	</g>
	<g>
		<path class="st4" d="M27.7,39.3c-4.1-0.8-12.9-3.4-12.8-10.3C15.3,8,52.1,3.7,77.5,3.2c0,0-66.8-6.7-73.5,24.2
			C-0.3,47.6,20.8,52,27.7,52.9v5.4l14.4-12.3L27.7,33.6V39.3z"/>
		<path class="st4" d="M142.8,39.3c4.1-0.8,12.9-3.4,12.8-10.3C155.2,8,118.4,3.7,93,3.2c0,0,66.8-6.7,73.5,24.2
			c4.4,20.3-16.8,24.7-23.7,25.5v5.4l-14.4-12.3l14.4-12.3V39.3z"/>
	</g>
	<g class="st0">
		<path class="st5" d="M-177.9,153.6c1.6-2,3.6-3.8,5.9-5.2c4.6-2.8,10.3-4.4,16.2-5.2c5.9-0.8,12-1,18.1-0.8
			c6.1,0.2,12.3,0.7,18.5,1.4c-2.9-1.2-5.9-2.2-8.9-3.1c-3-0.9-6.1-1.6-9.2-2.2c-6.2-1.2-12.6-1.8-19.1-1.5
			c-3.2,0.1-6.5,0.5-9.8,1.3c-3.3,0.7-6.5,1.9-9.6,3.6c-3.1,1.6-5.9,4-8.3,6.8c-2.3,2.8-4,6.1-5,9.7c-1,3.6-1,7.4-0.5,10.9
			c0.6,3.5,1.8,6.8,3.3,9.9c3.1,6,7.2,11.2,11.7,15.7c4.5,4.6,9.4,8.6,14.6,12.2c2.6,1.8,5.2,3.5,7.9,5.1c0.8,0.4,1.5,0.9,2.3,1.3
			l-17.3,2.2l26.1,4.1l-8.5-23.5l0.8,15.9c-3-2.7-6-5.4-8.8-8.2c-4.4-4.3-8.6-8.7-12.4-13.4c-3.8-4.7-7.2-9.6-9.5-14.8
			c-1.1-2.6-2-5.2-2.3-7.8c-0.4-2.6-0.3-5.2,0.4-7.6C-180.6,158-179.4,155.6-177.9,153.6z"/>
		<path class="st5" d="M-47.9,191.7c-1.6,2-3.6,3.8-5.9,5.2c-4.6,2.8-10.3,4.4-16.2,5.2c-5.9,0.8-12,1-18.1,0.8
			c-6.1-0.2-12.3-0.7-18.5-1.4c2.9,1.2,5.9,2.2,8.9,3.1c3,0.9,6.1,1.6,9.2,2.2c6.2,1.2,12.6,1.8,19.1,1.5c3.2-0.1,6.5-0.5,9.8-1.3
			c3.3-0.7,6.5-1.9,9.6-3.6c3.1-1.6,5.9-4,8.3-6.8c2.3-2.8,4-6.1,5-9.7c1-3.6,1-7.4,0.5-10.9c-0.6-3.5-1.8-6.8-3.3-9.9
			c-3.1-6-7.2-11.2-11.7-15.7c-4.5-4.6-9.4-8.6-14.6-12.2c-2.6-1.8-5.2-3.5-7.9-5.1c-0.8-0.4-1.5-0.9-2.3-1.3l17.3-2.2l-26.1-4.1
			l8.5,23.5l-0.8-15.9c3,2.7,6,5.4,8.8,8.2c4.4,4.3,8.6,8.7,12.4,13.4c3.8,4.7,7.2,9.6,9.5,14.8c1.1,2.6,2,5.2,2.3,7.8
			c0.4,2.6,0.3,5.2-0.4,7.6C-45.1,187.3-46.4,189.6-47.9,191.7z"/>
	</g>
	<path class="st1" d="M141.7,163.9l10.9-1.4l-17.4-3l6.1,17.7l-0.7-12.8c2.4,2.3,6.4,7.1,5.3,12.6c-1.7,8.4-24.8,10.5-60.8,10.5
		s-59-2.1-60.8-10.5c-1.1-5.4,2.9-10.2,5.3-12.6l-0.7,12.8l6.1-17.7l-17.4,3l10.9,1.4c-12.8,5.5-20.5,17.7-7,28.2
		c13.5,10.5,63.5,9.2,63.5,9.2s50,1.3,63.5-9.2C162.3,181.6,154.6,169.4,141.7,163.9z"/>
</g>
<g id="TEXTS">
	<text transform="matrix(1 0 0 1 -152.7186 -102.1006)" class="st1 st6 st8" style="font-size:36.2066px;">360º</text>
	<text transform="matrix(1 0 0 1 41.3276 -102.1)" class="st6 st8" style="display:none;fill:#00728B; font-size:36.2066px;">360º</text>
	<text transform="matrix(1 0 0 1 -153.4341 29.1636)" class="st6 st7 st8" style="display:none;fill:#823156;">360º</text>
	<text transform="matrix(1 0 0 1 45.9521 51.3761)" class="st4 st6 st7 st8">360º</text>
	<text transform="matrix(1 0 0 1 -156.8074 187.9322)" class="st6 st8" style="display:none;fill:#5B859B; font-size:36.2066px;">360º</text>
	<text transform="matrix(1 0 0 1 41.5244 172.7052)" class="st1 st6 st7 st8">360º</text>
</g>
</svg>
