<svg id="Layer_2" data-name="Layer 2" stroke="#ccc"  xmlns="http://www.w3.org/2000/svg" viewBox="0 0 2794.33 475.37"><path id="Logo_GloraX_Zan" stroke="#ccc" fill='#ccc' data-name="Logo GloraX Zan" d="M181.88,72.38h6.92V28.29h-6.92ZM285.6,65.89c7.85,0,13.4-5.2,13.4-9.86s-5.55-9.17-13.4-9.17c-7.13,0-11.44,3.84-11.44,9.3s4.31,9.73,11.44,9.73m57.75-21.51L313.47,72.3h-14.3V60.17H299a15.53,15.53,0,0,1-15.45,13.15c-8.92,0-16-7.21-16.05-17.2s7.13-16.86,16.18-16.86c7,0,13.78,4,15.32,12.63h.17V40.33h6.92v28L336.26,46,313.81,28.29h13.32Zm34.57-16.09H364.6L338.78,52.41,356.66,72.3h13.83L345.74,50.53ZM149.66,35.8c9.86,0,14.89,4.7,16.64,10.12l7.43-2.44c-2.95-10.84-12.89-16.17-24.2-16.17-12.89,0-27.11,7.08-27.11,23.17,0,14.69,12.13,22.8,27.24,22.8a39,39,0,0,0,22.83-7.22V48.86h-23v8.2h22.19v.51c-2.35,2.9-9.69,7.3-21,7.3S130,60.3,130,50.57,139.8,35.8,149.66,35.8m65,30c7.81,0,12.33-4.22,12.33-9.68s-4.56-9.22-12.33-9.22-12.21,3.8-12.21,9.26,4.35,9.64,12.21,9.64m0-26.46c11,0,18.91,6.75,18.91,16.78s-7.94,17.2-18.91,17.2-18.78-7.3-18.78-17.2,7.77-16.78,18.78-16.78m33.12,13.79h-.17V40.33h-6.92v32h6.92V56.84c0-5.54,7.72-11.61,17.8-9.34V39.3c-10.72-.64-15.88,6.83-17.63,13.79" transform="translate(-122.42 -27.31)"/><path stroke="#ccc" fill='#ccc' id="Logo_GloraX_Zan-2" data-name="Logo GloraX Zan" d="M934.21,501.74h6.91V457.65h-6.91Zm103.72-6.49c7.85,0,13.4-5.2,13.4-9.86s-5.55-9.17-13.4-9.17c-7.13,0-11.44,3.84-11.44,9.3s4.31,9.73,11.44,9.73m57.74-21.51-29.87,27.91h-14.3V489.53h-.17a15.53,15.53,0,0,1-15.45,13.15c-8.92,0-16-7.21-16.05-17.2s7.13-16.86,16.18-16.86c7,0,13.78,4,15.32,12.63h.17V469.69h6.91v27.95l30.18-22.32-22.45-17.67h13.32Zm34.58-16.09h-13.32l-25.82,24.11L1109,501.65h13.83l-24.76-21.76ZM902,465.16c9.86,0,14.9,4.7,16.65,10.12l7.43-2.44c-2.95-10.84-12.89-16.17-24.2-16.17-12.89,0-27.11,7.08-27.11,23.17,0,14.69,12.12,22.8,27.23,22.8a39,39,0,0,0,22.84-7.22v-17.2h-23v8.2h22.19v.51c-2.35,2.9-9.69,7.3-21,7.3s-20.7-4.57-20.7-14.3,9.81-14.77,19.67-14.77m65,30c7.81,0,12.33-4.22,12.33-9.68s-4.57-9.22-12.33-9.22-12.21,3.79-12.21,9.26,4.35,9.64,12.21,9.64m0-26.46c11,0,18.9,6.75,18.9,16.78s-7.93,17.2-18.9,17.2-18.78-7.3-18.78-17.2,7.76-16.78,18.78-16.78m33.12,13.79h-.17V469.69H993v32h6.92V486.2c0-5.54,7.72-11.61,17.79-9.34v-8.2c-10.71-.64-15.87,6.83-17.62,13.79" transform="translate(-122.42 -27.31)"/><path stroke="#ccc" fill='#ccc' id="Logo_GloraX_Zan-3" data-name="Logo GloraX Zan" d="M1796.31,72.38h6.92V28.29h-6.92ZM1900,65.89c7.86,0,13.4-5.2,13.4-9.86s-5.54-9.17-13.4-9.17c-7.13,0-11.44,3.84-11.44,9.3s4.31,9.73,11.44,9.73m57.75-21.51L1927.9,72.3h-14.3V60.17h-.17A15.52,15.52,0,0,1,1898,73.32c-8.92,0-16-7.21-16-17.2s7.13-16.86,16.18-16.86c7,0,13.79,4,15.32,12.63h.17V40.33h6.92v28L1950.7,46l-22.46-17.67h13.32Zm34.57-16.09H1979l-25.83,24.12L1971.1,72.3h13.83l-24.76-21.77ZM1764.09,35.8c9.86,0,14.9,4.7,16.65,10.12l7.42-2.44c-2.94-10.84-12.89-16.17-24.2-16.17-12.89,0-27.1,7.08-27.1,23.17,0,14.69,12.12,22.8,27.23,22.8a39,39,0,0,0,22.83-7.22V48.86h-23v8.2h22.2v.51c-2.35,2.9-9.69,7.3-21.05,7.3s-20.7-4.57-20.7-14.3,9.82-14.77,19.68-14.77m65,30c7.81,0,12.34-4.22,12.34-9.68s-4.57-9.22-12.34-9.22-12.21,3.8-12.21,9.26,4.36,9.64,12.21,9.64m0-26.46c11,0,18.91,6.75,18.91,16.78s-7.94,17.2-18.91,17.2-18.78-7.3-18.78-17.2S1818,39.3,1829.05,39.3m33.12,13.79H1862V40.33h-6.91v32H1862V56.84c0-5.54,7.73-11.61,17.8-9.34V39.3c-10.71-.64-15.88,6.83-17.63,13.79" transform="translate(-122.42 -27.31)"/><path fill='#ccc' stroke="#ccc" id="Logo_GloraX_Zan-4" data-name="Logo GloraX Zan" d="M2720.71,498.28h6.92V454.19h-6.92Zm103.72-6.48c7.86,0,13.4-5.21,13.4-9.86s-5.54-9.18-13.4-9.18c-7.13,0-11.44,3.84-11.44,9.3s4.31,9.74,11.44,9.74m57.75-21.52L2852.3,498.2H2838V486.08h-.17a15.52,15.52,0,0,1-15.45,13.14c-8.92,0-16-7.21-16.05-17.2s7.13-16.86,16.18-16.86c7,0,13.79,4,15.32,12.64h.17V466.23h6.92v28l30.18-22.33-22.46-17.67H2866Zm34.57-16.09h-13.31l-25.83,24.12,17.89,19.89h13.83l-24.76-21.77Zm-228.26,7.51c9.86,0,14.9,4.7,16.65,10.12l7.42-2.43c-2.94-10.84-12.89-16.18-24.2-16.18-12.89,0-27.1,7.09-27.1,23.18,0,14.68,12.12,22.79,27.23,22.79a39,39,0,0,0,22.83-7.21v-17.2h-23V483h22.2v.51c-2.35,2.9-9.69,7.3-21,7.3s-20.7-4.57-20.7-14.3,9.82-14.77,19.68-14.77m65,30c7.81,0,12.34-4.23,12.34-9.69s-4.57-9.22-12.34-9.22-12.21,3.8-12.21,9.26,4.36,9.65,12.21,9.65m0-26.47c11,0,18.91,6.75,18.91,16.78s-7.94,17.2-18.91,17.2-18.78-7.3-18.78-17.2,7.77-16.78,18.78-16.78M2786.57,479h-.17V466.23h-6.91v32h6.91V482.75c0-5.55,7.73-11.61,17.8-9.35v-8.2c-10.71-.64-15.88,6.83-17.63,13.79" transform="translate(-122.42 -27.31)"/></svg>