<svg width="42" height="42" viewBox="0 0 42 42" fill="none" xmlns="http://www.w3.org/2000/svg">
<path d="M0.5 21C0.5 32.3218 9.67816 41.5 21 41.5V40.5C10.2304 40.5 1.5 31.7696 1.5 21H0.5ZM21 0.5C9.67816 0.5 0.5 9.67816 0.5 21H1.5C1.5 10.2304 10.2304 1.5 21 1.5V0.5ZM41.5 21C41.5 9.67816 32.3218 0.5 21 0.5V1.5C31.7696 1.5 40.5 10.2304 40.5 21H41.5ZM21 41.5C32.3218 41.5 41.5 32.3218 41.5 21H40.5C40.5 31.7696 31.7696 40.5 21 40.5V41.5Z" fill="white"/>
<path fill-rule="evenodd" clip-rule="evenodd" d="M23.469 15L28.7236 21.1389L29.002 21.464L28.7236 21.7892L23.469 27.9281L22.7093 27.2778L27.6856 21.464L22.7093 15.6503L23.469 15ZM24.2963 20.9999V21.9999H12.8438V20.9999H24.2963Z" fill="white"/>
</svg>
