<?xml version="1.0" encoding="UTF-8"?>
<svg id="_Слой_2" data-name="Слой 2" xmlns="http://www.w3.org/2000/svg" viewBox="0 0 1366 768">
  <defs>
    <style>
      .cls-1 {
        fill: none;
        stroke: #f4f4f4;
        stroke-miterlimit: 10;
      }
    </style>
  </defs>
  <path class="cls-1" d="M272.2,522.51s110.82,38.48,137.78,47.74c6.43,2.21,13.11,3.63,19.89,4.01,13.13.74,29.85-2.04,26.06-22.06-1.85-9.75-7.8-18.19-16-23.77-12.69-8.63-33.31-16.28-43.48,14.87,0,0-16.67,60.26,75.96,86.81,0,0,63.13,19.73,59.68-67.08,0,0-2.47-78.92,16.28-105.55l3.85-5.18s6.13,13.48,15.31,17.63c2.57,1.16,5.31-1.22,4.56-3.93-2.74-9.87-11.39-31.89-36.46-47.45-5.29-3.28-9.78-7.78-12.76-13.25-1.44-2.63-2.58-5.54-2.88-8.44-.08-.74-.36-1.44-.8-2.04-4.89-6.77-32.91-46.04-35.68-61.89,0,0,12.14,55.72,31.45,68.13,0,0,26.43,71.9,65.83,81.41,0,0,27.56.57,0-32.79,0,0-31.91-39.16-49.8-49.07,0,0-45.18-49.9-40.52-74.53,0,0,1.04-16.04-3.22-15.87,0,0-5.21,5.61-2.03,10.92.57.94,2.03.63,2.16-.47.47-4.08.29-12.63-6.94-21.7,0,0,3.75,3.92,9.04,2.05,0,0,0-.01,0-.03.98-19.58,6.35-38.74,15.98-55.82,7.49-13.28,17.21-25.78,27.29-31.81,0,0,42.25-28.08,83.21-29.88,0,0,51.02-2,91.24,27.27,3.45,2.51,6.45,5.57,8.89,9.07,6.53,9.35,20.82,30.2,27.49,42.9.65,1.24,2.54,1.02,2.83-.35.59-2.81-.01-8.08-6.08-17.34,0,0-26.29-39.03-43.02-47.53,0,0-50.45-25.23-98.78-17.79,0,0-51.38,7.69-82.92,43.21,0,0-28.35,35.65-28.36,63.35,0,0-5.76,2.32-6.92-.96,0,0,8.38-64.89,53.72-91.34,0,0,46.75-28.28,105.28-24.5,14.38.93,28.4,4.91,41.26,11.42,12.6,6.37,29.3,16.42,43.54,30.39,5.71,5.6,11.04,11.84,15.54,18.73.45.68-.28,1.55-1.03,1.21-3.01-1.34-8.46-5.19-12.76-16.24"/>
  <path class="cls-1" d="M540.19,369.44c-2.4-2.43-2.13-6.36.61-8.4,7.43-5.53,28.4-15.26,58.34,18.79,0,0,23.64,26.12,34.08,44.49,2.95,5.19,4.28,11.18,3.62,17.11-.58,5.13-2.52,10.29-8,10.47-3.03.1-5.83-1.58-7.43-4.15-6.75-10.83-29.94-48.36-50.72-63.21-2.77-1.98-5.84-3.48-9.09-4.5-5.58-1.75-16.52-5.65-21.4-10.59Z"/>
  <path class="cls-1" d="M615.8,470.1c4.46-1.41,8.22-4.39,8.13-10.43-.05-3.3-1.32-6.46-3.38-9.03-9.38-11.7-46.49-57.37-62.34-67.4-1.61-1.02-3.14-2.17-4.64-3.35-4.05-3.17-12.51-8.27-20.39-3.29-2.75,1.74-4.78,4.43-5.88,7.49-1.67,4.62-2.21,11.82,8.19,15.58,3.51,1.27,6.82,3.04,9.93,5.09,10.76,7.11,31.49,23.34,43.71,49.35,0,0,1.75,3.49,4.12,7.31,4.73,7.62,14.01,11.38,22.57,8.68Z"/>
  <path class="cls-1" d="M1253.42,535.12s-46.76-.26-72.31-32.57c-13.03-16.48-16.54-38.79-9.08-58.43,4.85-12.77,14.37-23.31,33.08-14.48,11.47,5.42,20.19,15.59,23.08,27.94,3.68,15.71-2.55,33.39-62.86,14.59-6.68-2.08-13.18-4.69-19.47-7.74-19.91-9.68-75.19-34.86-126.76-42.95-31.51-4.94-63.7,6.13-84.72,30.13-16,18.27-25.44,43.39-3.75,72.98,6.36,8.68,20.3,5.71,22.2-4.88,1.78-9.97-2.43-25.94-23.67-51.05-18.25-21.58-46.66-32.23-74.45-27.11-5.37.99-10.93,2.57-16.57,4.9-8.35,3.46-15.78,8.77-22.06,15.26-10.23,10.56-35.04,30.64-69.5,21.89,0,0-27.93-14.46-24.4-34.91,0,0-21.37,20.2-36.34-2.24,0,0-28.19-4.55-22.92-30.51,0,0,10.53-82.98,44.91-93.33,0,0,24.56-4.04,2.81,36.67,0,0-27.19,51.58-27.63,81.05,0,0-.31,5.37,11.62,5.86,0,0,21.53,5.24,24.15-31.82,0,0,13.69-57.65,20.11-63.14.72-.62,1.39-1.3,1.81-2.15,1.86-3.77,4.32-12.65-11.38-16.26,0,0-10.91-.39,12.27,22.57,0,0-21.61,55.91-19.02,80.68.31,3,3.79,4.5,6.25,2.75,9.3-6.64,28.89-25,33.59-64.16.56-4.67-4.38-8.17-8.5-5.92-4.66,2.54-9.76,9.58-11.77,27.42-.11.95,1.05,1.51,1.71.82,4.53-4.7,15.39-19.16,17.1-51.17,0,0,10.16-54.05-5.44-74.36,0,0-11.96-.1-5.12,55.17,0,0,1.53,11.48,3.02,17.82.31,1.3,2.13,1.4,2.57.14,2.37-6.68,5.77-26.69-1.42-83.38-.69-5.42-3.37-10.48-7.7-13.82-2-1.54-4.25-2.61-6.53-2.37"/>
</svg>