<svg width="154" height="668" viewBox="0 0 154 668" fill="none" xmlns="http://www.w3.org/2000/svg">
<path d="M51.574 512.012V480.628L1 449V480.373L51.574 512.012Z" stroke="#BEA795" stroke-width="0.8" stroke-miterlimit="10"/>
<path d="M102.142 449V480.373L51.5781 512.012V480.628L102.142 449Z" stroke="#BEA795" stroke-width="0.8" stroke-miterlimit="10"/>
<path d="M103.137 604.622V573.239L52.5625 541.61V572.984L103.137 604.622Z" stroke="#BEA795" stroke-width="0.8" stroke-miterlimit="10"/>
<path d="M153.704 541.61V572.984L103.141 604.622V573.239L153.704 541.61Z" stroke="#BEA795" stroke-width="0.8" stroke-miterlimit="10"/>
<path d="M103.137 636.128V604.744L52.5625 573.116V604.49L103.137 636.128Z" stroke="#BEA795" stroke-width="0.8" stroke-miterlimit="10"/>
<path d="M153.704 573.116V604.49L103.141 636.128V604.744L153.704 573.116Z" stroke="#BEA795" stroke-width="0.8" stroke-miterlimit="10"/>
<path d="M103.137 667.634V636.25L52.5625 604.622V635.995L103.137 667.634Z" stroke="#BEA795" stroke-width="0.8" stroke-miterlimit="10"/>
<path d="M153.704 604.622V635.995L103.141 667.634V636.25L153.704 604.622Z" stroke="#BEA795" stroke-width="0.8" stroke-miterlimit="10"/>
<path d="M52.1365 541.61V572.984L1.5625 604.622V573.239L52.1365 541.61Z" stroke="#BEA795" stroke-width="0.8" stroke-miterlimit="10"/>
<path d="M52.1365 573.116V604.49L1.5625 636.128V604.744L52.1365 573.116Z" stroke="#BEA795" stroke-width="0.8" stroke-miterlimit="10"/>
<path d="M112.666 71.431V48.0601L75 24.4918V47.8703L112.666 71.431Z" stroke="#BEA795" stroke-width="0.8" stroke-miterlimit="10"/>
<path d="M150.338 1V24.3708L112.664 47.9392V24.5607L150.338 1Z" stroke="#BEA795" stroke-width="0.8" stroke-miterlimit="10"/>
<path d="M112.666 94.9006V71.5298L75 47.9614V71.3399L112.666 94.9006Z" stroke="#BEA795" stroke-width="0.8" stroke-miterlimit="10"/>
<path d="M150.338 47.9615V71.34L112.664 94.9007V71.5299L150.338 47.9615Z" stroke="#BEA795" stroke-width="0.8" stroke-miterlimit="10"/>
<path d="M150.338 119.153V142.524L112.664 166.092V142.714L150.338 119.153Z" stroke="#BEA795" stroke-width="0.8" stroke-miterlimit="10"/>
<path d="M112.666 141.84V118.462L75 94.9009V118.279L112.666 141.84Z" stroke="#BEA795" stroke-width="0.8" stroke-miterlimit="10"/>
<path d="M150.338 142.623V165.994L112.664 189.562V166.183L150.338 142.623Z" stroke="#BEA795" stroke-width="0.8" stroke-miterlimit="10"/>
</svg>
