<?xml version="1.0" encoding="UTF-8"?>
<svg xmlns="http://www.w3.org/2000/svg" viewBox="0 0 1366 768">
  <defs>
    <style>
      .cls-1 {
        fill: none;
        stroke: #f4f4f4;
        stroke-miterlimit: 10;
        stroke-width: .5px;
      }
    </style>
  </defs>
  <g id="_Слой_2" data-name="Слой 2">
    <path class="cls-1" d="M250.46,379.08s52.77-18.05,76.38-16.66c0,0-8.43-8.77-5.13-17.3.75-1.95.78-4.1.16-6.09-2.05-6.56-5.03-20.19,4.97-21.69,0,0,22.07,7.59,11.13,41.98-.5,1.56.38,3.23,1.96,3.68,5.54,1.57,17.22,2.94,17.6-13.22,0,0-20.96-.5-22.21-10.23,0,0-3.99-10.73,9.73-16.47,0,0-2.25-22.21,8.23-21.46,0,0,19.8-1.82,22.88,29.97.67,6.95-5.91,12.46-12.61,10.53-.1-.03-.19-.06-.29-.09l-.21,15.6c-.02,1.83,1.29,3.4,3.09,3.68,3.05.48,7.8,1.01,11.71.55,2.08-.25,3.62-2.05,3.62-4.14v-17.39s18.96-7.28,18.96-7.28l22.95,16.22-7.24.25.5,12.97,24.2-.5v-14.97l9.98-.25v19.21l22.95,10.23v-42.67l17.96-7.98-18.46.25-18.75-18.75c-.26-.26-.67-.27-.94-.02l-13.99,12.79-70.45-11.36,26.53-11.34-.25-12.97h14.22v6.74l21.21-8.73h56.89l24.2,10.73v-8.48h15.72v12.23l32.69,13.97,4.24,1.75-14.22.5-.75,41.92-6.99-42.42-52.65-1,15.22,14.47h-8.98l.75,55.39h24.7v-14.97l-17.22-17.47,22.71-.25,20.21,19.21-10.73.25v18.96l36.38,13.35s-18.23-76.13,4.78-106.26c0,0,10.08-9.55,11,10.31.03.56.11,1.11.26,1.65,1.05,3.77,5.4,19.93,5.1,27.84,0,0,2.92,31.9,1.6,48.05-.37,4.58-2.77,8.75-6.5,11.42l-9.75,6.99,35.96,14.12v-37.96l-63.6,1-.67-15.65,61.27,1.66,22.98,14.65h-11.65l1.87,37.74c.08,1.62.86,3.13,2.13,4.13l12.79,10.08c2.18,1.72,5.42.45,5.82-2.29.74-5.11.32-14.1-5.68-28.24,0,0-5.26-82.79,5.95-84.3,0,0,19.94-12.34,13.32,71.65,0,0-11.37,30.52-11.09,47.56,0,0,11.93,6.82,18.17,5.68,0,0-4.01-30.88-5.96-40.89,0,0-14.19-111.97,5.96-115.5,0,0,22.5-8.61,11.15,56.75,0,0-5.04,33.38,4.72,43.5,0,0,19.94,36.35-9.42,35.96l.78,23.88,41.1,8.61v-25.05s-19.23-6.41-9.21-49.22c.39-1.66.53-3.37.43-5.08-.7-12.43-2.95-64.59,8.77-63.9,0,0,21.14-3.13,15.66,71.63,0,0,20.74,45.79-3.91,53.62,0,0-6.26,9.39-2.74,20.35,0,0,60.42,5.86,200.05,93.89,0,0,112.03,59.7,168.33,15.18"/>
  </g>
  <g id="_Слой_3" data-name="Слой 3">
    <polyline class="cls-1" points="324.14 318.18 324.14 222.17 326.78 222.17 326.78 219.6 372.71 216.84 376.22 222.28 376.22 232.92 343.1 233.89 343.22 243.32 376.22 243.32 376.22 362"/>
    <polyline class="cls-1" points="546.71 390.63 546.71 172.8 478.74 176.41 477.82 177.23 469.06 177.74 467.94 178.76 460.71 178.86 459.39 179.98 444.31 180.79 443.19 181.91 435.86 182.02 434.64 182.73 427.3 183.64 422.21 187.92 422.21 232.07 422.21 285.31"/>
  </g>
  <g id="_Слой_4" data-name="Слой 4">
    <polyline class="cls-1" points="376.22 232.92 422.21 232.07 422.21 243.23 375.49 243.32"/>
  </g>
</svg>