<svg width="89" height="88" viewBox="0 0 89 88" fill="none" xmlns="http://www.w3.org/2000/svg">
<rect x="0.5" width="88" height="88" rx="44" fill="#2E2E34"/>
<g opacity="0.8">
<path fill-rule="evenodd" clip-rule="evenodd" d="M63 44C63 54.2173 54.7173 62.5 44.5 62.5C41.1432 62.5 38.0052 61.6092 35.298 60.0534C34.5256 59.6095 33.6131 59.456 32.7281 59.633L27.9016 60.5983L28.8669 55.7717C29.0439 54.8867 28.8904 53.9742 28.4465 53.2018C26.8908 50.4947 26 47.3567 26 44C26 33.7827 34.2827 25.5 44.5 25.5C54.7173 25.5 63 33.7827 63 44ZM66.5 44C66.5 56.1503 56.6503 66 44.5 66C40.5151 66 36.7777 64.9406 33.5541 63.088C33.5118 63.0637 33.4623 63.0555 33.4145 63.065L26.9455 64.3588C25.2778 64.6924 23.8075 63.222 24.141 61.5544L25.4349 55.0853C25.4444 55.0375 25.4362 54.988 25.4119 54.9457C23.5594 51.7221 22.5 47.9848 22.5 44C22.5 31.8497 32.3497 22 44.5 22C56.6503 22 66.5 31.8497 66.5 44ZM35.1111 39.1111C35.1111 38.1446 35.8946 37.3611 36.8611 37.3611H52.1389C53.1054 37.3611 53.8889 38.1446 53.8889 39.1111C53.8889 40.0776 53.1054 40.8611 52.1389 40.8611H36.8611C35.8946 40.8611 35.1111 40.0776 35.1111 39.1111ZM35.4166 48.8889C35.4166 47.9224 36.2001 47.1389 37.1666 47.1389H44.5C45.4665 47.1389 46.25 47.9224 46.25 48.8889C46.25 49.8554 45.4665 50.6389 44.5 50.6389H37.1666C36.2001 50.6389 35.4166 49.8554 35.4166 48.8889Z" fill="white"/>
</g>
</svg>
