<svg width="148" height="58" viewBox="0 0 148 58" fill="none" xmlns="http://www.w3.org/2000/svg">
<path d="M76.606 28.0488C75.4388 28.0488 74.4743 27.8584 73.7125 27.4775C72.963 27.0843 72.4347 26.5191 72.1275 25.7819C71.8203 25.0324 71.7589 24.1232 71.9432 23.0543C72.0415 22.5259 72.1521 21.9669 72.275 21.3771C72.4101 20.7751 72.5391 20.2038 72.662 19.6632C72.92 18.6188 73.3623 17.7341 73.9889 17.0092C74.6156 16.2843 75.3896 15.7314 76.3111 15.3505C77.2449 14.9696 78.2831 14.7792 79.4258 14.7792C80.3473 14.7792 81.1398 14.8959 81.8033 15.1294C82.4667 15.3505 83.0012 15.6516 83.4067 16.0324C83.8121 16.4133 84.0947 16.8311 84.2545 17.2857C84.4142 17.7403 84.451 18.1888 84.365 18.6311C84.3527 18.7417 84.2975 18.8338 84.1992 18.9075C84.1132 18.9812 84.0087 19.0181 83.8859 19.0181H81.1951C81.0722 19.0181 80.9801 18.9997 80.9186 18.9628C80.8572 18.9137 80.808 18.8461 80.7712 18.7601C80.7343 18.5758 80.6545 18.3853 80.5316 18.1888C80.4087 17.9799 80.2183 17.8017 79.9603 17.6543C79.7022 17.5068 79.3336 17.4331 78.8545 17.4331C78.1664 17.4331 77.5767 17.6174 77.0852 17.986C76.606 18.3546 76.2681 18.9444 76.0715 19.7553C75.9487 20.2836 75.8258 20.8181 75.7029 21.3587C75.5924 21.887 75.4879 22.4215 75.3896 22.9621C75.2422 23.8222 75.3343 24.4427 75.6661 24.8236C76.0101 25.2044 76.5323 25.3949 77.2326 25.3949C77.6872 25.3949 78.1111 25.315 78.5043 25.1553C78.9098 24.9956 79.2538 24.7498 79.5364 24.4181C79.819 24.0741 80.0094 23.6379 80.1077 23.1096L80.1814 22.7594H78.449C78.3139 22.7594 78.2094 22.7164 78.1357 22.6304C78.0743 22.5321 78.0558 22.4154 78.0804 22.2802L78.3753 20.9164C78.3999 20.7812 78.4674 20.6707 78.578 20.5847C78.6886 20.4864 78.8053 20.4372 78.9282 20.4372H83.591C83.7261 20.4372 83.8244 20.4864 83.8859 20.5847C83.9473 20.6707 83.9657 20.7812 83.9411 20.9164L83.4988 23.0174C83.29 24.0741 82.8599 24.9771 82.2087 25.7266C81.5698 26.4761 80.765 27.0536 79.7944 27.459C78.836 27.8522 77.7732 28.0488 76.606 28.0488ZM87.788 28.0488C87.1982 28.0488 86.676 27.9567 86.2214 27.7724C85.7791 27.5758 85.4228 27.2932 85.1525 26.9246C84.8822 26.5437 84.704 26.0891 84.618 25.5608C84.532 25.0201 84.5443 24.4058 84.6549 23.7178C84.704 23.472 84.747 23.257 84.7839 23.0727C84.8207 22.8761 84.8699 22.6611 84.9313 22.4277C85.0911 21.7642 85.3122 21.1683 85.5948 20.6399C85.8774 20.1116 86.2153 19.657 86.6085 19.2761C87.0016 18.8952 87.4562 18.6065 87.9723 18.4099C88.5006 18.201 89.0781 18.0966 89.7047 18.0966C90.4542 18.0966 91.0194 18.2072 91.4003 18.4283C91.7934 18.6372 92.1067 18.9014 92.3402 19.2208L92.4323 18.7417C92.4569 18.6065 92.5183 18.4959 92.6166 18.4099C92.7272 18.3239 92.8501 18.2809 92.9852 18.2809H95.0494C95.1723 18.2809 95.2706 18.3239 95.3443 18.4099C95.418 18.4959 95.4426 18.6065 95.418 18.7417L93.5934 27.4038C93.5689 27.5389 93.5013 27.6495 93.3907 27.7355C93.2801 27.8215 93.1634 27.8645 93.0405 27.8645H90.9579C90.8351 27.8645 90.7368 27.8215 90.6631 27.7355C90.5893 27.6495 90.5648 27.5389 90.5893 27.4038L90.7183 26.814C90.3375 27.1703 89.9259 27.4652 89.4835 27.6986C89.0535 27.9321 88.4883 28.0488 87.788 28.0488ZM89.0596 25.5792C89.4774 25.5792 89.8276 25.4932 90.1102 25.3212C90.3927 25.1369 90.6262 24.9034 90.8105 24.6208C90.9948 24.3382 91.1238 24.0311 91.1975 23.6993C91.2712 23.4536 91.3265 23.2201 91.3634 22.999C91.4125 22.7778 91.4555 22.5505 91.4924 22.3171C91.5538 22.0099 91.5538 21.7273 91.4924 21.4693C91.4433 21.199 91.3143 20.984 91.1054 20.8242C90.9088 20.6522 90.6139 20.5662 90.2207 20.5662C89.8398 20.5662 89.5143 20.6522 89.2439 20.8242C88.9736 20.9963 88.7525 21.2297 88.5805 21.5246C88.4207 21.8195 88.2856 22.1451 88.175 22.5014C88.1259 22.6857 88.0767 22.8761 88.0276 23.0727C87.9784 23.2693 87.9416 23.4597 87.917 23.644C87.8678 24.0003 87.8556 24.3259 87.8801 24.6208C87.917 24.9157 88.0276 25.1491 88.2119 25.3212C88.3962 25.4932 88.6788 25.5792 89.0596 25.5792ZM96.1363 27.8645C96.0012 27.8645 95.8967 27.8215 95.823 27.7355C95.7493 27.6495 95.7247 27.5389 95.7493 27.4038L97.5923 18.7417C97.6169 18.6065 97.6845 18.4959 97.795 18.4099C97.9056 18.3239 98.0285 18.2809 98.1636 18.2809H100.173C100.308 18.2809 100.406 18.3239 100.467 18.4099C100.541 18.4959 100.566 18.6065 100.541 18.7417L100.412 19.3683C100.621 19.1471 100.848 18.9444 101.094 18.7601C101.352 18.5635 101.647 18.4038 101.979 18.2809C102.323 18.158 102.728 18.0966 103.195 18.0966C103.908 18.0966 104.485 18.2379 104.927 18.5205C105.382 18.8031 105.689 19.1963 105.849 19.7C106.242 19.2331 106.684 18.8522 107.176 18.5574C107.68 18.2502 108.269 18.0966 108.945 18.0966C109.621 18.0966 110.192 18.244 110.659 18.5389C111.138 18.8215 111.476 19.2638 111.673 19.8659C111.882 20.4556 111.882 21.2236 111.673 22.1696L110.567 27.4038C110.542 27.5389 110.475 27.6495 110.364 27.7355C110.254 27.8215 110.137 27.8645 110.014 27.8645H107.876C107.741 27.8645 107.637 27.8215 107.563 27.7355C107.489 27.6495 107.465 27.5389 107.489 27.4038L108.577 22.2986C108.675 21.8686 108.693 21.5307 108.632 21.285C108.57 21.027 108.454 20.8427 108.282 20.7321C108.11 20.6215 107.889 20.5662 107.618 20.5662C107.385 20.5662 107.145 20.6215 106.899 20.7321C106.654 20.8427 106.433 21.027 106.236 21.285C106.039 21.5307 105.898 21.8686 105.812 22.2986L104.725 27.4038C104.7 27.5389 104.633 27.6495 104.522 27.7355C104.424 27.8215 104.307 27.8645 104.172 27.8645H102.034C101.899 27.8645 101.794 27.8215 101.721 27.7355C101.647 27.6495 101.622 27.5389 101.647 27.4038L102.753 22.2986C102.839 21.8686 102.845 21.5307 102.771 21.285C102.71 21.027 102.593 20.8427 102.421 20.7321C102.249 20.6215 102.034 20.5662 101.776 20.5662C101.542 20.5662 101.303 20.6215 101.057 20.7321C100.811 20.8427 100.59 21.027 100.394 21.285C100.197 21.5307 100.056 21.8625 99.9698 22.2802L98.864 27.4038C98.8394 27.5389 98.7718 27.6495 98.6612 27.7355C98.5629 27.8215 98.4462 27.8645 98.3111 27.8645H96.1363ZM117.184 28.0488C116.225 28.0488 115.421 27.8768 114.769 27.5328C114.13 27.1764 113.688 26.6481 113.442 25.9478C113.209 25.2474 113.184 24.3874 113.369 23.3676C113.393 23.2816 113.418 23.171 113.442 23.0358C113.467 22.9007 113.492 22.7963 113.516 22.7225C113.762 21.7519 114.155 20.9225 114.696 20.2345C115.236 19.5341 115.9 19.0058 116.686 18.6495C117.472 18.2809 118.339 18.0966 119.285 18.0966C120.366 18.0966 121.208 18.3116 121.81 18.7417C122.424 19.1717 122.829 19.7553 123.026 20.4925C123.235 21.2297 123.241 22.0713 123.044 23.0174L122.971 23.4597C122.946 23.5949 122.872 23.7055 122.75 23.7915C122.639 23.8775 122.516 23.9205 122.381 23.9205H116.502C116.502 23.9328 116.496 23.9512 116.483 23.9758C116.483 24.0003 116.477 24.0249 116.465 24.0495C116.403 24.4058 116.397 24.7314 116.446 25.0263C116.496 25.3212 116.618 25.5546 116.815 25.7266C117.012 25.8986 117.276 25.9846 117.608 25.9846C117.841 25.9846 118.05 25.9478 118.234 25.8741C118.418 25.7881 118.578 25.6959 118.713 25.5976C118.849 25.487 118.959 25.3949 119.045 25.3212C119.18 25.1983 119.285 25.1246 119.358 25.1C119.432 25.0631 119.543 25.0447 119.69 25.0447H121.975C122.098 25.0447 122.19 25.0816 122.252 25.1553C122.313 25.2167 122.326 25.3089 122.289 25.4317C122.227 25.6406 122.068 25.8925 121.81 26.1874C121.564 26.4823 121.22 26.7771 120.778 27.072C120.335 27.3546 119.813 27.5881 119.211 27.7724C118.609 27.9567 117.933 28.0488 117.184 28.0488ZM116.889 22.0959H120.003L120.022 22.0591C120.12 21.6659 120.132 21.3219 120.059 21.027C119.997 20.7321 119.862 20.5048 119.653 20.3451C119.457 20.1853 119.193 20.1055 118.861 20.1055C118.529 20.1055 118.228 20.1853 117.958 20.3451C117.7 20.5048 117.479 20.7321 117.294 21.027C117.122 21.3219 116.987 21.6659 116.889 22.0591V22.0959Z" fill="white"/>
<path d="M71.5378 45.8645C71.4026 45.8645 71.2982 45.8215 71.2244 45.7355C71.1507 45.6495 71.1262 45.5389 71.1507 45.4038L73.6941 33.4243C73.7186 33.2891 73.7862 33.1785 73.8968 33.0925C74.0074 33.0065 74.1302 32.9635 74.2654 32.9635H76.2558C76.4524 32.9635 76.5876 33.0188 76.6613 33.1294C76.7473 33.2277 76.8026 33.3075 76.8272 33.369L78.8176 39.1928L83.3145 33.369C83.3514 33.3075 83.4251 33.2277 83.5357 33.1294C83.6586 33.0188 83.8183 32.9635 84.0149 32.9635H86.0053C86.1405 32.9635 86.2449 33.0065 86.3186 33.0925C86.3923 33.1785 86.4169 33.2891 86.3923 33.4243L83.849 45.4038C83.8244 45.5389 83.7568 45.6495 83.6463 45.7355C83.5357 45.8215 83.4128 45.8645 83.2777 45.8645H81.0661C80.9432 45.8645 80.8449 45.8215 80.7712 45.7355C80.6975 45.6495 80.6729 45.5389 80.6975 45.4038L82.135 38.6031L79.3152 42.3444C79.2292 42.4427 79.1248 42.541 79.0019 42.6393C78.8913 42.7253 78.75 42.7683 78.578 42.7683H77.6197C77.4476 42.7683 77.3248 42.7253 77.2511 42.6393C77.1773 42.5532 77.122 42.455 77.0852 42.3444L75.7767 38.4372L74.2838 45.4038C74.2593 45.5389 74.1917 45.6495 74.0811 45.7355C73.9828 45.8215 73.8722 45.8645 73.7494 45.8645H71.5378ZM90.7441 46.0488C89.7612 46.0488 88.938 45.8829 88.2745 45.5512C87.611 45.2195 87.1318 44.7464 86.837 44.1321C86.5544 43.5055 86.4806 42.7621 86.6158 41.9021C86.6404 41.6563 86.6834 41.3799 86.7448 41.0727C86.8185 40.7532 86.8922 40.4768 86.966 40.2434C87.1994 39.371 87.5557 38.6277 88.0349 38.0133C88.5141 37.399 89.1284 36.926 89.8779 36.5942C90.6274 36.2625 91.5182 36.0966 92.5503 36.0966C93.5209 36.0966 94.338 36.2625 95.0015 36.5942C95.6649 36.926 96.1503 37.399 96.4574 38.0133C96.7646 38.6277 96.8506 39.371 96.7154 40.2434C96.6663 40.4768 96.611 40.7532 96.5496 41.0727C96.4881 41.3799 96.4267 41.6563 96.3653 41.9021C96.1318 42.7621 95.7817 43.5055 95.3148 44.1321C94.8479 44.7464 94.2397 45.2195 93.4902 45.5512C92.7407 45.8829 91.8253 46.0488 90.7441 46.0488ZM91.0206 43.8003C91.5735 43.8003 92.0219 43.6345 92.366 43.3027C92.71 42.971 92.968 42.4734 93.14 41.8099C93.1892 41.6256 93.2445 41.3799 93.3059 41.0727C93.3796 40.7655 93.4288 40.5198 93.4533 40.3355C93.5639 39.6843 93.5332 39.1928 93.3612 38.8611C93.1892 38.5171 92.8267 38.3451 92.2738 38.3451C91.7455 38.3451 91.3032 38.5171 90.9469 38.8611C90.6028 39.1928 90.3509 39.6843 90.1912 40.3355C90.1421 40.5198 90.0806 40.7655 90.0069 41.0727C89.9455 41.3799 89.9025 41.6256 89.8779 41.8099C89.7673 42.4734 89.7919 42.971 89.9516 43.3027C90.1236 43.6345 90.48 43.8003 91.0206 43.8003ZM97.8282 45.8645C97.693 45.8645 97.5886 45.8215 97.5148 45.7355C97.4411 45.6495 97.4165 45.5389 97.4411 45.4038L99.2841 36.7417C99.3087 36.6065 99.3763 36.4959 99.4869 36.4099C99.5974 36.3239 99.7203 36.2809 99.8555 36.2809H101.975C102.11 36.2809 102.208 36.3239 102.27 36.4099C102.344 36.4959 102.368 36.6065 102.344 36.7417L102.196 37.442C102.577 37.0611 103.032 36.7417 103.56 36.4836C104.1 36.2256 104.709 36.0966 105.384 36.0966C106.159 36.0966 106.797 36.2563 107.301 36.5758C107.805 36.8952 108.149 37.3683 108.333 37.9949C108.518 38.6092 108.511 39.3649 108.315 40.2618L107.209 45.4038C107.184 45.5389 107.117 45.6495 107.006 45.7355C106.908 45.8215 106.791 45.8645 106.656 45.8645H104.352C104.217 45.8645 104.113 45.8215 104.039 45.7355C103.965 45.6495 103.941 45.5389 103.965 45.4038L105.034 40.3724C105.169 39.7703 105.151 39.3219 104.979 39.027C104.819 38.7198 104.457 38.5662 103.892 38.5662C103.339 38.5662 102.872 38.7259 102.491 39.0454C102.11 39.3526 101.858 39.7949 101.735 40.3724L100.666 45.4038C100.642 45.5389 100.574 45.6495 100.464 45.7355C100.365 45.8215 100.255 45.8645 100.132 45.8645H97.8282ZM113.339 46.0488C112.54 46.0488 111.877 45.9628 111.348 45.7908C110.832 45.6065 110.427 45.3853 110.132 45.1273C109.837 44.8693 109.634 44.6051 109.524 44.3348C109.413 44.0522 109.376 43.8126 109.413 43.616C109.438 43.4809 109.499 43.3703 109.598 43.2843C109.708 43.186 109.819 43.1369 109.929 43.1369H112.03C112.067 43.1369 112.098 43.143 112.122 43.1553C112.159 43.1676 112.19 43.1922 112.215 43.229C112.35 43.315 112.485 43.4256 112.62 43.5608C112.755 43.6836 112.915 43.7942 113.099 43.8925C113.296 43.9908 113.542 44.0399 113.836 44.0399C114.181 44.0399 114.488 43.9724 114.758 43.8372C115.028 43.702 115.188 43.4993 115.237 43.229C115.286 43.0324 115.262 42.8727 115.163 42.7498C115.077 42.6147 114.881 42.4857 114.574 42.3628C114.267 42.2399 113.787 42.1171 113.136 41.9942C112.522 41.8468 112 41.6563 111.57 41.4229C111.152 41.1771 110.857 40.8638 110.685 40.4829C110.513 40.0898 110.482 39.6167 110.593 39.0638C110.703 38.5724 110.961 38.0993 111.367 37.6447C111.772 37.1901 112.313 36.8215 112.989 36.5389C113.677 36.244 114.469 36.0966 115.366 36.0966C116.079 36.0966 116.681 36.1826 117.172 36.3546C117.664 36.5143 118.063 36.7232 118.37 36.9812C118.677 37.2393 118.892 37.5034 119.015 37.7737C119.138 38.044 119.181 38.2898 119.144 38.5109C119.132 38.6338 119.071 38.7444 118.96 38.8427C118.862 38.9287 118.757 38.9717 118.647 38.9717H116.73C116.681 38.9717 116.632 38.9655 116.583 38.9533C116.546 38.9287 116.515 38.9041 116.49 38.8795C116.343 38.8058 116.208 38.7075 116.085 38.5847C115.962 38.4618 115.815 38.3512 115.643 38.2529C115.471 38.1546 115.237 38.1055 114.942 38.1055C114.611 38.1055 114.334 38.1792 114.113 38.3266C113.904 38.4741 113.775 38.6645 113.726 38.898C113.689 39.0577 113.707 39.2051 113.781 39.3403C113.855 39.4754 114.039 39.5983 114.334 39.7089C114.641 39.8195 115.127 39.9423 115.79 40.0775C116.601 40.2126 117.221 40.4338 117.651 40.741C118.094 41.0358 118.383 41.386 118.518 41.7915C118.653 42.1846 118.677 42.6024 118.591 43.0447C118.469 43.6345 118.18 44.1567 117.725 44.6113C117.271 45.0659 116.669 45.4222 115.919 45.6802C115.182 45.9259 114.322 46.0488 113.339 46.0488ZM124.392 45.8645C123.544 45.8645 122.844 45.7416 122.291 45.4959C121.75 45.2379 121.382 44.8447 121.185 44.3164C120.989 43.7758 120.976 43.0816 121.148 42.2338L121.904 38.6952H120.466C120.331 38.6952 120.227 38.6522 120.153 38.5662C120.092 38.4802 120.073 38.3696 120.098 38.2345L120.411 36.7417C120.436 36.6065 120.503 36.4959 120.614 36.4099C120.724 36.3239 120.841 36.2809 120.964 36.2809H122.42L123.065 33.24C123.09 33.1048 123.151 32.9942 123.249 32.9082C123.36 32.8222 123.483 32.7792 123.618 32.7792H125.756C125.879 32.7792 125.977 32.8222 126.051 32.9082C126.124 32.9942 126.149 33.1048 126.124 33.24L125.479 36.2809H127.783C127.918 36.2809 128.017 36.3239 128.078 36.4099C128.152 36.4959 128.176 36.6065 128.152 36.7417L127.838 38.2345C127.814 38.3696 127.746 38.4802 127.636 38.5662C127.525 38.6522 127.408 38.6952 127.285 38.6952H124.963L124.263 41.9758C124.214 42.2584 124.189 42.5041 124.189 42.713C124.189 42.9096 124.251 43.0631 124.374 43.1737C124.496 43.2843 124.699 43.3396 124.982 43.3396H126.456C126.579 43.3396 126.671 43.3826 126.733 43.4686C126.806 43.5546 126.831 43.6652 126.806 43.8003L126.475 45.4038C126.45 45.5389 126.382 45.6495 126.272 45.7355C126.174 45.8215 126.057 45.8645 125.922 45.8645H124.392ZM132.518 46.0488C131.56 46.0488 130.755 45.8768 130.104 45.5328C129.465 45.1764 129.022 44.6481 128.777 43.9478C128.543 43.2474 128.519 42.3874 128.703 41.3676C128.728 41.2816 128.752 41.171 128.777 41.0358C128.801 40.9007 128.826 40.7963 128.85 40.7225C129.096 39.7519 129.489 38.9225 130.03 38.2345C130.571 37.5341 131.234 37.0058 132.02 36.6495C132.807 36.2809 133.673 36.0966 134.619 36.0966C135.7 36.0966 136.542 36.3116 137.144 36.7417C137.758 37.1717 138.164 37.7553 138.36 38.4925C138.569 39.2297 138.575 40.0713 138.379 41.0174L138.305 41.4597C138.28 41.5949 138.207 41.7055 138.084 41.7915C137.973 41.8775 137.85 41.9205 137.715 41.9205H131.836C131.836 41.9328 131.83 41.9512 131.818 41.9758C131.818 42.0003 131.812 42.0249 131.799 42.0495C131.738 42.4058 131.732 42.7314 131.781 43.0263C131.83 43.3212 131.953 43.5546 132.149 43.7266C132.346 43.8986 132.61 43.9846 132.942 43.9846C133.175 43.9846 133.384 43.9478 133.569 43.8741C133.753 43.7881 133.913 43.6959 134.048 43.5976C134.183 43.487 134.293 43.3949 134.379 43.3212C134.515 43.1983 134.619 43.1246 134.693 43.1C134.766 43.0631 134.877 43.0447 135.025 43.0447H137.31C137.433 43.0447 137.525 43.0816 137.586 43.1553C137.648 43.2167 137.66 43.3089 137.623 43.4317C137.562 43.6406 137.402 43.8925 137.144 44.1874C136.898 44.4823 136.554 44.7771 136.112 45.072C135.67 45.3546 135.147 45.5881 134.545 45.7724C133.943 45.9567 133.268 46.0488 132.518 46.0488ZM132.223 40.0959H135.338L135.356 40.0591C135.455 39.6659 135.467 39.3219 135.393 39.027C135.332 38.7321 135.197 38.5048 134.988 38.3451C134.791 38.1853 134.527 38.1055 134.195 38.1055C133.863 38.1055 133.562 38.1853 133.292 38.3451C133.034 38.5048 132.813 38.7321 132.629 39.027C132.457 39.3219 132.321 39.6659 132.223 40.0591V40.0959ZM139.26 45.8645C139.125 45.8645 139.02 45.8215 138.946 45.7355C138.873 45.6495 138.848 45.5389 138.873 45.4038L140.716 36.7417C140.74 36.6188 140.808 36.5143 140.918 36.4283C141.029 36.33 141.152 36.2809 141.287 36.2809H143.406C143.542 36.2809 143.64 36.33 143.701 36.4283C143.775 36.5143 143.8 36.6188 143.775 36.7417L143.628 37.4789C143.922 37.1103 144.291 36.8215 144.733 36.6126C145.176 36.3915 145.722 36.2809 146.374 36.2809H147.424C147.547 36.2809 147.639 36.3239 147.701 36.4099C147.774 36.4959 147.799 36.6065 147.774 36.7417L147.387 38.6399C147.363 38.7628 147.295 38.8734 147.185 38.9717C147.074 39.0577 146.951 39.1007 146.816 39.1007H145.028C144.524 39.1007 144.107 39.242 143.775 39.5246C143.443 39.7949 143.222 40.1819 143.112 40.6857L142.098 45.4038C142.073 45.5389 142.006 45.6495 141.895 45.7355C141.797 45.8215 141.68 45.8645 141.545 45.8645H139.26Z" fill="white"/>
<path d="M29.9774 2.96718C19.4854 6.37179 18.669 15.0276 19.7774 16.9184L27.3021 17.0372C24.6502 12.5432 26.2948 6.23285 29.9774 2.96718Z" fill="#DD0000"/>
<path d="M32.8278 5.37164C26.5462 8.67538 27.3443 15.5758 28.2469 16.8495C30.1261 17.297 32.6665 16.9755 33.7018 16.7588C31.5439 13.7307 32.4555 7.83768 32.8278 5.37164Z" fill="#3D0A66"/>
<path d="M15.1527 43.8558C19.4183 40.1996 23.6838 39.3923 26.8838 39.3029C30.0838 39.3923 34.3493 40.1996 38.6148 43.8558C43.1767 47.766 52.3005 52.3278 53.6039 40.5973C54.9073 28.8667 48.3903 11.9226 35.3564 15.1811C32.5678 16.1104 28.8824 16.4185 26.8838 16.4745C24.8852 16.4185 21.1997 16.1104 18.4112 15.1811C5.37726 11.9226 -1.13971 28.8667 0.163687 40.5973C1.46708 52.3278 10.5908 47.766 15.1527 43.8558Z" fill="white"/>
<circle cx="14.002" cy="29.2016" r="8.95723" fill="black"/>
<path fill-rule="evenodd" clip-rule="evenodd" d="M11.2376 24.5932C10.7286 24.0842 9.90334 24.0842 9.39434 24.5932C8.88533 25.1022 8.88533 25.9275 9.39434 26.4365L12.1588 29.2009L9.39335 31.9664C8.88434 32.4754 8.88434 33.3007 9.39335 33.8097C9.90236 34.3187 10.7276 34.3187 11.2366 33.8097L14.0021 31.0442L16.7674 33.8096C17.2765 34.3186 18.1017 34.3186 18.6107 33.8096C19.1197 33.3006 19.1197 32.4753 18.6107 31.9663L15.8454 29.2009L18.6097 26.4366C19.1188 25.9276 19.1188 25.1023 18.6097 24.5933C18.1007 24.0843 17.2755 24.0843 16.7665 24.5933L14.0021 27.3577L11.2376 24.5932Z" fill="#DD0000"/>
<circle cx="41.2484" cy="24.5149" r="2.4723" transform="rotate(15.884 41.2484 24.5149)" fill="#3D0A66"/>
<circle cx="44.3034" cy="30.0035" r="2.4723" transform="rotate(15.884 44.3034 30.0035)" fill="#3D0A66"/>
<circle cx="38.8147" cy="33.058" r="2.4723" transform="rotate(15.884 38.8147 33.058)" fill="#3D0A66"/>
<circle cx="35.7598" cy="27.5694" r="2.4723" transform="rotate(15.884 35.7598 27.5694)" fill="#3D0A66"/>
<path d="M19.837 56.9756C19.8386 53.7679 20.1116 52.6107 21.0494 49.8355C21.0494 49.8355 19.2368 49.2586 18.7344 49.049C18.232 48.8394 16.4944 47.8175 16.4944 47.8175C16.3016 49.0193 15.7724 54.1831 19.837 56.9756Z" fill="#DD0000"/>
<path d="M34.2486 56.845C34.247 53.6374 34.0213 52.2848 33.0835 49.5095C33.0835 49.5095 34.6291 49.0025 35.2562 48.689C35.8833 48.3754 37.4339 47.4774 37.4339 47.4774C37.6267 48.6792 38.3132 54.0526 34.2486 56.845Z" fill="#DD0000"/>
</svg>
