<svg width="16" height="10" viewBox="0 0 16 10" fill="none" xmlns="http://www.w3.org/2000/svg">
<path d="M1 2.69797H14.9275" stroke="#232323" stroke-width="1.03065" stroke-linecap="round" stroke-linejoin="round"/>
<path d="M4.99905 4.52221C6.00655 4.52221 6.8233 3.70547 6.8233 2.69796C6.8233 1.69046 6.00655 0.873718 4.99905 0.873718C3.99155 0.873718 3.1748 1.69046 3.1748 2.69796C3.1748 3.70547 3.99155 4.52221 4.99905 4.52221Z" fill="#232323"/>
<path d="M14.9275 7.78593H1" stroke="#232323" stroke-width="1.03065" stroke-linecap="round" stroke-linejoin="round"/>
<path d="M10.9287 9.61019C11.9362 9.61019 12.753 8.79345 12.753 7.78595C12.753 6.77844 11.9362 5.9617 10.9287 5.9617C9.92123 5.9617 9.10449 6.77844 9.10449 7.78595C9.10449 8.79345 9.92123 9.61019 10.9287 9.61019Z" fill="#232323"/>
</svg>
