<svg width="25" height="25" viewBox="0 0 25 25" fill="none" xmlns="http://www.w3.org/2000/svg">
<path d="M1 21.254V1.86499C1 1.38821 1.38711 1.00101 1.86377 1.00101H23.1345C23.6126 1.00101 23.9997 1.38821 23.9997 1.86644V8.27406C23.9997 8.75229 23.6112 9.14094 23.1331 9.14094H18.7218C18.2393 9.14094 17.8479 8.7494 17.8479 8.26684V6.92463" stroke="black" stroke-width="0.75" stroke-miterlimit="10" stroke-linecap="round"/>
<path d="M23.9997 11.5224V23.3336C23.9997 23.8132 23.6112 24.2019 23.1316 24.2019H1" stroke="black" stroke-width="0.75" stroke-miterlimit="10" stroke-linecap="round"/>
<path d="M4.05225 3.86642V15.1228V12.1696H6.0889C6.57134 12.1696 6.96278 12.5612 6.96278 13.0437V16.9952C6.96278 17.4749 6.57423 17.8621 6.09612 17.8621H4.93191C4.44658 17.8621 4.05369 18.2551 4.05369 18.7405V24.2018" stroke="black" stroke-width="0.75" stroke-miterlimit="10" stroke-linecap="round"/>
<path d="M8.86512 5.86737H4.05371" stroke="black" stroke-width="0.75" stroke-miterlimit="10" stroke-linecap="round"/>
<path d="M24 17.8619H18.5184C18.0432 17.8619 17.6589 17.4776 17.6589 17.0022V15.8522C17.6589 15.3725 17.2704 14.9853 16.7923 14.9853H15.6425C15.163 14.9853 14.7744 15.374 14.7744 15.8536V21.2543" stroke="black" stroke-width="0.75" stroke-miterlimit="10" stroke-linecap="round"/>
<path d="M12.6748 21.2544H19.7973" stroke="black" stroke-width="0.75" stroke-miterlimit="10" stroke-linecap="round"/>
<path d="M20.9 9.13986V15.2383V11.8575H12.9268" stroke="black" stroke-width="0.75" stroke-miterlimit="10" stroke-linecap="round"/>
<path d="M20.8999 6.23014V4.73478C20.8999 4.25511 20.5113 3.86502 20.0303 3.86502H12.6767H14.774V8.25717C14.774 8.74406 14.3797 9.13849 13.8929 9.13849H6.72998H10.0637V20.3818C10.0637 20.8629 9.67374 21.253 9.19274 21.253H6.96254" stroke="black" stroke-width="0.75" stroke-miterlimit="10" stroke-linecap="round"/>
<path d="M6.96289 1V3.38534" stroke="black" stroke-width="0.75" stroke-miterlimit="10" stroke-linecap="round"/>
</svg>
