<svg width="53" height="21" viewBox="0 0 53 21" fill="none" xmlns="http://www.w3.org/2000/svg">
<path d="M19.8818 0.945953V16.3173H22.2608V11.0621H25.5541C28.5623 11.0621 30.6759 8.99153 30.6759 5.99416C30.6759 2.99679 28.6016 0.945953 25.6327 0.945953H19.8818ZM22.2608 2.95735H25.0036C27.068 2.95735 28.2477 4.06164 28.2477 6.00402C28.2477 7.9464 27.068 9.06055 24.9938 9.06055H22.2608V2.95735ZM35.021 16.4357C36.5152 16.4357 37.9014 15.6765 38.5305 14.4736H38.5797V16.3173H40.7817V8.66616C40.7817 6.44771 39.0122 5.01804 36.2891 5.01804C33.7627 5.01804 31.8949 6.46743 31.826 8.4591H33.9691C34.1461 7.51257 35.021 6.8914 36.2203 6.8914C37.6753 6.8914 38.4912 7.57172 38.4912 8.82392V9.67186L35.5224 9.84933C32.7599 10.0169 31.2657 11.1508 31.2657 13.1228C31.2657 15.1145 32.8091 16.4357 35.021 16.4357ZM35.66 14.6116C34.3918 14.6116 33.5857 14.0003 33.5857 13.0636C33.5857 12.0974 34.3623 11.5354 35.8468 11.4466L38.4912 11.279V12.1467C38.4912 13.5862 37.2722 14.6116 35.66 14.6116ZM43.7211 20.4979C46.0411 20.4979 47.1323 19.6105 48.0859 16.9188L52.2639 5.16594H49.8456L47.0438 14.2468H46.9947L44.193 5.16594H41.7058L45.7364 16.3568L45.5201 17.0371C45.1564 18.1907 44.5665 18.6344 43.5146 18.6344C43.3279 18.6344 42.9641 18.6147 42.8167 18.595V20.4387C42.9543 20.4782 43.5441 20.4979 43.7211 20.4979Z" fill="#888888"/>
<path d="M7.58592 3.98301C8.52966 4.06189 9.4734 3.50974 10.0632 2.8097C10.6432 2.08993 11.0266 1.12367 10.9283 0.137695C10.0927 0.177134 9.06052 0.689843 8.47068 1.40961C7.92999 2.03077 7.46796 3.03647 7.58592 3.98301Z" fill="white"/>
<path d="M7.73338 4.94927C8.3822 4.94927 9.55205 4.09147 10.9185 4.17034C11.4494 4.20978 12.9829 4.36754 13.966 5.82679C13.8873 5.88595 12.1473 6.89164 12.167 9.00164C12.1867 11.5257 14.369 12.3638 14.3887 12.3835C14.369 12.4427 14.0446 13.5766 13.2484 14.74C12.5504 15.7654 11.8327 16.7711 10.6924 16.7909C9.59137 16.8106 9.22764 16.1303 7.95949 16.1303C6.70117 16.1303 6.28828 16.7711 5.24624 16.8106C4.14521 16.85 3.3096 15.726 2.61163 14.7006C1.18619 12.63 0.0949919 8.8636 1.56958 6.31978C2.28722 5.04786 3.59469 4.24922 5.00047 4.2295C6.08184 4.20978 7.07473 4.94927 7.73338 4.94927Z" fill="white"/>
</svg>
