<svg width="25" height="24" viewBox="0 0 25 24" fill="none" xmlns="http://www.w3.org/2000/svg">
<path fill-rule="evenodd" clip-rule="evenodd" d="M10.7843 1.87598C9.81051 1.87598 8.95468 2.52881 8.70196 3.47396C8.69714 3.492 8.69289 3.5102 8.68923 3.52851L8.4463 4.74416L8.44628 4.7443L8.44623 4.74451C8.37388 5.10494 8.05662 5.36498 7.68927 5.36498C7.68763 5.36498 7.68598 5.36498 7.68434 5.36499H4.42188C3.93863 5.36499 3.54688 5.75674 3.54688 6.23999C3.54688 6.72324 3.93863 7.11499 4.42188 7.11499H21.3799C21.8631 7.11499 22.2549 6.72324 22.2549 6.23999C22.2549 5.75674 21.8631 5.36499 21.3799 5.36499H18.1172C18.1156 5.36498 18.1139 5.36498 18.1123 5.36498C17.7448 5.36498 17.4275 5.10477 17.3552 4.74416L17.1123 3.52851C17.1086 3.5102 17.1044 3.492 17.0996 3.47396C16.8469 2.52881 15.991 1.87598 15.0173 1.87598H10.7843ZM15.7113 5.36499C15.6824 5.27489 15.6583 5.1824 15.6393 5.08779L15.6392 5.08744L15.4033 3.9066C15.3498 3.74021 15.1947 3.62598 15.0173 3.62598H10.7843C10.6068 3.62598 10.4517 3.7402 10.3983 3.9066L10.1623 5.08744L10.1622 5.08779C10.1433 5.1824 10.1192 5.27489 10.0903 5.36499H15.7113ZM6.76437 10.3477L7.49648 18.6869C7.58035 19.6423 8.38037 20.3751 9.33939 20.3751H16.4671C17.4272 20.3751 18.2278 19.6406 18.3102 18.684L19.0288 10.3477H6.76437ZM5.61815 8.59772C5.20739 8.59772 4.88491 8.94975 4.92083 9.35893L5.75318 18.84C5.91639 20.699 7.47318 22.1251 9.33939 22.1251H16.4671C18.3354 22.1251 19.8933 20.6958 20.0538 18.8343L20.8706 9.35783C20.9058 8.94903 20.5835 8.59772 20.1732 8.59772H5.61815Z" fill="#4A4A51"/>
</svg>
