<svg width="25" height="24" viewBox="0 0 25 24" fill="none" xmlns="http://www.w3.org/2000/svg">
<path fill-rule="evenodd" clip-rule="evenodd" d="M18.9883 3.875C18.9731 3.875 18.9584 3.88107 18.9475 3.89195L17.5871 5.25272L19.6483 7.31447L21.008 5.95439C21.0189 5.94351 21.0254 5.92836 21.0254 5.91287C21.0254 5.89738 21.0192 5.88257 21.0084 5.87169L19.0295 3.89229C19.0186 3.88141 19.0036 3.875 18.9883 3.875ZM20.268 9.16978L8.82962 20.6104L6.00612 20.8672C6.00509 20.8673 6.00407 20.8674 6.00304 20.8675C5.93948 20.8735 5.88222 20.875 5.83693 20.875L5.83541 20.875C5.33012 20.8741 4.84839 20.6618 4.50684 20.2897C4.15937 19.9163 3.98692 19.4127 4.03262 18.9046L4.28992 16.0745L15.731 4.63408L17.7092 2.65537C18.0483 2.31583 18.5084 2.125 18.9883 2.125C19.468 2.125 19.9281 2.3157 20.2671 2.65502L22.2453 4.63374C22.5847 4.97289 22.7754 5.43306 22.7754 5.91287C22.7754 6.39267 22.5847 6.85284 22.2453 7.192L20.268 9.16978ZM16.3497 6.49022L5.97537 16.864L5.77559 19.0613C5.77558 19.0614 5.77559 19.0613 5.77559 19.0613C5.77444 19.0747 5.779 19.088 5.78808 19.0977L5.79596 19.1061C5.80692 19.1181 5.8223 19.125 5.83844 19.125L5.84254 19.1249L8.04006 18.925L18.411 8.55205L16.3497 6.49022Z" fill="#4A4A51"/>
</svg>
