<svg width="27" height="29" viewBox="0 0 27 29" fill="none" xmlns="http://www.w3.org/2000/svg">
<path d="M26.9999 14.8134C27.0011 13.8747 26.9217 12.9378 26.7627 12.0127H13.7733V17.3175H21.213C21.0608 18.1648 20.7386 18.9724 20.2658 19.6918C19.793 20.4112 19.1794 21.0274 18.4621 21.5032V24.9467H22.9022C25.502 22.5497 26.9999 19.0048 26.9999 14.8134Z" fill="#B0B0B0"/>
<path d="M13.7733 28.2744C17.4903 28.2744 20.62 27.0539 22.9022 24.9495L18.4621 21.5061C17.2263 22.344 15.6346 22.8222 13.7733 22.8222C10.1806 22.8222 7.13122 20.4003 6.04079 17.1367H1.46674V20.6854C2.61315 22.9666 4.37106 24.8844 6.54419 26.2245C8.71732 27.5645 11.2202 28.2743 13.7733 28.2744Z" fill="#B0B0B0"/>
<path d="M6.04072 17.1367C5.46425 15.4265 5.46425 13.5745 6.04072 11.8643V8.31567H1.46667C0.502262 10.2347 0 12.3527 0 14.5005C0 16.6483 0.502262 18.7663 1.46667 20.6853L6.04072 17.1367Z" fill="#B0B0B0"/>
<path d="M13.7733 6.17838C15.7375 6.14629 17.6355 6.88845 19.057 8.24445L22.9883 4.31318C20.4955 1.97177 17.193 0.686303 13.7733 0.726245C11.2202 0.726362 8.71732 1.43608 6.54419 2.77618C4.37105 4.11627 2.61315 6.03399 1.46674 8.31524L6.04079 11.8639C7.13122 8.60028 10.1806 6.17838 13.7733 6.17838Z" fill="#B0B0B0"/>
</svg>
