<svg width="51" height="21" viewBox="0 0 51 21" fill="none" xmlns="http://www.w3.org/2000/svg">
<path d="M24.3417 10.0893V15.9473H22.4833V1.48053H27.4121C28.0005 1.46824 28.5854 1.57258 29.1332 1.78754C29.681 2.0025 30.1808 2.32381 30.6038 2.73294C31.031 3.11723 31.371 3.58852 31.601 4.11513C31.8309 4.64174 31.9455 5.21148 31.937 5.78605C31.9492 6.3637 31.8364 6.93716 31.6063 7.46713C31.3762 7.99709 31.0342 8.47104 30.6038 8.85648C29.7419 9.67834 28.678 10.0889 27.4121 10.0881H24.3417V10.0893ZM24.3417 3.26161V8.31166H27.4583C27.8 8.32178 28.14 8.26049 28.4566 8.13169C28.7732 8.00289 29.0595 7.80943 29.2971 7.56367C29.5334 7.33389 29.7213 7.05906 29.8496 6.75542C29.9779 6.45178 30.044 6.12549 30.044 5.79586C30.044 5.46624 29.9779 5.13995 29.8496 4.83631C29.7213 4.53267 29.5334 4.25784 29.2971 4.02806C29.0625 3.77712 28.7772 3.57892 28.4602 3.44658C28.1432 3.31424 27.8017 3.2508 27.4583 3.26045H24.3417V3.26161Z" fill="#9B9B9B"/>
<path d="M36.2195 5.7258C37.5931 5.7258 38.6774 6.09287 39.4723 6.827C40.2672 7.56113 40.6643 8.56768 40.6635 9.84664V15.9471H38.8859V14.5735H38.8051C38.0356 15.7047 37.0121 16.2703 35.7347 16.2703C34.6443 16.2703 33.732 15.9471 32.9978 15.3007C32.6455 15.004 32.3639 14.6325 32.1733 14.2131C31.9828 13.7938 31.8883 13.3372 31.8966 12.8767C31.8966 11.8524 32.2837 11.0379 33.0579 10.433C33.832 9.82817 34.8655 9.52498 36.1583 9.52344C37.2618 9.52344 38.1706 9.72544 38.8848 10.1294V9.70466C38.8869 9.39071 38.8191 9.08023 38.6863 8.79573C38.5535 8.51123 38.3591 8.25984 38.1171 8.05979C37.6257 7.6164 36.9852 7.37447 36.3234 7.38222C35.2853 7.38222 34.4638 7.82008 33.8589 8.69581L32.2222 7.66502C33.1225 6.37221 34.4549 5.7258 36.2195 5.7258ZM33.8151 12.9171C33.8138 13.1536 33.8691 13.387 33.9763 13.5978C34.0836 13.8086 34.2396 13.9908 34.4315 14.1291C34.8425 14.4524 35.3527 14.6237 35.8755 14.6139C36.6597 14.6126 37.4114 14.3004 37.9659 13.7459C38.5816 13.1664 38.8894 12.4865 38.8894 11.7062C38.3099 11.2445 37.5019 11.0136 36.4653 11.0136C35.7104 11.0136 35.081 11.1956 34.5769 11.5596C34.0679 11.929 33.8151 12.378 33.8151 12.9171Z" fill="#9B9B9B"/>
<path d="M50.8675 6.04871L44.662 20.31H42.7436L45.0464 15.32L40.966 6.04871H42.986L45.9352 13.1592H45.9756L48.8441 6.04871H50.8675Z" fill="#9B9B9B"/>
<path d="M16.832 8.82609C16.8327 8.25974 16.7848 7.69437 16.6888 7.1362H8.85115V10.3371H13.3402C13.2484 10.8483 13.0539 11.3356 12.7687 11.7697C12.4834 12.2037 12.1132 12.5755 11.6803 12.8627V14.9404H14.3595C15.9281 13.4941 16.832 11.3552 16.832 8.82609Z" fill="white"/>
<path d="M8.85112 16.9483C11.0939 16.9483 12.9824 16.2118 14.3594 14.9421L11.6803 12.8644C10.9346 13.37 9.97425 13.6585 8.85112 13.6585C6.68335 13.6585 4.8434 12.1972 4.18545 10.228H1.42553V12.3692C2.11726 13.7457 3.17796 14.9028 4.4892 15.7114C5.80044 16.52 7.31061 16.9482 8.85112 16.9483Z" fill="white"/>
<path d="M4.18542 10.2279C3.83758 9.19597 3.83758 8.07851 4.18542 7.04662V4.9054H1.42549C0.843585 6.06333 0.540527 7.34131 0.540527 8.63724C0.540527 9.93317 0.843585 11.2111 1.42549 12.3691L4.18542 10.2279Z" fill="white"/>
<path d="M8.85112 3.61579C10.0363 3.59643 11.1816 4.04424 12.0393 4.86243L14.4114 2.49035C12.9072 1.07758 10.9146 0.301945 8.85112 0.326046C7.31061 0.326116 5.80044 0.754353 4.4892 1.56295C3.17796 2.37154 2.11726 3.52867 1.42553 4.90514L4.18545 7.04636C4.8434 5.07713 6.68335 3.61579 8.85112 3.61579Z" fill="white"/>
</svg>
