<svg width="19" height="20" viewBox="0 0 19 20" fill="none" xmlns="http://www.w3.org/2000/svg">
<path fill-rule="evenodd" clip-rule="evenodd" d="M5.60746 17.3468C4.6903 17.305 4.1918 17.1522 3.86051 17.0232C3.42131 16.8522 3.10794 16.6486 2.77847 16.3195C2.44899 15.9905 2.24504 15.6775 2.07481 15.2383C1.94567 14.9072 1.7929 14.4085 1.7512 13.4914C1.7056 12.4999 1.69649 12.202 1.69649 9.68994C1.69649 7.17788 1.70635 6.88085 1.7512 5.88847C1.79297 4.97135 1.94687 4.47369 2.07481 4.14159C2.24579 3.70241 2.44944 3.38905 2.77847 3.05959C3.10749 2.73012 3.42056 2.52619 3.86051 2.35596C4.19165 2.22682 4.6903 2.07406 5.60746 2.03237C6.59905 1.98676 6.89692 1.97766 9.40796 1.97766C11.919 1.97766 12.2172 1.98752 13.2096 2.03237C14.1267 2.07413 14.6244 2.22803 14.9565 2.35596C15.3957 2.52619 15.7091 2.73058 16.0386 3.05959C16.3681 3.3886 16.5712 3.70241 16.7422 4.14159C16.8714 4.47271 17.0241 4.97135 17.0658 5.88847C17.1114 6.88085 17.1206 7.17788 17.1206 9.68994C17.1206 12.202 17.1114 12.499 17.0658 13.4914C17.0241 14.4085 16.8705 14.907 16.7422 15.2383C16.5712 15.6775 16.3676 15.9908 16.0386 16.3195C15.7096 16.6483 15.3957 16.8522 14.9565 17.0232C14.6254 17.1523 14.1267 17.3051 13.2096 17.3468C12.218 17.3924 11.9201 17.4015 9.40796 17.4015C6.89579 17.4015 6.59875 17.3924 5.60746 17.3468ZM9.40796 14.5201C6.74008 14.5201 4.57749 12.3576 4.57749 9.68987C4.57749 7.0221 6.74008 4.8596 9.40796 4.8596C12.0758 4.8596 14.2384 7.0221 14.2384 9.68987C14.2384 12.3576 12.0758 14.5201 9.40796 14.5201ZM13.4908 5.29528C13.3668 5.1096 13.3007 4.89133 13.3008 4.66807C13.3011 4.36881 13.4201 4.08189 13.6317 3.87033C13.8434 3.65876 14.1308 3.53985 14.4301 3.53971C14.6534 3.5398 14.8716 3.60609 15.0572 3.7302C15.2428 3.85431 15.3874 4.03066 15.4728 4.23696C15.5581 4.44326 15.5804 4.67024 15.5367 4.88919C15.4931 5.10814 15.3855 5.30923 15.2276 5.46704C15.0696 5.62484 14.8684 5.73227 14.6494 5.77574C14.4304 5.8192 14.2035 5.79676 13.9972 5.71124C13.791 5.62572 13.6148 5.48097 13.4908 5.29528Z" fill="#B0B0B0"/>
<path fill-rule="evenodd" clip-rule="evenodd" d="M5.60746 17.3468C4.6903 17.305 4.1918 17.1522 3.86051 17.0232C3.42131 16.8522 3.10794 16.6486 2.77847 16.3195C2.44899 15.9905 2.24504 15.6775 2.07481 15.2383C1.94567 14.9072 1.7929 14.4085 1.7512 13.4914C1.7056 12.4999 1.69649 12.202 1.69649 9.68994C1.69649 7.17788 1.70635 6.88085 1.7512 5.88847C1.79297 4.97135 1.94687 4.47369 2.07481 4.14159C2.24579 3.70241 2.44944 3.38905 2.77847 3.05959C3.10749 2.73012 3.42056 2.52619 3.86051 2.35596C4.19165 2.22682 4.6903 2.07406 5.60746 2.03237C6.59905 1.98676 6.89692 1.97766 9.40796 1.97766C11.919 1.97766 12.2172 1.98752 13.2096 2.03237C14.1267 2.07413 14.6244 2.22803 14.9565 2.35596C15.3957 2.52619 15.7091 2.73058 16.0386 3.05959C16.3681 3.3886 16.5712 3.70241 16.7422 4.14159C16.8714 4.47271 17.0241 4.97135 17.0658 5.88847C17.1114 6.88085 17.1206 7.17788 17.1206 9.68994C17.1206 12.202 17.1114 12.499 17.0658 13.4914C17.0241 14.4085 16.8705 14.907 16.7422 15.2383C16.5712 15.6775 16.3676 15.9908 16.0386 16.3195C15.7096 16.6483 15.3957 16.8522 14.9565 17.0232C14.6254 17.1523 14.1267 17.3051 13.2096 17.3468C12.218 17.3924 11.9201 17.4015 9.40796 17.4015C6.89579 17.4015 6.59875 17.3924 5.60746 17.3468ZM5.52957 0.340049C4.52812 0.385653 3.84381 0.544439 3.24619 0.776975C2.62727 1.01711 2.10333 1.33928 1.57977 1.86199C1.0562 2.38471 0.734853 2.90946 0.494707 3.52835C0.262162 4.12632 0.103369 4.81023 0.0577632 5.81164C0.0114047 6.81463 0.000793457 7.13529 0.000793457 9.68987C0.000793457 12.2444 0.0114047 12.5651 0.0577632 13.5681C0.103369 14.5696 0.262162 15.2534 0.494707 15.8514C0.734853 16.4699 1.05628 16.9953 1.57977 17.5177C2.10326 18.0402 2.62727 18.3619 3.24619 18.6028C3.84494 18.8353 4.52812 18.9941 5.52957 19.0397C6.53313 19.0853 6.85327 19.0967 9.40796 19.0967C11.9626 19.0967 12.2833 19.086 13.2863 19.0397C14.2879 18.9941 14.9717 18.8353 15.5697 18.6028C16.1883 18.3619 16.7126 18.0405 17.2361 17.5177C17.7597 16.995 18.0804 16.4699 18.3212 15.8514C18.5538 15.2534 18.7133 14.5695 18.7581 13.5681C18.8038 12.5644 18.8144 12.2444 18.8144 9.68987C18.8144 7.13529 18.8038 6.81463 18.7581 5.81164C18.7125 4.81015 18.5538 4.12594 18.3212 3.52835C18.0804 2.90983 17.7589 2.38554 17.2361 1.86199C16.7134 1.33845 16.1883 1.01711 15.5705 0.776975C14.9717 0.544439 14.2878 0.3849 13.2871 0.340049C12.2841 0.294444 11.9634 0.283081 9.40871 0.283081C6.85402 0.283081 6.53313 0.293692 5.52957 0.340049Z" fill="#B0B0B0"/>
<path d="M6.27274 9.68987C6.27274 7.95819 7.67621 6.55402 9.40796 6.55402C11.1397 6.55402 12.5439 7.95819 12.5439 9.68987C12.5439 11.4215 11.1397 12.8257 9.40796 12.8257C7.67621 12.8257 6.27274 11.4215 6.27274 9.68987Z" fill="#B0B0B0"/>
</svg>
