<svg width="33" height="21" viewBox="0 0 33 21" fill="none" xmlns="http://www.w3.org/2000/svg">
<path d="M21.1086 17.9886H12.3089V2.17398H21.1086V17.9886Z" fill="#3A3938"/>
<path d="M12.8725 10.0798C12.8725 6.87173 14.3746 4.01408 16.7136 2.17249C15.0031 0.825839 12.8444 0.0220647 10.4983 0.0220647C4.94413 0.0220647 0.441849 4.52499 0.441849 10.0798C0.441849 15.6346 4.94413 20.1375 10.4983 20.1375C12.8444 20.1375 15.0031 19.3337 16.7136 17.9871C14.3746 16.1455 12.8725 13.2879 12.8725 10.0798Z" fill="#E2E2E2"/>
<path d="M32.9766 10.0798C32.9766 15.6346 28.4743 20.1375 22.9201 20.1375C20.574 20.1375 18.4153 19.3337 16.7042 17.9871C19.0439 16.1455 20.5459 13.2879 20.5459 10.0798C20.5459 6.87173 19.0439 4.01408 16.7042 2.17249C18.4153 0.825839 20.574 0.0220647 22.9201 0.0220647C28.4743 0.0220647 32.9766 4.52499 32.9766 10.0798Z" fill="#AFAEAE"/>
</svg>
