<svg width="18" height="21" viewBox="0 0 18 21" fill="none" xmlns="http://www.w3.org/2000/svg">
<path opacity="0.68" d="M15.5371 5.17688C15.7804 3.62585 15.5355 2.57072 14.6966 1.61468C13.7731 0.562381 12.1047 0.111572 9.97005 0.111572H3.77366C3.33747 0.111572 2.96586 0.428966 2.89804 0.860078L0.317662 17.2216C0.266896 17.5445 0.516465 17.8363 0.842997 17.8363H4.66838L4.40439 19.5106C4.35992 19.793 4.57801 20.0483 4.86393 20.0483H8.08843C8.47 20.0483 8.7949 19.7707 8.8544 19.3936L8.88608 19.2295L9.49346 15.3778L9.53265 15.1649C9.59215 14.7881 9.91705 14.5101 10.2986 14.5101H10.7809C13.9047 14.5101 16.3506 13.2411 17.0652 9.57085C17.3639 8.03729 17.2094 6.75715 16.4197 5.85716C16.1811 5.58545 15.8838 5.36045 15.5371 5.17688Z" fill="white"/>
<path opacity="0.7" d="M15.5371 5.17688C15.7804 3.62585 15.5355 2.57072 14.6966 1.61468C13.7731 0.562381 12.1047 0.111572 9.97006 0.111572H3.77366C3.33748 0.111572 2.96586 0.428966 2.89804 0.860078L0.317662 17.2216C0.266896 17.5445 0.516465 17.8363 0.842997 17.8363H4.66838L5.62929 11.7429L5.59944 11.9339C5.66747 11.503 6.03563 11.1854 6.47202 11.1854H8.29028C11.861 11.1854 14.6571 9.73472 15.4738 5.53936C15.4982 5.41548 15.5187 5.29507 15.5371 5.17688Z" fill="white"/>
<path d="M6.66168 5.19739C6.7025 4.93828 6.86902 4.72587 7.093 4.61865C7.19474 4.56991 7.30866 4.5427 7.42786 4.5427H12.285C12.8605 4.5427 13.397 4.58047 13.8874 4.65947C14.0275 4.68201 14.164 4.708 14.2966 4.73744C14.429 4.76689 14.5577 4.79958 14.6822 4.83613C14.7446 4.85421 14.8057 4.8735 14.866 4.8934C15.1068 4.97341 15.3312 5.06763 15.5375 5.17708C15.7808 3.62606 15.5359 2.57092 14.6971 1.61488C13.7731 0.562381 12.1047 0.111572 9.97005 0.111572H3.77366C3.33747 0.111572 2.96586 0.428966 2.89804 0.860078L0.317662 17.2216C0.266896 17.5445 0.516465 17.8363 0.842997 17.8363H4.66838L5.62929 11.7429L6.66168 5.19739Z" fill="white"/>
</svg>
