<svg width="72" height="32" viewBox="0 0 72 32" fill="none" xmlns="http://www.w3.org/2000/svg">
<g clip-path="url(#clip0_1_1627)">
<path d="M35.218 19.1587H37.0084C37.914 19.1587 38.5725 19.6305 38.5725 20.451C38.5725 20.9228 38.3461 21.3125 37.9551 21.5177V21.5382C38.5108 21.7023 38.7783 22.2151 38.7783 22.7279C38.7783 23.733 37.9757 24.1843 37.0496 24.1843H35.218V19.1587ZM37.029 21.21C37.42 21.21 37.6464 20.9228 37.6464 20.5741C37.6464 20.2254 37.42 19.9587 37.0084 19.9587H36.1441V21.2305H37.029V21.21ZM37.1113 23.4048C37.5847 23.4048 37.8522 23.0972 37.8522 22.6664C37.8522 22.2561 37.5847 21.9484 37.1113 21.9484H36.1235V23.4048H37.1113ZM41.289 20.492C41.7829 20.492 42.3386 20.6561 42.6884 21.0254L42.2769 21.6407C42.0505 21.4151 41.7006 21.251 41.3302 21.251C40.6716 21.251 40.2395 21.7433 40.2395 22.3587C40.2395 22.9741 40.6716 23.4869 41.3713 23.4869C41.7624 23.4869 42.174 23.2818 42.4415 23.0356L42.7913 23.6715C42.4415 24.0407 41.8858 24.2664 41.3096 24.2664C40.116 24.2664 39.334 23.4254 39.334 22.3792C39.334 21.3536 40.0954 20.492 41.289 20.492ZM44.9522 20.492C45.9812 20.492 46.5574 21.251 46.5574 22.1946C46.5574 22.3177 46.5369 22.4202 46.5369 22.5433H44.0467C44.1085 23.1792 44.5818 23.5074 45.1374 23.5074C45.5079 23.5074 45.8783 23.3433 46.1664 23.1177L46.5163 23.7536C46.1458 24.0818 45.5696 24.2664 45.0551 24.2664C43.8615 24.2664 43.1 23.4048 43.1 22.3792C43.1206 21.2715 43.8821 20.492 44.9522 20.492ZM43.9232 19.1587H44.6229V19.9792H43.9232V19.1587ZM45.6519 21.9279C45.6519 21.4561 45.3227 21.169 44.9316 21.169C44.4789 21.169 44.1496 21.4766 44.0673 21.9279H45.6519ZM45.2198 19.1587H45.8989V19.9792H45.2198V19.1587ZM49.0887 20.5741H52.3815V24.1843H51.476V21.3331H49.9737V24.1843H49.0682V20.5741H49.0887ZM53.3487 20.5741H54.1719V20.8407C54.1719 20.9843 54.1514 21.0869 54.1514 21.0869H54.1719C54.3983 20.6972 54.8511 20.4715 55.345 20.4715C56.3328 20.4715 56.9502 21.251 56.9502 22.3587C56.9502 23.5074 56.2505 24.2459 55.3038 24.2459C54.8922 24.2459 54.5218 24.0613 54.2542 23.7331H54.2337C54.2337 23.7331 54.2542 23.8561 54.2542 24.0407V25.5587H53.3487V20.5741ZM55.1186 23.5074C55.6125 23.5074 56.0241 23.0972 56.0241 22.3997C56.0241 21.7228 55.6537 21.2715 55.1392 21.2715C54.6658 21.2715 54.2337 21.6202 54.2337 22.4202C54.2131 22.9536 54.5424 23.5074 55.1186 23.5074ZM59.4609 20.492C60.5722 20.492 61.4571 21.2715 61.4571 22.3792C61.4571 23.4869 60.5722 24.2664 59.4609 24.2664C58.3496 24.2664 57.4647 23.4869 57.4647 22.3792C57.4647 21.2715 58.3702 20.492 59.4609 20.492ZM59.4609 23.5074C60.0577 23.5074 60.5311 23.0561 60.5311 22.3792C60.5311 21.7228 60.0371 21.251 59.4609 21.251C58.8847 21.251 58.3908 21.7023 58.3908 22.3792C58.3908 23.0561 58.8641 23.5074 59.4609 23.5074ZM62.1774 20.5741H63.0418V23.4254H64.1737V20.5741H65.038V23.4254H66.1699V20.5741H67.0342V23.4254H67.5487V25.0459H66.7461V24.2048H62.2186V20.5741H62.1774ZM69.7508 20.492C70.7798 20.492 71.356 21.251 71.356 22.1946C71.356 22.3177 71.3354 22.4202 71.3354 22.5433H68.8453C68.907 23.1792 69.3803 23.5074 69.936 23.5074C70.3064 23.5074 70.6769 23.3433 70.965 23.1177L71.3148 23.7536C70.9444 24.0818 70.3682 24.2664 69.8537 24.2664C68.66 24.2664 67.8986 23.4048 67.8986 22.3792C67.8986 21.2715 68.66 20.492 69.7508 20.492ZM70.4505 21.9279C70.4505 21.4561 70.1212 21.169 69.7302 21.169C69.2774 21.169 68.9482 21.4766 68.8658 21.9279H70.4505Z" fill="#6C6C6C"/>
<path d="M50.7146 4.75895V15.1179C50.7146 15.282 50.5911 15.4051 50.4264 15.4051H48.3067C48.1421 15.4051 48.0186 15.282 48.0186 15.1179V4.75895C48.0186 4.59485 48.1421 4.47177 48.3067 4.47177H50.4264C50.5911 4.47177 50.7146 4.61536 50.7146 4.75895ZM67.2606 4.47177H64.894C64.7705 4.47177 64.6676 4.55382 64.6264 4.6769L62.7537 10.8102L60.6957 4.6769C60.6546 4.55382 60.5517 4.49228 60.4282 4.49228H58.7406C58.6172 4.49228 58.5143 4.57433 58.4731 4.6769L56.4151 10.8102L54.5424 4.6769C54.5012 4.55382 54.3983 4.47177 54.2748 4.47177H51.9082C51.8259 4.47177 51.723 4.51279 51.6818 4.59485C51.6201 4.6769 51.6201 4.75895 51.6406 4.841L55.1392 15.2205C55.1804 15.3436 55.2832 15.4051 55.4067 15.4051H57.3001C57.4235 15.4051 57.5264 15.3231 57.5676 15.2205L59.605 9.16921L61.6424 15.2205C61.6835 15.3436 61.7864 15.4051 61.9099 15.4051H63.8033C63.9267 15.4051 64.0296 15.3231 64.0708 15.2205L67.5693 4.841C67.5899 4.75895 67.5899 4.65638 67.5282 4.59485C67.4459 4.53331 67.3635 4.47177 67.2606 4.47177ZM70.8415 4.47177H68.7218C68.5572 4.47177 68.4337 4.59485 68.4337 4.75895V15.1179C68.4337 15.282 68.5572 15.4051 68.7218 15.4051H70.8415C71.0061 15.4051 71.1296 15.282 71.1296 15.1179V4.75895C71.1296 4.61536 71.0061 4.47177 70.8415 4.47177ZM46.8044 15.0564C46.9279 15.2 46.825 15.4051 46.6398 15.4051H44.0467C43.9438 15.4051 43.8409 15.3641 43.7792 15.282L43.347 14.7487C42.4415 15.3231 41.3714 15.6718 40.2395 15.6718C37.0702 15.6718 34.4977 13.1077 34.4977 9.94869C34.4977 6.78972 37.0702 4.22562 40.2395 4.22562C43.4088 4.22562 45.9812 6.78972 45.9812 9.94869C45.9812 11.0769 45.6519 12.1436 45.0757 13.0461L46.8044 15.0564ZM41.6389 12.7384L40.507 11.3641C40.3835 11.2205 40.4864 10.9948 40.6717 10.9948H43.0589C43.1824 10.6666 43.2441 10.2974 43.2441 9.92818C43.2441 8.22561 41.9682 6.74869 40.2189 6.74869C38.4696 6.74869 37.1937 8.22561 37.1937 9.92818C37.1937 11.6307 38.4696 13.0872 40.2189 13.0872C40.7334 13.1077 41.2067 12.9846 41.6389 12.7384ZM25.916 21.4564C25.9983 22.0718 25.8131 22.3384 25.6073 22.3384C25.4015 22.3384 25.1134 22.0923 24.8047 21.6C24.496 21.1077 24.3725 20.5538 24.5372 20.2666C24.6401 20.082 24.8459 20 25.134 20.1025C25.6485 20.2666 25.8543 21.0872 25.916 21.4564ZM23.0143 22.7897C23.6522 23.3231 23.8375 23.9589 23.5082 24.3897C23.323 24.6359 23.0143 24.759 22.6644 24.759C22.3146 24.759 21.9441 24.6359 21.6972 24.4102C21.1209 23.9179 20.9563 23.0974 21.3267 22.6461C21.4708 22.4615 21.7177 22.3589 21.9853 22.3589C22.3351 22.3795 22.685 22.5436 23.0143 22.7897ZM21.9441 27.9179C24.6606 27.9179 27.6035 28.841 30.8551 31.7333C31.1844 32.0205 31.6166 31.6718 31.3285 31.3025C28.118 27.2615 25.1546 26.5025 22.2117 25.8461C18.5896 25.0461 16.7375 23.0154 15.4409 20.8C15.1734 20.3487 15.0705 20.4307 15.0499 21.0051C15.0293 21.7025 15.0705 22.6256 15.2351 23.5282C15.0911 23.5282 14.947 23.5282 14.803 23.5282C9.63745 23.5282 5.43919 19.3436 5.43919 14.1948C5.43919 9.04613 9.63745 4.86152 14.803 4.86152C19.9685 4.86152 24.1667 9.04613 24.1667 14.1948C24.1667 14.5641 24.1461 14.9333 24.105 15.282C23.4259 15.1589 22.0676 15.1384 21.1209 15.2205C20.7711 15.241 20.8122 15.4256 21.0798 15.4666C24.1667 16.0205 26.307 17.9282 26.7803 21.4154C26.8009 21.4974 26.9038 21.5179 26.945 21.4564C28.2209 19.3436 28.9412 16.8615 28.9412 14.2154C28.9412 6.42049 22.6027 0.102539 14.7824 0.102539C6.96209 0.102539 0.623535 6.42049 0.623535 14.2154C0.623535 22.0102 6.96209 28.3282 14.7824 28.3282C16.8609 28.3282 18.9189 27.9179 21.9441 27.9179Z" fill="#FF8C00"/>
</g>
<defs>
<clipPath id="clip0_1_1627">
<rect width="71" height="32" fill="white" transform="translate(0.5)"/>
</clipPath>
</defs>
</svg>
