<svg width="33" height="23" viewBox="0 0 33 23" fill="none" xmlns="http://www.w3.org/2000/svg">
<path d="M16.5 13.2424C21.3638 13.2424 25.4375 15.2314 25.4375 19.5152C25.4375 21.651 24.1623 23 22.4297 23H10.5703C8.77203 23 7.56252 22.0049 7.56252 19.8636C7.56252 15.3145 11.5831 13.2424 16.5 13.2424ZM6.57044 13.2431C7.09542 13.2627 7.52943 13.6843 7.56073 14.2268C7.59399 14.8032 7.16004 15.2978 6.59147 15.3315C3.92214 15.4898 2.0625 16.7165 2.0625 18.8182C2.0625 19.3409 2.29166 19.5152 2.75 19.5152H4.46875L4.56806 19.5199C5.09101 19.5706 5.49999 20.0172 5.49999 20.5606C5.49999 21.138 5.03829 21.6061 4.46875 21.6061H2.75L2.61524 21.6034C1.18518 21.5472 0 20.5923 0 18.8182C0 15.3387 2.84987 13.459 6.47102 13.2442L6.57044 13.2431ZM26.4296 13.2431L26.529 13.2442C30.1501 13.459 33 15.3387 33 18.8182C33 20.5923 31.8148 21.5472 30.3848 21.6034L30.25 21.6061H28.5313C27.9617 21.6061 27.5 21.138 27.5 20.5606C27.5 20.0172 27.909 19.5706 28.4319 19.5199L28.5313 19.5152H30.25C30.7083 19.5152 30.9375 19.3409 30.9375 18.8182C30.9375 16.7165 29.0779 15.4898 26.4085 15.3315C25.84 15.2978 25.406 14.8032 25.4393 14.2268C25.4706 13.6843 25.9046 13.2627 26.4296 13.2431ZM16.5 15.3333C12.5744 15.3333 9.62502 16.8533 9.62502 19.8636C9.62502 20.6662 9.79369 20.8748 10.3886 20.905L10.5703 20.9091H22.4297C23.0031 20.9091 23.375 20.5157 23.375 19.5152C23.375 16.8024 20.3661 15.3333 16.5 15.3333ZM8.24976 1.39394C8.39544 1.39394 8.54048 1.40053 8.68455 1.41365C9.25181 1.46529 9.67037 1.97334 9.61943 2.54841C9.56849 3.12349 9.06734 3.54782 8.50008 3.49618C8.41733 3.48864 8.33384 3.48485 8.24976 3.48485C6.73098 3.48485 5.49976 4.73302 5.49976 6.27273C5.49976 7.81243 6.73098 9.06061 8.24976 9.06061C8.41495 9.06061 8.57781 9.04596 8.73727 9.01711C8.8226 9.00168 8.90691 8.98218 8.98999 8.95872L9.09898 8.93239C9.61572 8.83649 10.1294 9.15302 10.2756 9.67583C10.431 10.2313 10.1128 10.8093 9.56484 10.9668L9.32294 11.0295L9.09957 11.0755C8.82066 11.126 8.53656 11.1515 8.24976 11.1515C5.59189 11.1515 3.43726 8.96721 3.43726 6.27273C3.43726 3.57825 5.59189 1.39394 8.24976 1.39394ZM24.7525 1.39394C27.4104 1.39394 29.565 3.57825 29.565 6.27273C29.565 8.96721 27.4104 11.1515 24.7525 11.1515C24.4657 11.1515 24.1816 11.126 23.9027 11.0755L23.6793 11.0295L23.4374 10.9668C22.8895 10.8093 22.5712 10.2313 22.7266 9.67583C22.8729 9.15302 23.3865 8.83649 23.9033 8.93239L24.0123 8.95872C24.0953 8.98218 24.1796 9.00168 24.265 9.01711C24.4244 9.04596 24.5873 9.06061 24.7525 9.06061C26.2713 9.06061 27.5025 7.81243 27.5025 6.27273C27.5025 4.73302 26.2713 3.48485 24.7525 3.48485C24.6684 3.48485 24.5849 3.48864 24.5022 3.49618C23.9349 3.54782 23.4338 3.12349 23.3828 2.54841C23.3319 1.97334 23.7504 1.46529 24.3177 1.41365C24.4618 1.40053 24.6068 1.39394 24.7525 1.39394ZM16.5 0C19.5376 0 22 2.49635 22 5.57576C22 8.65516 19.5376 11.1515 16.5 11.1515C13.4625 11.1515 11 8.65516 11 5.57576C11 2.49635 13.4625 0 16.5 0ZM16.5 2.09091C14.6015 2.09091 13.0625 3.65113 13.0625 5.57576C13.0625 7.50039 14.6015 9.06061 16.5 9.06061C18.3985 9.06061 19.9375 7.50039 19.9375 5.57576C19.9375 3.65113 18.3985 2.09091 16.5 2.09091Z" fill="#F59502"/>
</svg>
