<svg width="27" height="27" viewBox="0 0 27 27" fill="none" xmlns="http://www.w3.org/2000/svg">
<path fill-rule="evenodd" clip-rule="evenodd" d="M13.4855 27C7.37277 27 2.20791 22.9465 0.53826 17.3831C0.541121 17.373 0.543965 17.3628 0.54679 17.3527L5.30513 19.2768C5.55629 20.3768 6.32628 21.3417 7.46228 21.8058C9.3209 22.5668 11.4639 21.6995 12.2371 19.8772C12.4383 19.4009 12.5321 18.9013 12.5185 18.4028L17.1292 15.1738C17.1665 15.1749 17.2049 15.176 17.2422 15.176C20.0014 15.176 22.244 12.9716 22.244 10.2645C22.244 7.55723 20.0014 5.35483 17.2422 5.35483C14.4842 5.35483 12.2405 7.55723 12.2405 10.2645C12.2405 10.2862 12.2405 10.308 12.2416 10.3283L9.01922 14.9157C8.49722 14.8924 7.97342 14.9822 7.47675 15.1827C7.2578 15.2702 7.05264 15.3776 6.86015 15.5017L0.101425 12.775C0.0684742 12.7185 0.0346559 12.6612 0 12.6031C0.462857 5.56559 6.32328 0 13.4855 0C20.9492 0 27 6.04418 27 13.5C27 20.9557 20.9492 27 13.4855 27ZM7.78285 21.0503C9.21793 21.6363 10.8689 20.9683 11.4673 19.5604C11.7567 18.8803 11.7578 18.127 11.4718 17.4446C11.1859 16.7623 10.6462 16.2284 9.95073 15.9448C9.26088 15.6634 8.52254 15.6723 7.87305 15.9138L9.55624 16.5972C10.614 17.0292 11.1146 18.2212 10.6734 19.2591C10.2334 20.296 9.01922 20.7878 7.96088 20.3558L6.33261 19.6945C6.62097 20.2849 7.1208 20.78 7.78285 21.0503ZM13.91 10.2645C13.91 12.0688 15.4054 13.5366 17.2422 13.5366C19.0802 13.5366 20.5756 12.0688 20.5756 10.2645C20.5756 8.46169 19.0802 6.9935 17.2422 6.9935C15.4054 6.9935 13.91 8.46169 13.91 10.2645ZM17.2479 7.80137C15.8666 7.80137 14.7453 8.90224 14.7453 10.2595C14.7453 11.617 15.8666 12.7168 17.2479 12.7168C18.6303 12.7168 19.7516 11.617 19.7516 10.2595C19.7516 8.90224 18.6303 7.80137 17.2479 7.80137Z" fill="#B0B0B0"/>
</svg>
