<svg width="48" height="15" viewBox="0 0 48 15" fill="none" xmlns="http://www.w3.org/2000/svg">
<path d="M21.2114 13.8819H17.4288L19.7947 0.321564H23.577L21.2114 13.8819Z" fill="white"/>
<path d="M34.9236 0.653152C34.1775 0.378779 32.9941 0.0758362 31.5309 0.0758362C27.7955 0.0758362 25.1651 1.92225 25.149 4.56206C25.118 6.50971 27.0323 7.59148 28.4641 8.24089C29.9275 8.90449 30.4249 9.33762 30.4249 9.92912C30.41 10.8376 29.2424 11.2563 28.1534 11.2563C26.6432 11.2563 25.8341 11.0404 24.6044 10.535L24.1063 10.3183L23.577 13.3623C24.4641 13.737 26.0986 14.0695 27.7955 14.084C31.7644 14.084 34.3483 12.2662 34.3789 9.45304C34.394 7.90938 33.3832 6.72656 31.2039 5.76003C29.8809 5.13957 29.0707 4.7212 29.0707 4.08637C29.0862 3.50924 29.756 2.91812 31.2494 2.91812C32.4791 2.88917 33.3826 3.16316 34.067 3.43734L34.4091 3.58134L34.9236 0.653152Z" fill="white"/>
<path d="M39.9507 9.07793C40.2622 8.29891 41.4609 5.28387 41.4609 5.28387C41.4452 5.31282 41.7718 4.49047 41.9585 3.98563L42.2229 5.15407C42.2229 5.15407 42.9392 8.39995 43.0947 9.07793C42.5036 9.07793 40.6978 9.07793 39.9507 9.07793ZM44.6198 0.321564H41.694C40.7917 0.321564 40.1063 0.566602 39.717 1.44667L34.0985 13.8817H38.0674C38.0674 13.8817 38.7208 12.208 38.8613 11.8476C39.2967 11.8476 43.1576 11.8476 43.7177 11.8476C43.8263 12.3236 44.1691 13.8817 44.1691 13.8817H47.6713L44.6198 0.321564Z" fill="white"/>
<path d="M14.2696 0.321564L10.5652 9.56839L10.1604 7.69303C9.47557 5.5291 7.32771 3.17804 4.93081 2.00903L8.32387 13.8675H12.3238L18.2693 0.321564H14.2696Z" fill="white"/>
<path d="M7.12548 0.320343H1.03975L0.977489 0.594333C5.72474 1.71963 8.86876 4.43211 10.1605 7.69238L8.83752 1.46021C8.61972 0.594141 7.95037 0.348912 7.12548 0.320343Z" fill="#AFAEAE"/>
</svg>
