<svg width="19" height="23" viewBox="0 0 19 23" fill="none" xmlns="http://www.w3.org/2000/svg">
<path d="M7.8963 15.7261C7.8963 15.7261 3.33036 16.0327 4.25152 12.1575C4.25152 12.1575 0.791901 12.6646 1.00988 7.85546C1.00988 7.85546 1.34272 4.03218 4.71795 4.65249C4.71795 4.65249 4.91719 0.324458 9.86519 1.091C9.86519 1.091 13.5451 1.52263 13.4795 5.80349C13.4795 5.80349 17.7946 4.75391 17.9915 9.70461C17.9915 9.70461 18.3361 13.5043 14.6304 13.5633C14.6304 13.5633 15.5375 17.6602 10.3387 16.903" stroke="black" stroke-width="0.75" stroke-miterlimit="10"/>
<path d="M7.89606 21.8113H10.3361V16.3582L13.6597 13.0137C13.9504 12.7213 13.9504 12.2495 13.6597 11.9571L12.7784 11.0702C12.4878 10.7778 12.019 10.7778 11.7284 11.0702L10.6595 12.1458C10.5775 12.2283 10.4392 12.1694 10.4392 12.0538V9.40744C10.4392 8.99468 10.1064 8.65976 9.69619 8.65976H8.63674C8.22655 8.65976 7.89372 8.99468 7.89372 9.40744V10.8768C7.89372 10.9806 7.78121 11.0443 7.69449 10.9901L7.35462 10.7849C7.02881 10.5891 6.60691 10.6716 6.37955 10.9783L6.02327 11.4571C5.80295 11.7542 5.83108 12.1694 6.0936 12.4335L7.92185 14.2732L7.89606 21.8113Z" stroke="black" stroke-width="0.75" stroke-miterlimit="10"/>
</svg>
