<svg width="28" height="22" viewBox="0 0 28 22" fill="none" xmlns="http://www.w3.org/2000/svg">
<path d="M24.1973 10.0217H19.3117C19.0906 10.0217 18.9113 10.2021 18.9113 10.4246V12.6235C18.9113 12.8461 19.0906 13.0265 19.3117 13.0265H24.1973C24.4185 13.0265 24.5978 12.8461 24.5978 12.6235V10.4246C24.5978 10.2021 24.4185 10.0217 24.1973 10.0217Z" stroke="black" stroke-width="0.75" stroke-miterlimit="10"/>
<path d="M21.7551 10.0217V13.0265" stroke="black" stroke-width="0.75" stroke-miterlimit="10"/>
<path d="M18.9113 14.7802C18.9113 14.5564 19.0917 14.3756 19.3133 14.3756H24.1949C24.4173 14.3756 24.597 14.5572 24.597 14.7802V16.9894C24.597 17.2132 24.4165 17.394 24.1949 17.394H19.3133C19.0909 17.394 18.9113 17.2124 18.9113 16.9894V14.7802Z" stroke="black" stroke-width="0.75" stroke-miterlimit="10"/>
<path d="M21.7551 14.4314V17.3948" stroke="black" stroke-width="0.75" stroke-miterlimit="10"/>
<path d="M9.83166 8.30222H2.43481V19.115H9.83166V8.30222Z" stroke="black" stroke-width="0.75" stroke-miterlimit="10"/>
<path d="M25.5703 8.30222H18.1735V19.115H25.5703V8.30222Z" stroke="black" stroke-width="0.75" stroke-miterlimit="10"/>
<path d="M5.47387 17.0595C5.47387 17.0595 3.93213 17.163 4.24317 15.8545C4.24317 15.8545 3.075 16.0257 3.1486 14.4019C3.1486 14.4019 3.26099 13.1109 4.40067 13.3204C4.40067 13.3204 4.46794 11.859 6.13868 12.1178C6.13868 12.1178 7.38125 12.2635 7.35909 13.709C7.35909 13.709 8.81614 13.3546 8.88262 15.0263C8.88262 15.0263 8.99896 16.3093 7.74769 16.3292C7.74769 16.3292 8.05398 17.7125 6.29855 17.4569" stroke="black" stroke-width="0.75" stroke-miterlimit="10"/>
<path d="M5.47401 19.1142H6.29791V17.2729L7.42018 16.1436C7.51832 16.0449 7.51832 15.8856 7.42018 15.7868L7.12259 15.4874C7.02445 15.3886 6.86616 15.3886 6.76803 15.4874L6.40713 15.8505C6.37943 15.8784 6.33273 15.8585 6.33273 15.8195V14.9259C6.33273 14.7866 6.22035 14.6735 6.08184 14.6735H5.72411C5.58561 14.6735 5.47322 14.7866 5.47322 14.9259V15.4221C5.47322 15.4571 5.43523 15.4786 5.40595 15.4603L5.29119 15.391C5.18118 15.3249 5.03872 15.3528 4.96195 15.4563L4.84165 15.618C4.76725 15.7183 4.77675 15.8585 4.86539 15.9477L5.48272 16.5689L5.47401 19.1142Z" stroke="black" stroke-width="0.75" stroke-miterlimit="10"/>
<path d="M6.27905 12.1441V11.5046V10.0623" stroke="black" stroke-width="0.75" stroke-miterlimit="10"/>
<path d="M7.32215 13.0671H8.68739C8.92799 13.0671 9.12269 12.8712 9.12269 12.6291V10.5003C9.12269 10.2582 8.92799 10.0623 8.68739 10.0623H3.87145C3.63085 10.0623 3.43616 10.2582 3.43616 10.5003V12.6291C3.43616 12.8712 3.63085 13.0671 3.87145 13.0671H4.45158" stroke="black" stroke-width="0.75" stroke-miterlimit="10"/>
<path d="M2.05239 6.45618H9.83229V8.30224H2.05239C1.83078 8.30224 1.65112 8.12146 1.65112 7.89847V6.86075C1.65112 6.63776 1.83078 6.45697 2.05239 6.45697V6.45618Z" stroke="black" stroke-width="0.75" stroke-miterlimit="10"/>
<path d="M18.1735 6.45618H25.9177C26.1591 6.45618 26.3546 6.65289 26.3546 6.89579V7.86263C26.3546 8.10553 26.1591 8.30224 25.9177 8.30224H18.1735V6.45618Z" stroke="black" stroke-width="0.75" stroke-miterlimit="10"/>
<path d="M27.1826 19.1142H1V21.0654H27.1826V19.1142Z" stroke="black" stroke-width="0.75" stroke-miterlimit="10"/>
<path d="M18.1737 4.08847H9.83191V19.1142H18.1737V4.08847Z" stroke="black" stroke-width="0.75" stroke-miterlimit="10"/>
<path d="M16.3952 5.72028H11.5808C11.3618 5.72028 11.1843 5.89891 11.1843 6.11927V7.7312C11.1843 7.95156 11.3618 8.13019 11.5808 8.13019H16.3952C16.6142 8.13019 16.7917 7.95156 16.7917 7.7312V6.11927C16.7917 5.89891 16.6142 5.72028 16.3952 5.72028Z" stroke="black" stroke-width="0.75" stroke-miterlimit="10"/>
<path d="M16.3952 9.48645H11.5808C11.3618 9.48645 11.1843 9.66509 11.1843 9.88545V11.4974C11.1843 11.7177 11.3618 11.8964 11.5808 11.8964H16.3952C16.6142 11.8964 16.7917 11.7177 16.7917 11.4974V9.88545C16.7917 9.66509 16.6142 9.48645 16.3952 9.48645Z" stroke="black" stroke-width="0.75" stroke-miterlimit="10"/>
<path d="M11.7763 19.1142V13.9025C11.7763 13.6588 11.9726 13.4613 12.2148 13.4613H15.7889C16.0311 13.4613 16.2274 13.6588 16.2274 13.9025V19.1142H11.7755H11.7763Z" stroke="black" stroke-width="0.75" stroke-miterlimit="10"/>
<path d="M11.9536 2.25434V1.42687C11.9536 1.19114 12.1436 1 12.3778 1H15.804C16.0383 1 16.2282 1.19114 16.2282 1.42687V2.25434H11.9536Z" stroke="black" stroke-width="0.75" stroke-miterlimit="10"/>
<path d="M18.4435 2.2543H9.353C9.09467 2.2543 8.88525 2.46503 8.88525 2.72498V3.61775C8.88525 3.87769 9.09467 4.08842 9.353 4.08842H18.4435C18.7019 4.08842 18.9113 3.87769 18.9113 3.61775V2.72498C18.9113 2.46503 18.7019 2.2543 18.4435 2.2543Z" stroke="black" stroke-width="0.75" stroke-miterlimit="10"/>
</svg>
