<svg width="680" height="129" viewBox="0 0 680 129" fill="none" xmlns="http://www.w3.org/2000/svg">
<g clip-path="url(#clip0_103_329)">
<path d="M131.082 117.582L109.19 79.2288H119.546L135.626 107.663L148.779 79.2288H158.13L139.821 118.01C135.757 126.562 131.956 128.785 126.887 128.785C124.921 128.785 122.954 128.4 121.075 127.673V118.566C122.561 119.849 124.527 120.533 126.494 120.533C128.373 120.533 129.946 119.806 131.082 117.582Z" fill="#101010"/>
<path d="M203.415 107.021H176.018V128.229H167.06V79.2288H176.018V98.9828H203.415V79.2288H212.373V128.229H203.415V107.021Z" fill="#101010"/>
<path d="M235.735 115.829L263.045 79.2288H272.789V128.229H263.831V91.0726L236.39 128.229H226.821V79.2288H235.779V115.829H235.735Z" fill="#101010"/>
<path d="M287.253 128.229V79.2288H309.014C320.156 79.2288 325.88 83.2907 325.88 91.4147C325.88 97.016 323.608 100.736 318.452 102.703C324.613 103.772 327.41 107.62 327.41 113.991C327.41 124.124 319.981 128.272 307.79 128.272L287.253 128.229ZM307.703 99.9662C313.34 99.9662 316.923 97.5291 316.923 93.296C316.923 89.3623 314.257 87.2672 307.921 87.2672H296.211V99.9235H307.703V99.9662ZM308.358 120.191C315.218 120.191 318.365 118.01 318.365 113.349C318.365 108.689 314.782 106.807 308.489 106.807H296.167V120.148L308.358 120.191Z" fill="#101010"/>
<path d="M370.976 107.021H347.948V120.148H374.428V128.186H339.034V79.2288H373.642V87.2672H347.948V98.9401H370.976V107.021Z" fill="#101010"/>
<path d="M395.405 112.965V128.229H386.448V79.2288H403.14C418.958 79.2288 425.687 84.7445 425.687 95.8188C425.687 107.235 417.822 112.965 403.14 112.965H395.405ZM395.405 87.2672V104.926H403.795C412.097 104.926 416.38 102.275 416.38 95.605C416.38 89.5761 412.665 87.2672 403.926 87.2672H395.405Z" fill="#101010"/>
<path d="M478.34 122.842C475.849 125.792 469.251 128.999 460.599 128.999C444.301 128.914 433.42 119.464 433.42 103.644C433.42 88.8926 444.17 78.4597 460.731 78.4597C468.596 78.4597 474.407 80.8541 477.335 82.8638V95.0497C473.534 89.7478 467.372 86.5409 460.731 86.4982C449.806 86.4982 443.077 93.4249 443.077 103.73C443.077 113.264 449.02 120.747 460.556 120.961C469.295 120.961 475.412 117.027 478.384 112.067L478.34 122.842Z" fill="#101010"/>
<path d="M497.918 115.829L525.228 79.2288H534.972V128.229H526.014V91.0726L498.529 128.229H488.96V79.2288H497.918V115.829Z" fill="#101010"/>
<path d="M586.362 87.2672H569.495V128.229H560.537V87.2672H543.933V79.2288H586.362V87.2672Z" fill="#101010"/>
<path d="M627.278 107.021H604.25V120.148H630.73V128.186H595.336V79.2288H629.943V87.2672H604.25V98.9401H627.278V107.021Z" fill="#101010"/>
<path d="M680.013 87.2672H663.146V128.229H654.189V87.2672H637.584V79.2288H680.013V87.2672Z" fill="#101010"/>
<path d="M242.088 24.3283L253.405 16.1616H215.608V65.1192H253.405V56.9952H226.401V44.4245H249.429V36.3005H226.401V24.3283H242.088Z" fill="#101010"/>
<path d="M187.015 35.2743H173.906V24.3283H194.88L206.197 16.1616H163.113V65.1192H185.66C198.288 65.1192 205.542 59.5179 205.542 49.7264C205.542 40.4052 198.944 35.2743 187.015 35.2743ZM185.136 56.9952H173.906V43.441H185.179C192.04 43.441 195.229 45.7072 195.229 50.2395C195.186 54.8146 191.821 56.9952 185.136 56.9952Z" fill="#101010"/>
<path d="M284.022 16.1616H263.441V65.1192H274.234V51.2657H284.022C297.175 51.2657 305.346 44.51 305.346 33.6923C305.346 22.8746 297.175 16.1616 284.022 16.1616ZM283.804 43.099H274.234V24.3283H283.804C290.708 24.3283 294.509 27.6634 294.509 33.735C294.509 39.8066 290.708 43.099 283.804 43.099Z" fill="#101010"/>
<path d="M144.584 54.5173C141.744 56.0138 138.51 56.8262 135.277 56.7834C125.532 56.7834 118.497 49.985 118.497 40.621C118.497 31.2571 125.576 24.4586 135.277 24.4586C138.772 24.4159 142.224 25.442 145.108 27.4516L152.843 21.8504L152.318 21.4228C147.817 17.5319 141.744 15.4795 134.84 15.4795C127.368 15.4795 120.551 17.9594 115.701 22.449C110.851 26.9386 108.098 33.3522 108.098 40.3645C108.098 47.3767 110.763 53.8759 115.657 58.4937C120.551 63.1116 127.324 65.7198 134.752 65.7198C142.53 65.7198 149.303 63.0688 153.935 58.2372L146.944 53.1918L144.584 54.5173Z" fill="#101010"/>
<path d="M91.1965 40.6644C91.1965 38.2272 90.9781 35.79 90.5411 33.3956L81.5834 39.852C81.5834 40.1085 81.5834 40.4078 81.5834 40.7071C81.5834 57.9812 67.2947 72.0058 49.6415 72.0485C31.9882 72.0913 17.6559 58.0668 17.6122 40.7926C17.6122 23.433 31.9008 9.40849 49.5978 9.40849C56.0648 9.40849 62.3571 11.2898 67.688 14.8815L75.7718 9.06643C57.9 -5.08636 31.726 -2.34987 17.3063 15.138C2.88656 32.6259 5.68311 58.195 23.5549 72.3051C41.4266 86.4151 67.6006 83.6786 81.9766 66.1907C87.963 58.9647 91.1965 49.9428 91.1965 40.6644Z" fill="#101010"/>
<path d="M83.0809 15.5874C85.0472 18.0673 86.7077 20.8038 88.0622 23.6686L50.2213 50.9908L34.4033 41.2848V29.6119L50.2213 39.3179L83.0809 15.5874Z" fill="#101010"/>
</g>
<defs>
<clipPath id="clip0_103_329">
<rect width="680" height="129" fill="white"/>
</clipPath>
</defs>
</svg>
