<svg width="57" height="67" viewBox="0 0 57 67" fill="none" xmlns="http://www.w3.org/2000/svg">
<path fill-rule="evenodd" clip-rule="evenodd" d="M28.9372 0.010914C38.4772 0.010914 46.2585 7.55391 46.6417 17L46.6564 17.7303V22.9974C52.5952 25.0584 56.8583 30.7024 56.8583 37.344V51.6805C56.8583 60.0668 50.0612 66.8626 41.6762 66.8626H16.1353C7.75023 66.8626 0.953125 60.0668 0.953125 51.6805V37.344C0.953125 30.7026 5.21602 25.0587 11.1545 22.9976L11.1546 17.6524C11.1974 7.86528 19.163 -0.031721 28.9372 0.010914ZM41.6425 17.7303V22.1619H16.1685V17.6634L16.1878 17.0106C16.5574 10.3079 22.1295 4.99518 28.9263 5.02481C35.9526 5.02484 41.6425 10.7148 41.6425 17.7303ZM41.6777 27.1758H16.1368C10.5207 27.1758 5.96857 31.7271 5.96857 37.3441V51.6805C5.96857 57.2975 10.5207 61.8488 16.1368 61.8488H41.6777C47.2938 61.8488 51.8459 57.2975 51.8459 51.6805V37.3441C51.8459 31.7271 47.2938 27.1758 41.6777 27.1758ZM31.3925 40.4605C31.2265 39.2368 30.1776 38.2937 28.9084 38.2937C27.5238 38.2937 26.4014 39.4161 26.4014 40.8007V48.2246L26.4243 48.5648C26.5903 49.7884 27.6392 50.7316 28.9084 50.7316C30.2929 50.7316 31.4153 49.6092 31.4153 48.2246V40.8007L31.3925 40.4605Z" fill="white"/>
</svg>
