<svg width="30" height="18" viewBox="0 0 30 18" fill="none" xmlns="http://www.w3.org/2000/svg">
<path d="M23.8448 2.909H6.78454C6.22397 2.909 5.76953 3.36343 5.76953 3.92401V13.798C5.76953 14.3586 6.22397 14.813 6.78454 14.813H23.8448C24.4054 14.813 24.8598 14.3586 24.8598 13.798V3.92401C24.8598 3.36343 24.4054 2.909 23.8448 2.909Z" stroke="black" stroke-width="0.75" stroke-miterlimit="10"/>
<path d="M15.1826 14.7886V2.88461" stroke="black" stroke-width="0.75" stroke-miterlimit="10"/>
<path d="M15.1824 12.1171C17.0592 12.1171 18.5807 10.5957 18.5807 8.7189C18.5807 6.84209 17.0592 5.32065 15.1824 5.32065C13.3056 5.32065 11.7842 6.84209 11.7842 8.7189C11.7842 10.5957 13.3056 12.1171 15.1824 12.1171Z" stroke="black" stroke-width="0.75" stroke-miterlimit="10"/>
<path d="M5.76953 5.32065H8.37608C8.72321 5.32065 9.00336 5.60079 9.00336 5.94792V11.4899C9.00336 11.837 8.72321 12.1171 8.37608 12.1171H5.76953" stroke="black" stroke-width="0.75" stroke-miterlimit="10"/>
<path d="M24.7543 12.1171H22.2574C21.8494 12.1171 21.5205 11.7862 21.5205 11.3802V6.05755C21.5205 5.64951 21.8514 5.32065 22.2574 5.32065H24.7543" stroke="black" stroke-width="0.75" stroke-miterlimit="10"/>
<rect x="0.375" y="0.375" width="29.25" height="17.1346" rx="8.56731" stroke="black" stroke-width="0.75"/>
</svg>
