<svg width="21" height="21" viewBox="0 0 21 21" fill="none" xmlns="http://www.w3.org/2000/svg">
<path d="M10.4929 0.036377C12.0533 0.036377 13.5378 0.399382 14.87 1.04873C15.0789 1.14445 15.2892 1.259 15.4974 1.37365L14.584 2.19527L13.2146 0.762489L10.855 2.86367L9.46552 1.35432L5.12657 5.27062L7.9045 8.34627L6.82003 9.30119L9.56075 12.3768L8.47617 13.3314L12.3966 17.7061L14.7169 15.5664L16.7351 17.8594C16.3351 18.1651 15.8974 18.4714 15.4222 18.7384C13.9757 19.5597 12.3008 20.0364 10.5122 20.0364C5.01198 20.0364 0.54059 15.5481 0.54059 10.0278C0.521167 4.54481 4.99335 0.036377 10.4929 0.036377ZM8.66576 9.41605L11.0446 7.27639L13.1764 9.6642L10.7971 11.8037L8.66576 9.41605ZM10.3599 13.5424L12.7194 11.3838L14.87 13.7714L12.4911 15.9112L10.3599 13.5424ZM6.97309 5.34729L9.35124 3.20763L11.4826 5.59544L9.10364 7.735L6.97309 5.34729ZM11.3301 4.20074L13.1001 2.59617L14.699 4.37283L12.929 5.99635L11.3301 4.20074ZM14.4895 11.5554L16.2588 9.95073L17.8576 11.7459L16.0876 13.3516L14.4895 11.5554ZM16.0497 15.1662L17.8197 13.5613L19.4173 15.3378L17.6479 16.9611L16.0497 15.1662ZM16.773 6.91338L17.9527 5.8435L19.018 7.02833L17.8385 8.09781L16.773 6.91338ZM15.2505 3.37931L16.4303 2.29068L17.4964 3.49397L16.3158 4.56375L15.2505 3.37931ZM18.2762 10.4477L19.4559 9.37796L20.5405 10.5624L19.3421 11.6319L18.2762 10.4477ZM12.9669 7.79233L14.737 6.18766L16.3351 7.96392L14.5658 9.56889L12.9669 7.79233Z" fill="white"/>
</svg>
