<svg width="63" height="15" viewBox="0 0 63 15" fill="none" xmlns="http://www.w3.org/2000/svg">
<path d="M9.75175 4.71804C9.75175 6.19469 9.28864 7.32562 8.36535 8.10789C7.44207 8.89017 6.12895 9.28277 4.426 9.28277H3.17443V14.1639H0.263885V0.43457H4.65169C6.31654 0.43457 7.58276 0.792014 8.45035 1.50983C9.31795 2.22765 9.75175 3.29705 9.75175 4.71804ZM3.17443 6.89493H4.13289C5.02687 6.89493 5.69808 6.71913 6.1436 6.36462C6.58913 6.01011 6.80896 5.49738 6.80896 4.82058C6.80896 4.13792 6.62137 3.63398 6.24912 3.30877C5.87688 2.98355 5.2936 2.81948 4.49635 2.81948H3.17443V6.89493Z" fill="#AFAEAE"/>
<path d="M18.4129 14.1642L17.4163 10.8974H12.4101L11.4135 14.1642H8.27725L13.1252 0.38208H16.6865L21.552 14.1642H18.4129ZM16.7217 8.45679C15.8013 5.49763 15.2825 3.82174 15.1682 3.435C15.0509 3.04826 14.9689 2.74062 14.919 2.51502C14.7139 3.31488 14.1218 5.2984 13.1428 8.45679H16.7217Z" fill="#AFAEAE"/>
<path d="M25.26 6.08897L28.1265 0.437256H31.2628L26.7079 8.82254V14.1637H23.8149V8.91629L19.2571 0.437256H22.4139L25.26 6.08897Z" fill="#AFAEAE"/>
<path d="M40.2729 14.1637H32.3649V0.437256H40.2729V2.82217H35.2754V5.837H39.9241V8.22191H35.2754V11.7612H40.2729V14.1637Z" fill="white"/>
<path d="M50.42 14.1637H42.512V0.437256H50.42V2.82217H45.4225V5.837H50.0712V8.22191H45.4225V11.7612H50.42V14.1637Z" fill="white"/>
<path d="M55.3472 8.89871V14.1666H52.4337V0.437256H56.4347C58.3017 0.437256 59.6823 0.77712 60.5762 1.45685C61.4732 2.13658 61.9187 3.16789 61.9187 4.55079C61.9187 5.35943 61.6959 6.07725 61.2504 6.70717C60.8049 7.33709 60.1776 7.82931 59.3628 8.18675C62.3202 14.1666 59.3628 8.18675 62.3202 14.1666H59.0902L56.8919 8.89871H55.3472ZM55.3472 6.53138H56.2852C57.2055 6.53138 57.8855 6.37902 58.3252 6.07139C58.7619 5.76375 58.9818 5.28326 58.9818 4.62404C58.9818 3.9736 58.7561 3.51069 58.3105 3.23528C57.865 2.95987 57.1704 2.82217 56.2295 2.82217H55.3472V6.53138Z" fill="white"/>
</svg>
