<svg width="53" height="21" viewBox="0 0 53 21" fill="none" xmlns="http://www.w3.org/2000/svg">
<path d="M19.8818 0.902588V16.274H22.2608V11.0187H25.5541C28.5623 11.0187 30.6759 8.94817 30.6759 5.95079C30.6759 2.95342 28.6016 0.902588 25.6327 0.902588H19.8818ZM22.2608 2.91398H25.0036C27.068 2.91398 28.2477 4.01828 28.2477 5.96065C28.2477 7.90303 27.068 9.01719 24.9938 9.01719H22.2608V2.91398ZM35.021 16.3923C36.5152 16.3923 37.9014 15.6331 38.5305 14.4302H38.5797V16.274H40.7817V8.62279C40.7817 6.40434 39.0122 4.97468 36.2891 4.97468C33.7627 4.97468 31.8948 6.42406 31.826 8.41574H33.9691C34.1461 7.4692 35.021 6.84803 36.2203 6.84803C37.6752 6.84803 38.4912 7.52836 38.4912 8.78055V9.62849L35.5223 9.80597C32.7599 9.97358 31.2657 11.1075 31.2657 13.0794C31.2657 15.0711 32.8091 16.3923 35.021 16.3923ZM35.66 14.5682C34.3918 14.5682 33.5857 13.9569 33.5857 13.0203C33.5857 12.054 34.3623 11.492 35.8468 11.4033L38.4912 11.2356V12.1033C38.4912 13.5428 37.2722 14.5682 35.66 14.5682ZM43.7211 20.4545C46.0411 20.4545 47.1323 19.5671 48.0859 16.8754L52.2639 5.12257H49.8456L47.0438 14.2034H46.9947L44.1929 5.12257H41.7058L45.7364 16.3134L45.5201 16.9937C45.1563 18.1473 44.5665 18.591 43.5146 18.591C43.3279 18.591 42.9641 18.5713 42.8167 18.5516V20.3954C42.9543 20.4348 43.5441 20.4545 43.7211 20.4545Z" fill="#888888"/>
<path d="M7.58593 3.93955C8.52967 4.01843 9.47341 3.46628 10.0632 2.76624C10.6433 2.04647 11.0266 1.08022 10.9283 0.0942383C10.0927 0.133677 9.06052 0.646386 8.47069 1.36615C7.93 1.98732 7.46796 2.99301 7.58593 3.93955Z" fill="white"/>
<path d="M7.73339 4.90581C8.38221 4.90581 9.55205 4.04801 10.9185 4.12689C11.4494 4.16633 12.9829 4.32408 13.966 5.78333C13.8874 5.84249 12.1473 6.84819 12.167 8.95818C12.1867 11.4823 14.3691 12.3204 14.3887 12.3401C14.3691 12.3992 14.0446 13.5331 13.2484 14.6966C12.5504 15.722 11.8328 16.7277 10.6924 16.7474C9.59138 16.7671 9.22764 16.0868 7.95949 16.0868C6.70117 16.0868 6.28829 16.7277 5.24624 16.7671C4.14521 16.8066 3.30961 15.6825 2.61164 14.6571C1.1862 12.5866 0.0949995 8.82014 1.56959 6.27632C2.28723 5.00441 3.5947 4.20577 5.00048 4.18605C6.08185 4.16633 7.07474 4.90581 7.73339 4.90581Z" fill="white"/>
</svg>
