<svg width="18" height="21" viewBox="0 0 18 21" fill="none" xmlns="http://www.w3.org/2000/svg">
<path opacity="0.68" d="M15.5372 5.13342C15.7804 3.5824 15.5355 2.52726 14.6967 1.57122C13.7731 0.518924 12.1047 0.0681152 9.97007 0.0681152H3.77367C3.33749 0.0681152 2.96587 0.385509 2.89805 0.816621L0.317674 17.1782C0.266907 17.501 0.516477 17.7928 0.843009 17.7928H4.66839L4.4044 19.4671C4.35993 19.7496 4.57802 20.0048 4.86394 20.0048H8.08845C8.47001 20.0048 8.79492 19.7273 8.85441 19.3502L8.88609 19.1861L9.49347 15.3343L9.53266 15.1215C9.59216 14.7446 9.91706 14.4666 10.2986 14.4666H10.7809C13.9047 14.4666 16.3506 13.1976 17.0652 9.52739C17.3639 7.99383 17.2094 6.71369 16.4197 5.8137C16.1811 5.54199 15.8838 5.317 15.5372 5.13342Z" fill="white"/>
<path opacity="0.7" d="M15.5372 5.13342C15.7804 3.5824 15.5355 2.52726 14.6967 1.57122C13.7731 0.518924 12.1047 0.0681152 9.97007 0.0681152H3.77367C3.33749 0.0681152 2.96587 0.385509 2.89805 0.816621L0.317674 17.1782C0.266907 17.501 0.516477 17.7928 0.843009 17.7928H4.66839L5.6293 11.6994L5.59945 11.8905C5.66748 11.4596 6.03564 11.142 6.47203 11.142H8.2903C11.861 11.142 14.6571 9.69127 15.4738 5.4959C15.4982 5.37203 15.5187 5.25161 15.5372 5.13342Z" fill="white"/>
<path d="M6.6617 5.15393C6.70251 4.89482 6.86903 4.68241 7.09301 4.57519C7.19475 4.52646 7.30867 4.49924 7.42787 4.49924H12.285C12.8605 4.49924 13.397 4.53702 13.8874 4.61601C14.0276 4.63855 14.164 4.66454 14.2966 4.69399C14.429 4.72343 14.5578 4.75612 14.6822 4.79268C14.7446 4.81075 14.8057 4.83004 14.866 4.84994C15.1069 4.92995 15.3312 5.02417 15.5376 5.13363C15.7808 3.5826 15.5359 2.52746 14.6971 1.57142C13.7731 0.518924 12.1047 0.0681152 9.97007 0.0681152H3.77367C3.33749 0.0681152 2.96587 0.385509 2.89805 0.816621L0.317674 17.1782C0.266907 17.501 0.516477 17.7928 0.843009 17.7928H4.66839L5.6293 11.6994L6.6617 5.15393Z" fill="white"/>
</svg>
