<svg width="51" height="21" viewBox="0 0 51 21" fill="none" xmlns="http://www.w3.org/2000/svg">
<path d="M24.3417 10.0458V15.9038H22.4833V1.43701H27.4121C28.0005 1.42472 28.5854 1.52906 29.1332 1.74402C29.681 1.95898 30.1808 2.28029 30.6038 2.68942C31.031 3.07371 31.371 3.545 31.601 4.07161C31.8309 4.59823 31.9455 5.16796 31.937 5.74254C31.9492 6.32018 31.8364 6.89364 31.6063 7.42361C31.3762 7.95358 31.0342 8.42752 30.6038 8.81297C29.7419 9.63482 28.678 10.0454 27.4121 10.0446H24.3417V10.0458ZM24.3417 3.21809V8.26814H27.4583C27.8 8.27826 28.14 8.21697 28.4566 8.08817C28.7732 7.95937 29.0595 7.76591 29.2971 7.52015C29.5334 7.29038 29.7213 7.01554 29.8496 6.7119C29.9779 6.40826 30.044 6.08197 30.044 5.75235C30.044 5.42272 29.9779 5.09644 29.8496 4.79279C29.7213 4.48915 29.5334 4.21432 29.2971 3.98454C29.0625 3.7336 28.7772 3.5354 28.4602 3.40306C28.1432 3.27073 27.8017 3.20728 27.4583 3.21693H24.3417V3.21809Z" fill="#9B9B9B"/>
<path d="M36.2195 5.68237C37.5931 5.68237 38.6774 6.04944 39.4723 6.78357C40.2672 7.51771 40.6643 8.52425 40.6635 9.80321V15.9037H38.8859V14.5301H38.8051C38.0356 15.6613 37.0121 16.2269 35.7347 16.2269C34.6442 16.2269 33.732 15.9037 32.9978 15.2573C32.6455 14.9606 32.3638 14.589 32.1733 14.1697C31.9828 13.7503 31.8883 13.2938 31.8966 12.8332C31.8966 11.809 32.2837 10.9944 33.0578 10.3896C33.832 9.78475 34.8655 9.48155 36.1583 9.48001C37.2618 9.48001 38.1706 9.68201 38.8847 10.086V9.66124C38.8868 9.34729 38.8191 9.0368 38.6863 8.7523C38.5535 8.4678 38.3591 8.21641 38.1171 8.01636C37.6257 7.57297 36.9852 7.33104 36.3234 7.33879C35.2853 7.33879 34.4638 7.77665 33.8589 8.65238L32.2221 7.62159C33.1225 6.32878 34.4549 5.68237 36.2195 5.68237ZM33.8151 12.8736C33.8138 13.1102 33.8691 13.3436 33.9763 13.5544C34.0835 13.7652 34.2396 13.9474 34.4315 14.0857C34.8425 14.409 35.3526 14.5802 35.8755 14.5705C36.6597 14.5692 37.4114 14.257 37.9659 13.7024C38.5815 13.123 38.8894 12.4431 38.8894 11.6628C38.3099 11.2011 37.5019 10.9702 36.4653 10.9702C35.7104 10.9702 35.0809 11.1522 34.5769 11.5162C34.0679 11.8856 33.8151 12.3346 33.8151 12.8736Z" fill="#9B9B9B"/>
<path d="M50.8676 6.00513L44.6621 20.2665H42.7436L45.0464 15.2764L40.966 6.00513H42.986L45.9353 13.1156H45.9757L48.8441 6.00513H50.8676Z" fill="#9B9B9B"/>
<path d="M16.832 8.78266C16.8327 8.21631 16.7848 7.65094 16.6888 7.09277H8.85117V10.2936H13.3402C13.2484 10.8049 13.0539 11.2922 12.7687 11.7263C12.4834 12.1603 12.1132 12.5321 11.6803 12.8192V14.897H14.3595C15.9282 13.4506 16.832 11.3117 16.832 8.78266Z" fill="white"/>
<path d="M8.85113 16.9046C11.0939 16.9046 12.9824 16.1682 14.3594 14.8985L11.6803 12.8207C10.9346 13.3263 9.97426 13.6149 8.85113 13.6149C6.68336 13.6149 4.84341 12.1536 4.18546 10.1843H1.42554V12.3255C2.11727 13.702 3.17796 14.8591 4.4892 15.6677C5.80044 16.4763 7.31062 16.9046 8.85113 16.9046Z" fill="white"/>
<path d="M4.18542 10.1843C3.83758 9.15239 3.83758 8.03493 4.18542 7.00304V4.86182H1.42549C0.843585 6.01975 0.540527 7.29773 0.540527 8.59366C0.540527 9.88959 0.843585 11.1676 1.42549 12.3255L4.18542 10.1843Z" fill="white"/>
<path d="M8.85113 3.57227C10.0363 3.55291 11.1816 4.00072 12.0393 4.81892L14.4114 2.44683C12.9072 1.03406 10.9146 0.258427 8.85113 0.282528C7.31062 0.282598 5.80044 0.710835 4.4892 1.51943C3.17796 2.32802 2.11727 3.48515 1.42554 4.86162L4.18546 7.00285C4.84341 5.03361 6.68336 3.57227 8.85113 3.57227Z" fill="white"/>
</svg>
