<svg width="19" height="20" viewBox="0 0 19 20" fill="none" xmlns="http://www.w3.org/2000/svg">
<path fill-rule="evenodd" clip-rule="evenodd" d="M5.60746 17.291C4.6903 17.2492 4.1918 17.0964 3.86051 16.9674C3.42131 16.7964 3.10794 16.5928 2.77847 16.2638C2.44899 15.9347 2.24504 15.6217 2.07481 15.1825C1.94567 14.8514 1.7929 14.3527 1.7512 13.4356C1.7056 12.4441 1.69649 12.1462 1.69649 9.63416C1.69649 7.12209 1.70635 6.82506 1.7512 5.83269C1.79297 4.91556 1.94687 4.4179 2.07481 4.08581C2.24579 3.64662 2.44944 3.33327 2.77847 3.0038C3.10749 2.67434 3.42056 2.4704 3.86051 2.30017C4.19165 2.17104 4.6903 2.01827 5.60746 1.97658C6.59905 1.93098 6.89692 1.92187 9.40796 1.92187C11.919 1.92187 12.2172 1.93173 13.2096 1.97658C14.1267 2.01835 14.6244 2.17224 14.9565 2.30017C15.3957 2.4704 15.7091 2.67479 16.0386 3.0038C16.3681 3.33281 16.5712 3.64662 16.7422 4.08581C16.8714 4.41693 17.0241 4.91556 17.0658 5.83269C17.1114 6.82506 17.1206 7.12209 17.1206 9.63416C17.1206 12.1462 17.1114 12.4432 17.0658 13.4356C17.0241 14.3527 16.8705 14.8512 16.7422 15.1825C16.5712 15.6217 16.3676 15.935 16.0386 16.2638C15.7096 16.5925 15.3957 16.7964 14.9565 16.9674C14.6254 17.0965 14.1267 17.2493 13.2096 17.291C12.218 17.3366 11.9201 17.3457 9.40796 17.3457C6.89579 17.3457 6.59875 17.3366 5.60746 17.291ZM9.40796 14.4644C6.74008 14.4644 4.57749 12.3018 4.57749 9.63408C4.57749 6.96632 6.74008 4.80381 9.40796 4.80381C12.0758 4.80381 14.2384 6.96632 14.2384 9.63408C14.2384 12.3018 12.0758 14.4644 9.40796 14.4644ZM13.4908 5.2395C13.3668 5.05382 13.3007 4.83555 13.3008 4.61229C13.3011 4.31303 13.4201 4.02611 13.6317 3.81454C13.8434 3.60298 14.1308 3.48406 14.4301 3.48392C14.6534 3.48401 14.8716 3.5503 15.0572 3.67441C15.2428 3.79852 15.3874 3.97488 15.4728 4.18118C15.5581 4.38747 15.5804 4.61445 15.5367 4.8334C15.4931 5.05235 15.3855 5.25345 15.2276 5.41125C15.0696 5.56905 14.8684 5.67648 14.6494 5.71995C14.4304 5.76342 14.2035 5.74097 13.9972 5.65545C13.791 5.56993 13.6148 5.42518 13.4908 5.2395Z" fill="#B0B0B0"/>
<path fill-rule="evenodd" clip-rule="evenodd" d="M5.60746 17.291C4.6903 17.2492 4.1918 17.0964 3.86051 16.9674C3.42131 16.7964 3.10794 16.5928 2.77847 16.2638C2.44899 15.9347 2.24504 15.6217 2.07481 15.1825C1.94567 14.8514 1.7929 14.3527 1.7512 13.4356C1.7056 12.4441 1.69649 12.1462 1.69649 9.63416C1.69649 7.12209 1.70635 6.82506 1.7512 5.83269C1.79297 4.91556 1.94687 4.4179 2.07481 4.08581C2.24579 3.64662 2.44944 3.33327 2.77847 3.0038C3.10749 2.67434 3.42056 2.4704 3.86051 2.30017C4.19165 2.17104 4.6903 2.01827 5.60746 1.97658C6.59905 1.93098 6.89692 1.92187 9.40796 1.92187C11.919 1.92187 12.2172 1.93173 13.2096 1.97658C14.1267 2.01835 14.6244 2.17224 14.9565 2.30017C15.3957 2.4704 15.7091 2.67479 16.0386 3.0038C16.3681 3.33281 16.5712 3.64662 16.7422 4.08581C16.8714 4.41693 17.0241 4.91556 17.0658 5.83269C17.1114 6.82506 17.1206 7.12209 17.1206 9.63416C17.1206 12.1462 17.1114 12.4432 17.0658 13.4356C17.0241 14.3527 16.8705 14.8512 16.7422 15.1825C16.5712 15.6217 16.3676 15.935 16.0386 16.2638C15.7096 16.5925 15.3957 16.7964 14.9565 16.9674C14.6254 17.0965 14.1267 17.2493 13.2096 17.291C12.218 17.3366 11.9201 17.3457 9.40796 17.3457C6.89579 17.3457 6.59875 17.3366 5.60746 17.291ZM5.52957 0.284262C4.52812 0.329867 3.84381 0.488653 3.24619 0.721189C2.62727 0.961325 2.10333 1.28349 1.57977 1.80621C1.0562 2.32892 0.734853 2.85367 0.494707 3.47256C0.262162 4.07053 0.103369 4.75444 0.0577632 5.75585C0.0114047 6.75884 0.000793457 7.0795 0.000793457 9.63408C0.000793457 12.1887 0.0114047 12.5093 0.0577632 13.5123C0.103369 14.5138 0.262162 15.1976 0.494707 15.7956C0.734853 16.4141 1.05628 16.9395 1.57977 17.462C2.10326 17.9844 2.62727 18.3062 3.24619 18.547C3.84494 18.7795 4.52812 18.9383 5.52957 18.9839C6.53313 19.0295 6.85327 19.0409 9.40796 19.0409C11.9626 19.0409 12.2833 19.0303 13.2863 18.9839C14.2879 18.9383 14.9717 18.7795 15.5697 18.547C16.1883 18.3062 16.7126 17.9847 17.2361 17.462C17.7597 16.9392 18.0804 16.4141 18.3212 15.7956C18.5538 15.1976 18.7133 14.5137 18.7581 13.5123C18.8038 12.5086 18.8144 12.1887 18.8144 9.63408C18.8144 7.0795 18.8038 6.75884 18.7581 5.75585C18.7125 4.75437 18.5538 4.07015 18.3212 3.47256C18.0804 2.85405 17.7589 2.32975 17.2361 1.80621C16.7134 1.28266 16.1883 0.961325 15.5705 0.721189C14.9717 0.488653 14.2878 0.329114 13.2871 0.284262C12.2841 0.238658 11.9634 0.227295 9.40871 0.227295C6.85402 0.227295 6.53313 0.237906 5.52957 0.284262Z" fill="#B0B0B0"/>
<path d="M6.27274 9.63408C6.27274 7.9024 7.67621 6.49823 9.40796 6.49823C11.1397 6.49823 12.5439 7.9024 12.5439 9.63408C12.5439 11.3658 11.1397 12.7699 9.40796 12.7699C7.67621 12.7699 6.27274 11.3658 6.27274 9.63408Z" fill="#B0B0B0"/>
</svg>
