<svg width="20" height="18" viewBox="0 0 20 18" fill="none" xmlns="http://www.w3.org/2000/svg">
<path fill-rule="evenodd" clip-rule="evenodd" d="M13.9757 17.0551C15.0747 17.5359 15.4868 16.5285 15.4868 16.5285L18.3946 1.92086C18.3717 0.936335 17.0437 1.53163 17.0437 1.53163L0.764725 7.91959C0.764725 7.91959 -0.0137365 8.19434 0.0549513 8.67516C0.123639 9.15597 0.741829 9.38493 0.741829 9.38493L4.8402 10.7587C4.8402 10.7587 6.07658 14.8113 6.32843 15.5897C6.55739 16.3453 6.76346 16.3682 6.76346 16.3682C6.99242 16.4598 7.19848 16.2995 7.19848 16.2995L9.85441 13.8954L13.9757 17.0551ZM14.6854 4.50796C14.6854 4.50796 15.2578 4.16452 15.2349 4.50796C15.2349 4.50796 15.3265 4.55375 15.0288 4.8743C14.7541 5.14905 8.27453 10.9646 7.40448 11.7431C7.3358 11.7889 7.29001 11.8576 7.29001 11.9491L7.03815 14.1014C6.99236 14.3303 6.69471 14.3532 6.62602 14.1471L5.54991 10.6212C5.50412 10.4838 5.54991 10.3235 5.68729 10.2319L14.6854 4.50796Z" fill="#B0B0B0"/>
</svg>
