<svg width="31" height="19" viewBox="0 0 31 19" fill="none" xmlns="http://www.w3.org/2000/svg">
<path fill-rule="evenodd" clip-rule="evenodd" d="M30.3102 2.04344C30.5195 1.35817 30.3102 0.854492 29.3142 0.854492H26.0211C25.1837 0.854492 24.7979 1.28955 24.5886 1.76943C24.5886 1.76943 22.9138 5.77873 20.5413 8.38306C19.7738 9.13695 19.4249 9.37655 19.0062 9.37655C18.7969 9.37655 18.4939 9.13695 18.4939 8.45168V2.04344C18.4939 1.22093 18.2509 0.854492 17.553 0.854492H12.3781C11.8549 0.854492 11.5402 1.23618 11.5402 1.59799C11.5402 2.37776 12.7262 2.55752 12.8485 4.75058V9.51402C12.8485 10.5583 12.6566 10.7478 12.2379 10.7478C11.1215 10.7478 8.40606 6.72023 6.79525 2.11206C6.47958 1.21631 6.16296 0.854492 5.32133 0.854492H2.02819C1.08729 0.854492 0.899109 1.28955 0.899109 1.76943C0.899109 2.62614 2.01572 6.8755 6.09757 12.4954C8.81912 16.333 12.6528 18.4138 16.1417 18.4138C18.2352 18.4138 18.4939 17.9517 18.4939 17.1558V14.255C18.4939 13.3309 18.6922 13.1465 19.3548 13.1465C19.8436 13.1465 20.6808 13.3863 22.6348 15.2367C24.8675 17.4296 25.2354 18.4138 26.4915 18.4138H29.7847C30.7256 18.4138 31.196 17.9517 30.9246 17.0398C30.6277 16.1309 29.5617 14.8125 28.147 13.2493C27.3795 12.3582 26.2281 11.3986 25.8795 10.919C25.3909 10.3021 25.5304 10.0281 25.8795 9.48005C25.8795 9.48005 29.8915 3.92853 30.3102 2.04368V2.04344Z" fill="#B0B0B0"/>
</svg>
