<svg width="26" height="18" viewBox="0 0 26 18" fill="none" xmlns="http://www.w3.org/2000/svg">
<path fill-rule="evenodd" clip-rule="evenodd" d="M22.6563 0.579539C23.706 0.862152 24.5337 1.6898 24.8163 2.73951C25.3411 4.65724 25.3209 8.65418 25.3209 8.65418C25.3209 8.65418 25.3209 12.6309 24.8163 14.5487C24.5337 15.5984 23.706 16.426 22.6563 16.7086C20.7386 17.2133 13.0677 17.2133 13.0677 17.2133C13.0677 17.2133 5.41694 17.2133 3.47902 16.6885C2.42932 16.4058 1.60167 15.5782 1.31906 14.5285C0.814392 12.6309 0.814392 8.634 0.814392 8.634C0.814392 8.634 0.814392 4.65724 1.31906 2.73951C1.60167 1.6898 2.44951 0.841965 3.47902 0.559353C5.39675 0.0546875 13.0677 0.0546875 13.0677 0.0546875C13.0677 0.0546875 20.7386 0.0546875 22.6563 0.579539ZM17.004 8.63396L10.6251 12.3079V4.95999L17.004 8.63396Z" fill="#B0B0B0"/>
</svg>
