<svg width="19" height="23" viewBox="0 0 19 23" fill="none" xmlns="http://www.w3.org/2000/svg">
<path d="M9.75792 6.67662C8.86186 6.67662 7.47481 5.64911 6.01412 5.68625C4.08699 5.71101 2.31942 6.8128 1.32517 8.55833C-0.675615 12.0618 0.809629 17.2365 2.76131 20.0838C3.71874 21.4703 4.84802 23.0301 6.34554 22.9806C7.78168 22.9187 8.32177 22.0398 10.0648 22.0398C11.7955 22.0398 12.2865 22.9806 13.8086 22.9435C15.3552 22.9187 16.3372 21.5322 17.2823 20.1333C18.3748 18.524 18.829 16.9641 18.8535 16.8775C18.8167 16.8651 15.8462 15.7138 15.8094 12.2475C15.7848 9.35063 18.1538 7.96411 18.2643 7.90221C16.9141 5.90908 14.8397 5.68625 14.1155 5.63673C12.2251 5.48818 10.6417 6.67662 9.75792 6.67662ZM12.9494 3.75502C13.7472 2.78941 14.275 1.44003 14.1277 0.103027C12.9862 0.152546 11.6114 0.870565 10.789 1.83618C10.0525 2.69037 9.41422 4.06452 9.58607 5.37676C10.8504 5.4758 12.1515 4.72064 12.9494 3.75502Z" fill="white" fill-opacity="0.3"/>
</svg>
