<svg width="63" height="15" viewBox="0 0 63 15" fill="none" xmlns="http://www.w3.org/2000/svg">
<path d="M9.75176 4.76149C9.75176 6.23815 9.28865 7.36907 8.36536 8.15135C7.44207 8.93362 6.12896 9.32622 4.42601 9.32622H3.17444V14.2074H0.263893V0.478027H4.6517C6.31655 0.478027 7.58277 0.835471 8.45036 1.55329C9.31796 2.27111 9.75176 3.34051 9.75176 4.76149ZM3.17444 6.93838H4.1329C5.02688 6.93838 5.69809 6.76259 6.14361 6.40808C6.58913 6.05356 6.80896 5.54084 6.80896 4.86404C6.80896 4.18138 6.62138 3.67744 6.24913 3.35223C5.87689 3.02701 5.2936 2.86294 4.49635 2.86294H3.17444V6.93838Z" fill="#AFAEAE"/>
<path d="M18.4129 14.2077L17.4163 10.9409H12.4101L11.4135 14.2077H8.27726L13.1252 0.425598H16.6865L21.5521 14.2077H18.4129ZM16.7217 8.50031C15.8013 5.54115 15.2825 3.86526 15.1682 3.47852C15.051 3.09178 14.9689 2.78414 14.9191 2.55854C14.7139 3.3584 14.1218 5.34192 13.1428 8.50031H16.7217Z" fill="#AFAEAE"/>
<path d="M25.26 6.13246L28.1265 0.480743H31.2628L26.7079 8.86602V14.2072H23.8149V8.95978L19.2571 0.480743H22.4139L25.26 6.13246Z" fill="#AFAEAE"/>
<path d="M40.2729 14.2072H32.3649V0.480743H40.2729V2.86566H35.2754V5.88049H39.9241V8.2654H35.2754V11.8047H40.2729V14.2072Z" fill="white"/>
<path d="M50.42 14.2072H42.512V0.480743H50.42V2.86566H45.4225V5.88049H50.0712V8.2654H45.4225V11.8047H50.42V14.2072Z" fill="white"/>
<path d="M55.3472 8.9422V14.2101H52.4338V0.480743H56.4347C58.3018 0.480743 59.6823 0.820608 60.5763 1.50034C61.4732 2.18007 61.9187 3.21138 61.9187 4.59428C61.9187 5.40292 61.6959 6.12074 61.2504 6.75066C60.8049 7.38058 60.1776 7.8728 59.3628 8.23024C62.3203 14.2101 59.3628 8.23024 62.3202 14.2101H59.0902L56.8919 8.9422H55.3472ZM55.3472 6.57487H56.2852C57.2055 6.57487 57.8855 6.42251 58.3252 6.11488C58.7619 5.80724 58.9818 5.32674 58.9818 4.66752C58.9818 4.01709 58.7561 3.55417 58.3106 3.27877C57.865 3.00336 57.1704 2.86565 56.2295 2.86565H55.3472V6.57487Z" fill="white"/>
</svg>
