<svg width="20" height="20" viewBox="0 0 20 20" fill="none" xmlns="http://www.w3.org/2000/svg">
<path d="M16.95 7.76673L5.28336 1.9334C4.82293 1.70424 4.30304 1.62266 3.79455 1.69978C3.28607 1.77689 2.81374 2.00896 2.44197 2.36433C2.07019 2.7197 1.81707 3.18108 1.7171 3.68557C1.61713 4.19007 1.67519 4.71311 1.88336 5.1834L3.88336 9.6584C3.92874 9.76659 3.95211 9.88274 3.95211 10.0001C3.95211 10.1174 3.92874 10.2335 3.88336 10.3417L1.88336 14.8167C1.71394 15.1973 1.64232 15.6142 1.675 16.0295C1.70769 16.4449 1.84364 16.8454 2.07051 17.1948C2.29737 17.5442 2.60796 17.8314 2.97404 18.0302C3.34012 18.2291 3.75009 18.3333 4.16669 18.3334C4.55688 18.3295 4.94126 18.2384 5.29169 18.0667L16.9584 12.2334C17.3722 12.0252 17.72 11.7062 17.9631 11.3118C18.2062 10.9174 18.3349 10.4633 18.3349 10.0001C18.3349 9.53682 18.2062 9.08269 17.9631 8.68833C17.72 8.29398 17.3722 7.97491 16.9584 7.76673H16.95ZM16.2084 10.7417L4.54169 16.5751C4.38849 16.6486 4.21647 16.6736 4.04868 16.6466C3.88089 16.6196 3.72536 16.542 3.60295 16.4241C3.48054 16.3062 3.39709 16.1537 3.3638 15.9871C3.33051 15.8204 3.34896 15.6476 3.41669 15.4917L5.40836 11.0167C5.43414 10.957 5.4564 10.8958 5.47502 10.8334H11.2167C11.4377 10.8334 11.6497 10.7456 11.8059 10.5893C11.9622 10.433 12.05 10.2211 12.05 10.0001C12.05 9.77905 11.9622 9.56709 11.8059 9.41081C11.6497 9.25453 11.4377 9.16673 11.2167 9.16673H5.47502C5.4564 9.10437 5.43414 9.04316 5.40836 8.9834L3.41669 4.5084C3.34896 4.35254 3.33051 4.17969 3.3638 4.01304C3.39709 3.84639 3.48054 3.6939 3.60295 3.57602C3.72536 3.45814 3.88089 3.38051 4.04868 3.35353C4.21647 3.32654 4.38849 3.35151 4.54169 3.42507L16.2084 9.2584C16.3449 9.32833 16.4594 9.43458 16.5394 9.56544C16.6194 9.6963 16.6617 9.84669 16.6617 10.0001C16.6617 10.1534 16.6194 10.3038 16.5394 10.4347C16.4594 10.5656 16.3449 10.6718 16.2084 10.7417Z" fill="#8989A3"/>
</svg>
