<svg width="20" height="18" viewBox="0 0 20 18" fill="none" xmlns="http://www.w3.org/2000/svg">
<path fill-rule="evenodd" clip-rule="evenodd" d="M13.9757 17.1109C15.0747 17.5917 15.4869 16.5843 15.4869 16.5843L18.3946 1.97671C18.3718 0.992182 17.0438 1.58748 17.0438 1.58748L0.764786 7.97544C0.764786 7.97544 -0.0136754 8.25019 0.0550123 8.73101C0.1237 9.21182 0.74189 9.44078 0.74189 9.44078L4.84026 10.8145C4.84026 10.8145 6.07664 14.8671 6.3285 15.6456C6.55745 16.4011 6.76352 16.424 6.76352 16.424C6.99248 16.5156 7.19854 16.3553 7.19854 16.3553L9.85447 13.9513L13.9757 17.1109ZM14.6855 4.56381C14.6855 4.56381 15.2578 4.22037 15.235 4.56381C15.235 4.56381 15.3265 4.6096 15.0289 4.93014C14.7541 5.2049 8.27459 11.0205 7.40455 11.7989C7.33586 11.8447 7.29007 11.9134 7.29007 12.005L7.03821 14.1572C6.99242 14.3862 6.69477 14.4091 6.62608 14.203L5.54998 10.677C5.50418 10.5396 5.54998 10.3794 5.68735 10.2878L14.6855 4.56381Z" fill="#B0B0B0"/>
</svg>
