<svg width="31" height="19" viewBox="0 0 31 19" fill="none" xmlns="http://www.w3.org/2000/svg">
<path fill-rule="evenodd" clip-rule="evenodd" d="M30.3102 2.09917C30.5195 1.41389 30.3102 0.910217 29.3142 0.910217H26.0211C25.1837 0.910217 24.7979 1.34527 24.5886 1.82515C24.5886 1.82515 22.9138 5.83446 20.5413 8.43878C19.7738 9.19268 19.4249 9.43227 19.0062 9.43227C18.7969 9.43227 18.4939 9.19268 18.4939 8.5074V2.09917C18.4939 1.27665 18.2509 0.910217 17.553 0.910217H12.3781C11.8549 0.910217 11.5402 1.2919 11.5402 1.65372C11.5402 2.43349 12.7262 2.61324 12.8485 4.80631V9.56974C12.8485 10.6141 12.6566 10.8035 12.2379 10.8035C11.1215 10.8035 8.40606 6.77596 6.79525 2.16779C6.47958 1.27203 6.16296 0.910217 5.32133 0.910217H2.02819C1.08729 0.910217 0.899109 1.34527 0.899109 1.82515C0.899109 2.68186 2.01572 6.93122 6.09757 12.5511C8.81912 16.3888 12.6528 18.4696 16.1417 18.4696C18.2352 18.4696 18.4939 18.0075 18.4939 17.2115V14.3108C18.4939 13.3866 18.6922 13.2022 19.3548 13.2022C19.8436 13.2022 20.6808 13.442 22.6348 15.2925C24.8675 17.4853 25.2354 18.4696 26.4915 18.4696H29.7847C30.7256 18.4696 31.196 18.0075 30.9246 17.0955C30.6277 16.1866 29.5617 14.8683 28.147 13.305C27.3795 12.4139 26.2281 11.4544 25.8795 10.9747C25.3909 10.3578 25.5304 10.0838 25.8795 9.53578C25.8795 9.53578 29.8915 3.98426 30.3102 2.0994V2.09917Z" fill="#B0B0B0"/>
</svg>
