<svg width="21" height="21" viewBox="0 0 21 21" fill="none" xmlns="http://www.w3.org/2000/svg">
<path d="M10.4929 0.0799561C12.0533 0.0799561 13.5378 0.442961 14.87 1.09231C15.0789 1.18802 15.2892 1.30258 15.4974 1.41723L14.584 2.23885L13.2146 0.806068L10.855 2.90725L9.46552 1.39789L5.12657 5.3142L7.9045 8.38985L6.82003 9.34477L9.56075 12.4204L8.47617 13.3749L12.3966 17.7497L14.7169 15.61L16.7351 17.903C16.3351 18.2087 15.8974 18.515 15.4222 18.782C13.9757 19.6033 12.3008 20.08 10.5122 20.08C5.01198 20.08 0.54059 15.5917 0.54059 10.0714C0.521167 4.58838 4.99335 0.0799561 10.4929 0.0799561ZM8.66576 9.45963L11.0446 7.31996L13.1764 9.70778L10.7971 11.8472L8.66576 9.45963ZM10.3599 13.586L12.7194 11.4274L14.87 13.815L12.4911 15.9548L10.3599 13.586ZM6.97309 5.39087L9.35124 3.25121L11.4826 5.63902L9.10364 7.77858L6.97309 5.39087ZM11.3301 4.24432L13.1001 2.63975L14.699 4.41641L12.929 6.03993L11.3301 4.24432ZM14.4895 11.599L16.2588 9.99431L17.8576 11.7895L16.0876 13.3952L14.4895 11.599ZM16.0497 15.2098L17.8197 13.6049L19.4173 15.3814L17.6479 17.0047L16.0497 15.2098ZM16.773 6.95696L17.9527 5.88708L19.018 7.07191L17.8385 8.14139L16.773 6.95696ZM15.2505 3.42289L16.4303 2.33426L17.4964 3.53755L16.3158 4.60733L15.2505 3.42289ZM18.2762 10.4913L19.4559 9.42154L20.5405 10.606L19.3421 11.6755L18.2762 10.4913ZM12.9669 7.83591L14.737 6.23124L16.3351 8.0075L14.5658 9.61247L12.9669 7.83591Z" fill="white"/>
</svg>
