<svg width="26" height="18" viewBox="0 0 26 18" fill="none" xmlns="http://www.w3.org/2000/svg">
<path fill-rule="evenodd" clip-rule="evenodd" d="M22.6563 0.635417C23.706 0.91803 24.5337 1.74568 24.8163 2.79538C25.3411 4.71311 25.3209 8.71006 25.3209 8.71006C25.3209 8.71006 25.3209 12.6868 24.8163 14.6046C24.5337 15.6543 23.706 16.4819 22.6563 16.7645C20.7386 17.2692 13.0677 17.2692 13.0677 17.2692C13.0677 17.2692 5.41694 17.2692 3.47902 16.7443C2.42932 16.4617 1.60167 15.6341 1.31906 14.5844C0.814392 12.6868 0.814392 8.68988 0.814392 8.68988C0.814392 8.68988 0.814392 4.71311 1.31906 2.79538C1.60167 1.74568 2.44951 0.897843 3.47902 0.615231C5.39675 0.110565 13.0677 0.110565 13.0677 0.110565C13.0677 0.110565 20.7386 0.110565 22.6563 0.635417ZM17.004 8.68983L10.6251 12.3638V5.01587L17.004 8.68983Z" fill="#B0B0B0"/>
</svg>
