<svg width="22" height="22" viewBox="0 0 22 22" fill="none" xmlns="http://www.w3.org/2000/svg">
<g clip-path="url(#clip0_206_172)">
<path d="M5.8553 6.2819H19.2695C19.7899 6.2819 20.0012 5.6177 19.5631 5.345C19.1665 5.0977 18.5992 4.93184 17.8083 5.06034C17.6692 5.08276 17.5431 4.97293 17.5585 4.83695C17.6054 4.40736 17.517 3.60868 16.3356 3.25977C16.2426 3.23213 16.178 3.14845 16.1819 3.05356C16.1942 2.7069 16.1096 1.94483 15.0835 2.24293C15.002 2.26684 14.9136 2.24293 14.8575 2.18017C14.5877 1.87908 13.7261 1.08339 12.5985 1.68856C12.5163 1.73264 12.4148 1.72293 12.3472 1.66017C11.8645 1.21937 9.95519 -0.27862 8.90293 2.49546C8.86757 2.58885 8.76919 2.64488 8.6685 2.62919C8.2127 2.55598 7.02285 2.50293 7.17735 3.98672C7.18888 4.09879 7.10663 4.19966 6.99134 4.2131C6.59011 4.25943 5.7254 4.45816 5.25038 5.31362C5.0075 5.75069 5.34493 6.28115 5.8553 6.28115V6.2819Z" stroke="black" stroke-width="0.75" stroke-miterlimit="10"/>
<path d="M0.804713 10.1618H7.81234C8.04754 10.1618 8.18897 9.90848 8.06061 9.71646C7.89536 9.46917 7.60942 9.21738 7.13671 9.25549C7.03833 9.2637 6.95762 9.186 6.96377 9.09037C6.98145 8.82589 6.91842 8.39181 6.31043 8.41796C6.21358 8.42244 6.12596 8.36416 6.09522 8.27451C5.96685 7.89347 5.54564 7.02531 4.54873 7.86882C4.488 7.91962 4.40499 7.93905 4.32813 7.91664C4.08217 7.84491 3.53029 7.73434 3.302 8.08623C3.26434 8.14451 3.19593 8.17514 3.12522 8.17141C2.9223 8.16169 2.54182 8.20428 2.51569 8.64882C2.51031 8.73325 2.4273 8.79152 2.34352 8.76911C2.01685 8.68095 1.29049 8.64359 0.538764 9.65445C0.381194 9.86589 0.53646 10.1618 0.804713 10.1618Z" stroke="black" stroke-width="0.75" stroke-miterlimit="10"/>
<path d="M13.994 10.9679H20.3621C20.5866 10.9679 20.728 10.7363 20.6242 10.5428C20.4428 10.2058 20.1016 9.7934 19.5205 9.8061C19.3867 9.80909 19.2614 9.74483 19.1823 9.64024C18.9325 9.30702 18.3291 8.70558 17.5497 9.31972C17.4406 9.40564 17.2976 9.44075 17.1615 9.40713C16.7695 9.30926 15.9509 9.20915 15.6235 9.94507C15.5528 10.1042 15.3622 10.1759 15.1954 10.1147C14.8287 9.97869 14.2261 9.90547 13.7803 10.6033C13.6789 10.7624 13.8003 10.9686 13.9932 10.9686L13.994 10.9679Z" stroke="black" stroke-width="0.75" stroke-miterlimit="10"/>
<path d="M6.65059 21.2767H14.486C14.8327 21.2767 15.0671 20.9286 14.9234 20.6215C14.3608 19.4261 12.7605 17.3259 11.2324 15.9265C11.2324 15.9265 8.90269 14.1925 11.1778 13.544C11.5068 13.4506 11.8489 13.4095 12.1917 13.4095H17.0879C17.4261 13.4095 17.7581 13.2989 18.0156 13.086C18.4038 12.7647 18.8334 12.1864 18.6297 11.2705C18.5913 11.0964 18.4345 10.9709 18.2508 10.9709H17.4653C17.2708 10.9709 17.1063 11.1113 17.0817 11.2996C17.0371 11.6418 16.9557 12.0079 16.6805 12.0706C16.6805 12.0706 16.3308 12.0945 16.0587 12.0646C15.8765 12.0445 15.7589 11.8667 15.8173 11.6978C15.868 11.5506 15.9718 11.3541 16.1801 11.1315C16.2147 11.0949 16.2478 11.0568 16.277 11.0157L16.31 10.9701H16.2677H15.4353C15.1163 10.9701 14.8104 11.0934 14.5875 11.3145C14.4799 11.4214 14.3684 11.5439 14.2801 11.6679C14.1855 11.8009 14.0787 11.9257 13.9488 12.0273C13.6874 12.2328 13.2416 12.4771 12.6944 12.356C12.2378 12.2552 11.8558 11.9369 11.6805 11.514C11.4907 11.056 11.4738 10.356 12.4838 9.63201C12.4838 9.63201 14.0325 8.7631 14.4161 8.20499C14.4714 8.12505 14.6106 7.90764 14.669 7.82994C14.9564 7.44816 15.5606 6.68385 15.9488 6.5389C16.4445 6.35362 16.0902 6.28189 16.0902 6.28189H14.6113C14.6113 6.28189 14.1525 7.73356 13.3031 8.22965C12.9734 8.42241 12.5368 8.35143 12.3216 8.04137C12.1917 7.85384 12.1425 7.58563 12.3784 7.22551C12.3784 7.22551 12.7428 6.837 13.1894 6.64275C13.1894 6.64275 13.6129 6.36632 13.5652 6.28189H10.7559C10.7559 6.28189 11.33 8.13476 10.8135 8.22218C10.8135 8.22218 10.2055 8.23936 9.72282 7.85011C9.68362 7.81873 9.64442 7.78735 9.60215 7.75896C9.41921 7.63718 8.86272 7.24792 8.7528 6.93637C8.7528 6.93637 8.69131 6.64425 8.3216 6.60315C8.18709 6.58821 8.09255 6.73166 8.15711 6.84747C8.40461 7.29649 8.98032 8.26701 9.45072 8.50011C9.45072 8.50011 10.3239 8.99695 10.3239 9.30999C10.3239 9.30999 10.4976 10.4703 9.21091 11.1464C9.21091 11.1464 8.49762 11.6029 6.77588 11.4849C6.77588 11.4849 6.24014 11.4206 5.74898 11.4005C5.21863 11.378 4.71748 11.1225 4.42847 10.6899C4.32624 10.5368 4.24861 10.3605 4.22248 10.1625H3.03955C3.03955 10.1625 3.36161 11.0022 3.96806 11.6515C4.22863 11.9302 4.55299 12.1483 4.91886 12.2716C5.27781 12.3919 5.83661 12.4786 6.9788 12.3306C7.22169 12.2992 7.4738 12.3717 7.64367 12.5436C7.77356 12.6743 7.8535 12.8611 7.73129 13.1106C7.68056 13.2137 7.60293 13.3019 7.513 13.3751C7.49378 13.3908 7.47226 13.4087 7.4492 13.4296C6.83737 13.9736 6.66289 14.841 6.99187 15.5814C7.15328 15.9437 7.41923 16.4211 7.79893 16.72C7.91576 16.8119 8.37925 17.172 8.4784 17.2826C8.82583 17.6703 9.15249 18.2516 8.8143 18.6057C8.8143 18.6057 8.18478 19.3887 7.19325 19.763C6.94882 19.8557 6.71439 19.973 6.50839 20.1306C6.42 20.1979 6.32853 20.2756 6.24398 20.3615C5.90425 20.7052 6.15713 21.2782 6.64752 21.2782L6.65059 21.2767Z" stroke="black" stroke-width="0.75" stroke-miterlimit="10"/>
</g>
<defs>
<clipPath id="clip0_206_172">
<rect width="22" height="22" fill="white"/>
</clipPath>
</defs>
</svg>
